<?xml version="1.0" encoding="UTF-8"?>
<svg xmlns="http://www.w3.org/2000/svg" xmlns:xlink="http://www.w3.org/1999/xlink" viewBox="0 0 98 77.97">
  <defs>
    <style>
      .cls-1, .cls-2 {
        fill: #b4703d;
      }

      .cls-1, .cls-3 {
        mix-blend-mode: screen;
      }

      .cls-1, .cls-4 {
        opacity: .5;
      }

      .cls-5 {
        fill: #fff;
      }

      .cls-6 {
        fill: #e6be8a;
      }

      .cls-7, .cls-4 {
        fill: #fcfbe6;
      }

      .cls-8 {
        fill: #7fa100;
      }

      .cls-9 {
        fill: #d6b300;
      }

      .cls-10 {
        fill: #9c5723;
      }

      .cls-11 {
        fill: #b8b5aa;
        mix-blend-mode: multiply;
      }

      .cls-3 {
        fill: url(#linear-gradient);
        opacity: .6;
      }

      .cls-12 {
        isolation: isolate;
      }
    </style>
    <linearGradient id="linear-gradient" x1="37.08" y1="10.63" x2="71.97" y2="49.56" gradientUnits="userSpaceOnUse">
      <stop offset="0" stop-color="#fff"/>
      <stop offset="1" stop-color="#000"/>
    </linearGradient>
  </defs>
  <g class="cls-12">
    <g id="Layer_2" data-name="Layer 2">
      <g id="_图层_5" data-name="图层 5">
        <g id="_图层_969" data-name="图层 969">
          <path class="cls-11" d="M77.1,69.25c.31-5.51-10.21-10.58-23.5-11.32-13.29-.74-24.31,3.12-24.62,8.63-.31,5.51,10.21,10.58,23.5,11.32,13.29,.74,24.31-3.12,24.62-8.63Z"/>
        </g>
        <g id="_图层_968" data-name="图层 968">
          <path class="cls-10" d="M30.02,65.81c0,3.88,8.5,7.03,18.98,7.03s18.98-3.15,18.98-7.03-8.5-18.57-18.98-18.57-18.98,14.69-18.98,18.57Z"/>
        </g>
        <g id="_图层_967" data-name="图层 967">
          <path class="cls-2" d="M98,18.15C98,8.13,76.06,0,49,0S0,8.13,0,18.15s21.94,47.94,49,47.94S98,28.18,98,18.15Z"/>
        </g>
        <g id="_图层_966" data-name="图层 966">
          <path class="cls-1" d="M5.51,10.76c-3.05,4-4.34,8.33-3.25,12.36,2.62,9.68,25.76,42.69,42.08,38.27,16.32-4.42,19.64-44.6,17.02-54.28-.5-1.85-1.47-3.49-2.81-4.92-3.45-.28-7.03-.44-10.71-.44C29.77,1.75,14.01,5.37,5.51,10.76Z"/>
        </g>
        <g id="_图层_965" data-name="图层 965">
          <path class="cls-6" d="M98,18.15C98,8.13,76.06,0,49,0S0,8.13,0,18.15s21.94,18.15,49,18.15,49-8.13,49-18.15Z"/>
        </g>
        <g id="_图层_964" data-name="图层 964">
          <ellipse class="cls-2" cx="49" cy="17.57" rx="45.96" ry="15.83"/>
        </g>
        <g id="_图层_963" data-name="图层 963">
          <path class="cls-9" d="M49,33.4c18.27,0,34.46-3.9,41.79-9.37-1.53-7.38-20.04-13.44-41.79-13.44S8.74,16.65,7.21,24.03c7.33,5.46,23.52,9.37,41.79,9.37Z"/>
        </g>
        <g id="_图层_962" data-name="图层 962">
          <path class="cls-3" d="M14.01,27.69c8.5,3.46,21.14,5.71,34.99,5.71,16.69,0,31.62-3.26,39.67-7.99-5.38-6.58-19.96-11.44-36.6-11.44-18.51,0-34.48,6.02-38.06,13.73Z"/>
        </g>
        <g id="_图层_961" data-name="图层 961">
          <path class="cls-5" d="M7.24,25.88c-.38,1.21,4.44,3.79,10.77,5.76,6.32,1.97,11.75,2.59,12.13,1.39,.38-1.21-5.12-1.6-11.45-3.57-6.32-1.97-11.07-4.78-11.45-3.57Z"/>
        </g>
        <g id="_图层_960" data-name="图层 960">
          <path class="cls-5" d="M19.3,39.92c-1.67-2.48-3.61-4.1-4.33-3.62-.72,.49,.04,2.89,1.71,5.38,1.67,2.48,3.61,4.1,4.33,3.62,.72-.48-.04-2.89-1.71-5.37Z"/>
        </g>
        <g id="_图层_959" data-name="图层 959">
          <path class="cls-5" d="M24.64,48.15c-.99-.81-2.08-1.11-2.44-.67-.36,.44,.15,1.45,1.14,2.26,.99,.81,2.08,1.1,2.44,.66,.36-.44-.15-1.45-1.14-2.26Z"/>
        </g>
        <g id="_图层_958" data-name="图层 958">
          <path class="cls-5" d="M34.59,66.91c-1.05-.72-2.17-.91-2.49-.44-.32,.47,.28,1.43,1.33,2.15,1.06,.71,2.17,.91,2.49,.44,.32-.47-.28-1.43-1.33-2.15Z"/>
        </g>
        <g id="_图层_957" data-name="图层 957">
          <path class="cls-8" d="M56.6,17.05c-1.66,.42-2.87,1.28-2.71,1.92,.16,.64,1.64,.81,3.3,.38,1.66-.42,2.87-1.28,2.71-1.92-.16-.64-1.64-.81-3.3-.38Zm.43,1.68c-1.28,.33-2.41,.26-2.51-.15-.11-.41,.85-1.01,2.13-1.34,1.28-.33,2.41-.26,2.51,.15,.11,.41-.85,1.01-2.13,1.34Z"/>
        </g>
        <g id="_图层_956" data-name="图层 956">
          <path class="cls-8" d="M70.77,21.81c-1.84-.86-3.6-.98-3.94-.28-.33,.71,.9,1.98,2.74,2.83,1.84,.86,3.61,.98,3.94,.27,.33-.71-.9-1.98-2.74-2.83Zm-.87,1.87c-1.43-.66-2.41-1.57-2.2-2.03,.21-.46,1.54-.29,2.97,.37,1.43,.66,2.41,1.57,2.2,2.03-.21,.46-1.54,.29-2.97-.37Z"/>
        </g>
        <g id="_图层_955" data-name="图层 955">
          <path class="cls-8" d="M39.13,24.59c-1.25,.07-2.25,.68-2.23,1.36,.02,.68,1.05,1.16,2.3,1.09,1.25-.07,2.25-.68,2.23-1.36-.02-.68-1.05-1.16-2.3-1.09Zm.05,1.79c-.97,.06-1.76-.25-1.78-.69s.76-.84,1.73-.89c.97-.06,1.76,.25,1.78,.69,.01,.44-.76,.84-1.73,.9Z"/>
        </g>
        <g id="_图层_954" data-name="图层 954">
          <path class="cls-8" d="M37.91,17.96c-.06,.05-.11,.1-.17,.14,.42,.37,.64,.72,.53,.93-.19,.38-1.31,.21-2.5-.39-.09-.05-.18-.1-.27-.14-.96-.26-1.71-1.04-1.94-2.01-.15,.06-.28,.14-.34,.27-.3,.59,.71,1.7,2.26,2.47,1.54,.77,3.03,.92,3.33,.33,.19-.39-.18-1-.89-1.59Z"/>
        </g>
        <g id="_图层_953" data-name="图层 953">
          <path class="cls-8" d="M26.33,21.98c-1.09-.62-2.16-.79-2.4-.37-.24,.42,.45,1.26,1.53,1.88,1.09,.62,2.16,.79,2.4,.37,.24-.42-.45-1.26-1.53-1.88Zm-.63,1.1c-.84-.48-1.39-1.09-1.24-1.36,.15-.27,.96-.1,1.8,.38,.84,.48,1.4,1.09,1.24,1.36-.15,.27-.96,.1-1.8-.38Z"/>
        </g>
        <g id="_图层_952" data-name="图层 952">
          <path class="cls-8" d="M14.39,22.99c-1,.44-1.67,1.11-1.5,1.49,.17,.38,1.12,.33,2.11-.11,1-.44,1.67-1.11,1.5-1.49-.17-.38-1.12-.34-2.11,.11Zm.45,1.01c-.77,.34-1.49,.42-1.6,.17-.11-.25,.43-.73,1.2-1.07,.77-.34,1.49-.42,1.6-.17,.11,.25-.43,.73-1.2,1.07Z"/>
        </g>
        <g id="_图层_951" data-name="图层 951">
          <path class="cls-8" d="M46.95,14.84c-.07,.04-.14,.08-.22,.11-1.04,.49-2.02,.62-2.18,.28-.16-.33,.56-1.01,1.61-1.5,.13-.06,.27-.12,.39-.17,0-.06-.03-.11-.03-.17-.14,.06-.29,.11-.43,.18-1.35,.64-2.25,1.57-2,2.09,.24,.52,1.54,.42,2.89-.21,.09-.04,.18-.09,.27-.14-.11-.15-.21-.31-.29-.48Z"/>
        </g>
        <g id="_图层_950" data-name="图层 950">
          <path class="cls-8" d="M31.56,28.44c.12,.37,.12,.66-.04,.81-.28,.27-.97,.04-1.78-.52-.46,.03-.9,.06-1.34,.07,1.49,1.32,3.01,1.93,3.59,1.37,.34-.33,.28-1.01-.09-1.83-.11,.04-.22,.07-.33,.1Z"/>
        </g>
        <g id="_图层_949" data-name="图层 949">
          <path class="cls-8" d="M56.96,30.62c-.64,.2-1.15,.2-1.26-.02-.15-.32,.52-.96,1.51-1.44,.98-.48,1.91-.61,2.06-.29,.07,.15-.05,.37-.28,.6,.08,0,.15,.02,.22,.04,.15-.02,.3-.02,.47,0,.21-.28,.29-.54,.2-.73-.24-.49-1.46-.38-2.74,.23-1.27,.62-2.11,1.51-1.88,2,.16,.33,.77,.38,1.54,.2,.01-.21,.06-.41,.16-.59Z"/>
        </g>
        <g id="_图层_948" data-name="图层 948">
          <path class="cls-8" d="M66.14,15.18c-.07,.25-.15,.52-.27,.8-.45,1.08-1.09,1.84-1.44,1.69-.35-.14-.27-1.13,.18-2.21,.1-.24,.21-.46,.32-.66-.05-.03-.09-.07-.14-.11-.12,.22-.24,.45-.34,.7-.58,1.4-.61,2.71-.07,2.93,.54,.22,1.44-.73,2.01-2.13,.16-.38,.27-.76,.35-1.11-.19,.06-.39,.09-.6,.09Z"/>
        </g>
        <g id="_图层_947" data-name="图层 947">
          <path class="cls-8" d="M84.43,23.67c-.07-.27-.34-.46-.74-.58-.03,0-.05,.01-.07,.02-.2,.05-.4,.11-.6,.19,.28,.07,.47,.18,.51,.34,.14,.5-1.01,1.25-2.57,1.68-1.31,.36-2.47,.37-2.9,.07-.31,.09-.62,.15-.94,.19,0,.03,0,.06,.01,.09,.21,.77,2.02,.95,4.03,.39,2.02-.55,3.48-1.63,3.27-2.4Z"/>
        </g>
        <g id="_图层_946" data-name="图层 946">
          <path class="cls-8" d="M73.26,16.85c-1.7-.01-3.09,.5-3.09,1.15,0,.65,1.37,1.19,3.07,1.21,1.7,.01,3.09-.5,3.09-1.15,0-.65-1.37-1.19-3.07-1.21Zm-.01,1.72c-1.32-.01-2.38-.36-2.38-.79,0-.42,1.07-.75,2.39-.74,1.32,.01,2.38,.36,2.38,.79,0,.42-1.07,.76-2.39,.74Z"/>
        </g>
        <g id="_图层_945" data-name="图层 945">
          <path class="cls-8" d="M58.9,23.38c.96-.79,1.81-1.14,2.21-.83,.28,.22,.28,.74,.07,1.41,.38,.18,.76,.4,1.09,.66,.52-1.33,.57-2.42,0-2.87-.74-.59-2.32,.1-3.92,1.58,.18,.01,.36,.03,.54,.05Z"/>
        </g>
        <g id="_图层_944" data-name="图层 944">
          <path class="cls-8" d="M53.74,26.96c-.03-.05-.07-.11-.1-.16-2.08,.8-3.9,.94-4.2,.26-.28-.63,.86-1.76,2.63-2.71-.07-.11-.14-.22-.21-.32-2.42,1.29-3.93,2.96-3.48,3.97,.48,1.1,3.12,1.01,5.98-.16-.23-.27-.43-.57-.62-.87Z"/>
        </g>
        <g id="_图层_943" data-name="图层 943">
          <path class="cls-8" d="M67,30.8c-1.56-.74-2.61-1.69-2.38-2.22,.24-.58,1.91-.44,3.72,.32,.4,.17,.77,.36,1.11,.55,.12-.05,.25-.08,.37-.13-.42-.25-.87-.48-1.37-.69-2.35-.99-4.55-1.05-4.93-.15-.32,.75,.76,1.94,2.5,2.89,.34-.17,.66-.36,.98-.57Z"/>
        </g>
        <g id="_图层_942" data-name="图层 942">
          <path class="cls-8" d="M46.68,29.92c-1.12-.11-2.07,.15-2.11,.58-.04,.43,.84,.87,1.96,.98,1.12,.11,2.07-.15,2.11-.58,.04-.43-.83-.87-1.96-.98Zm-.11,1.14c-.87-.08-1.55-.38-1.52-.66,.03-.28,.75-.44,1.62-.35,.87,.08,1.55,.38,1.52,.66-.03,.28-.75,.44-1.62,.35Z"/>
        </g>
        <g id="_图层_941" data-name="图层 941">
          <path class="cls-4" d="M48.51,14.05c2.32-.67,2.76-2.34,9.16-1,6.4,1.34,5.8,1.34,2.39,3.18-3.41,1.84-1.65,.84-7.46,.67-11.2-.33-4.09-2.84-4.09-2.84Z"/>
        </g>
        <g id="_图层_940" data-name="图层 940">
          <path class="cls-7" d="M57.38,16.51c-.21,0-.48-.04-.85-.09-.74-.11-1.87-.27-3.93-.33-5.62-.17-5.84-.89-5.84-.89-.05-.2,.84-.78,1.93-1.17,.58-.17,1.07-.41,1.54-.64,.88-.43,1.7-.84,3.38-.84,1.06,0,2.35,.16,3.93,.49,1.81,.38,4.05,.85,4.5,1.14-.2,.2-.93,.59-1.64,.97l-.62,.33c-1.48,.8-1.93,1.03-2.41,1.03Z"/>
        </g>
        <g id="_图层_939" data-name="图层 939">
          <path class="cls-4" d="M47.71,25.95c-4.17,1.24-1.16,2.94-12.72,.62-11.55-2.31-8.72-4.01-8.13-4.36,5.7-3.37,2.77-1.25,13.24-1.03,20.18,.43,7.6,4.76,7.6,4.76Z"/>
        </g>
        <g id="_图层_938" data-name="图层 938">
          <path class="cls-7" d="M43.19,25.85c-1.34,.08-3.76-.26-8.07-1.12-6.11-1.22-7.64-2.18-8.02-2.53,.05-.03,.11-.07,.19-.12,2.2-1.3,3-1.71,3.72-1.76,.4-.02,.87,.06,1.59,.18,1.37,.24,3.43,.59,7.44,.68,8.09,.17,10.04,.99,10.49,1.29-.39,.44-1.81,1.2-3.17,1.66-1.22,.36-1.9,.78-2.44,1.11-.57,.35-.88,.54-1.72,.59Z"/>
        </g>
        <g id="_图层_937" data-name="图层 937">
          <path class="cls-4" d="M81.86,18.92c-.7-.92-3.15,1.87-7.12,4.91-3.98,3.04-8.88,4.45-7.98,5.18,1.39,1.12,9.21-.01,13.18-3.05,3.98-3.04,4.01-4.3,1.92-7.03Z"/>
        </g>
        <g id="_图层_936" data-name="图层 936">
          <path class="cls-7" d="M74.74,23.83c-2.86,2.19-6.19,3.53-7.5,4.38,1.71,.58,8.07-.81,11.53-3.45,3.55-2.71,3.76-3.81,2.24-5.88-1.17,.54-3.29,2.68-6.27,4.95Z"/>
        </g>
      </g>
    </g>
  </g>
</svg>