<?xml version="1.0" encoding="UTF-8"?>
<svg id="Layer_2" data-name="Layer 2" xmlns="http://www.w3.org/2000/svg" xmlns:xlink="http://www.w3.org/1999/xlink" viewBox="0 0 87.36 77.8">
  <defs>
    <style>
      .cls-1 {
        fill: url(#linear-gradient);
      }

      .cls-2 {
        fill: #f9f6c0;
      }

      .cls-3 {
        fill: #f4f2f2;
      }

      .cls-4 {
        fill: #fff;
      }

      .cls-5 {
        fill: #faf9a9;
      }

      .cls-6 {
        fill: #2f564f;
      }

      .cls-7 {
        fill: #d8d6d6;
      }

      .cls-8 {
        fill: #a5a4a4;
      }

      .cls-9 {
        fill: #0a3430;
      }

      .cls-10 {
        fill: #1b3f39;
      }

      .cls-11 {
        fill: #93bf2e;
      }

      .cls-12 {
        fill: #86a943;
      }

      .cls-13 {
        fill: #3a3938;
        opacity: .2;
      }

      .cls-14 {
        fill: url(#linear-gradient-8);
      }

      .cls-15 {
        fill: url(#linear-gradient-9);
      }

      .cls-16 {
        fill: url(#linear-gradient-3);
      }

      .cls-17 {
        fill: url(#linear-gradient-4);
      }

      .cls-18 {
        fill: url(#linear-gradient-2);
      }

      .cls-19 {
        fill: url(#linear-gradient-6);
      }

      .cls-20 {
        fill: url(#linear-gradient-7);
      }

      .cls-21 {
        fill: url(#linear-gradient-5);
      }

      .cls-22 {
        fill: url(#linear-gradient-12);
      }

      .cls-23 {
        fill: url(#linear-gradient-10);
      }

      .cls-24 {
        fill: url(#linear-gradient-11);
      }
    </style>
    <linearGradient id="linear-gradient" x1="40.03" y1="19.08" x2="41.34" y2="8.94" gradientTransform="translate(-3.37 1.51) rotate(-3.65) scale(1.17 1) skewX(-3.1)" gradientUnits="userSpaceOnUse">
      <stop offset="0" stop-color="#e95704"/>
      <stop offset="1" stop-color="#ff9521"/>
    </linearGradient>
    <linearGradient id="linear-gradient-2" x1="40.18" y1="5.47" x2="41.12" y2="12.75" gradientTransform="translate(-3.37 1.51) rotate(-3.65) scale(1.17 1) skewX(-3.1)" gradientUnits="userSpaceOnUse">
      <stop offset="0" stop-color="#f4c3bc"/>
      <stop offset="1" stop-color="#fb8b1c"/>
    </linearGradient>
    <linearGradient id="linear-gradient-3" x1="58.59" y1="7.57" x2="59.43" y2="14.07" gradientTransform="translate(-15.32 -13.86) rotate(11.44) scale(1.17 1) skewX(-3.11)" xlink:href="#linear-gradient-2"/>
    <linearGradient id="linear-gradient-4" x1="58.68" y1="38.12" x2="59.99" y2="27.98" xlink:href="#linear-gradient"/>
    <linearGradient id="linear-gradient-5" x1="58.83" y1="24.52" x2="59.77" y2="31.79" xlink:href="#linear-gradient-2"/>
    <linearGradient id="linear-gradient-6" x1="80.53" y1="20.57" x2="81.37" y2="27.07" gradientTransform="translate(-15.32 -13.86) rotate(11.44) scale(1.17 1) skewX(-3.11)" xlink:href="#linear-gradient-2"/>
    <linearGradient id="linear-gradient-7" x1="18.33" y1="34.19" x2="19.64" y2="24.05" xlink:href="#linear-gradient"/>
    <linearGradient id="linear-gradient-8" x1="18.48" y1="20.58" x2="19.42" y2="27.86" xlink:href="#linear-gradient-2"/>
    <linearGradient id="linear-gradient-9" x1="41.36" y1="29.06" x2="42.2" y2="35.56" gradientTransform="translate(-15.32 -13.86) rotate(11.44) scale(1.17 1) skewX(-3.11)" xlink:href="#linear-gradient-2"/>
    <linearGradient id="linear-gradient-10" x1="36.98" y1="53.24" x2="38.29" y2="43.1" xlink:href="#linear-gradient"/>
    <linearGradient id="linear-gradient-11" x1="37.13" y1="39.63" x2="38.07" y2="46.91" xlink:href="#linear-gradient-2"/>
    <linearGradient id="linear-gradient-12" x1="63.3" y1="42.06" x2="64.14" y2="48.56" gradientTransform="translate(-15.32 -13.86) rotate(11.44) scale(1.17 1) skewX(-3.11)" xlink:href="#linear-gradient-2"/>
  </defs>
  <g id="layer">
    <g>
      <g>
        <path class="cls-13" d="M26.21,27.33c-1.29,1.49-1.48,5.37,3.15,9.07,4.63,3.7,11.85,10,22.04,5.37,10.19-4.63,15.32-10.24,13.89-13.33-5.38-11.59-24.02-18.52-39.07-1.11Z"/>
        <g>
          <g>
            <g>
              <path class="cls-10" d="M62.62,27.81c0,4.02-9.21,13.08-18.94,13.08s-16.32-9.06-16.32-13.08c0-.27-.08-14.87,0-15.15,1.17-4.01,10.43,4.73,19.53,4.73s14.76-8.71,15.74-4.73c.1,.4,0,14.78,0,15.15Z"/>
              <path class="cls-9" d="M62.62,12.73c0,4.92-9.21,13.23-18.94,13.23s-16.32-8.32-16.32-13.23S37.15,0,46.88,0s15.74,7.81,15.74,12.73Z"/>
              <path class="cls-6" d="M44.49,28.89v9.75c0,.72,.64,1.09,1.45,.93,9.79-1.97,16.17-8.95,16.17-12.16,0-.18,.03-5.69,.04-9.27,0-.72-.45-.8-.94-.11-2.69,3.8-7.79,7.51-15.27,9.18-.81,.18-1.45,.96-1.45,1.68Z"/>
              <path class="cls-6" d="M29.16,19.13c-.18-.24-.36-.47-.52-.7-.56-.78-.94-.83-.94-.07,0,3.73,.04,9.46,.04,9.65,0,.78,.42,1.84,1.17,3.05,.41,.66,.8,.59,.8-.13v-9.82c0-.72-.25-1.6-.55-1.98Z"/>
            </g>
            <path class="cls-8" d="M62.14,12.99c-1.57,5.63-9.06,12.18-18.39,12.18-8.22,0-13.68-6.4-15.7-10.82-.44-.95,.04-2.51,.21-3.08,.2-.66-.23-.93,.04-1.82,.07-.23,.79-.75,.74-.98-.38-1.75,1.61-3.08,3.67-3.75,.38-.13,.12-.76,1.78-1.82,.77-.49,2.76-.45,3.6-.91,.68-.37,1.53-1.01,2.34-1.29,1.47-.51,4.43,0,5.94-.33,3.56-.79,6.28,.83,6.98,1.43,1.05,.89,2.4,1.28,3.48,2.1,.09,.07,2.67,.25,2.13,2.04,.72-.34,2.88,.08,2.42,2.03,.08,.5,.63,1,.25,1.83-.38,.88,1.28,.36,.49,3.19Z"/>
            <g>
              <path class="cls-7" d="M62.01,13.1c-1.57,5.63-9.01,12.18-18.27,12.18-8.17,0-13.59-6.4-15.6-10.82-.43-.95,.04-2.51,.21-3.08,.19-.66-.23-.93,.04-1.82,.07-.23,.78-.75,.74-.98-.37-1.75,1.6-3.08,3.65-3.75,.38-.13,.12-.76,1.77-1.82,.76-.49,2.74-.45,3.58-.91,.67-.37,1.52-1.01,2.33-1.29,1.46-.51,4.41,0,5.9-.33,3.53-.79,6.24,.83,6.94,1.43,1.04,.89,2.38,1.28,3.46,2.1,.09,.07,2.66,.25,2.12,2.04,.71-.34,2.86,.08,2.41,2.03,.08,.5,.63,1,.25,1.83-.38,.88,1.27,.36,.48,3.19Z"/>
              <g>
                <path class="cls-3" d="M46.8,4.58c0,.58-1.44,1.05-3.23,1.05s-3.23-.47-3.23-1.05,1.45-1.05,3.23-1.05,3.23,.47,3.23,1.05Z"/>
                <path class="cls-4" d="M45.01,4.12c0,.33-.94,.62-2.1,.67s-2.1-.19-2.1-.51,.94-.62,2.1-.67c1.16-.04,2.1,.19,2.1,.51Z"/>
              </g>
              <g>
                <path class="cls-3" d="M40.09,5.16c.27,.62-1.07,1.8-2.99,2.62-1.92,.83-3.69,.99-3.96,.36s1.07-1.8,2.99-2.62c1.92-.83,3.69-.99,3.96-.36Z"/>
                <path class="cls-4" d="M37.95,5.49c.15,.35-.72,1.11-1.95,1.69-1.23,.58-2.35,.77-2.5,.42s.72-1.11,1.95-1.69c1.23-.58,2.35-.77,2.5-.42Z"/>
              </g>
              <g>
                <path class="cls-3" d="M39.13,23.66c-.36,.58-2.09,.15-3.86-.95s-2.92-2.46-2.56-3.04,2.09-.15,3.86,.95,2.92,2.46,2.56,3.04Z"/>
                <path class="cls-4" d="M37.64,22.1c-.2,.32-1.32,.04-2.5-.64-1.18-.68-1.97-1.49-1.77-1.81,.2-.32,1.32-.04,2.5,.64,1.18,.68,1.97,1.49,1.77,1.81Z"/>
              </g>
              <g>
                <path class="cls-3" d="M37.71,16.56c-.18,.65-1,1-1.83,.76-.82-.23-1.34-.95-1.16-1.6,.18-.65,1-1,1.83-.76,.82,.23,1.34,.95,1.16,1.6Z"/>
                <path class="cls-4" d="M37.03,15.8c-.1,.37-.63,.58-1.18,.48-.55-.1-.91-.48-.81-.85,.1-.37,.63-.58,1.18-.48s.91,.48,.81,.85Z"/>
              </g>
              <g>
                <path class="cls-3" d="M51.51,18.56c.42,.21-.03,.89-1,1.5-.97,.62-2.09,.94-2.51,.73-.42-.21,.03-.89,1-1.5,.97-.62,2.09-.94,2.51-.73Z"/>
                <path class="cls-4" d="M50.17,19c.25,.11-.03,.54-.61,.97-.58,.42-1.26,.68-1.5,.56-.25-.11,.03-.54,.61-.97,.58-.42,1.26-.68,1.5-.56Z"/>
              </g>
              <g>
                <path class="cls-3" d="M52.58,2.15c-.09,.49-1.52,.63-3.2,.33s-2.97-.95-2.88-1.43,1.52-.63,3.2-.33c1.68,.31,2.97,.95,2.88,1.43Z"/>
                <path class="cls-4" d="M50.96,1.45c-.05,.27-.98,.36-2.08,.2-1.1-.16-1.95-.52-1.9-.79,.05-.27,.98-.36,2.08-.2s1.95,.52,1.9,.79Z"/>
              </g>
              <g>
                <path class="cls-3" d="M61,6.91c.16,.56-.56,1.25-1.61,1.55-1.05,.3-2.03,.09-2.18-.47s.56-1.25,1.61-1.55c1.05-.3,2.03-.09,2.18,.47Z"/>
                <path class="cls-4" d="M59.82,6.76c.09,.31-.38,.76-1.05,.99-.67,.23-1.29,.17-1.37-.14-.09-.31,.38-.76,1.05-.99,.67-.23,1.29-.17,1.38,.14Z"/>
              </g>
              <g>
                <path class="cls-3" d="M61.49,12.95c.29,.33,.13,.95-.37,1.39s-1.13,.51-1.42,.17c-.29-.33-.13-.95,.37-1.39,.49-.43,1.13-.51,1.42-.17Z"/>
                <path class="cls-4" d="M60.76,13.11c.16,.19,.05,.59-.25,.89-.3,.3-.68,.4-.84,.21-.16-.19-.05-.59,.25-.89,.3-.3,.68-.4,.84-.21Z"/>
              </g>
              <g>
                <path class="cls-3" d="M53.01,6.02c-.08,.38-1.01,.5-2.08,.28-1.07-.22-1.87-.71-1.79-1.09,.08-.38,1.01-.5,2.08-.28,1.07,.22,1.87,.71,1.79,1.09Z"/>
                <path class="cls-4" d="M51.99,5.5c-.04,.21-.65,.29-1.35,.17-.7-.12-1.23-.39-1.19-.6,.04-.21,.65-.29,1.35-.17,.7,.12,1.23,.39,1.19,.6Z"/>
              </g>
              <g>
                <path class="cls-3" d="M46.08,24.26c-.04,.59-1.56,.97-3.38,.85-1.83-.13-3.28-.71-3.23-1.31,.04-.59,1.56-.97,3.38-.85s3.28,.71,3.23,1.31Z"/>
                <path class="cls-4" d="M44.27,23.66c-.02,.33-1.01,.57-2.2,.53-1.19-.04-2.14-.34-2.12-.68,.02-.33,1.01-.57,2.2-.53s2.14,.34,2.12,.68Z"/>
              </g>
              <g>
                <path class="cls-3" d="M59.4,13.62c.23,.55-.94,1.58-2.63,2.29-1.69,.72-3.24,.86-3.48,.31s.94-1.58,2.63-2.29c1.69-.72,3.24-.86,3.48-.31Z"/>
                <path class="cls-4" d="M57.52,13.91c.13,.31-.64,.97-1.72,1.48s-2.06,.67-2.19,.36c-.13-.31,.64-.97,1.72-1.48,1.08-.51,2.06-.67,2.19-.36Z"/>
              </g>
              <g>
                <path class="cls-3" d="M36.34,13.29c-.22,.64-1.26,.87-2.31,.5-1.05-.37-1.73-1.18-1.51-1.82,.22-.64,1.26-.87,2.31-.5,1.05,.37,1.73,1.18,1.51,1.82Z"/>
                <path class="cls-4" d="M35.46,12.41c-.12,.36-.8,.5-1.5,.31-.7-.19-1.17-.64-1.05-1s.8-.5,1.5-.31c.7,.19,1.17,.64,1.05,1Z"/>
              </g>
              <g>
                <path class="cls-3" d="M35,14.95c-.04,.68-1.4,1.15-3.04,1.06-1.64-.09-2.94-.72-2.9-1.39s1.4-1.15,3.04-1.06c1.64,.09,2.94,.72,2.9,1.39Z"/>
                <path class="cls-4" d="M33.38,14.32c-.02,.38-.91,.68-1.97,.67-1.07-.01-1.92-.33-1.9-.71,.02-.38,.91-.68,1.97-.67,1.07,.01,1.92,.33,1.9,.71Z"/>
              </g>
              <g>
                <path class="cls-3" d="M48.05,23.19c-.41,.52-1.36,.46-2.11-.13-.75-.6-1.03-1.5-.62-2.03,.41-.52,1.36-.46,2.11,.13,.75,.6,1.03,1.5,.62,2.03Z"/>
                <path class="cls-4" d="M47.62,22.17c-.23,.29-.84,.25-1.36-.1-.52-.35-.76-.87-.52-1.16,.23-.29,.84-.25,1.36,.1,.52,.35,.76,.87,.52,1.16Z"/>
              </g>
              <g>
                <path class="cls-3" d="M51.35,22.86c.05,.35-.9,.98-2.12,1.42-1.22,.43-2.26,.51-2.31,.16-.05-.35,.9-.98,2.12-1.42,1.22-.43,2.26-.51,2.31-.16Z"/>
                <path class="cls-4" d="M50.08,23.03c-.02,.36-.59,.6-1.38,.91-.79,.31-1.46,.4-1.49,.21-.03-.19,.59-.6,1.38-.91s1.5-.4,1.49-.21Z"/>
              </g>
              <g>
                <path class="cls-3" d="M61.38,9c.15,.46-.49,1.01-1.43,1.23-.94,.22-1.83,.02-1.98-.44-.15-.46,.49-1.01,1.43-1.23,.94-.22,1.83-.02,1.98,.44Z"/>
                <path class="cls-4" d="M60.32,8.86c.08,.26-.34,.61-.94,.78s-1.16,.11-1.24-.15c-.08-.26,.33-.61,.94-.78s1.16-.11,1.24,.15Z"/>
              </g>
              <g>
                <path class="cls-3" d="M31.92,12.97c-.51,.43-1.57,.02-2.38-.92-.81-.94-1.05-2.06-.54-2.49,.51-.43,1.57-.02,2.38,.92,.81,.94,1.05,2.06,.54,2.49Z"/>
                <path class="cls-4" d="M31.51,11.68c-.28,.24-.97-.03-1.53-.61-.56-.58-.79-1.25-.5-1.49,.28-.24,.97,.03,1.53,.61,.56,.58,.79,1.25,.5,1.49Z"/>
              </g>
              <g>
                <path class="cls-3" d="M49.04,4.25c-.28,.5-1.75,.19-3.28-.68-1.53-.87-2.54-1.98-2.25-2.48s1.75-.19,3.28,.68c1.53,.87,2.54,1.98,2.25,2.48Z"/>
                <path class="cls-4" d="M47.73,2.98c-.16,.28-1.11,.07-2.13-.46s-1.71-1.19-1.55-1.47c.16-.28,1.11-.07,2.13,.46,1.02,.53,1.71,1.19,1.55,1.47Z"/>
              </g>
              <g>
                <path class="cls-3" d="M55.35,3.95c-.01,.55-1.39,.96-3.07,.92-1.68-.04-3.04-.52-3.02-1.06,.01-.55,1.39-.96,3.07-.92,1.68,.04,3.04,.52,3.02,1.06Z"/>
                <path class="cls-4" d="M53.77,3.48c0,.31-.9,.57-2,.58-1.1,.01-1.98-.22-1.97-.53,0-.31,.9-.57,2-.58,1.1-.01,1.98,.22,1.97,.53Z"/>
              </g>
              <g>
                <path class="cls-3" d="M44.95,22.2c-.15,.66-1.92,.83-3.96,.37-2.04-.46-3.57-1.36-3.42-2.03,.15-.66,1.92-.83,3.96-.37,2.04,.46,3.57,1.36,3.42,2.03Z"/>
                <path class="cls-4" d="M43.02,21.22c-.08,.37-1.23,.47-2.57,.22-1.34-.25-2.35-.75-2.27-1.12,.08-.37,1.23-.47,2.57-.22,1.34,.25,2.35,.75,2.27,1.12Z"/>
              </g>
              <g>
                <path class="cls-3" d="M52.74,20.29c.23,.49-.57,1.35-1.78,1.91-1.21,.56-2.38,.62-2.6,.12-.23-.49,.57-1.35,1.78-1.91,1.21-.56,2.38-.62,2.6-.12Z"/>
                <path class="cls-4" d="M51.35,20.46c.13,.28-.39,.83-1.16,1.23-.77,.4-1.5,.5-1.63,.23-.13-.28,.39-.83,1.16-1.23,.77-.4,1.5-.5,1.63-.23Z"/>
              </g>
              <g>
                <path class="cls-3" d="M57.5,18.91c.29,.46-.73,1.6-2.26,2.55-1.54,.95-3.01,1.34-3.3,.88-.29-.46,.73-1.6,2.26-2.55,1.54-.95,3.01-1.34,3.3-.88Z"/>
                <path class="cls-4" d="M55.73,19.5c.16,.26-.5,1-1.48,1.65-.98,.65-1.9,.97-2.06,.71-.16-.26,.5-1,1.48-1.65,.98-.65,1.9-.97,2.06-.71Z"/>
              </g>
              <g>
                <path class="cls-3" d="M58.65,5.8c-.02,.68-1.2,1.2-2.64,1.17-1.44-.03-2.6-.61-2.58-1.29,.02-.68,1.2-1.2,2.64-1.17s2.6,.61,2.58,1.29Z"/>
                <path class="cls-4" d="M57.21,5.22c0,.38-.78,.71-1.72,.74-.94,.03-1.69-.26-1.68-.64,0-.38,.78-.71,1.72-.74s1.69,.26,1.68,.64Z"/>
              </g>
              <g>
                <path class="cls-3" d="M43.29,1.61c.19,.65-.76,1.5-2.12,1.88-1.36,.39-2.61,.17-2.79-.48s.76-1.5,2.12-1.88c1.36-.39,2.61-.17,2.79,.48Z"/>
                <path class="cls-4" d="M41.78,1.48c.1,.37-.52,.91-1.38,1.21-.87,.3-1.66,.25-1.76-.12s.52-.91,1.38-1.21c.87-.3,1.66-.25,1.76,.12Z"/>
              </g>
              <g>
                <path class="cls-3" d="M35.72,18.3c-.18,.66-1.45,.88-2.84,.51s-2.38-1.21-2.2-1.86c.18-.66,1.45-.88,2.84-.51s2.38,1.21,2.2,1.86Z"/>
                <path class="cls-4" d="M34.46,17.4c-.1,.37-.92,.51-1.84,.31s-1.58-.65-1.48-1.02,.92-.51,1.84-.31,1.58,.65,1.48,1.02Z"/>
              </g>
              <g>
                <path class="cls-3" d="M38.41,3.28c.2,.65-.75,1.52-2.12,1.95-1.38,.43-2.65,.25-2.86-.4-.2-.65,.75-1.52,2.12-1.95,1.38-.43,2.65-.25,2.86,.4Z"/>
                <path class="cls-4" d="M36.87,3.19c.11,.36-.51,.92-1.39,1.25-.88,.33-1.69,.3-1.8-.07-.11-.36,.51-.92,1.39-1.25,.88-.33,1.69-.3,1.8,.07Z"/>
              </g>
              <g>
                <path class="cls-3" d="M33.99,5.63c.32,.6-.44,1.64-1.7,2.33s-2.55,.76-2.88,.17c-.32-.6,.44-1.64,1.7-2.33,1.27-.69,2.55-.76,2.88-.17Z"/>
                <path class="cls-4" d="M32.45,5.84c.18,.33-.32,1-1.12,1.5-.8,.49-1.6,.62-1.78,.29-.18-.33,.32-1,1.12-1.5,.8-.49,1.6-.62,1.78-.29Z"/>
              </g>
              <g>
                <path class="cls-3" d="M36.84,9.71c.07,.68-1.04,1.34-2.47,1.49-1.43,.14-2.65-.29-2.72-.96s1.04-1.34,2.47-1.49c1.43-.14,2.65,.29,2.72,.96Z"/>
                <path class="cls-4" d="M35.34,9.31c.04,.38-.68,.8-1.61,.95-.93,.14-1.71-.05-1.75-.43-.04-.38,.68-.8,1.61-.95,.93-.14,1.71,.05,1.75,.43Z"/>
              </g>
              <g>
                <path class="cls-3" d="M38.52,18.4c.25,.63-.25,1.42-1.11,1.75s-1.76,.09-2-.54,.25-1.42,1.11-1.75c.86-.33,1.76-.09,2,.54Z"/>
                <path class="cls-4" d="M37.46,18.23c.14,.36-.19,.86-.73,1.12-.54,.26-1.09,.19-1.23-.17s.19-.86,.73-1.12c.54-.26,1.09-.19,1.23,.17Z"/>
              </g>
              <g>
                <path class="cls-3" d="M60.16,15.11c.39,.46-.08,1.5-1.05,2.32-.97,.83-2.07,1.12-2.46,.66-.39-.46,.08-1.5,1.05-2.32,.97-.83,2.07-1.12,2.46-.66Z"/>
                <path class="cls-4" d="M58.88,15.58c.22,.26-.09,.93-.7,1.5-.6,.57-1.27,.82-1.49,.57s.09-.93,.7-1.5c.6-.57,1.27-.82,1.49-.57Z"/>
              </g>
              <g>
                <path class="cls-3" d="M57.55,9.96c-.43,.53-1.38,.47-2.13-.14-.75-.6-1.01-1.52-.58-2.05,.43-.53,1.38-.47,2.13,.14,.75,.6,1.01,1.52,.58,2.05Z"/>
                <path class="cls-4" d="M57.14,8.94c-.24,.3-.85,.25-1.37-.1s-.74-.88-.51-1.18c.24-.3,.85-.25,1.37,.1s.74,.88,.51,1.18Z"/>
              </g>
              <g>
                <path class="cls-3" d="M56.19,17.47c.22,.64-.57,1.49-1.75,1.9-1.18,.4-2.32,.21-2.53-.44-.22-.64,.57-1.49,1.75-1.9,1.18-.4,2.32-.21,2.53,.44Z"/>
                <path class="cls-4" d="M54.83,17.36c.12,.36-.39,.91-1.15,1.21s-1.46,.27-1.58-.09c-.12-.36,.39-.91,1.15-1.21,.75-.31,1.46-.27,1.58,.09Z"/>
              </g>
              <g>
                <path class="cls-3" d="M61.66,11.42c.08,.67-1.19,1.38-2.84,1.57-1.65,.19-3.04-.2-3.12-.87-.08-.67,1.19-1.38,2.84-1.57s3.04,.2,3.12,.87Z"/>
                <path class="cls-4" d="M59.94,11.08c.04,.38-.78,.83-1.85,1-1.07,.18-1.97,.01-2.01-.37s.78-.83,1.85-1c1.07-.18,1.97-.01,2.01,.37Z"/>
              </g>
            </g>
          </g>
          <path class="cls-1" d="M47.1,5.29c-2.95,.19-7.28,.59-9.34,2.98-2.06,2.39-1.03,4.46,1.03,7.22s7.31,2.56,7.8,2.64c5.15-2.46,6.69-9.64,5.95-10.22s-4.56-2.67-5.44-2.62Z"/>
          <path class="cls-18" d="M50.13,6.48s-10.75,2.81-10.45,9.95c-1.03-1.57,.36-8.17,7.57-11.14,1.43-.22,2.88,1.19,2.88,1.19Z"/>
          <path class="cls-16" d="M54.77,10.8s-9.2-.07-10.6,6.13c-.52-1.58,.29-7.11,7.17-7.99,3.05,0,3.43,1.86,3.43,1.86Z"/>
          <path class="cls-11" d="M52.38,6.55s.57,4.22-1.73,6.98c-2.3,2.76-.52,2.94,.42,2.6s5.48-2.21,5.01-3.65c-.66-2.04-2.44-5.9-3.7-5.93Z"/>
          <path class="cls-12" d="M56.07,12.48c-.09-.27-.19-.53-.31-.78-.38,1.36-4.15,2.91-5,3.22-.33,.12-.76,.17-1.08,.08-.58,1.35,.65,1.41,1.39,1.14,.94-.35,5.48-2.21,5.01-3.65Z"/>
          <path class="cls-11" d="M38.66,17.74c-.34-.47,.12-1.94,.21-1.96,2.12-.56,7.86,.37,9.48-.04,.63-.16,2.01-1.04,2.26-.04,.01,.06,.09,2.03,.09,2.09,.03,.35-.94,.28-1.67,.73-.62,.39-1.02,1.79-1.84,1.79-1.71,0-2.57,.61-3.11,.34-1.38-.68-3.38-1.15-4.45-1.11-.93,.04-.75-1.48-.98-1.79Z"/>
          <path class="cls-5" d="M38.88,15.77c1.88-.64,7.79-.6,9.48-1.03,.67-.17,2.2,.04,2.31,1.2,.11,1.16-5.24,4.06-6.57,3.71-1.33-.35-6.04-3.6-5.22-3.88Z"/>
          <path class="cls-2" d="M46.35,17.86c.82-.27,1.77-.64,2.43-1.22,.29-.25,.97-.72,.8-1.16-.21-.56-1.54-.53-2-.47-.95,.12-1.9,.22-2.86,.36-1.08,.15-2.18,.05-3.25,.21-1.23,.18-.25,1.01,.28,1.51,1.32,1.23,2.9,1.34,4.59,.78Z"/>
        </g>
      </g>
      <g>
        <path class="cls-13" d="M48.05,44.98c-1.29,1.49-1.48,5.37,3.15,9.07s11.85,10,22.04,5.37,15.32-10.25,13.89-13.33c-5.38-11.59-24.02-18.52-39.07-1.11Z"/>
        <g>
          <g>
            <g>
              <path class="cls-10" d="M84.47,45.46c0,4.02-9.21,13.08-18.94,13.08s-16.32-9.06-16.32-13.08c0-.27-.08-14.87,0-15.15,1.17-4.01,10.43,4.73,19.53,4.73s14.76-8.71,15.74-4.73c.1,.4,0,14.78,0,15.15Z"/>
              <path class="cls-9" d="M84.47,30.39c0,4.92-9.21,13.23-18.94,13.23s-16.32-8.32-16.32-13.23,9.79-12.73,19.53-12.73,15.74,7.81,15.74,12.73Z"/>
              <path class="cls-6" d="M66.33,46.54v9.75c0,.72,.64,1.09,1.45,.93,9.79-1.97,16.17-8.95,16.17-12.15,0-.18,.03-5.69,.04-9.27,0-.72-.45-.8-.94-.11-2.69,3.8-7.79,7.51-15.27,9.18-.81,.18-1.45,.96-1.45,1.68Z"/>
              <path class="cls-6" d="M51,36.78c-.18-.24-.36-.47-.52-.7-.56-.78-.94-.83-.94-.07,0,3.73,.04,9.46,.04,9.65,0,.78,.42,1.84,1.17,3.05,.41,.66,.8,.59,.8-.13v-9.82c0-.72-.25-1.6-.55-1.98Z"/>
            </g>
            <path class="cls-8" d="M83.99,30.65c-1.57,5.63-9.06,12.18-18.39,12.18-8.22,0-13.68-6.4-15.7-10.82-.44-.95,.04-2.51,.21-3.08,.2-.66-.23-.93,.04-1.82,.07-.23,.79-.75,.74-.98-.38-1.75,1.61-3.08,3.67-3.75,.38-.13,.12-.76,1.78-1.82,.77-.49,2.76-.45,3.6-.91,.68-.37,1.53-1.01,2.34-1.29,1.47-.51,4.43,0,5.94-.33,3.56-.79,6.28,.83,6.98,1.43,1.05,.89,2.4,1.28,3.48,2.1,.09,.07,2.67,.25,2.13,2.04,.72-.34,2.88,.08,2.42,2.03,.08,.5,.63,1,.25,1.83-.38,.88,1.28,.36,.49,3.19Z"/>
            <g>
              <path class="cls-7" d="M83.85,30.76c-1.57,5.63-9.01,12.18-18.27,12.18-8.17,0-13.59-6.4-15.6-10.82-.43-.95,.04-2.51,.21-3.08,.19-.66-.23-.93,.04-1.82,.07-.23,.78-.75,.74-.98-.37-1.75,1.6-3.08,3.65-3.75,.38-.13,.12-.76,1.77-1.82,.76-.49,2.74-.45,3.58-.91,.67-.37,1.52-1.01,2.33-1.29,1.46-.51,4.41,0,5.9-.33,3.53-.79,6.24,.83,6.94,1.43,1.04,.89,2.38,1.28,3.46,2.1,.09,.07,2.66,.25,2.12,2.04,.71-.34,2.86,.08,2.41,2.03,.08,.5,.63,1,.25,1.83-.38,.88,1.27,.36,.48,3.19Z"/>
              <g>
                <path class="cls-3" d="M68.65,22.24c0,.58-1.44,1.05-3.23,1.05s-3.23-.47-3.23-1.05,1.44-1.05,3.23-1.05,3.23,.47,3.23,1.05Z"/>
                <path class="cls-4" d="M66.85,21.77c0,.33-.94,.62-2.1,.67-1.16,.04-2.1-.19-2.1-.51s.94-.62,2.1-.67c1.16-.04,2.1,.19,2.1,.51Z"/>
              </g>
              <g>
                <path class="cls-3" d="M61.94,22.81c.27,.62-1.07,1.8-2.99,2.62-1.92,.83-3.69,.99-3.96,.36s1.07-1.8,2.99-2.62c1.92-.83,3.69-.99,3.96-.37Z"/>
                <path class="cls-4" d="M59.79,23.15c.15,.35-.72,1.11-1.95,1.69-1.23,.58-2.35,.77-2.5,.42s.72-1.11,1.95-1.69c1.23-.58,2.35-.77,2.5-.42Z"/>
              </g>
              <g>
                <path class="cls-3" d="M60.98,41.32c-.36,.58-2.09,.15-3.86-.95-1.77-1.1-2.92-2.46-2.56-3.04,.36-.58,2.09-.15,3.86,.95,1.77,1.1,2.92,2.46,2.56,3.04Z"/>
                <path class="cls-4" d="M59.48,39.75c-.2,.32-1.32,.04-2.5-.64-1.18-.68-1.97-1.49-1.77-1.81s1.32-.04,2.5,.64c1.18,.68,1.97,1.49,1.77,1.81Z"/>
              </g>
              <g>
                <path class="cls-3" d="M59.55,34.21c-.18,.65-1,1-1.83,.76s-1.34-.95-1.16-1.6c.18-.65,1-1,1.83-.76,.82,.23,1.34,.95,1.16,1.61Z"/>
                <path class="cls-4" d="M58.87,33.46c-.1,.37-.63,.58-1.18,.48-.55-.1-.91-.48-.81-.85,.1-.37,.63-.58,1.18-.48,.55,.1,.91,.48,.81,.85Z"/>
              </g>
              <g>
                <path class="cls-3" d="M73.35,36.21c.42,.21-.03,.89-1,1.5-.97,.62-2.09,.94-2.51,.73s.03-.89,1-1.5c.97-.62,2.09-.94,2.51-.73Z"/>
                <path class="cls-4" d="M72.02,36.65c.25,.11-.03,.54-.61,.97-.58,.42-1.26,.68-1.5,.56s.03-.54,.61-.97c.58-.42,1.26-.68,1.5-.56Z"/>
              </g>
              <g>
                <path class="cls-3" d="M74.42,19.8c-.09,.49-1.52,.63-3.2,.33-1.68-.31-2.97-.95-2.88-1.43,.09-.49,1.52-.63,3.2-.33s2.97,.95,2.88,1.43Z"/>
                <path class="cls-4" d="M72.81,19.11c-.05,.27-.98,.36-2.08,.2-1.1-.16-1.95-.52-1.9-.79s.98-.36,2.08-.2c1.1,.16,1.95,.52,1.9,.79Z"/>
              </g>
              <g>
                <path class="cls-3" d="M82.85,24.56c.16,.56-.56,1.25-1.61,1.55-1.05,.3-2.03,.09-2.18-.47s.56-1.25,1.61-1.55c1.05-.3,2.03-.09,2.18,.47Z"/>
                <path class="cls-4" d="M81.67,24.42c.09,.31-.38,.76-1.05,.99-.67,.23-1.29,.17-1.37-.14-.09-.31,.38-.76,1.05-.99,.67-.23,1.29-.17,1.37,.14Z"/>
              </g>
              <g>
                <path class="cls-3" d="M83.33,30.6c.29,.33,.13,.95-.37,1.39s-1.13,.51-1.42,.17c-.29-.33-.13-.95,.37-1.39,.49-.43,1.13-.51,1.42-.17Z"/>
                <path class="cls-4" d="M82.61,30.77c.16,.19,.05,.59-.25,.89-.3,.3-.68,.4-.84,.21-.16-.19-.05-.59,.25-.89,.3-.3,.68-.4,.84-.21Z"/>
              </g>
              <g>
                <path class="cls-3" d="M74.85,23.68c-.08,.38-1.01,.5-2.08,.28-1.07-.22-1.87-.71-1.79-1.09,.08-.38,1.01-.5,2.08-.28s1.87,.71,1.79,1.09Z"/>
                <path class="cls-4" d="M73.84,23.15c-.04,.21-.65,.29-1.35,.17-.7-.12-1.23-.39-1.19-.6,.04-.21,.65-.29,1.35-.17,.7,.12,1.23,.39,1.19,.6Z"/>
              </g>
              <g>
                <path class="cls-3" d="M67.92,41.91c-.04,.59-1.56,.97-3.38,.85-1.83-.13-3.28-.71-3.23-1.31,.04-.59,1.56-.97,3.38-.85,1.83,.13,3.28,.71,3.23,1.31Z"/>
                <path class="cls-4" d="M66.12,41.31c-.02,.33-1.01,.57-2.2,.53-1.19-.04-2.14-.34-2.12-.68,.02-.33,1.01-.57,2.2-.53,1.19,.04,2.14,.34,2.12,.68Z"/>
              </g>
              <g>
                <path class="cls-3" d="M81.24,31.28c.23,.55-.94,1.58-2.63,2.29-1.69,.72-3.24,.86-3.48,.31-.23-.55,.94-1.58,2.63-2.29,1.69-.72,3.24-.86,3.48-.31Z"/>
                <path class="cls-4" d="M79.36,31.56c.13,.31-.64,.97-1.72,1.48-1.08,.51-2.06,.67-2.19,.36s.64-.97,1.72-1.48c1.08-.51,2.06-.67,2.19-.36Z"/>
              </g>
              <g>
                <path class="cls-3" d="M58.19,30.94c-.22,.64-1.26,.87-2.31,.5-1.05-.37-1.73-1.18-1.51-1.82,.22-.64,1.26-.87,2.31-.5,1.05,.37,1.73,1.18,1.51,1.82Z"/>
                <path class="cls-4" d="M57.3,30.07c-.12,.36-.8,.5-1.5,.31-.7-.19-1.17-.64-1.05-1s.8-.5,1.5-.31,1.17,.64,1.05,1Z"/>
              </g>
              <g>
                <path class="cls-3" d="M56.84,32.6c-.04,.68-1.4,1.15-3.04,1.06-1.64-.09-2.94-.72-2.9-1.39s1.4-1.15,3.04-1.06,2.94,.72,2.9,1.39Z"/>
                <path class="cls-4" d="M55.22,31.97c-.02,.38-.91,.68-1.97,.67s-1.92-.33-1.9-.71c.02-.38,.91-.68,1.97-.67s1.92,.33,1.9,.71Z"/>
              </g>
              <g>
                <path class="cls-3" d="M69.89,40.84c-.41,.52-1.36,.46-2.11-.13-.75-.6-1.03-1.5-.62-2.03,.41-.52,1.36-.46,2.11,.13,.75,.6,1.03,1.5,.62,2.03Z"/>
                <path class="cls-4" d="M69.46,39.83c-.23,.29-.84,.25-1.36-.1-.52-.35-.76-.87-.52-1.16,.23-.29,.84-.25,1.36,.1,.52,.35,.76,.87,.52,1.16Z"/>
              </g>
              <g>
                <path class="cls-3" d="M73.19,40.52c.05,.35-.9,.98-2.12,1.42s-2.26,.51-2.31,.16c-.05-.35,.9-.98,2.12-1.42s2.26-.51,2.31-.16Z"/>
                <path class="cls-4" d="M71.92,40.68c-.02,.36-.59,.6-1.38,.91-.79,.31-1.46,.4-1.49,.21-.03-.19,.59-.6,1.38-.91,.79-.31,1.5-.4,1.49-.21Z"/>
              </g>
              <g>
                <path class="cls-3" d="M83.23,26.66c.15,.46-.49,1.01-1.43,1.23-.94,.22-1.83,.02-1.98-.44-.15-.46,.49-1.01,1.43-1.23,.94-.22,1.83-.02,1.98,.44Z"/>
                <path class="cls-4" d="M82.16,26.51c.08,.26-.33,.61-.94,.78-.6,.18-1.16,.11-1.24-.15-.08-.26,.33-.61,.94-.78s1.16-.11,1.24,.15Z"/>
              </g>
              <g>
                <path class="cls-3" d="M53.76,30.63c-.51,.43-1.57,.02-2.38-.92-.81-.94-1.05-2.06-.54-2.49,.51-.43,1.57-.02,2.38,.92,.81,.94,1.05,2.06,.54,2.49Z"/>
                <path class="cls-4" d="M53.35,29.33c-.28,.24-.97-.03-1.53-.61-.56-.58-.79-1.25-.5-1.49,.28-.24,.97,.03,1.53,.61s.79,1.25,.5,1.49Z"/>
              </g>
              <g>
                <path class="cls-3" d="M70.89,21.91c-.28,.5-1.75,.19-3.28-.68-1.53-.87-2.54-1.98-2.25-2.48,.28-.5,1.75-.19,3.28,.68,1.53,.87,2.54,1.98,2.25,2.48Z"/>
                <path class="cls-4" d="M69.57,20.63c-.16,.28-1.11,.07-2.13-.46-1.02-.53-1.71-1.19-1.55-1.47,.16-.28,1.11-.07,2.13,.46,1.02,.53,1.71,1.19,1.55,1.47Z"/>
              </g>
              <g>
                <path class="cls-3" d="M77.2,21.61c-.01,.55-1.39,.96-3.07,.92-1.68-.04-3.04-.52-3.02-1.06,.01-.55,1.39-.96,3.07-.92s3.04,.52,3.02,1.06Z"/>
                <path class="cls-4" d="M75.61,21.13c0,.31-.9,.57-2,.58-1.1,.01-1.98-.22-1.97-.53,0-.31,.9-.57,2-.58,1.1-.01,1.98,.22,1.97,.53Z"/>
              </g>
              <g>
                <path class="cls-3" d="M66.79,39.86c-.15,.66-1.92,.83-3.96,.37-2.04-.46-3.57-1.36-3.42-2.03,.15-.66,1.92-.83,3.96-.37,2.04,.46,3.57,1.36,3.42,2.03Z"/>
                <path class="cls-4" d="M64.86,38.87c-.08,.37-1.23,.47-2.57,.22-1.34-.25-2.35-.75-2.27-1.12,.08-.37,1.23-.47,2.57-.22,1.34,.25,2.35,.75,2.27,1.12Z"/>
              </g>
              <g>
                <path class="cls-3" d="M74.59,37.95c.23,.49-.57,1.35-1.78,1.91-1.21,.56-2.38,.62-2.6,.12-.23-.49,.57-1.35,1.78-1.91,1.21-.56,2.38-.62,2.6-.12Z"/>
                <path class="cls-4" d="M73.19,38.12c.13,.28-.39,.82-1.16,1.23s-1.5,.5-1.63,.23,.39-.83,1.16-1.23c.77-.4,1.5-.5,1.63-.23Z"/>
              </g>
              <g>
                <path class="cls-3" d="M79.34,36.57c.29,.46-.73,1.6-2.26,2.55-1.54,.95-3.01,1.34-3.3,.88-.29-.46,.73-1.6,2.26-2.55,1.54-.95,3.01-1.34,3.3-.88Z"/>
                <path class="cls-4" d="M77.57,37.15c.16,.26-.5,1-1.48,1.65-.98,.65-1.9,.97-2.06,.71-.16-.26,.5-1,1.48-1.65s1.9-.97,2.06-.71Z"/>
              </g>
              <g>
                <path class="cls-3" d="M80.49,23.45c-.02,.68-1.2,1.2-2.64,1.17s-2.6-.61-2.58-1.29c.02-.68,1.2-1.2,2.64-1.17,1.44,.03,2.6,.61,2.58,1.29Z"/>
                <path class="cls-4" d="M79.06,22.88c0,.38-.78,.71-1.72,.74s-1.69-.26-1.68-.64c0-.38,.78-.71,1.72-.74s1.69,.26,1.68,.64Z"/>
              </g>
              <g>
                <path class="cls-3" d="M65.14,19.27c.19,.65-.76,1.5-2.12,1.88-1.36,.39-2.61,.17-2.79-.48s.76-1.5,2.12-1.88c1.36-.39,2.61-.17,2.79,.48Z"/>
                <path class="cls-4" d="M63.62,19.14c.1,.37-.52,.91-1.38,1.21-.87,.3-1.66,.25-1.76-.12-.1-.37,.52-.91,1.38-1.21,.87-.3,1.66-.25,1.76,.12Z"/>
              </g>
              <g>
                <path class="cls-3" d="M57.56,35.95c-.18,.66-1.45,.88-2.84,.51-1.39-.37-2.38-1.21-2.2-1.86,.18-.66,1.45-.88,2.84-.51,1.39,.37,2.38,1.21,2.2,1.86Z"/>
                <path class="cls-4" d="M56.3,35.05c-.1,.37-.92,.51-1.84,.31s-1.58-.65-1.48-1.02c.1-.37,.92-.51,1.84-.31s1.58,.65,1.48,1.02Z"/>
              </g>
              <g>
                <path class="cls-3" d="M60.26,20.93c.2,.65-.75,1.52-2.12,1.95-1.38,.43-2.65,.25-2.86-.4-.2-.65,.75-1.52,2.12-1.95,1.38-.43,2.65-.25,2.86,.4Z"/>
                <path class="cls-4" d="M58.71,20.85c.11,.36-.51,.92-1.39,1.25-.88,.33-1.69,.3-1.8-.07-.11-.36,.51-.92,1.39-1.25,.88-.33,1.69-.3,1.8,.07Z"/>
              </g>
              <g>
                <path class="cls-3" d="M55.83,23.28c.32,.6-.44,1.64-1.7,2.33-1.27,.69-2.55,.76-2.88,.17-.32-.6,.44-1.64,1.7-2.33,1.27-.69,2.55-.76,2.88-.17Z"/>
                <path class="cls-4" d="M54.3,23.5c.18,.33-.32,1-1.12,1.5-.8,.49-1.6,.62-1.78,.29s.32-1,1.12-1.5c.8-.49,1.6-.62,1.78-.29Z"/>
              </g>
              <g>
                <path class="cls-3" d="M58.68,27.36c.07,.68-1.04,1.34-2.47,1.49-1.43,.14-2.65-.29-2.72-.96-.07-.68,1.04-1.34,2.47-1.49,1.43-.14,2.65,.29,2.72,.96Z"/>
                <path class="cls-4" d="M57.19,26.97c.04,.38-.68,.8-1.61,.95-.93,.14-1.71-.05-1.75-.43-.04-.38,.68-.8,1.61-.95,.93-.14,1.71,.05,1.75,.43Z"/>
              </g>
              <g>
                <path class="cls-3" d="M60.36,36.05c.25,.63-.25,1.42-1.11,1.75s-1.76,.09-2-.54,.25-1.42,1.11-1.75,1.76-.09,2,.54Z"/>
                <path class="cls-4" d="M59.3,35.89c.14,.36-.19,.86-.73,1.12-.54,.26-1.09,.19-1.23-.17-.14-.36,.19-.86,.73-1.12,.54-.26,1.09-.19,1.23,.17Z"/>
              </g>
              <g>
                <path class="cls-3" d="M82.01,32.77c.39,.46-.08,1.5-1.05,2.32-.97,.82-2.07,1.12-2.46,.66-.39-.46,.08-1.5,1.05-2.32,.97-.83,2.07-1.12,2.46-.66Z"/>
                <path class="cls-4" d="M80.72,33.23c.22,.26-.09,.93-.7,1.5-.6,.57-1.27,.82-1.49,.57s.09-.93,.7-1.5c.6-.57,1.27-.82,1.49-.57Z"/>
              </g>
              <g>
                <path class="cls-3" d="M79.4,27.62c-.43,.53-1.38,.47-2.13-.14-.75-.6-1.01-1.52-.58-2.05,.43-.53,1.38-.47,2.13,.14,.75,.6,1.01,1.52,.58,2.05Z"/>
                <path class="cls-4" d="M78.98,26.59c-.24,.3-.85,.25-1.37-.1-.52-.35-.74-.88-.51-1.18,.24-.3,.85-.25,1.37,.1,.52,.35,.74,.88,.51,1.18Z"/>
              </g>
              <g>
                <path class="cls-3" d="M78.03,35.12c.22,.64-.57,1.49-1.75,1.9-1.18,.4-2.32,.21-2.53-.44s.57-1.49,1.75-1.9,2.32-.21,2.53,.44Z"/>
                <path class="cls-4" d="M76.67,35.01c.12,.36-.39,.91-1.15,1.21-.75,.31-1.46,.27-1.58-.09-.12-.36,.39-.91,1.15-1.21s1.46-.27,1.58,.09Z"/>
              </g>
              <g>
                <path class="cls-3" d="M83.5,29.07c.08,.67-1.19,1.38-2.84,1.57-1.65,.19-3.04-.2-3.12-.87-.08-.67,1.19-1.38,2.84-1.57,1.65-.19,3.04,.2,3.12,.87Z"/>
                <path class="cls-4" d="M81.78,28.73c.04,.38-.78,.83-1.85,1-1.07,.18-1.97,.01-2.01-.37-.04-.38,.78-.83,1.85-1,1.07-.18,1.97-.01,2.01,.37Z"/>
              </g>
            </g>
          </g>
          <path class="cls-17" d="M68.95,22.94c-2.95,.19-7.28,.59-9.34,2.98-2.06,2.39-1.03,4.46,1.03,7.22s7.31,2.56,7.8,2.64c5.15-2.46,6.69-9.64,5.95-10.22-.74-.58-4.56-2.67-5.44-2.62Z"/>
          <path class="cls-21" d="M71.97,24.14s-10.75,2.81-10.45,9.95c-1.03-1.57,.36-8.17,7.57-11.14,1.43-.22,2.88,1.19,2.88,1.19Z"/>
          <path class="cls-19" d="M76.62,28.46s-9.2-.07-10.6,6.13c-.52-1.58,.29-7.11,7.17-7.99,3.05,0,3.43,1.86,3.43,1.86Z"/>
          <path class="cls-11" d="M74.22,24.2s.57,4.22-1.73,6.98-.52,2.94,.42,2.6,5.48-2.21,5.01-3.65c-.66-2.04-2.44-5.9-3.7-5.93Z"/>
          <path class="cls-12" d="M77.92,30.13c-.09-.27-.19-.53-.31-.78-.38,1.36-4.15,2.91-5,3.22-.33,.12-.76,.17-1.08,.08-.58,1.35,.65,1.41,1.39,1.14,.94-.35,5.48-2.21,5.01-3.65Z"/>
          <path class="cls-11" d="M60.51,35.39c-.34-.47,.12-1.94,.21-1.96,2.12-.56,7.86,.37,9.48-.04,.63-.16,2.01-1.04,2.26-.04,.01,.06,.09,2.03,.09,2.09,.03,.35-.94,.28-1.67,.73-.62,.39-1.02,1.79-1.84,1.79-1.71,0-2.57,.61-3.11,.34-1.37-.68-3.38-1.15-4.45-1.11-.93,.04-.75-1.48-.98-1.79Z"/>
          <path class="cls-5" d="M60.72,33.43c1.88-.64,7.79-.6,9.48-1.03,.67-.17,2.2,.04,2.31,1.2,.11,1.16-5.24,4.06-6.57,3.71s-6.04-3.6-5.22-3.88Z"/>
          <path class="cls-2" d="M68.19,35.51c.82-.27,1.77-.64,2.43-1.22,.29-.25,.97-.72,.8-1.16-.21-.56-1.54-.53-2-.47-.95,.12-1.9,.22-2.86,.36-1.08,.15-2.18,.05-3.25,.21-1.23,.18-.25,1.01,.28,1.51,1.32,1.23,2.9,1.34,4.59,.78Z"/>
        </g>
      </g>
      <g>
        <path class="cls-13" d="M.79,44.06c-1.29,1.49-1.48,5.37,3.15,9.07,4.63,3.7,11.85,10,22.04,5.37,10.19-4.63,15.32-10.25,13.89-13.33-5.38-11.59-24.02-18.52-39.07-1.11Z"/>
        <g>
          <g>
            <g>
              <path class="cls-10" d="M37.21,44.54c0,4.02-9.21,13.08-18.94,13.08S1.94,48.57,1.94,44.54c0-.27-.08-14.87,0-15.15,1.17-4.01,10.43,4.73,19.53,4.73s14.76-8.71,15.74-4.73c.1,.4,0,14.78,0,15.15Z"/>
              <path class="cls-9" d="M37.21,29.47c0,4.92-9.21,13.23-18.94,13.23S1.94,34.38,1.94,29.47s9.79-12.73,19.53-12.73,15.74,7.81,15.74,12.73Z"/>
              <path class="cls-6" d="M19.08,45.62v9.75c0,.72,.64,1.09,1.45,.93,9.79-1.97,16.17-8.95,16.17-12.15,0-.18,.03-5.69,.04-9.27,0-.72-.45-.8-.94-.11-2.69,3.8-7.79,7.51-15.27,9.18-.81,.18-1.45,.96-1.45,1.68Z"/>
              <path class="cls-6" d="M3.74,35.86c-.18-.24-.36-.47-.52-.7-.56-.78-.94-.83-.94-.07,0,3.73,.04,9.46,.04,9.65,0,.78,.42,1.84,1.17,3.05,.41,.66,.8,.59,.8-.13v-9.82c0-.72-.25-1.6-.55-1.98Z"/>
            </g>
            <path class="cls-8" d="M36.73,29.73c-1.57,5.63-9.06,12.18-18.39,12.18-8.22,0-13.68-6.4-15.7-10.82-.44-.95,.04-2.51,.21-3.08,.2-.66-.23-.93,.04-1.82,.07-.23,.79-.75,.74-.98-.38-1.75,1.61-3.08,3.67-3.75,.38-.13,.12-.76,1.78-1.82,.77-.49,2.76-.45,3.6-.91,.68-.37,1.53-1.01,2.34-1.29,1.47-.51,4.43,0,5.94-.33,3.56-.79,6.28,.83,6.98,1.43,1.05,.89,2.4,1.28,3.48,2.1,.09,.07,2.67,.25,2.13,2.04,.72-.34,2.88,.08,2.42,2.03,.08,.5,.63,1,.25,1.83-.38,.88,1.28,.36,.49,3.19Z"/>
            <g>
              <path class="cls-7" d="M36.6,29.84c-1.57,5.63-9.01,12.18-18.27,12.18-8.17,0-13.59-6.4-15.6-10.82-.43-.95,.04-2.51,.21-3.08,.19-.66-.23-.93,.04-1.82,.07-.23,.78-.75,.74-.98-.37-1.75,1.6-3.08,3.65-3.75,.38-.13,.12-.76,1.77-1.82,.76-.49,2.74-.45,3.58-.91,.67-.37,1.52-1.01,2.33-1.29,1.46-.51,4.41,0,5.9-.33,3.53-.79,6.24,.83,6.94,1.43,1.04,.89,2.38,1.28,3.46,2.1,.09,.07,2.66,.25,2.12,2.04,.71-.34,2.86,.08,2.41,2.03,.08,.5,.63,1,.25,1.83-.38,.88,1.27,.36,.48,3.19Z"/>
              <g>
                <path class="cls-3" d="M21.39,21.32c0,.58-1.45,1.05-3.23,1.05s-3.23-.47-3.23-1.05,1.44-1.05,3.23-1.05,3.23,.47,3.23,1.05Z"/>
                <path class="cls-4" d="M19.6,20.86c0,.33-.94,.62-2.1,.67-1.16,.04-2.1-.19-2.1-.51s.94-.62,2.1-.67c1.16-.04,2.1,.19,2.1,.51Z"/>
              </g>
              <g>
                <path class="cls-3" d="M14.68,21.89c.27,.62-1.07,1.8-2.99,2.62-1.92,.83-3.69,.99-3.96,.36-.27-.62,1.07-1.8,2.99-2.62,1.92-.83,3.69-.99,3.96-.36Z"/>
                <path class="cls-4" d="M12.54,22.23c.15,.35-.72,1.11-1.95,1.69-1.23,.58-2.35,.77-2.5,.42s.72-1.11,1.95-1.69c1.23-.58,2.35-.77,2.5-.42Z"/>
              </g>
              <g>
                <path class="cls-3" d="M13.72,40.4c-.36,.58-2.09,.15-3.86-.95s-2.92-2.46-2.56-3.04,2.09-.15,3.86,.95c1.77,1.1,2.92,2.46,2.56,3.04Z"/>
                <path class="cls-4" d="M12.22,38.83c-.2,.32-1.32,.04-2.5-.64-1.18-.68-1.97-1.49-1.77-1.81,.2-.32,1.32-.04,2.5,.64,1.18,.68,1.97,1.49,1.77,1.81Z"/>
              </g>
              <g>
                <path class="cls-3" d="M12.29,33.29c-.18,.65-1,1-1.83,.76-.82-.23-1.34-.95-1.16-1.6,.18-.65,1-1,1.83-.76,.82,.23,1.34,.95,1.16,1.6Z"/>
                <path class="cls-4" d="M11.61,32.54c-.1,.37-.63,.58-1.18,.48-.55-.1-.91-.48-.81-.85,.1-.37,.63-.58,1.18-.48,.55,.1,.91,.48,.81,.85Z"/>
              </g>
              <g>
                <path class="cls-3" d="M26.1,35.3c.42,.21-.03,.89-1,1.5-.97,.62-2.09,.94-2.51,.73-.42-.21,.03-.89,1-1.5,.97-.62,2.09-.94,2.51-.73Z"/>
                <path class="cls-4" d="M24.76,35.73c.25,.11-.03,.54-.61,.97-.58,.42-1.26,.68-1.5,.56-.25-.11,.03-.54,.61-.97,.58-.42,1.26-.68,1.5-.56Z"/>
              </g>
              <g>
                <path class="cls-3" d="M27.17,18.88c-.09,.49-1.52,.63-3.2,.33s-2.97-.95-2.88-1.43c.09-.49,1.52-.63,3.2-.33,1.68,.31,2.97,.95,2.88,1.43Z"/>
                <path class="cls-4" d="M25.55,18.19c-.05,.27-.98,.36-2.08,.2-1.1-.16-1.95-.52-1.9-.79,.05-.27,.98-.36,2.08-.2,1.1,.16,1.95,.52,1.9,.79Z"/>
              </g>
              <g>
                <path class="cls-3" d="M35.59,23.64c.16,.56-.56,1.25-1.61,1.55-1.05,.3-2.03,.09-2.18-.47s.56-1.25,1.61-1.55c1.05-.3,2.03-.09,2.18,.47Z"/>
                <path class="cls-4" d="M34.41,23.5c.09,.31-.38,.76-1.05,.99s-1.29,.17-1.38-.14c-.09-.31,.38-.76,1.05-.99,.67-.23,1.29-.17,1.37,.14Z"/>
              </g>
              <g>
                <path class="cls-3" d="M36.08,29.68c.29,.33,.13,.95-.37,1.39s-1.13,.51-1.42,.17c-.29-.33-.13-.95,.37-1.39,.49-.43,1.13-.51,1.42-.17Z"/>
                <path class="cls-4" d="M35.35,29.85c.16,.19,.05,.59-.25,.89-.3,.3-.68,.4-.84,.21-.16-.19-.05-.59,.25-.89,.3-.3,.68-.4,.84-.21Z"/>
              </g>
              <g>
                <path class="cls-3" d="M27.59,22.76c-.08,.38-1.01,.5-2.08,.28-1.07-.22-1.87-.71-1.79-1.09,.08-.38,1.01-.5,2.08-.28s1.87,.71,1.79,1.09Z"/>
                <path class="cls-4" d="M26.58,22.24c-.04,.21-.65,.29-1.35,.17-.7-.12-1.23-.39-1.19-.6,.04-.21,.65-.29,1.35-.17,.7,.12,1.23,.39,1.19,.6Z"/>
              </g>
              <g>
                <path class="cls-3" d="M20.66,40.99c-.04,.59-1.56,.97-3.38,.85s-3.28-.71-3.23-1.31c.04-.59,1.56-.97,3.38-.85s3.28,.71,3.23,1.31Z"/>
                <path class="cls-4" d="M18.86,40.39c-.02,.33-1.01,.57-2.2,.53-1.19-.04-2.14-.34-2.12-.68,.02-.33,1.01-.57,2.2-.53,1.19,.04,2.14,.34,2.12,.68Z"/>
              </g>
              <g>
                <path class="cls-3" d="M33.98,30.36c.23,.55-.94,1.58-2.63,2.29-1.69,.72-3.24,.86-3.48,.31-.23-.55,.94-1.58,2.63-2.29,1.69-.72,3.24-.86,3.48-.31Z"/>
                <path class="cls-4" d="M32.1,30.64c.13,.31-.64,.97-1.72,1.48-1.08,.51-2.06,.67-2.19,.36s.64-.97,1.72-1.48c1.08-.51,2.06-.67,2.19-.36Z"/>
              </g>
              <g>
                <path class="cls-3" d="M10.93,30.03c-.22,.64-1.26,.87-2.31,.5-1.05-.37-1.73-1.18-1.51-1.82,.22-.64,1.26-.87,2.31-.5s1.73,1.18,1.51,1.82Z"/>
                <path class="cls-4" d="M10.05,29.15c-.12,.36-.8,.5-1.5,.31-.7-.19-1.17-.64-1.05-1,.12-.36,.8-.5,1.5-.31s1.17,.64,1.05,1Z"/>
              </g>
              <g>
                <path class="cls-3" d="M9.58,31.68c-.04,.68-1.4,1.15-3.04,1.06-1.64-.09-2.94-.72-2.9-1.39,.04-.68,1.4-1.15,3.04-1.06,1.64,.09,2.94,.72,2.9,1.39Z"/>
                <path class="cls-4" d="M7.96,31.05c-.02,.38-.91,.68-1.97,.67-1.07-.01-1.92-.33-1.9-.71,.02-.38,.91-.68,1.97-.67s1.92,.33,1.9,.71Z"/>
              </g>
              <g>
                <path class="cls-3" d="M22.63,39.92c-.41,.52-1.36,.46-2.11-.13-.75-.6-1.03-1.5-.62-2.03,.41-.52,1.36-.46,2.11,.13,.75,.6,1.03,1.5,.62,2.03Z"/>
                <path class="cls-4" d="M22.2,38.91c-.23,.29-.84,.25-1.36-.1-.52-.35-.76-.87-.52-1.16,.23-.29,.84-.25,1.36,.1,.52,.35,.76,.87,.52,1.16Z"/>
              </g>
              <g>
                <path class="cls-3" d="M25.94,39.6c.05,.35-.9,.98-2.12,1.42s-2.26,.51-2.31,.16c-.05-.35,.9-.98,2.12-1.42s2.26-.51,2.31-.16Z"/>
                <path class="cls-4" d="M24.66,39.76c-.02,.36-.59,.6-1.38,.91-.79,.31-1.46,.4-1.49,.21-.03-.19,.59-.6,1.38-.91,.79-.31,1.5-.4,1.49-.21Z"/>
              </g>
              <g>
                <path class="cls-3" d="M35.97,25.74c.15,.46-.49,1.01-1.43,1.23-.94,.22-1.83,.02-1.98-.44-.15-.46,.49-1.01,1.43-1.23,.94-.22,1.83-.02,1.98,.44Z"/>
                <path class="cls-4" d="M34.9,25.6c.08,.26-.34,.61-.94,.78s-1.16,.11-1.24-.15c-.08-.26,.34-.61,.94-.78,.6-.18,1.16-.11,1.24,.15Z"/>
              </g>
              <g>
                <path class="cls-3" d="M6.5,29.71c-.51,.43-1.57,.02-2.38-.92-.81-.94-1.05-2.06-.54-2.49,.51-.43,1.57-.02,2.38,.92,.81,.94,1.05,2.06,.54,2.49Z"/>
                <path class="cls-4" d="M6.09,28.41c-.28,.24-.97-.03-1.53-.61-.56-.58-.79-1.25-.5-1.49s.97,.03,1.53,.61,.79,1.25,.5,1.49Z"/>
              </g>
              <g>
                <path class="cls-3" d="M23.63,20.99c-.28,.5-1.75,.19-3.28-.68-1.53-.87-2.54-1.98-2.25-2.48,.28-.5,1.75-.19,3.28,.68,1.53,.87,2.54,1.98,2.25,2.48Z"/>
                <path class="cls-4" d="M22.31,19.72c-.16,.28-1.11,.07-2.13-.46-1.02-.53-1.71-1.19-1.55-1.47s1.11-.07,2.13,.46c1.02,.53,1.71,1.19,1.55,1.47Z"/>
              </g>
              <g>
                <path class="cls-3" d="M29.94,20.69c-.01,.55-1.39,.96-3.07,.92-1.68-.04-3.04-.52-3.02-1.06,.01-.55,1.39-.96,3.07-.92,1.68,.04,3.04,.52,3.02,1.06Z"/>
                <path class="cls-4" d="M28.35,20.21c0,.31-.9,.57-2,.58-1.1,.01-1.98-.22-1.97-.53,0-.31,.9-.57,2-.58,1.1-.01,1.98,.22,1.97,.53Z"/>
              </g>
              <g>
                <path class="cls-3" d="M19.53,38.94c-.15,.66-1.92,.83-3.96,.37-2.04-.46-3.57-1.36-3.42-2.03,.15-.66,1.92-.83,3.96-.37,2.04,.46,3.57,1.36,3.42,2.03Z"/>
                <path class="cls-4" d="M17.6,37.95c-.08,.37-1.23,.47-2.57,.22-1.34-.25-2.35-.75-2.27-1.12s1.23-.47,2.57-.22c1.34,.25,2.35,.75,2.27,1.12Z"/>
              </g>
              <g>
                <path class="cls-3" d="M27.33,37.03c.23,.49-.57,1.35-1.78,1.91-1.21,.56-2.38,.62-2.6,.12-.23-.49,.57-1.35,1.78-1.91,1.21-.56,2.38-.62,2.6-.12Z"/>
                <path class="cls-4" d="M25.93,37.2c.13,.28-.39,.83-1.16,1.23-.77,.4-1.5,.5-1.63,.23-.13-.28,.39-.82,1.16-1.23,.77-.4,1.5-.5,1.63-.23Z"/>
              </g>
              <g>
                <path class="cls-3" d="M32.08,35.65c.29,.46-.73,1.6-2.26,2.55-1.54,.95-3.01,1.34-3.3,.88-.29-.46,.73-1.6,2.26-2.55,1.54-.95,3.01-1.34,3.3-.88Z"/>
                <path class="cls-4" d="M30.31,36.23c.16,.26-.5,1-1.48,1.65-.98,.65-1.9,.97-2.06,.71-.16-.26,.5-1,1.48-1.65s1.9-.97,2.06-.71Z"/>
              </g>
              <g>
                <path class="cls-3" d="M33.23,22.53c-.02,.68-1.2,1.2-2.64,1.17-1.44-.03-2.6-.61-2.58-1.29,.02-.68,1.2-1.2,2.64-1.17s2.6,.61,2.58,1.29Z"/>
                <path class="cls-4" d="M31.8,21.96c0,.38-.78,.71-1.72,.74s-1.69-.26-1.68-.64c0-.38,.78-.71,1.72-.74s1.69,.26,1.68,.64Z"/>
              </g>
              <g>
                <path class="cls-3" d="M17.88,18.35c.19,.65-.76,1.5-2.12,1.88-1.36,.39-2.61,.17-2.79-.48s.76-1.5,2.12-1.88c1.36-.39,2.61-.17,2.79,.48Z"/>
                <path class="cls-4" d="M16.37,18.22c.1,.37-.52,.91-1.38,1.21-.87,.3-1.66,.25-1.76-.12-.1-.37,.52-.91,1.38-1.21,.87-.3,1.66-.25,1.76,.12Z"/>
              </g>
              <g>
                <path class="cls-3" d="M10.3,35.03c-.18,.66-1.45,.88-2.84,.51s-2.38-1.21-2.2-1.86c.18-.66,1.45-.88,2.84-.51,1.39,.37,2.38,1.21,2.2,1.86Z"/>
                <path class="cls-4" d="M9.04,34.14c-.1,.37-.92,.51-1.84,.31s-1.58-.65-1.48-1.02c.1-.37,.92-.51,1.84-.31,.92,.2,1.58,.65,1.48,1.02Z"/>
              </g>
              <g>
                <path class="cls-3" d="M13,20.01c.2,.65-.75,1.52-2.12,1.95-1.38,.43-2.65,.25-2.86-.4-.2-.65,.75-1.52,2.12-1.95,1.38-.43,2.65-.25,2.86,.4Z"/>
                <path class="cls-4" d="M11.46,19.93c.11,.36-.51,.92-1.39,1.25-.88,.33-1.69,.3-1.8-.07-.11-.36,.51-.92,1.39-1.25,.88-.33,1.69-.3,1.8,.07Z"/>
              </g>
              <g>
                <path class="cls-3" d="M8.57,22.36c.32,.6-.44,1.64-1.7,2.33-1.27,.69-2.55,.76-2.88,.17-.32-.6,.44-1.64,1.7-2.33,1.27-.69,2.55-.76,2.88-.17Z"/>
                <path class="cls-4" d="M7.04,22.58c.18,.33-.32,1.01-1.12,1.5-.8,.49-1.6,.62-1.78,.29-.18-.33,.32-1,1.12-1.5,.8-.49,1.6-.62,1.78-.29Z"/>
              </g>
              <g>
                <path class="cls-3" d="M11.42,26.44c.07,.68-1.04,1.34-2.47,1.49-1.43,.14-2.65-.29-2.72-.96-.07-.68,1.04-1.34,2.47-1.49,1.43-.14,2.65,.29,2.72,.96Z"/>
                <path class="cls-4" d="M9.93,26.05c.04,.38-.68,.8-1.61,.95-.93,.14-1.71-.05-1.75-.43-.04-.38,.68-.8,1.61-.95,.93-.14,1.71,.05,1.75,.43Z"/>
              </g>
              <g>
                <path class="cls-3" d="M13.1,35.14c.25,.63-.25,1.42-1.11,1.75-.86,.33-1.76,.09-2-.54s.25-1.42,1.11-1.75c.86-.33,1.76-.09,2,.54Z"/>
                <path class="cls-4" d="M12.04,34.97c.14,.36-.19,.86-.73,1.12s-1.09,.19-1.23-.17,.19-.86,.73-1.12c.54-.26,1.09-.19,1.23,.17Z"/>
              </g>
              <g>
                <path class="cls-3" d="M34.75,31.85c.39,.46-.08,1.5-1.05,2.32-.97,.83-2.07,1.12-2.46,.66-.39-.46,.08-1.5,1.05-2.32,.97-.82,2.07-1.12,2.46-.66Z"/>
                <path class="cls-4" d="M33.46,32.31c.22,.26-.09,.93-.7,1.5-.6,.57-1.27,.82-1.49,.57s.09-.93,.7-1.5c.6-.57,1.27-.82,1.49-.57Z"/>
              </g>
              <g>
                <path class="cls-3" d="M32.14,26.7c-.43,.53-1.38,.47-2.13-.14-.75-.6-1.01-1.52-.58-2.05,.43-.53,1.38-.47,2.13,.14,.75,.6,1.01,1.52,.58,2.05Z"/>
                <path class="cls-4" d="M31.72,25.67c-.24,.3-.85,.25-1.37-.1-.52-.35-.74-.88-.51-1.18,.24-.3,.85-.25,1.37,.1s.74,.88,.51,1.18Z"/>
              </g>
              <g>
                <path class="cls-3" d="M30.78,34.2c.22,.64-.57,1.49-1.75,1.9-1.18,.4-2.32,.21-2.53-.44-.22-.64,.57-1.49,1.75-1.9,1.18-.4,2.32-.21,2.53,.44Z"/>
                <path class="cls-4" d="M29.41,34.1c.12,.36-.39,.91-1.15,1.21-.75,.31-1.46,.27-1.58-.09-.12-.36,.39-.91,1.15-1.21,.75-.31,1.46-.27,1.58,.09Z"/>
              </g>
              <g>
                <path class="cls-3" d="M36.24,28.16c.08,.67-1.19,1.38-2.84,1.57-1.65,.19-3.04-.2-3.12-.87-.08-.67,1.19-1.38,2.84-1.57,1.65-.19,3.04,.2,3.12,.87Z"/>
                <path class="cls-4" d="M34.52,27.81c.04,.38-.78,.83-1.85,1-1.07,.18-1.97,.01-2.01-.37-.04-.38,.78-.83,1.85-1,1.07-.18,1.97-.01,2.01,.37Z"/>
              </g>
            </g>
          </g>
          <path class="cls-20" d="M21.69,22.02c-2.95,.19-7.28,.59-9.34,2.98-2.06,2.39-1.03,4.46,1.03,7.22s7.31,2.56,7.8,2.64c5.15-2.46,6.69-9.64,5.95-10.22s-4.56-2.67-5.44-2.62Z"/>
          <path class="cls-14" d="M24.71,23.22s-10.75,2.81-10.45,9.95c-1.03-1.57,.36-8.17,7.57-11.14,1.43-.22,2.88,1.19,2.88,1.19Z"/>
          <path class="cls-15" d="M29.36,27.54s-9.2-.07-10.6,6.13c-.52-1.58,.29-7.11,7.17-8,3.05,0,3.43,1.86,3.43,1.86Z"/>
          <path class="cls-11" d="M26.96,23.29s.57,4.22-1.73,6.98-.52,2.94,.42,2.6,5.48-2.21,5.01-3.65c-.66-2.04-2.44-5.9-3.7-5.93Z"/>
          <path class="cls-12" d="M30.66,29.21c-.09-.27-.19-.53-.31-.78-.38,1.36-4.15,2.91-5,3.22-.33,.12-.76,.17-1.08,.08-.58,1.35,.65,1.41,1.39,1.14,.94-.35,5.48-2.21,5.01-3.65Z"/>
          <path class="cls-11" d="M13.25,34.47c-.34-.47,.12-1.94,.21-1.96,2.12-.56,7.86,.37,9.48-.04,.63-.16,2.01-1.04,2.26-.04,.01,.06,.09,2.03,.09,2.09,.03,.35-.94,.28-1.67,.73-.62,.39-1.02,1.79-1.84,1.79-1.71,0-2.57,.61-3.11,.34-1.38-.68-3.38-1.15-4.45-1.11-.93,.04-.75-1.48-.98-1.79Z"/>
          <path class="cls-5" d="M13.46,32.51c1.88-.64,7.79-.6,9.48-1.03,.67-.17,2.2,.04,2.31,1.2,.11,1.16-5.24,4.06-6.57,3.71s-6.04-3.6-5.22-3.88Z"/>
          <path class="cls-2" d="M20.93,34.6c.82-.27,1.77-.64,2.43-1.22,.29-.25,.97-.72,.8-1.16-.21-.56-1.54-.53-2-.47-.95,.12-1.9,.22-2.86,.36-1.08,.15-2.18,.05-3.25,.21-1.23,.18-.25,1.01,.28,1.51,1.32,1.23,2.9,1.34,4.59,.78Z"/>
        </g>
      </g>
      <g>
        <path class="cls-13" d="M22.63,61.72c-1.29,1.49-1.48,5.37,3.15,9.07s11.85,10,22.04,5.37c10.19-4.63,15.32-10.25,13.89-13.33-5.38-11.59-24.02-18.52-39.07-1.11Z"/>
        <g>
          <g>
            <g>
              <path class="cls-10" d="M59.05,62.2c0,4.02-9.21,13.08-18.94,13.08s-16.32-9.06-16.32-13.08c0-.27-.08-14.87,0-15.15,1.17-4.01,10.43,4.73,19.53,4.73s14.76-8.71,15.74-4.73c.1,.4,0,14.78,0,15.15Z"/>
              <path class="cls-9" d="M59.05,47.12c0,4.92-9.21,13.23-18.94,13.23s-16.32-8.32-16.32-13.23,9.79-12.73,19.53-12.73,15.74,7.81,15.74,12.73Z"/>
              <path class="cls-6" d="M40.92,63.28v9.75c0,.72,.64,1.09,1.45,.93,9.79-1.97,16.17-8.95,16.17-12.15,0-.18,.03-5.69,.04-9.27,0-.72-.45-.8-.94-.11-2.69,3.8-7.79,7.51-15.27,9.18-.81,.18-1.45,.96-1.45,1.68Z"/>
              <path class="cls-6" d="M25.59,53.52c-.18-.24-.36-.47-.52-.7-.56-.78-.94-.83-.94-.07,0,3.73,.04,9.46,.04,9.65,0,.78,.42,1.84,1.17,3.05,.41,.66,.8,.59,.8-.13v-9.82c0-.72-.25-1.6-.55-1.98Z"/>
            </g>
            <path class="cls-8" d="M58.57,47.38c-1.57,5.63-9.06,12.18-18.39,12.18-8.22,0-13.68-6.4-15.7-10.82-.44-.95,.04-2.51,.21-3.08,.2-.66-.23-.93,.04-1.82,.07-.23,.79-.75,.74-.98-.38-1.75,1.61-3.08,3.67-3.75,.38-.13,.12-.76,1.78-1.82,.77-.49,2.76-.45,3.6-.91,.68-.37,1.53-1.01,2.34-1.29,1.47-.51,4.43,0,5.94-.33,3.56-.79,6.28,.83,6.98,1.43,1.05,.89,2.4,1.28,3.48,2.1,.09,.07,2.67,.25,2.13,2.04,.72-.34,2.88,.08,2.42,2.03,.08,.5,.63,1,.25,1.83-.38,.88,1.28,.36,.49,3.19Z"/>
            <g>
              <path class="cls-7" d="M58.44,47.49c-1.57,5.63-9.01,12.18-18.27,12.18-8.17,0-13.59-6.4-15.6-10.82-.43-.95,.04-2.51,.21-3.08,.19-.66-.23-.93,.04-1.82,.07-.23,.78-.75,.74-.98-.37-1.75,1.6-3.08,3.65-3.75,.38-.13,.12-.76,1.77-1.82,.76-.49,2.74-.45,3.58-.91,.67-.37,1.52-1.01,2.33-1.29,1.46-.51,4.41,0,5.9-.33,3.53-.79,6.24,.83,6.94,1.43,1.04,.89,2.38,1.28,3.46,2.1,.09,.07,2.66,.25,2.12,2.04,.71-.34,2.86,.08,2.41,2.03,.08,.5,.63,1,.25,1.83-.38,.88,1.27,.36,.48,3.19Z"/>
              <g>
                <ellipse class="cls-3" cx="40.01" cy="38.97" rx="3.23" ry="1.05"/>
                <path class="cls-4" d="M41.44,38.51c0,.33-.94,.62-2.1,.67-1.16,.04-2.1-.19-2.1-.51s.94-.62,2.1-.67c1.16-.04,2.1,.19,2.1,.51Z"/>
              </g>
              <g>
                <path class="cls-3" d="M36.52,39.55c.27,.62-1.07,1.8-2.99,2.62s-3.69,.99-3.96,.36c-.27-.62,1.07-1.8,2.99-2.62,1.92-.83,3.69-.99,3.96-.36Z"/>
                <path class="cls-4" d="M34.38,39.88c.15,.35-.72,1.11-1.95,1.69-1.23,.58-2.35,.77-2.5,.42-.15-.35,.72-1.11,1.95-1.69,1.23-.58,2.35-.77,2.5-.42Z"/>
              </g>
              <g>
                <path class="cls-3" d="M35.56,58.06c-.36,.58-2.09,.15-3.86-.95s-2.92-2.46-2.56-3.04c.36-.58,2.09-.15,3.86,.95s2.92,2.46,2.56,3.04Z"/>
                <path class="cls-4" d="M34.06,56.49c-.2,.32-1.32,.04-2.5-.64-1.18-.68-1.97-1.49-1.77-1.81,.2-.32,1.32-.04,2.5,.64,1.18,.68,1.97,1.49,1.77,1.81Z"/>
              </g>
              <g>
                <path class="cls-3" d="M34.14,50.95c-.18,.65-1,1-1.83,.76-.82-.23-1.34-.95-1.16-1.6,.18-.65,1-1,1.83-.76,.82,.23,1.34,.95,1.16,1.6Z"/>
                <path class="cls-4" d="M33.45,50.19c-.1,.37-.63,.58-1.18,.48s-.91-.48-.81-.85c.1-.37,.63-.58,1.18-.48,.55,.1,.91,.48,.81,.85Z"/>
              </g>
              <g>
                <path class="cls-3" d="M47.94,52.95c.42,.21-.03,.89-1,1.5-.97,.62-2.09,.94-2.51,.73-.42-.21,.03-.89,1-1.5,.97-.62,2.09-.94,2.51-.73Z"/>
                <path class="cls-4" d="M46.6,53.39c.25,.11-.03,.54-.61,.97s-1.26,.68-1.5,.56c-.25-.11,.03-.54,.61-.97,.58-.42,1.26-.68,1.5-.56Z"/>
              </g>
              <g>
                <path class="cls-3" d="M49.01,36.54c-.09,.49-1.52,.63-3.2,.33-1.68-.31-2.97-.95-2.88-1.43,.09-.49,1.52-.63,3.2-.33s2.97,.95,2.88,1.43Z"/>
                <path class="cls-4" d="M47.39,35.84c-.05,.27-.98,.36-2.08,.2-1.1-.16-1.95-.52-1.9-.79,.05-.27,.98-.36,2.08-.2,1.1,.16,1.95,.52,1.9,.79Z"/>
              </g>
              <g>
                <path class="cls-3" d="M57.43,41.3c.16,.56-.56,1.25-1.61,1.55-1.05,.3-2.03,.09-2.18-.47-.16-.56,.56-1.25,1.61-1.55,1.05-.3,2.03-.09,2.18,.47Z"/>
                <path class="cls-4" d="M56.25,41.15c.09,.31-.38,.76-1.05,.99-.67,.23-1.29,.17-1.38-.14s.38-.76,1.05-.99c.67-.23,1.29-.17,1.37,.14Z"/>
              </g>
              <g>
                <path class="cls-3" d="M57.92,47.34c.29,.33,.13,.95-.37,1.39-.49,.43-1.13,.51-1.42,.17-.29-.33-.13-.95,.37-1.39s1.13-.51,1.42-.17Z"/>
                <path class="cls-4" d="M57.19,47.51c.16,.19,.05,.59-.25,.89-.3,.3-.68,.4-.84,.21s-.05-.59,.25-.89c.3-.3,.68-.4,.84-.21Z"/>
              </g>
              <g>
                <path class="cls-3" d="M49.44,40.42c-.08,.38-1.01,.5-2.08,.28s-1.87-.71-1.79-1.09,1.01-.5,2.08-.28c1.07,.22,1.87,.71,1.79,1.09Z"/>
                <path class="cls-4" d="M48.42,39.89c-.04,.21-.65,.29-1.35,.17-.7-.12-1.23-.39-1.19-.6,.04-.21,.65-.29,1.35-.17,.7,.12,1.23,.39,1.19,.6Z"/>
              </g>
              <g>
                <path class="cls-3" d="M42.51,58.65c-.04,.59-1.56,.97-3.38,.85s-3.28-.71-3.23-1.31c.04-.59,1.56-.97,3.38-.85,1.83,.13,3.28,.71,3.23,1.31Z"/>
                <path class="cls-4" d="M40.7,58.05c-.02,.33-1.01,.57-2.2,.53-1.19-.04-2.14-.34-2.12-.68,.02-.33,1.01-.57,2.2-.53,1.19,.04,2.14,.34,2.12,.68Z"/>
              </g>
              <g>
                <path class="cls-3" d="M55.83,48.01c.23,.55-.94,1.58-2.63,2.29-1.69,.72-3.24,.86-3.48,.31s.94-1.58,2.63-2.29c1.69-.72,3.24-.86,3.48-.31Z"/>
                <path class="cls-4" d="M53.94,48.3c.13,.31-.64,.97-1.72,1.48-1.08,.51-2.06,.67-2.19,.36-.13-.31,.64-.97,1.72-1.48,1.08-.51,2.06-.67,2.19-.36Z"/>
              </g>
              <g>
                <path class="cls-3" d="M32.77,47.68c-.22,.64-1.26,.87-2.31,.5s-1.73-1.18-1.51-1.82c.22-.64,1.26-.87,2.31-.5,1.05,.37,1.73,1.18,1.51,1.82Z"/>
                <path class="cls-4" d="M31.89,46.8c-.12,.36-.8,.5-1.5,.31s-1.17-.64-1.05-1,.8-.5,1.5-.31c.7,.19,1.17,.64,1.05,1Z"/>
              </g>
              <g>
                <path class="cls-3" d="M31.42,49.34c-.04,.68-1.4,1.15-3.04,1.06-1.64-.09-2.94-.72-2.9-1.39s1.4-1.15,3.04-1.06,2.94,.72,2.9,1.39Z"/>
                <path class="cls-4" d="M29.81,48.71c-.02,.38-.91,.68-1.97,.67s-1.92-.33-1.9-.71c.02-.38,.91-.68,1.97-.67,1.07,.01,1.92,.33,1.9,.71Z"/>
              </g>
              <g>
                <path class="cls-3" d="M44.48,57.58c-.41,.52-1.36,.46-2.11-.13-.75-.6-1.03-1.5-.62-2.03,.41-.52,1.36-.46,2.11,.13,.75,.6,1.03,1.5,.62,2.03Z"/>
                <path class="cls-4" d="M44.05,56.56c-.23,.29-.84,.25-1.36-.1-.52-.35-.76-.87-.52-1.16,.23-.29,.84-.25,1.36,.1,.52,.35,.76,.87,.52,1.16Z"/>
              </g>
              <g>
                <path class="cls-3" d="M47.78,57.26c.05,.35-.9,.98-2.12,1.42s-2.26,.51-2.31,.16c-.05-.35,.9-.98,2.12-1.42s2.26-.51,2.31-.16Z"/>
                <path class="cls-4" d="M46.51,57.42c-.02,.36-.59,.6-1.38,.91-.79,.31-1.46,.4-1.49,.21-.03-.19,.59-.6,1.38-.91,.79-.31,1.5-.4,1.49-.21Z"/>
              </g>
              <g>
                <path class="cls-3" d="M57.81,43.4c.15,.46-.49,1.01-1.43,1.23-.94,.22-1.83,.02-1.98-.44-.15-.46,.49-1.01,1.43-1.23,.94-.22,1.83-.02,1.98,.44Z"/>
                <path class="cls-4" d="M56.74,43.25c.08,.26-.33,.61-.94,.78s-1.16,.11-1.24-.15c-.08-.26,.34-.61,.94-.78s1.16-.11,1.24,.15Z"/>
              </g>
              <g>
                <path class="cls-3" d="M28.35,47.36c-.51,.43-1.57,.02-2.38-.92-.81-.94-1.05-2.06-.54-2.49,.51-.43,1.57-.02,2.38,.92,.81,.94,1.05,2.06,.54,2.49Z"/>
                <path class="cls-4" d="M27.94,46.07c-.28,.24-.97-.03-1.53-.61-.56-.58-.79-1.25-.5-1.49,.28-.24,.97,.03,1.53,.61,.56,.58,.79,1.25,.5,1.49Z"/>
              </g>
              <g>
                <path class="cls-3" d="M45.47,38.64c-.28,.5-1.75,.19-3.28-.68-1.53-.87-2.54-1.98-2.25-2.48,.28-.5,1.75-.19,3.28,.68,1.53,.87,2.54,1.98,2.25,2.48Z"/>
                <path class="cls-4" d="M44.16,37.37c-.16,.28-1.11,.07-2.13-.46-1.02-.53-1.71-1.19-1.55-1.47,.16-.28,1.11-.07,2.13,.46s1.71,1.19,1.55,1.47Z"/>
              </g>
              <g>
                <path class="cls-3" d="M51.78,38.34c-.01,.55-1.39,.96-3.07,.92s-3.04-.52-3.02-1.06c.01-.55,1.39-.96,3.07-.92,1.68,.04,3.04,.52,3.02,1.06Z"/>
                <path class="cls-4" d="M50.19,37.87c0,.31-.9,.57-2,.58-1.1,.01-1.98-.22-1.97-.53,0-.31,.9-.57,2-.58,1.1-.01,1.98,.22,1.97,.53Z"/>
              </g>
              <g>
                <path class="cls-3" d="M41.38,56.6c-.15,.66-1.92,.83-3.96,.37-2.04-.46-3.57-1.36-3.42-2.03,.15-.66,1.92-.83,3.96-.37,2.04,.46,3.57,1.36,3.42,2.03Z"/>
                <path class="cls-4" d="M39.44,55.61c-.08,.37-1.23,.47-2.57,.22-1.34-.25-2.35-.75-2.27-1.12,.08-.37,1.23-.47,2.57-.22s2.35,.75,2.27,1.12Z"/>
              </g>
              <g>
                <path class="cls-3" d="M49.17,54.68c.23,.49-.57,1.35-1.78,1.91-1.21,.56-2.38,.62-2.6,.12-.23-.49,.57-1.35,1.78-1.91,1.21-.56,2.38-.62,2.6-.12Z"/>
                <path class="cls-4" d="M47.77,54.86c.13,.28-.39,.83-1.16,1.23s-1.5,.5-1.63,.23c-.13-.28,.39-.83,1.16-1.23s1.5-.5,1.63-.23Z"/>
              </g>
              <g>
                <path class="cls-3" d="M53.93,53.3c.29,.46-.73,1.61-2.26,2.55-1.54,.95-3.01,1.34-3.3,.88-.29-.46,.73-1.6,2.26-2.55,1.54-.95,3.01-1.34,3.3-.88Z"/>
                <path class="cls-4" d="M52.16,53.89c.16,.26-.5,1-1.48,1.65s-1.9,.97-2.06,.71c-.16-.26,.5-1,1.48-1.65,.98-.65,1.9-.97,2.06-.71Z"/>
              </g>
              <g>
                <path class="cls-3" d="M55.08,40.19c-.02,.68-1.2,1.2-2.64,1.17s-2.6-.61-2.58-1.29c.02-.68,1.2-1.2,2.64-1.17s2.6,.61,2.58,1.29Z"/>
                <path class="cls-4" d="M53.64,39.61c0,.38-.78,.71-1.72,.74s-1.69-.26-1.68-.64c0-.38,.78-.71,1.72-.74,.94-.03,1.69,.26,1.68,.64Z"/>
              </g>
              <g>
                <path class="cls-3" d="M39.72,36c.19,.65-.76,1.5-2.12,1.88s-2.61,.17-2.79-.48c-.19-.65,.76-1.5,2.12-1.88,1.36-.39,2.61-.17,2.79,.48Z"/>
                <path class="cls-4" d="M38.21,35.87c.1,.37-.52,.91-1.38,1.21-.87,.3-1.66,.25-1.76-.12-.1-.37,.52-.91,1.38-1.21,.87-.3,1.66-.25,1.76,.12Z"/>
              </g>
              <g>
                <path class="cls-3" d="M32.15,52.69c-.18,.66-1.45,.88-2.84,.51-1.39-.37-2.38-1.21-2.2-1.86,.18-.66,1.45-.88,2.84-.51s2.38,1.21,2.2,1.86Z"/>
                <path class="cls-4" d="M30.89,51.79c-.1,.37-.92,.51-1.84,.31s-1.58-.65-1.48-1.02,.92-.51,1.84-.31,1.58,.65,1.48,1.02Z"/>
              </g>
              <g>
                <path class="cls-3" d="M34.84,37.67c.2,.65-.75,1.52-2.12,1.95-1.38,.43-2.65,.25-2.86-.4-.2-.65,.75-1.52,2.12-1.95,1.38-.43,2.65-.25,2.86,.4Z"/>
                <path class="cls-4" d="M33.3,37.58c.11,.36-.51,.92-1.39,1.25s-1.69,.3-1.8-.07,.51-.92,1.39-1.25c.88-.33,1.69-.3,1.8,.07Z"/>
              </g>
              <g>
                <path class="cls-3" d="M30.41,40.02c.32,.6-.44,1.64-1.7,2.33-1.27,.69-2.55,.76-2.88,.17s.44-1.64,1.7-2.33,2.55-.76,2.88-.17Z"/>
                <path class="cls-4" d="M28.88,40.24c.18,.33-.32,1-1.12,1.5-.8,.49-1.6,.62-1.78,.29s.32-1.01,1.12-1.5c.8-.49,1.6-.62,1.78-.29Z"/>
              </g>
              <g>
                <path class="cls-3" d="M33.27,44.1c.07,.68-1.04,1.34-2.47,1.49-1.43,.14-2.65-.29-2.72-.96-.07-.68,1.04-1.34,2.47-1.49,1.43-.14,2.65,.29,2.72,.96Z"/>
                <path class="cls-4" d="M31.77,43.71c.04,.38-.68,.8-1.61,.95-.93,.14-1.71-.05-1.75-.43s.68-.8,1.61-.95c.93-.14,1.71,.05,1.75,.43Z"/>
              </g>
              <g>
                <path class="cls-3" d="M34.95,52.79c.25,.63-.25,1.42-1.11,1.75s-1.76,.09-2-.54c-.25-.63,.25-1.42,1.11-1.75s1.76-.09,2,.54Z"/>
                <path class="cls-4" d="M33.89,52.62c.14,.36-.19,.86-.73,1.12-.54,.26-1.09,.19-1.23-.17-.14-.36,.19-.86,.73-1.12s1.09-.19,1.23,.17Z"/>
              </g>
              <g>
                <path class="cls-3" d="M56.59,49.5c.39,.46-.08,1.5-1.05,2.32-.97,.82-2.07,1.12-2.46,.66-.39-.46,.08-1.5,1.05-2.32,.97-.83,2.07-1.12,2.46-.66Z"/>
                <path class="cls-4" d="M55.31,49.97c.22,.26-.09,.93-.7,1.5-.6,.57-1.27,.82-1.49,.57s.09-.93,.7-1.5c.6-.57,1.27-.82,1.49-.57Z"/>
              </g>
              <g>
                <path class="cls-3" d="M53.98,44.36c-.43,.53-1.38,.47-2.13-.14-.75-.6-1.01-1.52-.58-2.05,.43-.53,1.38-.47,2.13,.14,.75,.6,1.01,1.52,.58,2.05Z"/>
                <path class="cls-4" d="M53.57,43.33c-.24,.3-.85,.25-1.37-.1-.52-.35-.74-.88-.51-1.18s.85-.25,1.37,.1c.52,.35,.74,.88,.51,1.18Z"/>
              </g>
              <g>
                <path class="cls-3" d="M52.62,51.86c.22,.64-.57,1.49-1.75,1.9-1.18,.4-2.32,.21-2.53-.44-.22-.64,.57-1.49,1.75-1.9s2.32-.21,2.53,.44Z"/>
                <path class="cls-4" d="M51.26,51.75c.12,.36-.39,.91-1.15,1.21-.75,.31-1.46,.27-1.58-.09-.12-.36,.39-.91,1.15-1.21s1.46-.27,1.58,.09Z"/>
              </g>
              <g>
                <path class="cls-3" d="M58.08,45.81c.08,.67-1.19,1.38-2.84,1.57s-3.04-.2-3.12-.87c-.08-.67,1.19-1.38,2.84-1.57,1.65-.19,3.04,.2,3.12,.87Z"/>
                <path class="cls-4" d="M56.37,45.47c.04,.38-.78,.83-1.85,1-1.07,.18-1.97,.01-2.01-.37-.04-.38,.78-.83,1.85-1s1.97-.01,2.01,.37Z"/>
              </g>
            </g>
          </g>
          <path class="cls-23" d="M43.53,39.68c-2.95,.19-7.28,.59-9.34,2.98-2.06,2.39-1.03,4.46,1.03,7.22,2.06,2.76,7.31,2.56,7.8,2.64,5.15-2.46,6.69-9.64,5.95-10.22-.74-.58-4.56-2.67-5.44-2.62Z"/>
          <path class="cls-24" d="M46.56,40.88s-10.75,2.81-10.45,9.95c-1.03-1.57,.36-8.17,7.57-11.14,1.43-.22,2.88,1.19,2.88,1.19Z"/>
          <path class="cls-22" d="M51.2,45.19s-9.2-.07-10.6,6.13c-.52-1.58,.29-7.11,7.17-7.99,3.05,0,3.43,1.86,3.43,1.86Z"/>
          <path class="cls-11" d="M48.81,40.94s.57,4.22-1.73,6.98-.52,2.94,.42,2.6,5.48-2.21,5.01-3.65c-.66-2.04-2.44-5.9-3.7-5.93Z"/>
          <path class="cls-12" d="M52.5,46.87c-.09-.27-.19-.53-.31-.78-.38,1.36-4.15,2.91-5,3.22-.33,.12-.76,.17-1.08,.08-.58,1.35,.65,1.41,1.39,1.14,.94-.35,5.48-2.21,5.01-3.65Z"/>
          <path class="cls-11" d="M35.09,52.13c-.34-.47,.12-1.94,.21-1.96,2.12-.56,7.86,.37,9.48-.04,.63-.16,2.01-1.04,2.26-.04,.01,.06,.09,2.03,.09,2.09,.03,.35-.94,.28-1.67,.73-.62,.39-1.02,1.79-1.84,1.79-1.71,0-2.57,.61-3.11,.34-1.38-.68-3.38-1.15-4.45-1.11-.93,.04-.75-1.48-.98-1.79Z"/>
          <path class="cls-5" d="M35.31,50.16c1.88-.64,7.79-.6,9.48-1.03,.67-.17,2.2,.04,2.31,1.2,.11,1.16-5.24,4.06-6.57,3.71s-6.04-3.6-5.22-3.88Z"/>
          <path class="cls-2" d="M42.77,52.25c.82-.27,1.77-.64,2.43-1.22,.29-.25,.97-.72,.8-1.16-.21-.56-1.54-.53-2-.47-.95,.12-1.9,.22-2.86,.36-1.08,.15-2.18,.05-3.25,.21-1.23,.18-.25,1.01,.28,1.51,1.32,1.23,2.9,1.34,4.59,.78Z"/>
        </g>
      </g>
    </g>
  </g>
</svg>