<?xml version="1.0" encoding="UTF-8"?>
<svg xmlns="http://www.w3.org/2000/svg" viewBox="0 0 98 72.32">
  <defs>
    <style>
      .cls-1 {
        fill: #ece2ac;
      }

      .cls-2 {
        fill: #fff;
      }

      .cls-3 {
        fill: #fcfbe6;
      }

      .cls-4 {
        fill: #ff9447;
      }

      .cls-5 {
        fill: #ff6a21;
      }

      .cls-6 {
        fill: #de4900;
      }

      .cls-7 {
        fill: #b8b5aa;
        mix-blend-mode: multiply;
      }

      .cls-8 {
        isolation: isolate;
      }
    </style>
  </defs>
  <g class="cls-8">
    <g id="Layer_2" data-name="Layer 2">
      <g id="_图层_5" data-name="图层 5">
        <g id="_图层_1_255" data-name="图层 1,255">
          <path class="cls-7" d="M89.52,64.84c-.09-.17-.25-.33-.45-.49,.69-.51,.76-1.49,.06-2.56-.33-.49-.78-.94-1.3-1.31,.45-.31,.81-.71,1.01-1.2,.5-1.23-.2-2.52-1.57-3.05,1.17-.61,1.56-1.46,.81-2.13-.86-.79-2.95-1.05-4.87-.68-.05-.05-.11-.1-.17-.15,.1-.1,.19-.19,.28-.3,.96-1.3,.41-2.81-1.24-3.36-.32-.11-.67-.16-1.01-.19-.41-.79-1.9-1.68-3.88-2.24-.97-.27-1.91-.43-2.76-.48-.03-.16-.08-.32-.15-.49-.61-1.49-2.42-2.69-4.06-2.68-.15,0-.28,.02-.42,.04-.8-.73-2.76-1.25-4.84-1.22-.64,0-1.22,.07-1.73,.17,0-.06,.03-.11,.03-.17,.11-1.52-1.24-2.97-3.02-3.24-.44-.07-.86-.05-1.24,.03-.92-.77-3.07-1.29-5.28-1.2-.93,.04-1.74,.18-2.39,.39-.81-1.44-2.68-2.53-4.25-2.46-1.11,.05-1.77,.67-1.84,1.54-.05-.08-.08-.17-.13-.25-.92-1.46-2.93-2.53-4.48-2.39-.44,.04-.79,.18-1.05,.39-1.06-.52-2.8-.79-4.53-.63-.93,.09-1.72,.28-2.3,.54-.97-1.3-2.74-2.22-4.21-2.13-1.44,.09-2.1,1.11-1.68,2.39-.02,0-.04,0-.06,0-1.37-1.4-3.58-2.31-5.06-2.03-1.17,.22-1.55,1.1-1.09,2.17-1.62-1.33-3.93-2.09-5.3-1.7-1.34,.38-1.27,1.71,.06,3.06-.18-.06-.36-.12-.56-.17-2.56-.69-4.98-.54-5.41,.33-.17,.34,.01,.75,.43,1.15-.77-.22-1.51-.29-2.1-.15-1.41,.34-1.4,1.75,0,3.15-.85,.29-1.56,.84-1.91,1.58-.43,.93-.18,1.89,.54,2.56-1.12,.17-1.86,.56-1.87,1.12-.02,.75,1.29,1.57,3.14,2.06-.8,.09-1.4,.33-1.59,.72-.45,.89,1.31,2.19,3.92,2.91,.17,.05,.33,.08,.5,.12-.4,.21-.65,.47-.65,.79,0,.99,2.21,2.09,4.96,2.45,.02,0,.04,0,.07,0-.56,.25-.87,.58-.81,.98,.15,.97,2.41,1.93,5.05,2.14,.42,.03,.81,.04,1.19,.03-.82,.68-.94,1.48-.16,2.09,.95,.74,2.93,.94,4.74,.55,.44,.8,2.17,1.63,4.33,1.99,.97,.16,1.88,.21,2.65,.16,.03,.11,.04,.22,.09,.34,.58,1.57,2.45,2.85,4.17,2.86,.74,0,1.33-.24,1.72-.63,.09,.13,.18,.26,.29,.4,1.18,1.38,3.3,2.31,4.73,2.06,.36-.06,.63-.19,.84-.37,.19,.45,.59,.85,1.21,1.09,1.17,.46,2.71,.27,3.85-.39,.05,.14,.13,.29,.26,.42,.91,.92,3.45,1.27,5.68,.77,.53-.12,.99-.28,1.38-.46,.33,1.41,1.77,2.63,3.42,2.79,1.17,.11,2.13-.34,2.62-1.09,.22,.34,.57,.64,1.07,.84,1.5,.61,3.65,.17,4.81-.97,0,0,0,0,0,0,.23,.29,.56,.55,1.01,.73,1.56,.63,3.8,.18,5-1.02,0,0,0-.01,.01-.02,.21,.22,.48,.42,.83,.57,1.49,.64,3.69,.24,4.92-.89,.51-.46,.76-.98,.79-1.47,1.89,.7,3.8,.84,4.55,.27,.7-.53,.15-1.53-1.2-2.43,.02-.01,.03-.03,.05-.04,.59,.06,1.2,.09,1.83,.06,2.57-.11,4.24-1.01,3.73-2Z"/>
        </g>
        <g id="_图层_1_254" data-name="图层 1,254">
          <path class="cls-1" d="M91.29,43.94c-.12-.28-.31-.52-.53-.73,.59-1.15,.48-2.94-.41-4.63-.41-.78-.94-1.43-1.51-1.93,.39-.7,.67-1.55,.78-2.49,.27-2.39-.65-4.47-2.1-4.98,1.04-1.48,1.27-3.13,.42-4.1-.99-1.13-3.09-.92-4.91,.39-.06-.07-.13-.15-.19-.22,.08-.21,.16-.41,.22-.63,.71-2.66-.11-5.19-1.83-5.65-.34-.09-.68-.07-1.03,0-.55-1.28-2.17-2.4-4.22-2.75-1-.17-1.96-.14-2.8,.06-.06-.28-.13-.55-.23-.83-.87-2.48-2.87-4.04-4.48-3.48-.15,.05-.28,.13-.41,.22-.92-1.05-2.94-1.34-4.98-.61-.63,.23-1.18,.53-1.67,.88,0-.11,0-.21,0-.32-.17-2.77-1.75-4.94-3.55-4.83-.44,.03-.85,.19-1.22,.46-1.04-1.09-3.25-1.31-5.41-.41-.91,.38-1.68,.91-2.28,1.5-1.06-2.32-3.09-3.67-4.63-3.02-1.09,.46-1.62,1.8-1.53,3.38-.06-.14-.11-.27-.18-.41-1.17-2.32-3.34-3.58-4.84-2.82-.43,.22-.74,.59-.97,1.04-1.13-.58-2.9-.49-4.57,.36-.9,.46-1.64,1.07-2.16,1.74-1.18-2.01-3.1-3.1-4.53-2.45-1.4,.63-1.87,2.69-1.22,4.85-.02,0-.04,.01-.06,.02-1.6-2.07-3.94-2.97-5.35-1.98-1.11,.78-1.32,2.49-.68,4.26-1.83-1.85-4.24-2.46-5.52-1.31-1.25,1.12-.94,3.5,.61,5.48-.19-.05-.38-.1-.58-.13-2.65-.4-5,.67-5.26,2.38-.1,.67,.15,1.34,.63,1.94-.8-.14-1.54-.02-2.09,.43-1.33,1.09-1.07,3.6,.56,5.68-.78,.8-1.39,2.03-1.59,3.48-.26,1.81,.17,3.46,1,4.43-1.07,.68-1.73,1.63-1.64,2.63,.12,1.36,1.56,2.39,3.46,2.68-.77,.44-1.31,1.05-1.43,1.81-.28,1.75,1.69,3.51,4.38,3.94,.17,.03,.34,.03,.51,.05-.36,.51-.55,1.06-.5,1.63,.17,1.79,2.55,3.03,5.32,2.77,.02,0,.04,0,.07-.01-.5,.63-.75,1.34-.62,2.03,.32,1.7,2.72,2.68,5.35,2.18,.42-.08,.81-.2,1.18-.34-.68,1.49-.66,2.98,.22,3.82,1.07,1.02,3.05,.72,4.76-.57,.58,1.29,2.43,2.21,4.62,2.16,.98-.02,1.89-.24,2.64-.59,.05,.19,.08,.38,.15,.58,.85,2.63,2.92,4.31,4.62,3.76,.73-.24,1.26-.86,1.58-1.69,.11,.21,.22,.42,.36,.62,1.42,2.1,3.67,3.06,5.03,2.15,.34-.23,.59-.55,.75-.94,.27,.75,.73,1.33,1.38,1.57,1.23,.45,2.72-.41,3.72-1.98,.08,.24,.18,.48,.33,.68,1.06,1.36,3.62,1.14,5.73-.49,.5-.39,.92-.82,1.27-1.28,.58,2.43,2.22,4.14,3.87,3.89,1.17-.18,2.03-1.31,2.38-2.83,.28,.54,.68,.96,1.2,1.16,1.58,.6,3.62-.89,4.55-3.34,0,0,0,0,0,0,.28,.45,.65,.8,1.12,.98,1.65,.63,3.77-.93,4.74-3.48,0-.01,0-.02,.01-.03,.24,.34,.55,.6,.92,.75,1.58,.65,3.67-.79,4.68-3.23,.41-1,.57-2.01,.51-2.9,1.98,.64,3.89,.26,4.52-1.02,.59-1.19-.13-2.8-1.62-3.97,.02-.03,.03-.06,.04-.09,.59-.08,1.2-.24,1.81-.5,2.5-1.05,3.98-3.21,3.31-4.83Z"/>
        </g>
        <g id="_图层_1_253" data-name="图层 1,253">
          <path class="cls-3" d="M73.57,30.69s-.05,0-.08-.02c.09-.19,.18-.37,.26-.57,.91-2.41,.39-4.84-1.16-5.43-.78-.3-1.68-.07-2.5,.53,.69-2.13,.23-4.2-1.15-4.77-.63-.26-1.35-.15-2.05,.23-.37-1.02-1.35-2.05-2.7-2.72-.69-.34-1.4-.53-2.06-.61,.09-.44,.07-.88-.09-1.28-.64-1.53-3.08-1.97-5.45-.98-.52,.22-.98,.49-1.39,.79-.12-.44-.28-.88-.51-1.31-1.15-2.18-3.22-3.34-4.63-2.6-.02,.01-.04,.03-.06,.05-.02-.07-.02-.14-.05-.2-.22-.54-.67-.93-1.26-1.19-.42-.64-.99-1.07-1.66-1.15-.84-.1-1.66,.38-2.29,1.21-.12,.04-.23,.07-.35,.12-.86,.36-1.59,.86-2.15,1.41-1-2.19-2.92-3.47-4.38-2.86-1.03,.43-1.53,1.7-1.45,3.19-.06-.13-.1-.26-.17-.39-1.11-2.19-3.16-3.39-4.57-2.67-.49,.25-.83,.7-1.04,1.27-1.07-.45-2.63-.34-4.13,.43-1.08,.55-1.91,1.33-2.39,2.15-1.1-1.3-2.52-1.9-3.64-1.4-1.35,.61-1.78,2.64-1.09,4.74-1.52-2.05-3.79-2.95-5.16-2-1.35,.95-1.29,3.37,.1,5.49-1.33-.68-2.69-.73-3.52,.02-1.26,1.14-.86,3.63,.89,5.58,.09,.1,.19,.18,.28,.28-2.38-.26-4.44,.72-4.68,2.27-.19,1.24,.85,2.47,2.46,3.15-1.04,1.13-.73,3.4,.8,5.27,.6,.73,1.29,1.29,2,1.66-.12,.37-.22,.75-.28,1.16-.36,2.54,.68,4.79,2.32,5.02,.11,.02,.21,0,.31,0,.19,1.57,2.21,2.66,4.63,2.54-.09,1.59,1.69,3.14,4.15,3.53,.53,.08,1.04,.09,1.53,.06,.6,1.33,2.59,2.18,4.85,1.97,.29-.03,.58-.08,.86-.14,.4,1.53,2.59,2.4,5.01,1.94,.49-.09,.95-.25,1.37-.42-.07,.82,.12,1.55,.64,2.04,1.2,1.14,3.6,.56,5.36-1.3,.06-.07,.11-.13,.17-.2,.83,.71,2.17,1.16,3.67,1.13,1.32-.03,2.49-.43,3.29-1.04,.93,1.99,2.62,3.18,4.04,2.72,1.42-.46,2.09-2.42,1.67-4.59,.07,.11,.12,.22,.19,.33,1.34,1.99,3.47,2.9,4.75,2.03,.67-.45,.97-1.29,.93-2.27,.18,.15,.37,.28,.58,.36,1.47,.53,3.33-.87,4.15-3.14,.11-.3,.19-.6,.25-.9,1.04-.03,2.23-.46,3.3-1.29,1.05-.81,1.75-1.83,2.05-2.8,1.59-.37,2.56-2.62,2.17-5.14-.14-.9-.44-1.7-.83-2.37,.38-.48,.72-1.05,.96-1.71,.88-2.31,.38-4.65-1.12-5.22Z"/>
        </g>
        <g id="_图层_1_252" data-name="图层 1,252">
          <path class="cls-2" d="M46.48,41.23c1.23-4.44-3.89-9.74-11.43-11.83-7.55-2.09-14.66-.19-15.89,4.25-1.23,4.44,3.89,9.74,11.43,11.83s14.66,.19,15.89-4.25Z"/>
        </g>
        <g id="_图层_1_251" data-name="图层 1,251">
          <path class="cls-6" d="M.35,23.22C2.24,19.91,11.79-2.89,31.17,.31c19.39,3.19,36.37,6.19,51.85,16.84,10.09,6.94,22.56,22.04,9.06,30.94-13.5,8.9-19.42,1.97-30.37-5.24-10.95-7.21-45.54-20.78-54.78-15.44C-2.29,32.74,.35,23.22,.35,23.22Z"/>
        </g>
        <g id="_图层_1_250" data-name="图层 1,250">
          <path class="cls-5" d="M80.54,49.9c-4.84,0-8.89-2.83-14.01-6.4-1.31-.92-2.69-1.88-4.15-2.84-8.99-5.92-35.39-16.85-49.36-16.85-2.85,0-5.09,.46-6.67,1.37-2.09,1.21-3.28,1.46-3.91,1.46-.54,0-.75-.18-.86-.34-.61-.8-.34-2.87-.1-3.83,.17-.3,.38-.72,.64-1.23C4.78,16,12.92,0,27.51,0,28.65,0,29.81,.1,30.98,.29c18.37,3.02,35.72,5.88,51.37,16.64,7.01,4.83,14.53,13.23,14.46,20.3-.03,3.42-1.84,6.33-5.38,8.66-4.09,2.69-7.65,4-10.89,4.01Z"/>
        </g>
        <g id="_图层_1_249" data-name="图层 1,249">
          <path class="cls-4" d="M83.02,17.14C67.55,6.5,50.56,3.5,31.17,.31,20.05-1.53,12.17,5.2,7.11,11.89c-1.72,3.27-2.81,5.8-3.1,6.51,0,0-1.02,7.13,5.15,2.41,6.17-4.72,32.43,1.86,41.02,6.05,8.58,4.19,29.36,13.28,38.29,5.58,2.72-2.35,3.64-4.88,3.38-7.39-2.66-3.1-5.84-5.86-8.82-7.91Z"/>
        </g>
        <g id="_图层_1_248" data-name="图层 1,248">
          <path class="cls-4" d="M13.97,13.91s.08-.02,.12-.05c4.49-3.07,8.57-6.77,12.53-10.49,1.01-.94,2.21-2.02,3.4-3.21-1.52-.17-2.97-.19-4.37-.07-.38,.39-.76,.78-1.15,1.17-3.82,3.86-8.1,7.3-11.25,11.77-.07,.1-.09,.21-.09,.31-.05,.05-.1,.1-.12,.17-.83,4.18-.97,8.48-1.44,12.73,.76-.05,1.58-.05,2.44-.02,.48-4.35,.5-8.61-.09-12.32Z"/>
        </g>
        <g id="_图层_1_247" data-name="图层 1,247">
          <path class="cls-4" d="M6.29,27.77c.63-2.99,1.01-6.02,.99-9.07,0-.14-.09-.22-.19-.28,2.37-5.35,5.21-10.16,8.46-14.69-2.68,1.76-4.99,3.99-6.95,6.31-1.14,2.75-1.95,5.54-2.37,8.25-.04,.23,.13,.44,.32,.51-.66,3.35-1.59,6.65-2.5,9.95,.64-.2,1.39-.52,2.24-.98Z"/>
        </g>
        <g id="_图层_1_246" data-name="图层 1,246">
          <path class="cls-4" d="M66.58,46.18c-.14-8.37-1.31-16.75-3.16-24.24,5.15-1.53,10.17-3.92,15.04-6.15,.48-.22,.96-.44,1.46-.67-.88-.54-1.77-1.07-2.66-1.57-.54,.28-1.08,.55-1.64,.8-4.36,1.98-9.14,3.56-13,6.44-.22,.03-.42,.16-.51,.38-.05,.04-.1,.07-.14,.11-.36,.29-.12,.79,.25,.92,1.65,7.4,2.18,14.8,2.01,22.35,.81,.56,1.59,1.11,2.35,1.64Z"/>
        </g>
        <g id="_图层_1_245" data-name="图层 1,245">
          <path class="cls-4" d="M97.97,39c.06-.93,0-1.87-.16-2.82-1.42,.34-2.84,.68-4.27,1.03-3.37,.82-6.92,1.15-10.08,2.6-.51,.23-.45,.77-.15,1.1-1.09,3.77-2.03,7.57-2.99,11.37,.97,.02,1.97-.07,3.01-.28,.59-3.67,.9-7.31,.83-10.79,3.38,.21,6.82-.72,10.11-1.36,1.26-.25,2.5-.53,3.7-.85Z"/>
        </g>
        <g id="_图层_1_244" data-name="图层 1,244">
          <path class="cls-4" d="M71.23,10.52c-1.01-.46-2.03-.89-3.06-1.3-1.26,.74-2.53,1.48-3.83,2.12-3.61,1.76-8.14,3.22-10.82,6.33-.38-.61-1.6-.39-1.5,.44,.84,6.69,1.21,13.27,.98,20,.81,.38,1.59,.77,2.34,1.14,.26-7.19-.22-14.4-1.63-20.96,3.69-.56,7.3-2.58,10.65-4.14,2.26-1.06,4.74-2.15,6.88-3.62Z"/>
        </g>
        <g id="_图层_1_243" data-name="图层 1,243">
          <path class="cls-4" d="M24.41,27.8c.64-5.25,.35-10.45-1.76-15.19,3.88-.22,7.17-4.98,9.69-7.38,1.42-1.35,3.04-2.63,4.69-3.95-1.32-.23-2.66-.45-4-.67-.14,.13-.28,.26-.42,.38-3.89,3.41-7.75,7.21-11.37,10.85-.21,.21-.13,.64,.19,.7,.17,.03,.34,.04,.5,.06,1.27,4.89,1.25,9.84,.64,14.79,.61,.13,1.22,.27,1.84,.41Z"/>
        </g>
        <g id="_图层_1_242" data-name="图层 1,242">
          <path class="cls-4" d="M43.05,33.8c1.18-6.29,2.29-13.81-.81-18.96,3.87-1.05,7.46-3.8,10.67-6,1.41-.97,3.06-2.03,4.68-3.17-1.17-.33-2.34-.64-3.53-.93-.81,.68-1.61,1.34-2.42,1.93-3.35,2.44-7.27,4.47-10.42,7.17-.34,0-.65,.24-.71,.62-.05,.04-.1,.08-.14,.13-.24,.23-.05,.51,.2,.56,.93,5.83,.88,11.8,.27,17.8,.74,.28,1.48,.57,2.21,.85Z"/>
        </g>
        <g id="_图层_1_241" data-name="图层 1,241">
          <path class="cls-4" d="M74.31,28.33c2.76-.5,5.44-1.35,8.18-1.97,2.82-.64,5.81-1.16,8.52-2.26-.64-.7-1.31-1.38-1.99-2.04-1.97,.38-3.92,.9-5.87,1.34-3.67,.82-7.64,1.67-10.68,3.97-.4,.3-.4,1.1,.12,1.2,.1,7.13,.23,13.99-.64,21.09,.96,.54,1.91,1.02,2.87,1.41,1.03-7.9,1.02-15.92-.51-22.75Z"/>
        </g>
        <g id="_图层_1_240" data-name="图层 1,240">
          <path class="cls-4" d="M34.58,30.72c.64-5.04,1.33-13.02-2.24-17.28,3.94-1.37,7.44-4.23,10.78-6.64,1.52-1.1,3.17-2.23,4.71-3.49-1.02-.21-2.05-.42-3.08-.62-.98,.84-1.94,1.68-2.91,2.45-3.28,2.59-7.15,4.71-10.1,7.68-.08-.07-.14-.15-.22-.22-.15-.14-.4,0-.35,.2,1.56,6.1,2.33,11.3,1.78,17.4,.54,.17,1.09,.35,1.63,.53Z"/>
        </g>
        <g id="_图层_1_239" data-name="图层 1,239">
          <path class="cls-2" d="M64.44,10.78c.33-1.98-8.92-5.18-20.67-7.17-11.75-1.98-21.54-1.99-21.88-.02-.33,1.97,9.52,1.61,21.27,3.59,11.75,1.99,20.94,5.57,21.27,3.59Z"/>
        </g>
        <g id="_图层_1_238" data-name="图层 1,238">
          <path class="cls-2" d="M93.86,32.57c1.23-1.64-1.95-6.11-7.11-9.99-5.16-3.88-10.34-5.69-11.57-4.05-1.23,1.64,6.1,1.44,9.34,7.02,5.55,9.58,8.1,8.66,9.34,7.02Z"/>
        </g>
      </g>
    </g>
  </g>
</svg>