<?xml version="1.0" encoding="UTF-8"?>
<svg xmlns="http://www.w3.org/2000/svg" viewBox="0 0 98 70.29">
  <defs>
    <style>
      .cls-1 {
        fill: #fff;
      }

      .cls-2, .cls-3 {
        fill: #ffc554;
      }

      .cls-4 {
        fill: #e6be8a;
      }

      .cls-5, .cls-6 {
        fill: #b4703d;
      }

      .cls-7 {
        fill: #e39b0e;
      }

      .cls-8, .cls-9 {
        fill: #9c5723;
      }

      .cls-9, .cls-10, .cls-6 {
        mix-blend-mode: multiply;
      }

      .cls-10 {
        fill: #b8b5aa;
      }

      .cls-3 {
        mix-blend-mode: screen;
      }

      .cls-11 {
        isolation: isolate;
      }
    </style>
  </defs>
  <g class="cls-11">
    <g id="Layer_2" data-name="Layer 2">
      <g id="_图层_5" data-name="图层 5">
        <g id="_图层_475" data-name="图层 475">
          <path class="cls-10" d="M77.1,61.57c.31-5.51-10.21-10.58-23.5-11.32-13.29-.74-24.31,3.12-24.62,8.63-.31,5.51,10.21,10.58,23.5,11.32,13.29,.74,24.31-3.12,24.62-8.63Z"/>
        </g>
        <g id="_图层_474" data-name="图层 474">
          <path class="cls-8" d="M30.02,58.14c0,3.88,8.5,7.03,18.98,7.03s18.98-3.15,18.98-7.03-8.5-18.57-18.98-18.57-18.98,14.69-18.98,18.57Z"/>
        </g>
        <g id="_图层_473" data-name="图层 473">
          <path class="cls-5" d="M98,35.04c0-6.45-21.94-11.67-49-11.67S0,28.6,0,35.04s21.94,27.1,49,27.1,49-20.65,49-27.1Z"/>
        </g>
        <g id="_图层_472" data-name="图层 472">
          <ellipse class="cls-4" cx="49" cy="35.04" rx="49" ry="21.31"/>
        </g>
        <g id="_图层_471" data-name="图层 471">
          <path class="cls-5" d="M49,52.94c-24.91,0-45.96-8.51-45.96-18.58S24.09,15.78,49,15.78s45.96,8.51,45.96,18.58-21.05,18.58-45.96,18.58Z"/>
        </g>
        <g id="_图层_470" data-name="图层 470">
          <path class="cls-8" d="M41.18,25.04c-17.4-2.26-32.98,4.73-34.01,15.26-.05,.52-.06,1.05-.03,1.58,7.3,6.45,23.53,11.06,41.86,11.06,7.92,0,15.44-.86,22.02-2.36,.18-.63,.3-1.28,.36-1.94,1.03-10.53-12.8-21.34-30.21-23.6Z"/>
        </g>
        <g id="_图层_469" data-name="图层 469">
          <path class="cls-6" d="M56.82,25.04c48.86-7.76,1.76,36.25,34.05,16.84-7.3,6.45-23.53,11.06-41.86,11.06-7.92,0-15.44-.86-22.03-2.36-.18-.63-.3-1.28-.36-1.94-1.03-10.53,12.87-20.84,30.21-23.6Z"/>
        </g>
        <g id="_图层_468" data-name="图层 468">
          <path class="cls-1" d="M7.24,44.11c-.38,1.42,4.44,4.44,10.76,6.76,6.32,2.32,11.75,3.05,12.13,1.63,.38-1.42-5.5-.96-11.82-3.28-6.32-2.32-10.7-6.53-11.08-5.11Z"/>
        </g>
        <g id="_图层_467" data-name="图层 467">
          <path class="cls-2" d="M62.65,7.81c7.58-6.75,6.29-6.58,5.7-7.25-.6-.67-.28-1.93-7.86,4.82-7.58,6.75-13.24,12.77-12.65,13.44,.6,.67,7.23-4.26,14.81-11.01Z"/>
        </g>
        <g id="_图层_466" data-name="图层 466">
          <path class="cls-1" d="M61.6,6.63C69.18-.12,68.21,.41,68.01,.18c-.2-.23,.44-1.13-7.15,5.62-7.58,6.75-13.56,12.41-13.36,12.64,.2,.23,6.52-5.06,14.1-11.81Z"/>
        </g>
        <g id="_图层_465" data-name="图层 465">
          <path class="cls-2" d="M29.42,35.14c7.58-6.75,6.5-6.35,6.15-6.74-.35-.39,.17-1.43-7.41,5.33-7.58,6.75-13.45,12.54-13.1,12.93s6.78-4.76,14.36-11.52Z"/>
        </g>
        <g id="_图层_464" data-name="图层 464">
          <path class="cls-1" d="M28.81,34.46c7.58-6.75,6.68-6.14,6.56-6.28-.12-.13,.59-.96-6.99,5.8-7.58,6.75-13.44,12.55-13.32,12.68,.12,.13,6.17-5.45,13.75-12.2Z"/>
        </g>
        <g id="_图层_463" data-name="图层 463">
          <path class="cls-2" d="M85.59,9.17c6.95-7.4,5.68-7.11,5.03-7.73-.66-.62-.45-1.9-7.4,5.5-6.95,7.4-12.06,13.9-11.4,14.51,.66,.62,6.82-4.88,13.78-12.28Z"/>
        </g>
        <g id="_图层_462" data-name="图层 462">
          <path class="cls-1" d="M84.44,8.09c6.95-7.4,6.04-6.78,5.81-6.99-.22-.21,.34-1.17-6.62,6.23-6.95,7.4-12.41,13.57-12.19,13.77,.22,.21,6.04-5.62,12.99-13.02Z"/>
        </g>
        <g id="_图层_461" data-name="图层 461">
          <path class="cls-2" d="M59.3,35.76c-.51-.48-.18-1.65-7.13,5.75-4.2,4.47-7.75,8.55-9.81,11.2,.56,.02,1.07,.05,1,.05,.38,0,.76,0,1.13,0,2.48-2.28,5.87-5.65,9.51-9.53,6.95-7.4,5.81-7,5.3-7.48Z"/>
        </g>
        <g id="_图层_460" data-name="图层 460">
          <path class="cls-1" d="M59.02,35.5c-.17-.16,.43-1.08-6.53,6.32-4.08,4.34-7.55,8.32-9.7,10.92,.36,.02,.61,.03,.56,.03,.04,0,.08,0,.12,0,2.3-2.47,5.74-6.21,9.64-10.36,6.95-7.4,6.08-6.75,5.9-6.91Z"/>
        </g>
        <g id="_图层_459" data-name="图层 459">
          <g>
            <path class="cls-7" d="M57.85,11.53c-2.45-3.42-6.26-3.93-9.46-2.42-1.39,.45-2.68,1.32-3.71,2.6-1.21,.59-2.3,1.53-2.9,2.4-1.42,2.05-1.13,4.35,.11,6.41,.22,.36,.48,.69,.76,1.01,.06,.16,.09,.33,.16,.49,1.9,4.4,7.92,5.22,11.87,3.23,.44-.22,.83-.47,1.19-.74,2.04-.83,3.52-2.36,4.2-4.66,.83-2.8-.63-6.08-2.23-8.31Z"/>
            <path class="cls-2" d="M56.32,11.49c-2.13-2.97-5.45-3.42-8.24-2.11-1.21,.39-2.34,1.15-3.23,2.27-1.05,.52-2,1.33-2.52,2.09-1.24,1.79-.98,3.79,.09,5.58,.19,.31,.42,.61,.66,.88,.05,.14,.08,.29,.14,.43,1.65,3.84,6.9,4.55,10.34,2.81,.38-.19,.72-.41,1.04-.65,1.78-.72,3.07-2.06,3.66-4.06,.72-2.44-.55-5.3-1.94-7.24Z"/>
            <path class="cls-3" d="M50.3,17.48c2.56-2.45,3.54-5.57,2.19-6.98-1.35-1.41-4.51-.56-7.07,1.89-2.56,2.45-3.54,5.57-2.19,6.98,1.35,1.41,4.51,.56,7.07-1.89Z"/>
            <path class="cls-9" d="M55.81,8.68c-5.26-3.51-12.48,1.63-14.76,5.38-.1,.17-.18,.68-.25,.81-.49,.88,.48,1.77,1.53,1.76,1.74,.09,2.52,.78,2.34,2.06,.07,.63,.88,1.21,1.62,1.11,.87-.17,1.75-.19,2.66-.05,.86,.09,1.39-.31,1.6-.97-.02,.07,.4,1.88,.58,2.4,.18,.54,.91,.79,1.49,.79,1.58,0,2.5-1.89,3.1-2.89,.26-.43,.41-.92,.55-1.4,.5,.38,.98,.82,1.44,1.21,.43,.35,1.25,.38,1.68,.08,4-2.78-.35-8.13-3.56-10.27Z"/>
            <path class="cls-1" d="M42.38,14.85c.2-.3,.22-.65,.03-.78-.19-.13-.5,.02-.71,.32-.2,.3-.22,.65-.03,.77,.19,.13,.5-.01,.71-.32Z"/>
            <path class="cls-1" d="M46.11,18.1c.2-.3,.22-.65,.03-.78-.19-.13-.5,.02-.71,.32-.21,.3-.22,.65-.03,.77,.19,.13,.5-.02,.71-.32Z"/>
            <path class="cls-1" d="M45.8,16.97c.09-.12,.09-.27,.01-.32-.08-.05-.21,0-.3,.13-.08,.13-.09,.27-.01,.32,.08,.05,.21,0,.3-.13Z"/>
            <path class="cls-1" d="M58.72,17.57c-.12-.2-.33-.3-.45-.23-.13,.08-.13,.31,0,.51,.13,.2,.33,.3,.45,.23,.13-.08,.13-.3,0-.51Z"/>
            <path class="cls-1" d="M52.34,20.3c0-.44-.17-.81-.4-.81-.23,0-.41,.36-.42,.8,0,.44,.17,.8,.4,.81,.22,0,.41-.35,.42-.8Z"/>
            <path class="cls-1" d="M53.12,8.47c-.24-.5-2.38-.2-4.78,.67-2.4,.88-4.15,1.99-3.91,2.5,.24,.5,1.83-1.07,4.23-1.94,2.4-.88,4.7-.73,4.46-1.23Z"/>
          </g>
        </g>
        <g id="_图层_458" data-name="图层 458">
          <g>
            <path class="cls-7" d="M48.26,19.88c-2.73-3.81-6.97-4.37-10.54-2.7-1.55,.5-2.99,1.47-4.13,2.9-1.34,.66-2.56,1.7-3.23,2.67-1.58,2.29-1.26,4.85,.12,7.13,.24,.4,.53,.77,.84,1.13,.06,.18,.1,.37,.18,.55,2.12,4.9,8.82,5.82,13.22,3.6,.48-.24,.92-.53,1.33-.83,2.28-.92,3.93-2.63,4.68-5.19,.92-3.11-.7-6.77-2.48-9.26Z"/>
            <path class="cls-2" d="M46.55,19.83c-2.38-3.31-6.07-3.81-9.18-2.35-1.35,.44-2.6,1.28-3.6,2.52-1.17,.58-2.23,1.48-2.81,2.33-1.38,1.99-1.1,4.23,.11,6.22,.21,.35,.46,.67,.73,.98,.06,.16,.09,.32,.16,.48,1.84,4.27,7.68,5.07,11.52,3.13,.42-.21,.8-.46,1.16-.72,1.98-.8,3.42-2.29,4.08-4.53,.8-2.72-.61-5.9-2.16-8.07Z"/>
            <path class="cls-3" d="M39.85,26.5c2.85-2.73,3.94-6.21,2.44-7.77-1.5-1.57-5.03-.62-7.87,2.1-2.85,2.73-3.94,6.21-2.44,7.77,1.5,1.57,5.02,.63,7.87-2.1Z"/>
            <path class="cls-9" d="M45.99,16.7c-5.86-3.91-13.9,1.81-16.44,5.99-.11,.19-.2,.76-.28,.91-.55,.98,.54,1.97,1.71,1.96,1.94,.1,2.8,.86,2.6,2.29,.07,.7,.98,1.35,1.8,1.24,.96-.19,1.95-.21,2.96-.06,.96,.1,1.55-.34,1.79-1.08-.03,.08,.45,2.09,.64,2.67,.2,.6,1.01,.88,1.66,.88,1.76,0,2.79-2.1,3.45-3.22,.29-.48,.45-1.03,.61-1.56,.56,.43,1.09,.91,1.61,1.34,.48,.4,1.39,.42,1.87,.09,4.45-3.1-.39-9.05-3.97-11.44Z"/>
            <path class="cls-1" d="M31.04,23.58c.23-.33,.24-.72,.03-.86-.21-.14-.56,.02-.79,.35-.23,.34-.24,.72-.03,.86,.21,.14,.56-.02,.79-.35Z"/>
            <path class="cls-1" d="M35.19,27.2c.23-.34,.24-.72,.03-.86-.21-.14-.56,.02-.79,.35-.23,.33-.24,.72-.03,.86,.21,.14,.56-.02,.79-.35Z"/>
            <path class="cls-1" d="M34.84,25.94c.09-.14,.1-.3,.01-.36-.09-.06-.23,0-.33,.15-.09,.14-.1,.3-.01,.36,.09,.06,.23,0,.33-.15Z"/>
            <path class="cls-1" d="M49.23,26.61c-.14-.23-.36-.34-.5-.25-.14,.09-.14,.34,0,.56,.14,.23,.36,.34,.5,.25,.14-.09,.14-.34,0-.56Z"/>
            <path class="cls-1" d="M42.13,29.65c0-.49-.19-.9-.45-.9-.25,0-.46,.39-.46,.89,0,.49,.19,.89,.45,.9,.25,0,.46-.39,.46-.89Z"/>
            <path class="cls-1" d="M43,16.47c-.27-.56-2.65-.22-5.32,.75-2.67,.98-4.62,2.22-4.36,2.78,.27,.56,2.04-1.19,4.71-2.16,2.67-.97,5.23-.81,4.97-1.37Z"/>
          </g>
        </g>
        <g id="_图层_457" data-name="图层 457">
          <g>
            <path class="cls-7" d="M37.12,29.55c-2.88-4.02-7.36-4.62-11.12-2.85-1.64,.53-3.15,1.55-4.36,3.06-1.42,.7-2.7,1.79-3.4,2.82-1.67,2.41-1.33,5.12,.13,7.53,.25,.42,.56,.82,.89,1.19,.07,.19,.11,.39,.19,.58,2.23,5.18,9.31,6.14,13.95,3.8,.51-.26,.97-.56,1.4-.87,2.4-.97,4.14-2.78,4.94-5.48,.97-3.29-.74-7.15-2.62-9.77Z"/>
            <path class="cls-2" d="M35.32,29.51c-2.51-3.5-6.41-4.02-9.69-2.48-1.43,.46-2.75,1.35-3.8,2.66-1.23,.61-2.35,1.56-2.97,2.45-1.45,2.1-1.16,4.46,.11,6.56,.22,.37,.49,.71,.77,1.04,.06,.17,.09,.34,.16,.5,1.95,4.51,8.11,5.35,12.16,3.31,.45-.22,.84-.48,1.22-.76,2.09-.85,3.61-2.42,4.31-4.78,.84-2.86-.64-6.23-2.28-8.51Z"/>
            <path class="cls-3" d="M28.25,36.54c3.01-2.88,4.16-6.55,2.57-8.21-1.58-1.65-5.3-.66-8.31,2.22-3.01,2.88-4.16,6.55-2.58,8.21,1.58,1.65,5.3,.66,8.31-2.22Z"/>
            <path class="cls-9" d="M34.73,26.2c-6.19-4.12-14.68,1.92-17.35,6.32-.12,.2-.21,.8-.3,.96-.58,1.04,.57,2.08,1.8,2.07,2.04,.11,2.96,.91,2.75,2.42,.08,.74,1.03,1.42,1.9,1.3,1.02-.2,2.06-.23,3.13-.06,1.01,.1,1.63-.36,1.89-1.14-.03,.08,.47,2.21,.68,2.82,.21,.63,1.07,.93,1.75,.92,1.85,0,2.94-2.22,3.64-3.4,.3-.51,.48-1.08,.64-1.65,.59,.45,1.15,.97,1.69,1.42,.5,.42,1.47,.45,1.97,.09,4.7-3.27-.41-9.56-4.19-12.08Z"/>
            <path class="cls-1" d="M18.94,33.46c.24-.35,.26-.76,.04-.91-.22-.15-.59,.02-.83,.37-.24,.35-.26,.76-.04,.91,.22,.15,.59-.02,.83-.37Z"/>
            <path class="cls-1" d="M23.32,37.28c.24-.35,.26-.76,.04-.91-.22-.15-.59,.02-.83,.37-.24,.35-.25,.76-.03,.91,.22,.15,.59-.02,.83-.37Z"/>
            <path class="cls-1" d="M22.96,35.95c.1-.15,.11-.32,.01-.38-.09-.06-.25,0-.35,.15-.1,.15-.11,.32-.01,.38,.09,.06,.25,0,.35-.15Z"/>
            <path class="cls-1" d="M38.14,36.66c-.14-.24-.38-.36-.53-.27-.15,.09-.15,.36,0,.6,.15,.24,.39,.36,.53,.27,.15-.09,.15-.36,0-.6Z"/>
            <path class="cls-1" d="M30.65,39.87c0-.52-.21-.95-.47-.95-.26,0-.49,.42-.49,.94,0,.52,.21,.94,.47,.95,.26,0,.48-.42,.49-.94Z"/>
            <path class="cls-1" d="M31.57,25.95c-.28-.59-2.79-.24-5.61,.79-2.82,1.03-4.88,2.34-4.6,2.93,.28,.59,2.15-1.25,4.97-2.28,2.82-1.03,5.52-.85,5.25-1.44Z"/>
          </g>
        </g>
        <g id="_图层_456" data-name="图层 456">
          <g>
            <path class="cls-7" d="M80.77,12.1c-3.03-3.27-7.1-3.3-10.27-1.3-1.41,.66-2.65,1.74-3.56,3.23-1.19,.78-2.21,1.91-2.73,2.9-1.22,2.35-.61,4.73,.96,6.72,.28,.35,.59,.67,.93,.97,.08,.16,.14,.34,.23,.5,2.58,4.38,9.01,4.45,12.91,1.83,.43-.29,.81-.61,1.16-.94,2.04-1.14,3.4-2.95,3.81-5.46,.5-3.05-1.46-6.31-3.44-8.45Z"/>
            <path class="cls-2" d="M79.15,12.26c-2.64-2.85-6.18-2.88-8.95-1.13-1.22,.57-2.31,1.52-3.1,2.81-1.04,.68-1.93,1.66-2.38,2.53-1.06,2.05-.53,4.12,.84,5.86,.24,.31,.52,.58,.81,.84,.07,.14,.12,.29,.2,.43,2.24,3.81,7.85,3.87,11.24,1.6,.37-.25,.7-.53,1.01-.82,1.78-.99,2.96-2.57,3.31-4.76,.44-2.66-1.27-5.5-3-7.36Z"/>
            <path class="cls-3" d="M73.62,19.35c2.37-2.91,2.98-6.33,1.38-7.63-1.6-1.3-4.82,0-7.18,2.91-2.36,2.91-2.98,6.33-1.38,7.63,1.6,1.3,4.82,0,7.18-2.92Z"/>
            <path class="cls-9" d="M78.26,9.37c-6-3-12.91,3.36-14.81,7.6-.09,.19-.1,.74-.16,.89-.4,.99,.74,1.8,1.84,1.65,1.84-.13,2.75,.48,2.73,1.85,.15,.65,1.08,1.15,1.85,.95,.89-.3,1.82-.43,2.79-.41,.91-.02,1.42-.51,1.56-1.23-.01,.08,.67,1.92,.92,2.45,.26,.54,1.06,.71,1.67,.63,1.66-.22,2.38-2.32,2.87-3.45,.21-.49,.31-1.02,.39-1.54,.58,.34,1.13,.73,1.67,1.08,.5,.32,1.36,.23,1.78-.14,3.84-3.45-1.44-8.5-5.1-10.33Z"/>
            <path class="cls-1" d="M64.95,17.64c.17-.34,.14-.71-.07-.82-.21-.11-.53,.08-.7,.43-.17,.34-.14,.71,.07,.82,.21,.11,.53-.08,.7-.43Z"/>
            <path class="cls-1" d="M69.3,20.56c.17-.34,.14-.71-.07-.82-.21-.11-.53,.08-.7,.43-.18,.34-.14,.71,.07,.82,.21,.11,.53-.08,.7-.43Z"/>
            <path class="cls-1" d="M68.82,19.41c.07-.14,.06-.3-.03-.34-.09-.04-.22,.03-.29,.18-.07,.14-.06,.3,.03,.34,.09,.05,.22-.03,.29-.18Z"/>
            <path class="cls-1" d="M82.48,18.34c-.16-.2-.38-.28-.51-.18-.12,.1-.09,.34,.06,.53,.16,.2,.38,.28,.51,.18,.12-.1,.09-.34-.06-.53Z"/>
            <path class="cls-1" d="M76.14,22.05c-.05-.47-.29-.82-.53-.8-.24,.03-.39,.43-.33,.9,.05,.47,.29,.82,.53,.79,.24-.03,.39-.43,.33-.89Z"/>
            <path class="cls-1" d="M75.4,9.5c-.32-.5-2.52,.1-4.93,1.34-2.41,1.24-4.1,2.64-3.79,3.14,.31,.5,1.78-1.36,4.19-2.6,2.41-1.23,4.85-1.38,4.53-1.88Z"/>
          </g>
        </g>
        <g id="_图层_455" data-name="图层 455">
          <g>
            <path class="cls-7" d="M71.79,22.14c-3.37-3.64-7.91-3.68-11.44-1.45-1.56,.73-2.95,1.94-3.96,3.59-1.32,.87-2.47,2.13-3.04,3.23-1.36,2.61-.68,5.27,1.07,7.49,.31,.39,.66,.74,1.04,1.08,.09,.18,.16,.38,.26,.55,2.87,4.88,10.04,4.95,14.38,2.04,.48-.32,.9-.67,1.29-1.04,2.27-1.27,3.78-3.28,4.24-6.08,.56-3.4-1.63-7.03-3.83-9.41Z"/>
            <path class="cls-2" d="M69.99,22.32c-2.94-3.17-6.89-3.21-9.96-1.26-1.36,.64-2.57,1.69-3.45,3.13-1.15,.76-2.15,1.85-2.65,2.82-1.18,2.28-.59,4.59,.93,6.52,.27,.34,.58,.65,.9,.94,.08,.16,.14,.33,.23,.48,2.5,4.25,8.75,4.31,12.52,1.78,.42-.28,.78-.59,1.12-.91,1.98-1.11,3.3-2.86,3.69-5.3,.48-2.96-1.42-6.12-3.34-8.19Z"/>
            <path class="cls-3" d="M63.82,30.22c2.63-3.24,3.32-7.05,1.54-8.5-1.79-1.45-5.37,0-8,3.25-2.64,3.24-3.32,7.04-1.54,8.49,1.78,1.45,5.37,0,8-3.25Z"/>
            <path class="cls-9" d="M68.99,19.11c-6.68-3.34-14.38,3.74-16.49,8.46-.09,.21-.11,.83-.17,.99-.45,1.11,.83,2,2.05,1.84,2.05-.15,3.06,.54,3.04,2.07,.17,.73,1.21,1.29,2.06,1.06,.99-.33,2.03-.48,3.11-.45,1.02-.02,1.58-.56,1.74-1.37-.02,.08,.75,2.14,1.03,2.72,.29,.6,1.18,.79,1.86,.7,1.85-.24,2.65-2.58,3.2-3.84,.24-.54,.34-1.14,.43-1.72,.65,.38,1.26,.82,1.87,1.2,.55,.35,1.52,.26,1.98-.15,4.28-3.85-1.6-9.47-5.68-11.51Z"/>
            <path class="cls-1" d="M54.17,28.31c.19-.38,.16-.79-.08-.91-.24-.12-.59,.09-.78,.48-.19,.38-.16,.79,.08,.91,.24,.12,.59-.09,.78-.48Z"/>
            <path class="cls-1" d="M59.01,31.57c.2-.38,.16-.79-.08-.91-.24-.12-.59,.09-.78,.48-.19,.38-.16,.79,.08,.91,.24,.12,.59-.09,.78-.47Z"/>
            <path class="cls-1" d="M58.48,30.28c.08-.16,.07-.33-.03-.38-.1-.05-.24,.04-.33,.2-.08,.16-.07,.33,.03,.38,.1,.05,.24-.04,.33-.2Z"/>
            <path class="cls-1" d="M73.7,29.09c-.17-.22-.43-.31-.56-.2-.14,.11-.1,.38,.07,.59,.18,.22,.43,.31,.56,.2,.14-.11,.1-.38-.07-.6Z"/>
            <path class="cls-1" d="M66.63,33.23c-.06-.52-.32-.92-.59-.89-.26,.03-.43,.48-.37,1,.06,.52,.32,.92,.59,.88,.26-.03,.43-.47,.37-.99Z"/>
            <path class="cls-1" d="M65.81,19.25c-.35-.55-2.81,.11-5.49,1.49-2.68,1.38-4.57,2.94-4.22,3.5,.35,.55,1.99-1.52,4.67-2.9,2.68-1.38,5.4-1.54,5.05-2.09Z"/>
          </g>
        </g>
        <g id="_图层_454" data-name="图层 454">
          <g>
            <path class="cls-7" d="M61.35,33.78c-3.56-3.84-8.34-3.88-12.07-1.53-1.65,.78-3.11,2.05-4.18,3.79-1.4,.92-2.6,2.24-3.21,3.41-1.43,2.76-.72,5.56,1.13,7.9,.32,.41,.7,.79,1.09,1.14,.09,.19,.16,.4,.28,.58,3.03,5.15,10.6,5.23,15.17,2.15,.5-.34,.95-.71,1.36-1.1,2.4-1.34,3.99-3.46,4.47-6.42,.59-3.59-1.72-7.42-4.04-9.93Z"/>
            <path class="cls-2" d="M59.45,33.97c-3.1-3.35-7.27-3.38-10.52-1.33-1.44,.67-2.71,1.78-3.64,3.3-1.22,.8-2.27,1.96-2.8,2.97-1.25,2.4-.63,4.84,.98,6.88,.28,.36,.61,.68,.95,.99,.08,.17,.14,.35,.24,.51,2.64,4.49,9.23,4.56,13.22,1.88,.44-.3,.82-.62,1.19-.96,2.09-1.17,3.48-3.02,3.9-5.59,.51-3.12-1.5-6.46-3.52-8.65Z"/>
            <path class="cls-3" d="M52.94,42.31c2.78-3.42,3.51-7.43,1.62-8.97-1.88-1.53-5.66,0-8.44,3.43-2.78,3.42-3.51,7.44-1.63,8.97,1.88,1.53,5.66,0,8.44-3.43Z"/>
            <path class="cls-9" d="M58.39,30.58c-7.05-3.52-15.18,3.95-17.41,8.93-.1,.22-.12,.87-.19,1.04-.47,1.17,.87,2.12,2.17,1.94,2.16-.16,3.23,.57,3.21,2.18,.18,.77,1.27,1.36,2.17,1.12,1.05-.35,2.14-.51,3.28-.48,1.07-.02,1.67-.6,1.83-1.45-.02,.09,.79,2.26,1.08,2.87,.31,.64,1.25,.83,1.96,.74,1.95-.26,2.8-2.72,3.38-4.06,.25-.57,.36-1.2,.46-1.82,.68,.4,1.34,.86,1.97,1.27,.58,.37,1.6,.28,2.09-.16,4.51-4.06-1.69-9.99-6-12.15Z"/>
            <path class="cls-1" d="M42.75,40.3c.21-.4,.17-.83-.08-.96-.25-.13-.62,.1-.83,.5-.21,.4-.17,.83,.08,.96,.25,.13,.62-.1,.83-.5Z"/>
            <path class="cls-1" d="M47.86,43.73c.21-.4,.17-.83-.08-.96-.25-.13-.62,.1-.83,.5-.21,.4-.17,.84,.08,.96,.25,.13,.62-.1,.83-.5Z"/>
            <path class="cls-1" d="M47.31,42.38c.08-.17,.07-.35-.04-.4-.1-.05-.26,.04-.34,.21-.08,.17-.07,.35,.03,.4,.11,.05,.26-.04,.35-.21Z"/>
            <path class="cls-1" d="M63.37,41.12c-.18-.23-.45-.32-.6-.21-.14,.12-.11,.4,.08,.63,.18,.23,.45,.33,.59,.21,.14-.11,.11-.4-.07-.63Z"/>
            <path class="cls-1" d="M55.91,45.49c-.06-.55-.34-.97-.62-.93-.28,.03-.46,.5-.39,1.05,.06,.55,.34,.97,.62,.93,.28-.03,.45-.5,.39-1.05Z"/>
            <path class="cls-1" d="M55.04,30.74c-.37-.58-2.97,.12-5.8,1.57-2.83,1.45-4.82,3.11-4.45,3.69,.37,.58,2.09-1.6,4.93-3.05,2.83-1.46,5.7-1.63,5.33-2.21Z"/>
          </g>
        </g>
      </g>
    </g>
  </g>
</svg>