<?xml version="1.0" encoding="UTF-8"?>
<svg xmlns="http://www.w3.org/2000/svg" xmlns:xlink="http://www.w3.org/1999/xlink" viewBox="0 0 72.83 98">
  <defs>
    <style>
      .cls-1 {
        opacity: .5;
      }

      .cls-1, .cls-2 {
        fill: #b4703d;
      }

      .cls-1, .cls-3 {
        mix-blend-mode: screen;
      }

      .cls-4 {
        fill: #ece2ac;
      }

      .cls-5 {
        fill: #fff;
      }

      .cls-6 {
        fill: #e6be8a;
      }

      .cls-7 {
        fill: #93b010;
      }

      .cls-8 {
        fill: #adcc21;
      }

      .cls-9 {
        fill: #9c5723;
      }

      .cls-10 {
        fill: #799400;
      }

      .cls-11 {
        fill: #b8b5aa;
        mix-blend-mode: multiply;
      }

      .cls-3 {
        fill: url(#linear-gradient);
        opacity: .6;
      }

      .cls-12 {
        isolation: isolate;
      }
    </style>
    <linearGradient id="linear-gradient" x1="27.98" y1="7.92" x2="52.75" y2="35.55" gradientUnits="userSpaceOnUse">
      <stop offset="0" stop-color="#fff"/>
      <stop offset="1" stop-color="#000"/>
    </linearGradient>
  </defs>
  <g class="cls-12">
    <g id="Layer_2" data-name="Layer 2">
      <g id="_图层_5" data-name="图层 5">
        <g id="_图层_935" data-name="图层 935">
          <path class="cls-11" d="M71.66,87.06c.39-6.91-12.81-13.27-29.48-14.2-16.67-.93-30.49,3.92-30.88,10.83-.39,6.91,12.81,13.27,29.48,14.2,16.67,.93,30.49-3.92,30.88-10.83Z"/>
        </g>
        <g id="_图层_934" data-name="图层 934">
          <path class="cls-9" d="M12.61,82.75c0,4.87,10.66,11.53,23.8,11.53s23.81-6.66,23.81-11.53-10.66-23.29-23.81-23.29-23.8,18.42-23.8,23.29Z"/>
        </g>
        <g id="_图层_933" data-name="图层 933">
          <path class="cls-2" d="M72.83,13.49C72.83,8.09,56.41,.2,36.42,.2S0,8.09,0,13.49c0,12.58,0,69.61,36.42,69.61S72.83,26.07,72.83,13.49Z"/>
        </g>
        <g id="_图层_932" data-name="图层 932">
          <path class="cls-1" d="M7.36,13.69c-2.09,5.02-1.5,1.47-2.63,6.45-3.08,13.59,6.29,52.61,18.27,56.09,24.1,7.02,20.27-53.6,18.48-65.74-.34-2.31,3.11-5.77,2.19-7.56-2.36-.36-4.81-.55-7.33-.55C23.97,2.39,13.18,6.93,7.36,13.69Z"/>
        </g>
        <g id="_图层_931" data-name="图层 931">
          <path class="cls-6" d="M72.83,13.49C72.83,6.04,56.53,0,36.42,0S0,6.04,0,13.49s16.3,13.49,36.42,13.49,36.42-6.04,36.42-13.49Z"/>
        </g>
        <g id="_图层_930" data-name="图层 930">
          <path class="cls-2" d="M36.42,23.85C18.71,23.85,3.76,18.91,3.76,13.06S18.71,2.27,36.42,2.27s32.66,4.94,32.66,10.79-14.95,10.79-32.66,10.79Z"/>
        </g>
        <g id="_图层_929" data-name="图层 929">
          <path class="cls-4" d="M36.42,23.85c12.99,0,24.48-2.66,29.69-6.39-1.09-5.03-14.24-9.16-29.69-9.16S7.81,12.44,6.72,17.47c5.21,3.73,16.71,6.39,29.69,6.39Z"/>
        </g>
        <g id="_图层_928" data-name="图层 928">
          <path class="cls-3" d="M11.55,19.96c6.04,2.36,15.02,3.89,24.86,3.89,11.86,0,22.47-2.23,28.19-5.45-3.82-4.49-14.18-7.8-26.01-7.8-13.15,0-24.5,4.1-27.04,9.36Z"/>
        </g>
        <g id="_图层_927" data-name="图层 927">
          <path class="cls-5" d="M6.7,18.97c-.27,.86,3.16,2.69,7.66,4.1,4.5,1.4,8.36,1.85,8.63,.99,.27-.86-3.65-1.14-8.14-2.54-4.5-1.41-7.88-3.4-8.15-2.54Z"/>
        </g>
        <g id="_图层_926" data-name="图层 926">
          <path class="cls-5" d="M10.85,34.74c-.59-3.71-1.94-6.58-3.01-6.41-1.08,.17-1.48,3.31-.89,7.02,.59,3.71,1.94,6.58,3.01,6.4,1.08-.17,1.48-3.31,.89-7.02Z"/>
        </g>
        <g id="_图层_925" data-name="图层 925">
          <path class="cls-5" d="M12.58,46.92c-.7-1.44-1.78-2.36-2.42-2.05-.64,.31-.6,1.73,.1,3.17,.7,1.44,1.78,2.35,2.42,2.04,.64-.31,.6-1.73-.1-3.17Z"/>
        </g>
        <g id="_图层_924" data-name="图层 924">
          <path class="cls-5" d="M18.34,84.13c-1.32-.9-2.72-1.15-3.12-.56-.4,.59,.35,1.8,1.67,2.7,1.32,.9,2.72,1.14,3.12,.55,.4-.59-.35-1.8-1.67-2.69Z"/>
        </g>
        <g id="_图层_923" data-name="图层 923">
          <path class="cls-7" d="M39.79,20.92h-.04c-.18,0-.36,0-.54,0,.09-.03,.18-.07,.26-.1,.1,.04,.21,.08,.32,.11Z"/>
        </g>
        <g id="_图层_922" data-name="图层 922">
          <path class="cls-8" d="M45.45,14.69c-.09-.06-.19-.12-.3-.18-.14-.12-.29-.23-.45-.34-.75-1.22-2.69-2.09-4.97-2.09-1.3,0-2.5,.28-3.42,.75-.15,.02-.3,.04-.44,.07-.34-.05-.68-.07-1.04-.07,1-1,2.82-1.67,4.9-1.67,3.02,0,5.49,1.41,5.71,3.2,.01,.08,.02,.17,.02,.26,0,.02,0,.05,0,.07Z"/>
        </g>
        <g id="_图层_921" data-name="图层 921">
          <path class="cls-7" d="M39.23,12.7c-.47,0-.93,.06-1.34,.16-.29-.05-.6-.08-.91-.08-.23,0-.45,.02-.67,.04,.92-.47,2.12-.75,3.42-.75,2.28,0,4.22,.87,4.97,2.09-.84-.54-1.98-.9-3.27-.99-.61-.29-1.36-.47-2.2-.47Z"/>
        </g>
        <g id="_图层_920" data-name="图层 920">
          <path class="cls-7" d="M46.13,16.36c0,1.77-2.38,3.2-5.3,3.2-.55,0-1.07-.05-1.57-.14,.46-.29,.84-.64,1.1-1.01,.58,.16,1.19,.19,1.73,.04,1.26-.36,1.77-1.57,1.16-2.68,.01-.07,.04-.14,.04-.22,0-.49-.25-.94-.68-1.32-.21-.42-.63-.78-1.18-1.04,1.28,.09,2.43,.45,3.27,.99,.16,.11,.31,.22,.45,.34,.62,.52,.98,1.16,.98,1.85Z"/>
        </g>
        <g id="_图层_919" data-name="图层 919">
          <path class="cls-10" d="M43.25,15.76c.61,1.11,.1,2.33-1.16,2.68-.54,.16-1.15,.13-1.73-.04,.15-.22,.27-.45,.34-.69,1.39-.29,2.4-1.04,2.55-1.96Z"/>
        </g>
        <g id="_图层_918" data-name="图层 918">
          <path class="cls-7" d="M33.61,14.02c-.14,.03-.28,.06-.41,.11-1.18,.45-1.46,1.71-.62,2.73,.84,1.03,2.55,1.51,3.72,1.06,.18-.07,.34-.17,.48-.28,.17,.02,.33,.03,.5,.03,.21,0,.41-.02,.6-.04,.39,.11,.81,.16,1.25,.19-.96,.85-2.56,1.4-4.38,1.4-2.74,0-5-1.26-5.27-2.86-.02-.11-.03-.22-.03-.34,0-.99,.75-1.88,1.93-2.47,.92-.46,2.09-.73,3.38-.73h.08c.35,0,.7,.03,1.04,.07-.98,.18-1.79,.59-2.26,1.12Z"/>
        </g>
        <g id="_图层_917" data-name="图层 917">
          <path class="cls-10" d="M34.52,16.87c.55,.41,1.34,.7,2.26,.78-.14,.11-.29,.2-.48,.28-1.18,.45-2.88-.03-3.72-1.06-.84-1.03-.56-2.28,.62-2.73,.13-.05,.27-.08,.41-.11-.29,.32-.46,.69-.46,1.08,0,.71,.54,1.34,1.38,1.77Z"/>
        </g>
        <g id="_图层_916" data-name="图层 916">
          <path class="cls-8" d="M39.93,16.95c1.62-.2,2.85-1.06,2.85-2.1,0-.22-.07-.43-.17-.63,.43,.37,.68,.83,.68,1.32,0,.08-.03,.15-.04,.22-.15,.92-1.16,1.67-2.55,1.96-.39,.08-.81,.14-1.25,.14-.11,0-.22-.02-.32-.02-.44-.02-.86-.08-1.25-.19,.81-.08,1.52-.34,2.05-.69Z"/>
        </g>
        <g id="_图层_915" data-name="图层 915">
          <path class="cls-7" d="M42.78,14.85c0,1.04-1.22,1.91-2.85,2.1,.55-.38,.9-.87,.9-1.42,0-.09-.03-.18-.04-.26,0-.05,.03-.11,.03-.16,0-1.09-1.25-1.99-2.93-2.24,.41-.1,.86-.16,1.34-.16,.84,0,1.59,.18,2.2,.47,.55,.26,.97,.63,1.18,1.04,.1,.2,.17,.41,.17,.63Z"/>
        </g>
        <g id="_图层_914" data-name="图层 914">
          <path class="cls-8" d="M37.89,12.87c1.68,.25,2.93,1.15,2.93,2.24,0,.06-.02,.11-.03,.16-.22-1.06-1.7-1.88-3.51-1.88-1.96,0-3.55,.96-3.55,2.15,0,.51,.3,.97,.79,1.34-.84-.42-1.38-1.05-1.38-1.77,0-.39,.18-.76,.46-1.08,.47-.54,1.28-.94,2.26-1.12,.15-.03,.29-.05,.44-.07,.22-.02,.44-.04,.67-.04,.32,0,.62,.03,.91,.08Z"/>
        </g>
        <g id="_图层_913" data-name="图层 913">
          <path class="cls-7" d="M36.78,17.65c.17,.02,.33,.03,.5,.03,.21,0,.41-.02,.6-.04,.81-.08,1.52-.34,2.05-.69,.55-.38,.9-.87,.9-1.42,0-.09-.03-.18-.04-.26-.22-1.06-1.7-1.88-3.51-1.88-1.96,0-3.55,.96-3.55,2.15,0,.51,.3,.97,.79,1.34,.55,.41,1.34,.7,2.26,.78Zm-.32-1.89c-.28-.49-.05-.98,.33-1.08,.39-.1,1.03,.15,1.31,.64,.28,.49,.05,.98-.33,1.08-.39,.1-1.03-.15-1.31-.64Z"/>
        </g>
        <g id="_图层_912" data-name="图层 912">
          <path class="cls-10" d="M36.46,15.76c-.28-.49-.05-.98,.33-1.08,.39-.1,1.03,.15,1.31,.64,.28,.49,.05,.98-.33,1.08-.39,.1-1.03-.15-1.31-.64Z"/>
        </g>
        <g id="_图层_911" data-name="图层 911">
          <path class="cls-5" d="M36.23,14.05c-.09-.27,.54-.67,1.4-.89,.86-.22,1.63-.18,1.72,.09,.08,.27-.77,0-1.63,.22-.86,.22-1.4,.85-1.49,.58Z"/>
        </g>
      </g>
    </g>
  </g>
</svg>