<?xml version="1.0" encoding="UTF-8"?>
<svg id="Layer_2" data-name="Layer 2" xmlns="http://www.w3.org/2000/svg" xmlns:xlink="http://www.w3.org/1999/xlink" viewBox="0 0 88.52 75.29">
  <defs>
    <style>
      .cls-1 {
        fill: url(#linear-gradient);
      }

      .cls-2 {
        fill: #e8cb82;
      }

      .cls-3 {
        fill: #fbf6e2;
      }

      .cls-4 {
        fill: #fde7a5;
      }

      .cls-5 {
        fill: #2f564f;
      }

      .cls-6 {
        fill: #d64e03;
      }

      .cls-7 {
        fill: #0a3430;
      }

      .cls-8 {
        fill: #1b3f39;
      }

      .cls-9 {
        fill: #3a3938;
      }

      .cls-9, .cls-10 {
        opacity: .2;
      }

      .cls-10 {
        fill: #fff;
      }

      .cls-11 {
        fill: url(#linear-gradient-8);
      }

      .cls-12 {
        fill: url(#linear-gradient-9);
      }

      .cls-13 {
        fill: url(#linear-gradient-3);
      }

      .cls-14 {
        fill: url(#linear-gradient-4);
      }

      .cls-15 {
        fill: url(#linear-gradient-2);
      }

      .cls-16 {
        fill: url(#linear-gradient-6);
      }

      .cls-17 {
        fill: url(#linear-gradient-7);
      }

      .cls-18 {
        fill: url(#linear-gradient-5);
      }

      .cls-19 {
        fill: url(#linear-gradient-14);
      }

      .cls-20 {
        fill: url(#linear-gradient-18);
      }

      .cls-21 {
        fill: url(#linear-gradient-22);
      }

      .cls-22 {
        fill: url(#linear-gradient-20);
      }

      .cls-23 {
        fill: url(#linear-gradient-21);
      }

      .cls-24 {
        fill: url(#linear-gradient-23);
      }

      .cls-25 {
        fill: url(#linear-gradient-15);
      }

      .cls-26 {
        fill: url(#linear-gradient-19);
      }

      .cls-27 {
        fill: url(#linear-gradient-16);
      }

      .cls-28 {
        fill: url(#linear-gradient-17);
      }

      .cls-29 {
        fill: url(#linear-gradient-13);
      }

      .cls-30 {
        fill: url(#linear-gradient-12);
      }

      .cls-31 {
        fill: url(#linear-gradient-10);
      }

      .cls-32 {
        fill: url(#linear-gradient-11);
      }

      .cls-33 {
        fill: url(#linear-gradient-27);
      }

      .cls-34 {
        fill: url(#linear-gradient-24);
      }

      .cls-35 {
        fill: url(#linear-gradient-26);
      }

      .cls-36 {
        fill: url(#linear-gradient-25);
      }

      .cls-37 {
        fill: url(#linear-gradient-28);
      }
    </style>
    <linearGradient id="linear-gradient" x1="28.08" y1="4.66" x2="37.54" y2="4.66" gradientUnits="userSpaceOnUse">
      <stop offset="0" stop-color="#e95704"/>
      <stop offset="1" stop-color="#ff9521"/>
    </linearGradient>
    <linearGradient id="linear-gradient-2" x1="39.96" y1="6.63" x2="44.26" y2=".83" xlink:href="#linear-gradient"/>
    <linearGradient id="linear-gradient-3" x1="32.14" y1="16.31" x2="33.52" y2="5.65" gradientTransform="translate(-3.47 1.56) rotate(-3.65) scale(1.17 1) skewX(-3.1)" xlink:href="#linear-gradient"/>
    <linearGradient id="linear-gradient-4" x1="32.33" y1="2.01" x2="33.32" y2="9.66" gradientTransform="translate(-3.47 1.56) rotate(-3.65) scale(1.17 1) skewX(-3.1)" gradientUnits="userSpaceOnUse">
      <stop offset="0" stop-color="#f4c3bc"/>
      <stop offset="1" stop-color="#fb8b1c"/>
    </linearGradient>
    <linearGradient id="linear-gradient-5" x1="72.14" y1="3.27" x2="73.17" y2="11.29" gradientTransform="translate(-42 -17.52) rotate(11.44) scale(1.17 1) skewX(-3.11)" xlink:href="#linear-gradient-4"/>
    <linearGradient id="linear-gradient-6" x1="46.6" y1="15.98" x2="46.6" y2="2.27" xlink:href="#linear-gradient"/>
    <linearGradient id="linear-gradient-7" x1="48.22" y1="1.06" x2="47.26" y2="9.58" gradientTransform="matrix(1, 0, 0, 1, 0, 0)" xlink:href="#linear-gradient-4"/>
    <linearGradient id="linear-gradient-8" x1="4.04" y1="14.98" x2="13.5" y2="14.98" xlink:href="#linear-gradient"/>
    <linearGradient id="linear-gradient-9" x1="15.92" y1="16.94" x2="20.22" y2="11.15" xlink:href="#linear-gradient"/>
    <linearGradient id="linear-gradient-10" x1="11.62" y1="25.09" x2="12.99" y2="14.44" gradientTransform="translate(-3.47 1.56) rotate(-3.65) scale(1.17 1) skewX(-3.1)" xlink:href="#linear-gradient"/>
    <linearGradient id="linear-gradient-11" x1="11.8" y1="10.8" x2="12.79" y2="18.44" xlink:href="#linear-gradient-4"/>
    <linearGradient id="linear-gradient-12" x1="54.61" y1="18.18" x2="55.65" y2="26.2" gradientTransform="translate(-42 -17.52) rotate(11.44) scale(1.17 1) skewX(-3.11)" xlink:href="#linear-gradient-4"/>
    <linearGradient id="linear-gradient-13" x1="22.57" y1="26.3" x2="22.57" y2="12.58" xlink:href="#linear-gradient"/>
    <linearGradient id="linear-gradient-14" x1="24.18" y1="11.37" x2="23.22" y2="19.89" gradientTransform="matrix(1, 0, 0, 1, 0, 0)" xlink:href="#linear-gradient-4"/>
    <linearGradient id="linear-gradient-15" x1="52.29" y1="27.86" x2="61.74" y2="27.86" xlink:href="#linear-gradient"/>
    <linearGradient id="linear-gradient-16" x1="64.16" y1="29.82" x2="68.46" y2="24.03" xlink:href="#linear-gradient"/>
    <linearGradient id="linear-gradient-17" x1="52.81" y1="41.05" x2="54.18" y2="30.39" gradientTransform="translate(-3.47 1.56) rotate(-3.65) scale(1.17 1) skewX(-3.1)" xlink:href="#linear-gradient"/>
    <linearGradient id="linear-gradient-18" x1="52.99" y1="26.75" x2="53.98" y2="34.4" xlink:href="#linear-gradient-4"/>
    <linearGradient id="linear-gradient-19" x1="97.25" y1="21.24" x2="98.28" y2="29.26" gradientTransform="translate(-42 -17.52) rotate(11.44) scale(1.17 1) skewX(-3.11)" xlink:href="#linear-gradient-4"/>
    <linearGradient id="linear-gradient-20" x1="70.81" y1="39.18" x2="70.81" y2="25.46" xlink:href="#linear-gradient"/>
    <linearGradient id="linear-gradient-21" x1="72.42" y1="24.25" x2="71.47" y2="32.77" gradientTransform="matrix(1, 0, 0, 1, 0, 0)" xlink:href="#linear-gradient-4"/>
    <linearGradient id="linear-gradient-22" x1="28.25" y1="38.18" x2="37.71" y2="38.18" xlink:href="#linear-gradient"/>
    <linearGradient id="linear-gradient-23" x1="40.12" y1="40.14" x2="44.43" y2="34.34" xlink:href="#linear-gradient"/>
    <linearGradient id="linear-gradient-24" x1="32.28" y1="49.83" x2="33.66" y2="39.18" gradientTransform="translate(-3.47 1.56) rotate(-3.65) scale(1.17 1) skewX(-3.1)" xlink:href="#linear-gradient"/>
    <linearGradient id="linear-gradient-25" x1="32.47" y1="35.54" x2="33.45" y2="43.18" xlink:href="#linear-gradient-4"/>
    <linearGradient id="linear-gradient-26" x1="79.72" y1="36.15" x2="80.76" y2="44.17" gradientTransform="translate(-42 -17.52) rotate(11.44) scale(1.17 1) skewX(-3.11)" xlink:href="#linear-gradient-4"/>
    <linearGradient id="linear-gradient-27" x1="46.77" y1="49.49" x2="46.77" y2="35.78" xlink:href="#linear-gradient"/>
    <linearGradient id="linear-gradient-28" x1="48.38" y1="34.57" x2="47.43" y2="43.09" gradientTransform="matrix(1, 0, 0, 1, 0, 0)" xlink:href="#linear-gradient-4"/>
  </defs>
  <g id="layer">
    <g>
      <g>
        <path class="cls-9" d="M64.31,32.02c0,4.76-6.11,9.83-16.67,9.75-10.16-.07-23.61-13.33-23.61-18.09s5.76-9.59,15.18-9.59,25.09,13.16,25.09,17.92Z"/>
        <g>
          <g>
            <path class="cls-8" d="M62.91,29.99c0,3.55-6.61,8.76-15.2,8.76s-21.53-12.81-21.53-16.36c0-.23-.07-13.12,0-13.37,1.03-3.54,16.33,8.99,24.36,8.99s11.5-4.91,12.37-1.39c.09,.36,0,13.04,0,13.37Z"/>
            <path class="cls-7" d="M62.91,16.68c0,4.34-5.57,8.96-15.2,8.9-9.26-.06-21.53-12.16-21.53-16.5S31.44,.34,40.03,.34s22.88,12,22.88,16.34Z"/>
            <path class="cls-5" d="M48.54,28.2v8.6c0,.64,.56,.97,1.28,.82,8.64-1.74,12.75-5.12,12.75-7.94,0-.16,.03-5.02,.04-8.18,0-.64-.4-.71-.83-.1-2.38,3.36-5.36,3.85-11.95,5.32-.72,.16-1.28,.84-1.28,1.48Z"/>
            <path class="cls-5" d="M27.77,14.73c-.16-.21-.32-.41-.46-.62-.49-.69-.83-.73-.83-.07,0,3.29,.04,8.35,.04,8.52,0,.69,.37,1.62,1.04,2.69,.36,.58,.7,.52,.7-.11v-8.67c0-.63-.22-1.41-.48-1.75Z"/>
          </g>
          <g>
            <path class="cls-1" d="M37.5,.81s-8.65-1.4-9.38,5.36,9.14-2.44,9.32-3.53c.18-1.1,.06-1.83,.06-1.83Z"/>
            <path class="cls-15" d="M35.26,3.29c-.11-1.89,.52-3.1,3.21-3.27s5.39,.92,7.06,2.75,5.51,3.1,.46,5.45c-5.05,2.35-7.46,.57-7.46,.57l-3.27-5.51Z"/>
            <path class="cls-13" d="M37.98,2.53c-3.09,.2-7.65,.62-9.81,3.13-2.16,2.51-1.08,4.69,1.08,7.58,2.16,2.9,7.68,2.69,8.19,2.78,3.02-1.45,5.19-4.9,5.95-7.46,.6-2.02,.27-3.21-.07-3.48-.77-.61-4.42-2.61-5.34-2.55Z"/>
            <path class="cls-6" d="M42.5,9.39c-1.25,1.44-2.22,2.86-4.02,3.66-1.06,.47-2.48,1.43-3.64,1.24-.63-.1-1.16-.62-1.82-.73-.73-.12-1.47,.23-2.18,.12-2.69-.43-3.1-5.2-3.02-7.27-2.28,1.7,.29,5.31,1.43,6.84,2.16,2.9,7.68,2.69,8.19,2.78,1.49-.71,2.72-1.87,3.71-3.17,.45-.59,.97-1.25,1.25-1.95,.07-.17,.26-1.7,.09-1.51Z"/>
            <path class="cls-14" d="M41.16,3.79s-11.29,2.95-10.98,10.45c-1.08-1.65,.38-8.58,7.95-11.71,1.51-.23,3.03,1.25,3.03,1.25Z"/>
            <path class="cls-18" d="M43.39,8.56s-7.02-.31-8.49,6.2c-.55-1.66,.84-9.04,8.06-9.97,1.35,.27,.43,3.76,.43,3.76Z"/>
            <path class="cls-10" d="M42.16,5.28c-.67-1.25-2.05-1.96-3.44-2.09-1.47-.13-3.1-.17-4.53,.21-1.09,.29-2.23,.24-3.31,.71-1.56,.68-2.28,2.35-.13,2.75,1.07,.2,2.16,.07,3.22,.35,1.32,.34,2.47,1.14,3.74,1.61,1.27,.47,3,.81,4.13-.16,1.01-.86,.89-2.31,.32-3.38Z"/>
            <path class="cls-16" d="M50.45,14.84c-1.25,.32-2.93,.19-4.08,.48-1.77,.45-6.04,1.26-6.81-1.14-.24-.74-.04-1.8-.14-2.58-.12-1.04-.58-2.56-.02-3.56,.38-.68,1.45-1.2,2.04-1.7,1.97-1.65,3.8-3.52,6.66-3.02,1.67,.29,5.86,1.73,5.96,3.91,.1,2.05-.89,6.13-2.77,7.28-.24,.15-.53,.26-.84,.34Z"/>
            <path class="cls-17" d="M43.56,4.6s9.54,1.76,5.76,10.28c1.58-2.92,4.76-7.78-1.21-11.57-2.58-.55-4.55,1.28-4.55,1.28Z"/>
            <path class="cls-6" d="M50.45,14.84c-1.25,.32-2.93,.19-4.08,.48-1.77,.45-6.04,1.26-6.81-1.14-.24-.74-.04-1.8-.14-2.58-.11-.96-.26-1.8-.2-2.78,1.83,2.22,2.13,3.88,5.33,3.88,2.65,0,4.82,2.92,6.83,.14,.74-1.02,1.31-2.15,2.05-3.17-.03,.04,.15,1,.12,1.2-.06,.42-.33,.94-.51,1.32-.4,.87-.91,1.8-1.75,2.31-.24,.15-.53,.26-.84,.34Z"/>
          </g>
          <path class="cls-10" d="M50.98,9.07c.42-.16,.8-.35,1.13-.61,2.14-1.67-.31-3.42-1.95-4.14-3.08-1.34-6.57,.11-8.34,2.8-1.64,2.5-.22,3.68,2.52,2.98,1.81-.46,4.67-.3,6.65-1.03Z"/>
          <path class="cls-4" d="M49.13,24.4c-4.1,.27-7.98-1.88-11.56-3.7-1.67-.85-7.34-3.51-5.43-6.21,.92-1.3,6.38-.04,7.96-.31,1.37-.24,2.64-.59,4.05-.49,1.46,.11,2.86,.68,4.33,.74,3.9,.15,5.28-3.29,5.7-6.61,2.69,2.72,8.23,5.76,6.9,10.3-1.41,4.82-7.65,6-11.96,6.28Z"/>
          <path class="cls-4" d="M42.18,7.48c1.35,.53,2.59,1.81,4,3.43,1.68,1.93,6.54,1.65,8.99,1.65,2.11,0,.36,4.4,2.29,4.56-.17,2.76-5.12,4.84-6.66,5.48-4.59,1.91-8.17-.51-12.02-3.81-1.62-1.38-4.94,.21-6.37-1.58-3.52-4.41,4.2-8.27,6.06-9.31,1.41-.79,2.59-.85,3.7-.42Z"/>
          <path class="cls-3" d="M39.48,11.14c.34,.68,.53,1.26-.58,1.48-1.28,.25-2.62-.66-3.92-.5-1.31,.16-2.14,.94-2.46,2.23-.63,2.51,2.78,3.73,4.39,4.87,2.09,1.49,3.41,2.41,6.02,2.61,2.47,.19,4.79,.61,7.19-.26,2.14-.77,4.68-1.97,4.87-4.53,.18-2.53-2.32-4.73-4.5-2.53-1.82,1.84-3.93,3.17-6.58,3.51-2.31,.3-5.78-.58-6.34-3.23,1.18,.19,2.1,.87,3.23,1.19,1.61,.46,3.57,.58,5.21,.28,1.06-.2,3.62-.73,3.57-2.18-.11-3.24-8.04-1.11-8.06-4.34,.91-.18,1.71,.74,2.6,.65,0-1.92-2.18-2.77-3.78-2.27-.72,.23-1.27,.62-1.37,1.4-.07,.52,.27,1.09,.52,1.6Z"/>
          <path class="cls-3" d="M60.24,15.47c-.42-2.07-2.05-3.22-3.4-4.66-.45-.49-.78-1.27-1.59-1.08-.84,.19-.96,1.22-.71,1.89,.43,1.16,1.65,1.86,2.02,3.1,.88,2.95-1.56,5.26-3.54,6.99-.66,.57-1.48,1.03-.43,1.34,1.08,.32,3.15-.79,4.05-1.29,2.17-1.22,4.13-3.64,3.6-6.28Z"/>
          <path class="cls-2" d="M54.17,11.85c-1.42,1.19-.43,1.83,.5,2.92,.97,1.13,1.17,2.25,.93,3.69,.62-.91,.98-2.37,.6-3.42-.45-1.23-1.49-1.76-1.61-3.17-.14-.04-.26,0-.4,0-.03,.12-.07,.21-.13,.31l.11-.33Z"/>
          <path class="cls-2" d="M36.95,10.98c-.32-1.01,1.21-1.55,1.19-1.83,.02,.31,.3,2.87,.76,2.78-.52,.1-1.79-.45-1.95-.95Z"/>
          <path class="cls-2" d="M41.18,16.86c-.3-.09-2.88-1.23-2.9-1.32,.31,1.49,5.96,2.8,6.04,1.92,.01-.14,.01-.26,0-.4-1.1-.15-2.07,.12-3.14-.2Z"/>
        </g>
      </g>
      <g>
        <path class="cls-9" d="M40.27,42.34c0,4.76-6.11,9.83-16.67,9.75-10.16-.07-23.61-13.33-23.61-18.09s5.76-9.59,15.18-9.59,25.09,13.16,25.09,17.92Z"/>
        <g>
          <g>
            <path class="cls-8" d="M38.87,40.31c0,3.55-6.61,8.76-15.2,8.76S2.14,36.25,2.14,32.7c0-.23-.07-13.12,0-13.37,1.03-3.54,16.33,8.99,24.36,8.99s11.5-4.91,12.37-1.39c.09,.36,0,13.04,0,13.37Z"/>
            <path class="cls-7" d="M38.87,27c0,4.34-5.57,8.96-15.2,8.9-9.26-.06-21.53-12.16-21.53-16.5S7.4,10.66,15.99,10.66s22.88,12,22.88,16.34Z"/>
            <path class="cls-5" d="M24.5,38.51v8.6c0,.64,.56,.97,1.28,.82,8.64-1.74,12.75-5.12,12.75-7.94,0-.16,.03-5.02,.04-8.18,0-.64-.4-.71-.83-.1-2.38,3.36-5.36,3.85-11.95,5.32-.72,.16-1.28,.84-1.28,1.48Z"/>
            <path class="cls-5" d="M3.73,25.04c-.16-.21-.32-.41-.46-.62-.49-.69-.83-.73-.83-.07,0,3.29,.04,8.35,.04,8.52,0,.69,.37,1.62,1.04,2.69,.36,.58,.7,.52,.7-.11v-8.67c0-.63-.22-1.41-.48-1.75Z"/>
          </g>
          <g>
            <path class="cls-11" d="M13.46,11.13s-8.65-1.4-9.38,5.36c-.73,6.76,9.14-2.44,9.32-3.53,.18-1.1,.06-1.83,.06-1.83Z"/>
            <path class="cls-12" d="M11.22,13.6c-.11-1.89,.52-3.1,3.21-3.27s5.39,.92,7.06,2.75,5.51,3.1,.46,5.45-7.46,.57-7.46,.57l-3.27-5.51Z"/>
            <path class="cls-31" d="M13.94,12.84c-3.09,.2-7.65,.62-9.81,3.13-2.16,2.51-1.08,4.69,1.08,7.58,2.16,2.9,7.68,2.69,8.19,2.78,3.02-1.45,5.19-4.9,5.95-7.46,.6-2.02,.27-3.21-.07-3.48-.77-.61-4.42-2.61-5.34-2.55Z"/>
            <path class="cls-6" d="M18.46,19.71c-1.25,1.44-2.22,2.86-4.02,3.66-1.06,.47-2.48,1.43-3.64,1.24-.63-.1-1.16-.62-1.82-.73-.73-.12-1.47,.23-2.18,.12-2.69-.43-3.1-5.2-3.02-7.27-2.28,1.7,.29,5.31,1.43,6.84,2.16,2.9,7.68,2.69,8.19,2.78,1.49-.71,2.72-1.87,3.71-3.17,.45-.59,.97-1.25,1.25-1.95,.07-.17,.26-1.7,.09-1.51Z"/>
            <path class="cls-32" d="M17.12,14.1s-11.29,2.95-10.98,10.45c-1.08-1.65,.38-8.58,7.95-11.71,1.51-.23,3.03,1.25,3.03,1.25Z"/>
            <path class="cls-30" d="M19.35,18.88s-7.02-.31-8.49,6.2c-.55-1.66,.84-9.04,8.06-9.97,1.35,.27,.43,3.76,.43,3.76Z"/>
            <path class="cls-10" d="M18.12,15.59c-.67-1.25-2.05-1.96-3.44-2.09-1.47-.13-3.1-.17-4.53,.21-1.09,.29-2.23,.24-3.31,.71-1.56,.68-2.28,2.35-.13,2.75,1.07,.2,2.16,.07,3.22,.35,1.32,.34,2.47,1.14,3.74,1.61,1.27,.47,3,.81,4.13-.16,1.01-.86,.89-2.31,.32-3.38Z"/>
            <path class="cls-29" d="M26.41,25.15c-1.25,.32-2.93,.19-4.08,.48-1.77,.45-6.04,1.26-6.81-1.14-.24-.74-.04-1.8-.14-2.58-.12-1.04-.58-2.56-.02-3.56,.38-.68,1.45-1.2,2.04-1.7,1.97-1.65,3.8-3.52,6.66-3.02,1.67,.29,5.86,1.73,5.96,3.91,.1,2.05-.89,6.13-2.77,7.28-.24,.15-.53,.26-.84,.34Z"/>
            <path class="cls-19" d="M19.52,14.92s9.54,1.76,5.76,10.28c1.58-2.92,4.76-7.78-1.21-11.57-2.58-.55-4.55,1.28-4.55,1.28Z"/>
            <path class="cls-6" d="M26.41,25.15c-1.25,.32-2.93,.19-4.08,.48-1.77,.45-6.04,1.26-6.81-1.14-.24-.74-.04-1.8-.14-2.58-.11-.96-.26-1.8-.2-2.78,1.83,2.22,2.13,3.88,5.33,3.88,2.65,0,4.82,2.92,6.83,.14,.74-1.02,1.31-2.15,2.05-3.17-.03,.04,.15,1,.12,1.2-.05,.42-.33,.94-.51,1.32-.4,.87-.91,1.8-1.75,2.31-.24,.15-.53,.26-.84,.34Z"/>
          </g>
          <path class="cls-10" d="M26.94,19.38c.42-.16,.8-.35,1.13-.61,2.14-1.67-.31-3.43-1.95-4.14-3.08-1.34-6.57,.11-8.34,2.8-1.64,2.5-.22,3.68,2.52,2.98,1.81-.46,4.67-.3,6.65-1.03Z"/>
          <path class="cls-4" d="M25.1,34.71c-4.1,.27-7.98-1.88-11.56-3.7-1.67-.85-7.34-3.51-5.43-6.21,.92-1.3,6.38-.04,7.96-.31,1.37-.24,2.64-.59,4.05-.49,1.46,.11,2.86,.68,4.33,.74,3.9,.15,5.28-3.29,5.7-6.61,2.69,2.72,8.23,5.76,6.9,10.3-1.42,4.82-7.65,6-11.96,6.28Z"/>
          <path class="cls-4" d="M18.14,17.8c1.35,.53,2.59,1.81,4,3.43,1.68,1.93,6.54,1.65,8.99,1.65,2.11,0,.36,4.4,2.29,4.56-.17,2.76-5.12,4.84-6.66,5.48-4.59,1.91-8.16-.51-12.02-3.81-1.62-1.38-4.94,.21-6.37-1.58-3.52-4.41,4.2-8.27,6.06-9.32,1.41-.79,2.59-.85,3.7-.42Z"/>
          <path class="cls-3" d="M15.44,21.46c.34,.68,.53,1.26-.58,1.48-1.28,.25-2.62-.66-3.92-.5-1.31,.16-2.14,.94-2.46,2.23-.63,2.51,2.78,3.73,4.39,4.87,2.09,1.49,3.41,2.41,6.02,2.61,2.47,.19,4.79,.61,7.19-.26,2.14-.77,4.68-1.97,4.87-4.53,.18-2.53-2.32-4.73-4.5-2.53-1.82,1.84-3.93,3.17-6.58,3.51-2.31,.3-5.78-.58-6.34-3.23,1.18,.19,2.1,.87,3.23,1.19,1.61,.46,3.57,.58,5.21,.28,1.06-.2,3.62-.73,3.57-2.18-.11-3.24-8.04-1.11-8.06-4.33,.91-.18,1.71,.74,2.6,.65,0-1.92-2.18-2.77-3.78-2.27-.72,.23-1.27,.62-1.37,1.4-.07,.52,.27,1.09,.52,1.6Z"/>
          <path class="cls-3" d="M36.2,25.79c-.42-2.07-2.05-3.22-3.4-4.66-.45-.49-.78-1.27-1.59-1.08-.84,.19-.96,1.22-.71,1.89,.43,1.16,1.65,1.86,2.02,3.1,.88,2.95-1.56,5.26-3.54,6.99-.66,.57-1.48,1.03-.43,1.34,1.08,.32,3.15-.79,4.05-1.29,2.17-1.22,4.13-3.64,3.6-6.28Z"/>
          <path class="cls-2" d="M30.14,22.16c-1.42,1.19-.43,1.83,.5,2.92,.97,1.13,1.17,2.25,.93,3.69,.62-.91,.98-2.37,.6-3.42-.45-1.23-1.49-1.76-1.61-3.17-.14-.04-.26,0-.4,0-.03,.12-.07,.21-.13,.31l.11-.33Z"/>
          <path class="cls-2" d="M12.91,21.3c-.32-1.01,1.21-1.55,1.19-1.83,.02,.31,.3,2.87,.76,2.78-.52,.1-1.79-.45-1.95-.95Z"/>
          <path class="cls-2" d="M17.14,27.18c-.3-.09-2.88-1.23-2.9-1.32,.31,1.49,5.96,2.8,6.04,1.92,.01-.14,.01-.26,0-.4-1.1-.15-2.07,.12-3.14-.2Z"/>
        </g>
      </g>
      <g>
        <path class="cls-9" d="M88.52,55.22c0,4.76-6.11,9.83-16.67,9.75-10.16-.07-23.61-13.33-23.61-18.09s5.76-9.59,15.18-9.59,25.09,13.16,25.09,17.92Z"/>
        <g>
          <g>
            <path class="cls-8" d="M87.11,53.18c0,3.55-6.61,8.76-15.2,8.76s-21.53-12.81-21.53-16.36c0-.23-.07-13.12,0-13.37,1.03-3.54,16.33,8.99,24.36,8.99s11.5-4.91,12.37-1.39c.09,.36,0,13.04,0,13.37Z"/>
            <path class="cls-7" d="M87.11,39.88c0,4.34-5.57,8.96-15.2,8.9-9.26-.06-21.53-12.16-21.53-16.5s5.25-8.74,13.85-8.74,22.88,12,22.88,16.34Z"/>
            <path class="cls-5" d="M72.74,51.39v8.6c0,.64,.56,.97,1.28,.82,8.64-1.74,12.75-5.12,12.75-7.94,0-.16,.03-5.02,.04-8.18,0-.64-.4-.71-.83-.1-2.38,3.36-5.36,3.85-11.95,5.32-.72,.16-1.28,.84-1.28,1.48Z"/>
            <path class="cls-5" d="M51.97,37.92c-.16-.21-.32-.41-.46-.62-.49-.68-.83-.73-.83-.07,0,3.29,.04,8.35,.04,8.52,0,.69,.37,1.62,1.04,2.69,.36,.58,.7,.52,.7-.11v-8.67c0-.63-.22-1.41-.48-1.75Z"/>
          </g>
          <g>
            <path class="cls-25" d="M61.7,24.01s-8.65-1.4-9.38,5.36,9.14-2.44,9.32-3.53c.18-1.1,.06-1.83,.06-1.83Z"/>
            <path class="cls-27" d="M59.46,26.48c-.11-1.89,.52-3.1,3.21-3.27,2.7-.17,5.39,.92,7.06,2.75,1.66,1.84,5.51,3.1,.46,5.45-5.05,2.35-7.46,.57-7.46,.57l-3.27-5.51Z"/>
            <path class="cls-28" d="M62.18,25.72c-3.09,.2-7.65,.62-9.81,3.13-2.16,2.51-1.08,4.69,1.08,7.58,2.16,2.9,7.68,2.69,8.19,2.78,3.02-1.45,5.19-4.9,5.95-7.46,.6-2.02,.27-3.21-.07-3.48-.77-.61-4.42-2.61-5.34-2.55Z"/>
            <path class="cls-6" d="M66.7,32.59c-1.25,1.44-2.22,2.86-4.02,3.66-1.06,.47-2.48,1.43-3.64,1.24-.63-.1-1.16-.62-1.82-.73-.73-.12-1.47,.23-2.18,.12-2.69-.43-3.1-5.2-3.02-7.27-2.28,1.7,.29,5.31,1.43,6.84,2.16,2.9,7.68,2.69,8.19,2.78,1.49-.71,2.72-1.87,3.71-3.17,.45-.59,.97-1.25,1.25-1.95,.07-.17,.26-1.7,.09-1.51Z"/>
            <path class="cls-20" d="M65.36,26.98s-11.29,2.95-10.98,10.45c-1.08-1.65,.38-8.58,7.95-11.71,1.51-.23,3.03,1.25,3.03,1.25Z"/>
            <path class="cls-26" d="M67.6,31.76s-7.02-.31-8.49,6.2c-.55-1.66,.84-9.04,8.06-9.97,1.35,.27,.43,3.76,.43,3.76Z"/>
            <path class="cls-10" d="M66.36,28.47c-.67-1.25-2.05-1.96-3.44-2.09-1.47-.13-3.1-.17-4.53,.21-1.09,.29-2.23,.24-3.31,.71-1.56,.68-2.28,2.35-.13,2.75,1.07,.2,2.16,.07,3.22,.35,1.32,.34,2.47,1.14,3.74,1.61,1.27,.47,3,.81,4.13-.16,1.01-.86,.89-2.31,.32-3.38Z"/>
            <path class="cls-22" d="M74.65,38.03c-1.25,.32-2.93,.19-4.08,.48-1.77,.45-6.04,1.26-6.81-1.14-.24-.74-.04-1.8-.14-2.58-.12-1.04-.58-2.56-.02-3.56,.38-.68,1.45-1.2,2.04-1.7,1.97-1.65,3.8-3.52,6.66-3.02,1.67,.29,5.86,1.73,5.96,3.91,.1,2.05-.89,6.13-2.77,7.28-.24,.15-.53,.26-.84,.34Z"/>
            <path class="cls-23" d="M67.76,27.8s9.54,1.76,5.76,10.28c1.58-2.92,4.76-7.78-1.21-11.57-2.58-.55-4.55,1.28-4.55,1.28Z"/>
            <path class="cls-6" d="M74.65,38.03c-1.25,.32-2.93,.19-4.08,.48-1.77,.45-6.04,1.26-6.81-1.14-.24-.74-.04-1.8-.14-2.58-.11-.96-.26-1.8-.2-2.78,1.83,2.22,2.13,3.88,5.33,3.88,2.65,0,4.82,2.92,6.83,.14,.73-1.02,1.31-2.15,2.05-3.17-.03,.04,.15,1,.12,1.2-.05,.42-.33,.94-.51,1.32-.4,.87-.91,1.8-1.75,2.31-.24,.15-.53,.26-.84,.34Z"/>
          </g>
          <path class="cls-10" d="M75.18,32.26c.42-.16,.8-.35,1.13-.61,2.14-1.67-.31-3.42-1.95-4.14-3.08-1.34-6.57,.11-8.34,2.8-1.64,2.5-.22,3.68,2.52,2.98,1.81-.46,4.67-.3,6.65-1.03Z"/>
          <path class="cls-4" d="M73.34,47.59c-4.1,.27-7.98-1.88-11.56-3.7-1.67-.85-7.34-3.51-5.43-6.21,.92-1.3,6.38-.04,7.96-.31,1.37-.24,2.64-.59,4.05-.49,1.46,.11,2.86,.68,4.33,.74,3.9,.15,5.28-3.29,5.7-6.61,2.69,2.72,8.23,5.76,6.9,10.3-1.41,4.82-7.65,6-11.96,6.28Z"/>
          <path class="cls-4" d="M66.38,30.68c1.35,.53,2.59,1.81,4,3.43,1.68,1.93,6.54,1.65,8.99,1.65,2.11,0,.36,4.4,2.29,4.56-.17,2.76-5.12,4.84-6.66,5.48-4.59,1.91-8.16-.51-12.02-3.81-1.62-1.38-4.94,.21-6.37-1.58-3.52-4.41,4.2-8.27,6.06-9.32,1.41-.79,2.59-.85,3.7-.42Z"/>
          <path class="cls-3" d="M63.68,34.34c.34,.68,.53,1.26-.58,1.48-1.28,.25-2.62-.66-3.92-.5-1.31,.16-2.14,.94-2.46,2.23-.63,2.51,2.78,3.73,4.39,4.87,2.09,1.49,3.41,2.41,6.02,2.61,2.47,.19,4.79,.61,7.19-.26,2.14-.77,4.68-1.97,4.87-4.53,.18-2.53-2.32-4.73-4.5-2.53-1.82,1.84-3.93,3.17-6.58,3.51-2.31,.3-5.78-.58-6.34-3.23,1.18,.19,2.1,.87,3.23,1.19,1.61,.46,3.57,.58,5.21,.28,1.06-.2,3.62-.73,3.57-2.18-.11-3.24-8.04-1.11-8.06-4.33,.91-.18,1.71,.74,2.6,.65,0-1.92-2.18-2.77-3.78-2.27-.72,.23-1.27,.62-1.37,1.4-.07,.52,.27,1.09,.52,1.6Z"/>
          <path class="cls-3" d="M84.45,38.67c-.42-2.07-2.05-3.22-3.4-4.66-.45-.49-.78-1.27-1.59-1.09-.84,.19-.96,1.22-.71,1.89,.43,1.16,1.65,1.86,2.02,3.1,.88,2.95-1.56,5.26-3.54,6.99-.66,.57-1.48,1.03-.43,1.34,1.08,.32,3.15-.79,4.05-1.29,2.17-1.22,4.13-3.64,3.6-6.28Z"/>
          <path class="cls-2" d="M78.38,35.04c-1.42,1.19-.43,1.83,.5,2.92,.97,1.13,1.17,2.25,.93,3.69,.62-.91,.98-2.37,.59-3.42-.45-1.23-1.49-1.76-1.61-3.17-.14-.04-.26,0-.4,0-.03,.12-.07,.21-.13,.31l.11-.33Z"/>
          <path class="cls-2" d="M61.15,34.18c-.32-1.01,1.21-1.55,1.19-1.83,.02,.31,.3,2.87,.76,2.78-.52,.1-1.79-.45-1.95-.95Z"/>
          <path class="cls-2" d="M65.38,40.06c-.3-.09-2.88-1.23-2.9-1.32,.31,1.49,5.96,2.8,6.04,1.92,.01-.14,.01-.26,0-.4-1.1-.15-2.07,.12-3.14-.2Z"/>
        </g>
      </g>
      <g>
        <path class="cls-9" d="M64.48,65.54c0,4.76-6.11,9.83-16.67,9.75-10.16-.07-23.61-13.33-23.61-18.09s5.76-9.59,15.18-9.59,25.09,13.16,25.09,17.92Z"/>
        <g>
          <g>
            <path class="cls-8" d="M63.07,63.5c0,3.55-6.61,8.76-15.2,8.76s-21.53-12.81-21.53-16.36c0-.23-.07-13.12,0-13.37,1.03-3.54,16.33,8.99,24.36,8.99s11.5-4.91,12.37-1.39c.09,.36,0,13.04,0,13.37Z"/>
            <path class="cls-7" d="M63.07,50.2c0,4.34-5.57,8.96-15.2,8.9-9.26-.06-21.53-12.16-21.53-16.5s5.25-8.74,13.85-8.74,22.88,12,22.88,16.34Z"/>
            <path class="cls-5" d="M48.7,61.71v8.6c0,.64,.56,.97,1.28,.82,8.64-1.74,12.75-5.12,12.75-7.94,0-.16,.03-5.02,.04-8.18,0-.64-.4-.71-.83-.1-2.38,3.36-5.36,3.85-11.95,5.32-.72,.16-1.28,.84-1.28,1.48Z"/>
            <path class="cls-5" d="M27.93,48.24c-.16-.21-.32-.41-.46-.62-.49-.68-.83-.73-.83-.07,0,3.29,.04,8.35,.04,8.52,0,.69,.37,1.62,1.04,2.69,.36,.58,.7,.52,.7-.11v-8.67c0-.63-.22-1.41-.48-1.75Z"/>
          </g>
          <g>
            <path class="cls-21" d="M37.67,34.33s-8.65-1.4-9.38,5.36c-.73,6.76,9.14-2.44,9.32-3.53,.18-1.1,.06-1.83,.06-1.83Z"/>
            <path class="cls-24" d="M35.42,36.8c-.11-1.89,.52-3.1,3.21-3.27,2.7-.17,5.39,.92,7.06,2.75s5.51,3.1,.46,5.45-7.46,.57-7.46,.57l-3.27-5.51Z"/>
            <path class="cls-34" d="M38.14,36.04c-3.09,.2-7.65,.62-9.81,3.13-2.16,2.51-1.08,4.69,1.08,7.58s7.68,2.69,8.19,2.78c3.02-1.45,5.19-4.9,5.95-7.46,.6-2.02,.27-3.21-.07-3.48-.77-.61-4.42-2.61-5.34-2.55Z"/>
            <path class="cls-6" d="M42.66,42.9c-1.25,1.44-2.22,2.86-4.02,3.66-1.06,.47-2.48,1.43-3.64,1.24-.63-.1-1.16-.62-1.82-.73-.73-.12-1.47,.23-2.18,.12-2.69-.43-3.1-5.2-3.02-7.27-2.28,1.7,.29,5.31,1.43,6.84,2.16,2.9,7.68,2.69,8.19,2.78,1.49-.71,2.72-1.87,3.71-3.17,.45-.59,.97-1.25,1.25-1.95,.07-.17,.26-1.7,.09-1.51Z"/>
            <path class="cls-36" d="M41.32,37.3s-11.29,2.95-10.98,10.45c-1.08-1.65,.38-8.58,7.95-11.71,1.51-.23,3.03,1.25,3.03,1.25Z"/>
            <path class="cls-35" d="M43.56,42.07s-7.02-.31-8.49,6.2c-.55-1.66,.84-9.04,8.06-9.97,1.35,.27,.43,3.76,.43,3.76Z"/>
            <path class="cls-10" d="M42.33,38.79c-.67-1.25-2.05-1.96-3.44-2.09-1.47-.13-3.1-.17-4.53,.21-1.09,.29-2.23,.24-3.31,.71-1.56,.68-2.28,2.35-.13,2.75,1.07,.2,2.16,.07,3.22,.35,1.32,.34,2.47,1.14,3.74,1.61,1.27,.47,3,.81,4.13-.16,1.01-.86,.89-2.31,.32-3.38Z"/>
            <path class="cls-33" d="M50.61,48.35c-1.25,.32-2.93,.19-4.08,.48-1.77,.45-6.04,1.26-6.81-1.14-.24-.74-.04-1.8-.14-2.58-.12-1.04-.58-2.56-.02-3.56,.38-.68,1.45-1.2,2.04-1.7,1.97-1.65,3.8-3.52,6.66-3.02,1.67,.29,5.86,1.73,5.96,3.91,.1,2.05-.89,6.13-2.77,7.28-.24,.15-.53,.26-.84,.34Z"/>
            <path class="cls-37" d="M43.72,38.11s9.54,1.76,5.76,10.28c1.58-2.92,4.76-7.78-1.21-11.57-2.58-.55-4.55,1.28-4.55,1.28Z"/>
            <path class="cls-6" d="M50.61,48.35c-1.25,.32-2.93,.19-4.08,.48-1.77,.45-6.04,1.26-6.81-1.14-.24-.74-.04-1.8-.14-2.58-.11-.96-.26-1.8-.2-2.78,1.83,2.22,2.13,3.88,5.33,3.88,2.65,0,4.82,2.92,6.83,.14,.73-1.02,1.31-2.15,2.05-3.17-.03,.04,.15,1,.12,1.2-.05,.42-.33,.94-.51,1.32-.4,.87-.91,1.8-1.75,2.31-.24,.15-.53,.26-.84,.34Z"/>
          </g>
          <path class="cls-10" d="M51.15,42.58c.42-.16,.8-.35,1.13-.61,2.14-1.67-.31-3.42-1.95-4.14-3.08-1.34-6.57,.11-8.34,2.8-1.64,2.5-.22,3.68,2.52,2.98,1.81-.46,4.67-.3,6.65-1.03Z"/>
          <path class="cls-4" d="M49.3,57.91c-4.1,.27-7.98-1.88-11.56-3.7-1.67-.85-7.34-3.51-5.43-6.21,.92-1.3,6.38-.04,7.96-.31,1.37-.24,2.64-.59,4.05-.49,1.46,.11,2.86,.68,4.33,.74,3.9,.15,5.28-3.29,5.7-6.61,2.69,2.72,8.23,5.76,6.9,10.3-1.42,4.82-7.65,6-11.96,6.28Z"/>
          <path class="cls-4" d="M42.34,41c1.35,.53,2.59,1.81,4,3.43,1.68,1.93,6.54,1.65,8.99,1.65,2.11,0,.36,4.4,2.29,4.56-.17,2.76-5.12,4.84-6.66,5.48-4.59,1.91-8.16-.51-12.02-3.81-1.62-1.38-4.94,.21-6.37-1.58-3.52-4.41,4.2-8.27,6.06-9.32,1.41-.79,2.59-.85,3.7-.42Z"/>
          <path class="cls-3" d="M39.65,44.65c.34,.68,.53,1.26-.58,1.48-1.28,.25-2.62-.66-3.92-.5-1.31,.16-2.14,.94-2.46,2.23-.63,2.51,2.78,3.73,4.39,4.87,2.09,1.49,3.41,2.41,6.02,2.61,2.47,.19,4.79,.61,7.19-.26,2.14-.77,4.68-1.97,4.87-4.53,.18-2.53-2.32-4.73-4.5-2.53-1.82,1.84-3.93,3.17-6.58,3.51-2.31,.3-5.78-.58-6.34-3.23,1.18,.19,2.1,.87,3.23,1.19,1.61,.46,3.57,.58,5.21,.28,1.06-.2,3.62-.73,3.57-2.18-.11-3.24-8.04-1.11-8.06-4.33,.91-.18,1.71,.74,2.6,.65,0-1.92-2.18-2.77-3.78-2.27-.72,.23-1.27,.62-1.37,1.4-.07,.52,.27,1.09,.52,1.6Z"/>
          <path class="cls-3" d="M60.41,48.98c-.42-2.07-2.05-3.22-3.4-4.66-.45-.49-.78-1.27-1.59-1.08-.84,.19-.96,1.22-.71,1.89,.43,1.16,1.65,1.86,2.02,3.1,.88,2.95-1.56,5.26-3.54,6.99-.66,.57-1.48,1.03-.43,1.34,1.08,.32,3.15-.79,4.05-1.29,2.17-1.22,4.13-3.64,3.6-6.28Z"/>
          <path class="cls-2" d="M54.34,45.36c-1.42,1.19-.43,1.83,.5,2.92,.97,1.13,1.17,2.25,.93,3.69,.62-.91,.98-2.37,.6-3.42-.45-1.23-1.49-1.76-1.61-3.17-.14-.04-.26,0-.4,0-.03,.12-.07,.21-.13,.31l.11-.33Z"/>
          <path class="cls-2" d="M37.11,44.49c-.32-1.01,1.21-1.55,1.19-1.83,.02,.31,.3,2.87,.76,2.78-.52,.1-1.79-.45-1.95-.95Z"/>
          <path class="cls-2" d="M41.34,50.37c-.3-.09-2.88-1.23-2.9-1.32,.31,1.49,5.96,2.8,6.04,1.92,.01-.14,.01-.26,0-.4-1.1-.15-2.07,.12-3.14-.2Z"/>
        </g>
      </g>
    </g>
  </g>
</svg>