<?xml version="1.0" encoding="UTF-8"?>
<svg xmlns="http://www.w3.org/2000/svg" viewBox="0 0 98 65.47">
  <defs>
    <style>
      .cls-1 {
        fill: #ece2ac;
      }

      .cls-2, .cls-3 {
        fill: #fff;
      }

      .cls-4 {
        fill: #ffa36e;
      }

      .cls-5 {
        fill: #ff4000;
      }

      .cls-6 {
        fill: #fcfbe6;
      }

      .cls-7 {
        fill: #ff7547;
      }

      .cls-8 {
        fill: #b8b5aa;
        mix-blend-mode: multiply;
      }

      .cls-3 {
        mix-blend-mode: color-dodge;
        opacity: .2;
      }

      .cls-9 {
        isolation: isolate;
      }
    </style>
  </defs>
  <g class="cls-9">
    <g id="Layer_2" data-name="Layer 2">
      <g id="_图层_5" data-name="图层 5">
        <g id="_图层_1_205" data-name="图层 1,205">
          <path class="cls-8" d="M80.26,58.75c-.08-.15-.23-.3-.41-.44,.62-.46,.69-1.34,.05-2.3-.3-.44-.7-.84-1.17-1.18,.4-.28,.73-.64,.91-1.08,.45-1.11-.18-2.27-1.41-2.74,1.05-.55,1.4-1.31,.73-1.91-.78-.71-2.65-.95-4.37-.61-.05-.05-.1-.09-.15-.14,.09-.09,.17-.17,.25-.27,.86-1.17,.36-2.52-1.11-3.02-.29-.1-.6-.15-.91-.17-.37-.71-1.71-1.51-3.49-2.02-.87-.25-1.72-.39-2.48-.43-.03-.14-.07-.29-.13-.44-.55-1.34-2.18-2.42-3.65-2.41-.13,0-.26,.02-.38,.04-.72-.66-2.48-1.13-4.35-1.1-.57,0-1.09,.06-1.55,.15,0-.05,.02-.1,.03-.15,.1-1.37-1.11-2.67-2.71-2.91-.39-.06-.77-.05-1.12,.02-.83-.7-2.76-1.16-4.75-1.08-.84,.03-1.57,.16-2.15,.35-.73-1.29-2.41-2.27-3.82-2.21-1,.04-1.59,.6-1.65,1.38-.04-.08-.07-.15-.12-.23-.83-1.31-2.63-2.27-4.03-2.15-.4,.03-.71,.16-.95,.35-.95-.46-2.52-.71-4.07-.57-.84,.08-1.54,.25-2.06,.49-.87-1.16-2.46-2-3.79-1.92-1.29,.08-1.89,1-1.5,2.15-.02,0-.04,0-.05,0-1.23-1.26-3.22-2.07-4.55-1.82-1.05,.2-1.39,.99-.98,1.95-1.45-1.19-3.53-1.88-4.76-1.53-1.2,.34-1.14,1.54,.06,2.75-.16-.05-.33-.11-.5-.15-2.3-.62-4.48-.49-4.86,.3-.15,.31,0,.67,.39,1.04-.69-.2-1.36-.26-1.89-.13-1.27,.31-1.26,1.57,0,2.83-.76,.26-1.41,.76-1.72,1.42-.39,.83-.16,1.7,.49,2.3-1.01,.15-1.67,.51-1.68,1.01-.01,.68,1.16,1.41,2.82,1.85-.72,.09-1.25,.3-1.43,.64-.4,.8,1.18,1.97,3.53,2.62,.15,.04,.3,.07,.45,.11-.36,.19-.58,.42-.59,.71,0,.89,1.99,1.88,4.46,2.2,.02,0,.04,0,.06,0-.5,.22-.78,.52-.73,.88,.13,.88,2.17,1.74,4.54,1.92,.38,.03,.73,.03,1.07,.03-.73,.61-.85,1.33-.14,1.88,.86,.66,2.63,.84,4.26,.49,.4,.72,1.95,1.46,3.89,1.79,.87,.15,1.69,.19,2.38,.14,.02,.1,.04,.2,.08,.3,.52,1.41,2.2,2.56,3.75,2.57,.67,0,1.19-.21,1.54-.56,.08,.12,.16,.24,.26,.36,1.06,1.24,2.97,2.07,4.25,1.85,.32-.05,.57-.17,.75-.33,.17,.41,.53,.76,1.09,.98,1.05,.42,2.44,.24,3.46-.35,.04,.13,.12,.26,.24,.38,.81,.83,3.1,1.14,5.11,.69,.48-.11,.89-.25,1.24-.41,.29,1.27,1.59,2.36,3.07,2.5,1.05,.1,1.91-.3,2.35-.98,.2,.31,.51,.57,.96,.76,1.35,.55,3.28,.16,4.32-.88,0,0,0,0,0,0,.21,.26,.5,.49,.9,.65,1.4,.57,3.41,.16,4.49-.91,0,0,0,0,.01-.01,.18,.2,.43,.38,.75,.51,1.34,.57,3.32,.21,4.43-.8,.45-.42,.68-.88,.71-1.32,1.7,.63,3.42,.76,4.09,.24,.63-.48,.13-1.37-1.08-2.18,.02-.01,.03-.02,.05-.04,.53,.06,1.08,.08,1.64,.05,2.31-.1,3.81-.91,3.35-1.8Z"/>
        </g>
        <g id="_图层_1_204" data-name="图层 1,204">
          <path class="cls-1" d="M81.85,39.97c-.11-.25-.28-.46-.48-.65,.53-1.03,.43-2.64-.37-4.16-.37-.7-.85-1.28-1.36-1.73,.35-.63,.6-1.39,.7-2.24,.24-2.15-.58-4.02-1.88-4.47,.94-1.33,1.14-2.82,.37-3.68-.89-1.01-2.78-.83-4.41,.35-.05-.07-.11-.13-.17-.2,.07-.19,.14-.37,.19-.57,.64-2.39-.1-4.66-1.64-5.07-.3-.08-.62-.06-.93,0-.49-1.15-1.95-2.16-3.79-2.48-.9-.16-1.76-.13-2.51,.05-.05-.25-.12-.5-.21-.75-.78-2.23-2.58-3.63-4.02-3.13-.13,.05-.25,.12-.36,.19-.82-.94-2.65-1.21-4.48-.54-.56,.2-1.06,.48-1.5,.79,0-.1,0-.19,0-.29-.15-2.49-1.58-4.44-3.19-4.34-.4,.02-.76,.17-1.09,.41-.94-.98-2.92-1.18-4.86-.37-.82,.34-1.51,.81-2.05,1.35-.95-2.08-2.78-3.3-4.16-2.71-.98,.41-1.46,1.61-1.37,3.04-.05-.12-.1-.25-.16-.37-1.05-2.08-3-3.22-4.35-2.54-.38,.19-.67,.53-.87,.94-1.02-.52-2.6-.44-4.11,.33-.81,.41-1.47,.97-1.94,1.56-1.06-1.81-2.78-2.78-4.07-2.2-1.26,.57-1.68,2.42-1.09,4.36-.02,0-.03,.01-.05,.02-1.44-1.86-3.54-2.67-4.81-1.78-1,.7-1.19,2.24-.61,3.83-1.65-1.67-3.82-2.21-4.96-1.18-1.12,1.01-.85,3.14,.55,4.93-.17-.04-.34-.09-.52-.11-2.38-.36-4.49,.6-4.73,2.14-.09,.61,.13,1.21,.57,1.74-.72-.13-1.39-.02-1.88,.39-1.2,.98-.96,3.24,.5,5.1-.7,.72-1.25,1.82-1.43,3.13-.23,1.63,.15,3.11,.9,3.98-.96,.61-1.55,1.46-1.47,2.37,.11,1.22,1.4,2.15,3.11,2.41-.7,.39-1.18,.95-1.29,1.63-.25,1.57,1.51,3.16,3.94,3.54,.16,.02,.3,.03,.46,.04-.32,.45-.5,.95-.45,1.46,.15,1.61,2.29,2.72,4.78,2.49,.02,0,.04,0,.06,0-.45,.57-.68,1.2-.56,1.83,.29,1.53,2.44,2.41,4.81,1.96,.38-.07,.72-.18,1.06-.3-.61,1.34-.59,2.68,.2,3.43,.96,.91,2.74,.65,4.27-.51,.52,1.16,2.18,1.99,4.15,1.94,.88-.02,1.7-.21,2.37-.53,.04,.17,.07,.34,.13,.52,.77,2.36,2.63,3.88,4.15,3.38,.66-.21,1.14-.78,1.42-1.52,.1,.19,.2,.37,.32,.56,1.27,1.89,3.29,2.75,4.52,1.93,.3-.21,.53-.5,.68-.85,.24,.68,.66,1.19,1.24,1.41,1.11,.4,2.44-.37,3.34-1.78,.07,.22,.16,.43,.3,.61,.95,1.22,3.26,1.03,5.15-.44,.45-.35,.83-.74,1.14-1.15,.52,2.19,1.99,3.72,3.47,3.49,1.05-.16,1.83-1.17,2.13-2.54,.25,.49,.61,.87,1.08,1.05,1.42,.54,3.25-.8,4.09-3,0,0,0,0,0,0,.25,.4,.58,.72,1.01,.88,1.48,.56,3.39-.84,4.26-3.13,0,0,0-.02,0-.03,.22,.3,.49,.54,.83,.68,1.42,.59,3.3-.71,4.21-2.9,.37-.9,.51-1.8,.46-2.6,1.78,.58,3.5,.23,4.06-.91,.53-1.07-.12-2.51-1.46-3.57,.01-.03,.03-.05,.04-.08,.53-.07,1.08-.22,1.62-.45,2.25-.94,3.58-2.88,2.97-4.34Z"/>
        </g>
        <g id="_图层_1_203" data-name="图层 1,203">
          <path class="cls-6" d="M65.92,28.06s-.05,0-.07-.02c.08-.17,.17-.33,.24-.51,.82-2.16,.35-4.35-1.05-4.88-.7-.27-1.51-.06-2.24,.48,.62-1.91,.21-3.77-1.03-4.29-.57-.24-1.22-.13-1.84,.2-.34-.92-1.21-1.85-2.42-2.44-.62-.31-1.26-.48-1.85-.55,.08-.4,.07-.79-.09-1.15-.58-1.38-2.77-1.77-4.89-.88-.46,.19-.88,.44-1.25,.71-.11-.39-.25-.79-.46-1.18-1.03-1.96-2.89-3-4.16-2.34-.02,.01-.04,.03-.06,.04-.02-.06-.02-.12-.04-.18-.2-.48-.61-.84-1.13-1.07-.38-.57-.89-.96-1.49-1.03-.76-.09-1.49,.34-2.06,1.09-.1,.04-.21,.06-.31,.11-.77,.32-1.43,.77-1.93,1.27-.9-1.97-2.63-3.12-3.93-2.57-.92,.39-1.38,1.53-1.3,2.87-.05-.12-.09-.23-.15-.35-1-1.97-2.84-3.04-4.11-2.4-.44,.22-.75,.63-.93,1.14-.97-.4-2.37-.3-3.71,.38-.97,.5-1.72,1.19-2.15,1.93-.98-1.16-2.27-1.71-3.27-1.26-1.22,.55-1.6,2.38-.98,4.26-1.36-1.85-3.41-2.65-4.63-1.79-1.22,.85-1.16,3.03,.09,4.93-1.2-.61-2.41-.66-3.17,.02-1.13,1.02-.77,3.27,.8,5.02,.08,.09,.17,.16,.26,.25-2.14-.23-3.99,.65-4.21,2.04-.17,1.11,.76,2.22,2.21,2.83-.94,1.02-.66,3.06,.71,4.74,.54,.66,1.16,1.16,1.8,1.49-.11,.33-.2,.68-.25,1.04-.32,2.28,.61,4.3,2.09,4.51,.09,.01,.19,0,.28,0,.17,1.41,1.99,2.39,4.16,2.28-.08,1.43,1.52,2.82,3.73,3.18,.47,.08,.93,.08,1.37,.06,.54,1.19,2.32,1.96,4.36,1.77,.27-.02,.52-.07,.77-.12,.36,1.37,2.33,2.15,4.51,1.74,.44-.08,.85-.22,1.23-.38-.06,.74,.11,1.4,.58,1.84,1.08,1.02,3.23,.5,4.81-1.17,.05-.06,.1-.12,.15-.18,.75,.64,1.95,1.05,3.3,1.02,1.19-.03,2.24-.39,2.96-.94,.84,1.79,2.35,2.86,3.63,2.44,1.28-.41,1.88-2.18,1.5-4.12,.06,.1,.11,.2,.17,.3,1.2,1.79,3.12,2.6,4.27,1.83,.6-.4,.87-1.16,.83-2.04,.16,.14,.33,.25,.52,.32,1.32,.48,2.99-.78,3.73-2.82,.1-.27,.17-.54,.23-.8,.93-.03,2-.41,2.97-1.16,.94-.73,1.57-1.64,1.84-2.52,1.43-.34,2.3-2.35,1.95-4.62-.13-.81-.4-1.53-.75-2.13,.34-.44,.64-.95,.87-1.53,.79-2.08,.34-4.18-1-4.69Z"/>
        </g>
        <g id="_图层_1_202" data-name="图层 1,202">
          <path class="cls-2" d="M41.57,37.53c1.11-3.99-3.49-8.75-10.27-10.63-6.78-1.88-13.18-.17-14.28,3.82-1.11,3.99,3.49,8.75,10.27,10.63,6.78,1.88,13.18,.17,14.28-3.82Z"/>
        </g>
        <g id="_图层_1_201" data-name="图层 1,201">
          <path class="cls-7" d="M90.41,33.81c-2.6-.68-4.91-1.32-6.55-1.2-4.46-10.54-17.31-26.75-38.39-31.3-15.11-3.26-29.13,.07-38.41,5.11-6.36,3.45,.39,4.25-4.28,6.81-3.36,1.84-4.55,10.37,1.45,12.16,7.76,2.32,20.17,3.9,34.53,7,15.1,3.26,29.16,7.8,37.86,9.12,.13,1.72,.62,3.84,1.14,6.16,1.19,5.35,2.03,9.71,5.4,8.96,3.37-.75,7.69-5.88,3.95-11.05-1.09-1.5-2-3.02-2.86-4.35,.63-.35,1.07-.85,1.25-1.53,.9,.62,1.88,1.28,2.84,2.03,4.3,3.36,8.81-.17,9.56-3.03,.75-2.86-2.95-3.71-7.49-4.9Z"/>
        </g>
        <g id="_图层_1_200" data-name="图层 1,200">
          <path class="cls-3" d="M45.48,1.3c-15.11-3.26-29.13,.07-38.41,5.11-6.36,3.45,.39,4.25-4.28,6.81-1.13,.62-2,1.99-2.45,3.61,18.47-1.39,40.8,2.44,52.64,6.47,13.08,4.45,23.57,4.28,22.85-3.42-6.71-7.94-16.84-15.65-30.35-18.57Z"/>
        </g>
        <g id="_图层_1_199" data-name="图层 1,199">
          <path class="cls-5" d="M90.41,33.81c-2.6-.68-4.91-1.32-6.55-1.2-5-2.75-19.28-21.36-40.36-25.92-15.11-3.26-23.57-2.09-33.89,2.04-6.71,2.69-2.16,1.93-6.83,4.49-3.36,1.84,7.87-2.01,14.06-2.98,10-1.57,18.64-3.27,32.15,2.47,14.66,6.23,33.33,16.68,27.62,28.79,.13,1.72,.62,3.84,1.14,6.16,1.19,5.35,2.03,9.71,5.4,8.96,3.37-.75,7.69-5.88,3.95-11.05-1.09-1.5-2-3.02-2.86-4.35,.63-.35,1.07-.85,1.25-1.53,.9,.62,1.88,1.28,2.84,2.03,4.3,3.36,8.81-.17,9.56-3.03,.75-2.86-2.95-3.71-7.49-4.9Z"/>
        </g>
        <g id="_图层_1_198" data-name="图层 1,198">
          <path class="cls-5" d="M10.12,10.77c1.09,.78,1.04,2.73-.12,4.36-1.16,1.63-3.8,4.93-4.57,2.02-.35-1.3-.55-3.21,.61-4.84,1.16-1.63,2.98-2.31,4.08-1.53Z"/>
        </g>
        <g id="_图层_1_197" data-name="图层 1,197">
          <path class="cls-5" d="M75.03,27.38c.92,.98,.48,2.88-.98,4.25-1.46,1.36-4.7,4.08-4.88,1.07-.08-1.34,.1-3.26,1.56-4.62,1.46-1.36,3.39-1.67,4.3-.69Z"/>
        </g>
        <g id="_图层_1_196" data-name="图层 1,196">
          <path class="cls-5" d="M21.43,7.37c2.16,.89,2.85,4.21,1.53,7.43-1.32,3.22-4.48,9.86-6.95,5.23-1.1-2.06-2.2-5.23-.88-8.44,1.32-3.22,4.14-5.1,6.31-4.21Z"/>
        </g>
        <g id="_图层_1_195" data-name="图层 1,195">
          <path class="cls-5" d="M36.48,8.03c1.91,1.34,1.85,4.73-.14,7.58-1.99,2.85-6.54,8.64-7.93,3.57-.62-2.25-1-5.58,.99-8.43,1.99-2.85,5.16-4.07,7.08-2.73Z"/>
        </g>
        <g id="_图层_1_194" data-name="图层 1,194">
          <path class="cls-5" d="M51.15,11.61c1.69,1.61,1.13,4.96-1.26,7.48-2.4,2.52-7.75,7.57-8.37,2.36-.28-2.32-.16-5.67,2.23-8.19,2.39-2.52,5.71-3.26,7.4-1.65Z"/>
        </g>
        <g id="_图层_1_193" data-name="图层 1,193">
          <path class="cls-5" d="M64.13,18.09c1.69,1.61,1.13,4.96-1.27,7.48-2.39,2.52-7.74,7.57-8.37,2.36-.28-2.32-.16-5.67,2.23-8.19,2.4-2.52,5.71-3.26,7.4-1.65Z"/>
        </g>
        <g id="_图层_1_192" data-name="图层 1,192">
          <path class="cls-4" d="M6.25,25.55c.58-3.43-1.19-6.27-2.71-8.04-1.36-1.58-2.44-1.4-3.28-.39-.76,3.16,.11,7.1,3.98,8.26,.61,.18,1.27,.36,1.94,.54,.03-.12,.05-.24,.07-.37Z"/>
        </g>
        <g id="_图层_1_191" data-name="图层 1,191">
          <path class="cls-4" d="M69.9,40.15c1.91,.45,3.69,.83,5.31,1.12,.1-.67,.11-1.32,.08-1.89-.19-3.32-3.45-.94-5.38,.77Z"/>
        </g>
        <g id="_图层_1_190" data-name="图层 1,190">
          <path class="cls-4" d="M16.56,28.13c.33-3.2-1.31-5.85-2.76-7.53-3.19-3.7-4.81,2.23-5.49,5.84,2.47,.58,5.23,1.12,8.25,1.69Z"/>
        </g>
        <g id="_图层_1_189" data-name="图层 1,189">
          <path class="cls-4" d="M51.14,27.87c-2.11-4.81-5.77,1.58-7.33,4.68-.15,.29-.26,.59-.37,.89,2.83,.66,5.6,1.35,8.29,2.04,1.02-2.83,.26-5.67-.59-7.61Z"/>
        </g>
        <g id="_图层_1_188" data-name="图层 1,188">
          <path class="cls-4" d="M29.18,29.99c.58-3.43-1.19-6.27-2.71-8.04-3.43-3.98-5.05,3.2-5.63,6.63-.02,.11-.03,.23-.05,.34,2.63,.48,5.4,.98,8.3,1.53,.03-.15,.07-.3,.09-.45Z"/>
        </g>
        <g id="_图层_1_187" data-name="图层 1,187">
          <path class="cls-4" d="M65.5,32.2c-1.4-5.06-5.93,.73-7.93,3.58-.24,.35-.45,.7-.64,1.06,2.96,.78,5.78,1.52,8.42,2.2,.98-2.43,.65-4.99,.15-6.84Z"/>
        </g>
        <g id="_图层_1_186" data-name="图层 1,186">
          <path class="cls-4" d="M40.9,32.86c.04-.19,.09-.39,.12-.59,.58-3.43-1.19-6.27-2.72-8.04-3.43-3.98-5.05,3.2-5.63,6.63-.02,.09-.02,.18-.04,.27,1.99,.39,4.03,.81,6.12,1.26,.72,.16,1.43,.32,2.14,.48Z"/>
        </g>
        <g id="_图层_1_185" data-name="图层 1,185">
          <path class="cls-5" d="M9.67,10.95c1.3,.33,2.75-.97,3.25-2.91,.32-1.24,.76-3.39,.32-4.43-1.57,.59-3.07,1.23-4.47,1.92-.24,.39-.44,.82-.56,1.31-.49,1.94,.17,3.77,1.47,4.1Z"/>
        </g>
        <g id="_图层_1_184" data-name="图层 1,184">
          <path class="cls-5" d="M40.83,5.19c.78-1.11,1.85-2.74,2.56-4.29C40.25,.34,37.16,.06,34.16,.01c-.08,.1-.17,.19-.25,.3-2,2.84-2.08,6.23-.17,7.58,1.91,1.35,5.08,.14,7.08-2.7Z"/>
        </g>
        <g id="_图层_1_183" data-name="图层 1,183">
          <path class="cls-5" d="M19.15,9.34c2.27,.57,4.79-1.69,5.65-5.06,.26-1.02,.57-2.39,.74-3.74-3.18,.43-6.2,1.1-9.01,1.96-.72,3.26,.42,6.29,2.62,6.84Z"/>
        </g>
        <g id="_图层_1_182" data-name="图层 1,182">
          <path class="cls-5" d="M81.58,28.03c-1.27-2.22-2.84-4.56-4.71-6.9-2.34,1.9-3.32,4.61-2.17,6.38,1.17,1.81,4.14,1.98,6.89,.52Z"/>
        </g>
        <g id="_图层_1_181" data-name="图层 1,181">
          <path class="cls-5" d="M62.23,17.72c1.27,1.96,4.66,2.02,7.58,.13,.72-.47,1.63-1.09,2.52-1.78-1.98-1.96-4.17-3.86-6.58-5.62-.18,.1-.36,.18-.53,.29-2.92,1.89-4.25,5.01-2.98,6.97Z"/>
        </g>
        <g id="_图层_1_180" data-name="图层 1,180">
          <path class="cls-5" d="M54.94,10.53c1.42-.92,3.56-2.42,4.8-3.9-2.62-1.44-5.44-2.7-8.46-3.72-.32,.15-.64,.31-.95,.51-2.92,1.89-4.25,5.01-2.98,6.97,1.27,1.96,4.66,2.02,7.58,.13Z"/>
        </g>
        <g id="_图层_1_179" data-name="图层 1,179">
          <path class="cls-4" d="M45.25,1.27c21.42,4.63,33.73,21.46,37.63,30.67l.3,.71,.74-.05s-.03,0-.05,0c-4.46-10.54-17.31-26.75-38.39-31.3-2.05-.44-4.07-.75-6.07-.97,1.96,.21,3.92,.53,5.84,.94Z"/>
        </g>
        <g id="_图层_1_178" data-name="图层 1,178">
          <path class="cls-4" d="M35.6,.06c-.61-.02-1.22-.04-1.82-.05,.61,0,1.21,.02,1.82,.05Z"/>
        </g>
        <g id="_图层_1_177" data-name="图层 1,177">
          <path class="cls-4" d="M90.41,33.81c-2.35-.62-4.46-1.19-6.05-1.21,1.36,.02,3.29,.52,5.34,1.06l.92,.24c2.04,.53,3.96,1.03,5.15,1.68,1.26,.68,1.23,1.26,1.09,1.79-.38,1.47-2.33,3.6-4.83,3.6-1.05,0-2.07-.38-3.04-1.14-.92-.72-1.83-1.34-2.71-1.94l-1.44-.99-.39,1.47c-.1,.37-.32,.64-.73,.86l-1.01,.56,.62,.96c.23,.36,.47,.73,.71,1.11,.67,1.06,1.37,2.16,2.18,3.28,1.6,2.21,1.36,4.19,.88,5.45-.8,2.12-2.76,3.6-4.19,3.92-.18,.04-.34,.06-.49,.06-1.81,0-2.6-3.54-3.51-7.64l-.25-1.13c-.45-2.02-.88-3.94-.99-5.44l-.06-.85-.85-.13c-4.61-.7-10.76-2.32-17.87-4.2-6.05-1.59-12.91-3.4-19.92-4.92-6.11-1.32-11.93-2.37-17.06-3.3-6.96-1.26-12.98-2.35-17.39-3.67-2.67-.8-3.29-3.09-3.43-4.38-.25-2.37,.75-5.03,2.19-5.82,2.72-1.49,2.5-2.92,2.08-4.14-.24-.69-.43-1.24,2.2-2.67C14.04,2.77,21.76,.63,29.65,.13,20.83,.68,12.98,3.19,7.07,6.41c-6.36,3.45,.39,4.25-4.28,6.81-3.36,1.84-4.55,10.37,1.45,12.16,7.76,2.32,20.17,3.9,34.53,7,15.1,3.26,29.16,7.8,37.86,9.12,.13,1.72,.62,3.84,1.14,6.16,1.19,5.35,2.03,9.71,5.4,8.96,3.37-.75,7.69-5.88,3.95-11.05-1.09-1.5-2-3.02-2.86-4.35,.63-.35,1.07-.85,1.25-1.53,.9,.62,1.88,1.28,2.84,2.03,4.3,3.36,8.81-.17,9.56-3.03,.75-2.86-2.95-3.71-7.49-4.9Z"/>
        </g>
        <g id="_图层_1_176" data-name="图层 1,176">
          <path class="cls-4" d="M36.62,.1c.78,.05,1.55,.11,2.32,.19-.78-.08-1.55-.14-2.32-.19Z"/>
        </g>
        <g id="_图层_1_175" data-name="图层 1,175">
          <path class="cls-4" d="M30.38,.09c.79-.04,1.58-.06,2.37-.07-.8,0-1.59,.03-2.37,.07Z"/>
        </g>
        <g id="_图层_1_174" data-name="图层 1,174">
          <path class="cls-2" d="M65.05,23.51c.58-1.75-3.41-4.65-8.92-6.47-5.5-1.82-10.44-1.88-11.01-.13-.58,1.75,5.61-.52,9.96,3.3,7.48,6.57,9.39,5.05,9.97,3.3Z"/>
        </g>
        <g id="_图层_1_173" data-name="图层 1,173">
          <path class="cls-2" d="M37.77,2.91c-.1-1.13-4.56-1.68-9.98-1.22-5.42,.46-9.73,1.75-9.63,2.88,.09,1.13,4.39-.37,9.8-.83,5.42-.46,9.9,.3,9.81-.83Z"/>
        </g>
      </g>
    </g>
  </g>
</svg>