<?xml version="1.0" encoding="UTF-8"?>
<svg id="Layer_2" data-name="Layer 2" xmlns="http://www.w3.org/2000/svg" xmlns:xlink="http://www.w3.org/1999/xlink" viewBox="0 0 125.98 107.17">
  <defs>
    <style>
      .cls-1 {
        fill: url(#linear-gradient);
      }

      .cls-2 {
        fill: #f7b237;
      }

      .cls-3 {
        fill: #efc45e;
      }

      .cls-4 {
        fill: #f0eadf;
      }

      .cls-5 {
        fill: #e6fcb1;
      }

      .cls-6, .cls-7 {
        fill: #fff;
      }

      .cls-8 {
        fill: #ffedb3;
      }

      .cls-9 {
        fill: #ffc76c;
      }

      .cls-10 {
        fill: #ffb42b;
      }

      .cls-11 {
        fill: #ff932b;
      }

      .cls-12 {
        fill: #bbdb77;
      }

      .cls-13 {
        fill: #d6ed9d;
      }

      .cls-14 {
        fill: #e0e0e0;
      }

      .cls-15 {
        fill: #86a943;
      }

      .cls-16 {
        fill: #5b771e;
      }

      .cls-17 {
        fill: url(#linear-gradient-132);
      }

      .cls-18 {
        fill: url(#linear-gradient-130);
      }

      .cls-19 {
        fill: url(#linear-gradient-131);
      }

      .cls-20 {
        fill: url(#linear-gradient-117);
      }

      .cls-21 {
        fill: url(#linear-gradient-118);
      }

      .cls-22 {
        fill: url(#linear-gradient-111);
      }

      .cls-23 {
        fill: url(#linear-gradient-112);
      }

      .cls-24 {
        fill: url(#linear-gradient-127);
      }

      .cls-25 {
        fill: url(#linear-gradient-128);
      }

      .cls-26 {
        fill: url(#linear-gradient-110);
      }

      .cls-27 {
        fill: url(#linear-gradient-113);
      }

      .cls-28 {
        fill: url(#linear-gradient-114);
      }

      .cls-29 {
        fill: url(#linear-gradient-115);
      }

      .cls-30 {
        fill: url(#linear-gradient-116);
      }

      .cls-31 {
        fill: url(#linear-gradient-119);
      }

      .cls-32 {
        fill: url(#linear-gradient-106);
      }

      .cls-33 {
        fill: url(#linear-gradient-107);
      }

      .cls-34 {
        fill: url(#linear-gradient-109);
      }

      .cls-35 {
        fill: url(#linear-gradient-108);
      }

      .cls-36 {
        fill: url(#linear-gradient-104);
      }

      .cls-37 {
        fill: url(#linear-gradient-103);
      }

      .cls-38 {
        fill: url(#linear-gradient-102);
      }

      .cls-39 {
        fill: url(#linear-gradient-105);
      }

      .cls-40 {
        fill: url(#linear-gradient-123);
      }

      .cls-41 {
        fill: url(#linear-gradient-129);
      }

      .cls-42 {
        fill: url(#linear-gradient-122);
      }

      .cls-43 {
        fill: url(#linear-gradient-121);
      }

      .cls-44 {
        fill: url(#linear-gradient-101);
      }

      .cls-45 {
        fill: url(#linear-gradient-100);
      }

      .cls-46 {
        fill: url(#linear-gradient-126);
      }

      .cls-47 {
        fill: url(#linear-gradient-125);
      }

      .cls-48 {
        fill: url(#linear-gradient-124);
      }

      .cls-49 {
        fill: url(#linear-gradient-120);
      }

      .cls-50 {
        fill: #3a3938;
      }

      .cls-50, .cls-51, .cls-7 {
        opacity: .2;
      }

      .cls-51 {
        fill: #3f1f06;
      }

      .cls-52 {
        fill: url(#linear-gradient-8);
      }

      .cls-53 {
        fill: url(#linear-gradient-9);
      }

      .cls-54 {
        fill: url(#linear-gradient-3);
      }

      .cls-55 {
        fill: url(#linear-gradient-4);
      }

      .cls-56 {
        fill: url(#linear-gradient-2);
      }

      .cls-57 {
        fill: url(#linear-gradient-6);
      }

      .cls-58 {
        fill: url(#linear-gradient-7);
      }

      .cls-59 {
        fill: url(#linear-gradient-5);
      }

      .cls-60 {
        fill: url(#linear-gradient-59);
      }

      .cls-61 {
        fill: url(#linear-gradient-57);
      }

      .cls-62 {
        fill: url(#linear-gradient-58);
      }

      .cls-63 {
        fill: url(#linear-gradient-55);
      }

      .cls-64 {
        fill: url(#linear-gradient-56);
      }

      .cls-65 {
        fill: url(#linear-gradient-53);
      }

      .cls-66 {
        fill: url(#linear-gradient-54);
      }

      .cls-67 {
        fill: url(#linear-gradient-51);
      }

      .cls-68 {
        fill: url(#linear-gradient-52);
      }

      .cls-69 {
        fill: url(#linear-gradient-50);
      }

      .cls-70 {
        fill: url(#linear-gradient-77);
      }

      .cls-71 {
        fill: url(#linear-gradient-78);
      }

      .cls-72 {
        fill: url(#linear-gradient-79);
      }

      .cls-73 {
        fill: url(#linear-gradient-74);
      }

      .cls-74 {
        fill: url(#linear-gradient-75);
      }

      .cls-75 {
        fill: url(#linear-gradient-76);
      }

      .cls-76 {
        fill: url(#linear-gradient-70);
      }

      .cls-77 {
        fill: url(#linear-gradient-71);
      }

      .cls-78 {
        fill: url(#linear-gradient-72);
      }

      .cls-79 {
        fill: url(#linear-gradient-73);
      }

      .cls-80 {
        fill: url(#linear-gradient-68);
      }

      .cls-81 {
        fill: url(#linear-gradient-67);
      }

      .cls-82 {
        fill: url(#linear-gradient-69);
      }

      .cls-83 {
        fill: url(#linear-gradient-64);
      }

      .cls-84 {
        fill: url(#linear-gradient-63);
      }

      .cls-85 {
        fill: url(#linear-gradient-66);
      }

      .cls-86 {
        fill: url(#linear-gradient-65);
      }

      .cls-87 {
        fill: url(#linear-gradient-60);
      }

      .cls-88 {
        fill: url(#linear-gradient-62);
      }

      .cls-89 {
        fill: url(#linear-gradient-61);
      }

      .cls-90 {
        fill: url(#linear-gradient-98);
      }

      .cls-91 {
        fill: url(#linear-gradient-91);
      }

      .cls-92 {
        fill: url(#linear-gradient-95);
      }

      .cls-93 {
        fill: url(#linear-gradient-99);
      }

      .cls-94 {
        fill: url(#linear-gradient-96);
      }

      .cls-95 {
        fill: url(#linear-gradient-97);
      }

      .cls-96 {
        fill: url(#linear-gradient-94);
      }

      .cls-97 {
        fill: url(#linear-gradient-92);
      }

      .cls-98 {
        fill: url(#linear-gradient-93);
      }

      .cls-99 {
        fill: url(#linear-gradient-90);
      }

      .cls-100 {
        fill: url(#linear-gradient-81);
      }

      .cls-101 {
        fill: url(#linear-gradient-80);
      }

      .cls-102 {
        fill: url(#linear-gradient-88);
      }

      .cls-103 {
        fill: url(#linear-gradient-89);
      }

      .cls-104 {
        fill: url(#linear-gradient-87);
      }

      .cls-105 {
        fill: url(#linear-gradient-86);
      }

      .cls-106 {
        fill: url(#linear-gradient-85);
      }

      .cls-107 {
        fill: url(#linear-gradient-84);
      }

      .cls-108 {
        fill: url(#linear-gradient-83);
      }

      .cls-109 {
        fill: url(#linear-gradient-82);
      }

      .cls-110 {
        fill: url(#linear-gradient-41);
      }

      .cls-111 {
        fill: url(#linear-gradient-40);
      }

      .cls-112 {
        fill: url(#linear-gradient-43);
      }

      .cls-113 {
        fill: url(#linear-gradient-42);
      }

      .cls-114 {
        fill: url(#linear-gradient-45);
      }

      .cls-115 {
        fill: url(#linear-gradient-46);
      }

      .cls-116 {
        fill: url(#linear-gradient-44);
      }

      .cls-117 {
        fill: url(#linear-gradient-49);
      }

      .cls-118 {
        fill: url(#linear-gradient-47);
      }

      .cls-119 {
        fill: url(#linear-gradient-48);
      }

      .cls-120 {
        fill: url(#linear-gradient-14);
      }

      .cls-121 {
        fill: url(#linear-gradient-18);
      }

      .cls-122 {
        fill: url(#linear-gradient-22);
      }

      .cls-123 {
        fill: url(#linear-gradient-20);
      }

      .cls-124 {
        fill: url(#linear-gradient-21);
      }

      .cls-125 {
        fill: url(#linear-gradient-23);
      }

      .cls-126 {
        fill: url(#linear-gradient-15);
      }

      .cls-127 {
        fill: url(#linear-gradient-19);
      }

      .cls-128 {
        fill: url(#linear-gradient-16);
      }

      .cls-129 {
        fill: url(#linear-gradient-17);
      }

      .cls-130 {
        fill: url(#linear-gradient-13);
      }

      .cls-131 {
        fill: url(#linear-gradient-12);
      }

      .cls-132 {
        fill: url(#linear-gradient-10);
      }

      .cls-133 {
        fill: url(#linear-gradient-11);
      }

      .cls-134 {
        fill: url(#linear-gradient-27);
      }

      .cls-135 {
        fill: url(#linear-gradient-24);
      }

      .cls-136 {
        fill: url(#linear-gradient-26);
      }

      .cls-137 {
        fill: url(#linear-gradient-38);
      }

      .cls-138 {
        fill: url(#linear-gradient-35);
      }

      .cls-139 {
        fill: url(#linear-gradient-37);
      }

      .cls-140 {
        fill: url(#linear-gradient-34);
      }

      .cls-141 {
        fill: url(#linear-gradient-39);
      }

      .cls-142 {
        fill: url(#linear-gradient-36);
      }

      .cls-143 {
        fill: url(#linear-gradient-25);
      }

      .cls-144 {
        fill: url(#linear-gradient-28);
      }

      .cls-145 {
        fill: url(#linear-gradient-29);
      }

      .cls-146 {
        fill: url(#linear-gradient-33);
      }

      .cls-147 {
        fill: url(#linear-gradient-30);
      }

      .cls-148 {
        fill: url(#linear-gradient-32);
      }

      .cls-149 {
        fill: url(#linear-gradient-31);
      }
    </style>
    <linearGradient id="linear-gradient" x1="64.78" y1="21.86" x2="94.31" y2="28.4" gradientTransform="translate(-28.38 -8.53) scale(1 1.05) skewX(9.73)" gradientUnits="userSpaceOnUse">
      <stop offset="0" stop-color="#fffcf2"/>
      <stop offset=".56" stop-color="#faf8f2"/>
      <stop offset="1" stop-color="#f2f2f2"/>
    </linearGradient>
    <linearGradient id="linear-gradient-2" x1="87.14" y1="25.85" x2="113.38" y2="50.89" xlink:href="#linear-gradient"/>
    <linearGradient id="linear-gradient-3" x1="121.22" y1="30.31" x2="47.21" y2="54.5" xlink:href="#linear-gradient"/>
    <linearGradient id="linear-gradient-4" x1="106.48" y1="21.16" x2="66.89" y2="50.14" xlink:href="#linear-gradient"/>
    <linearGradient id="linear-gradient-5" x1="78.38" y1="4.64" x2="70.99" y2="41.38" xlink:href="#linear-gradient"/>
    <linearGradient id="linear-gradient-6" x1="70.56" y1="18.05" x2="100.09" y2="24.59" gradientTransform="translate(148.28 -8.53) rotate(-180) scale(1 -1.05) skewX(-9.73)" xlink:href="#linear-gradient"/>
    <linearGradient id="linear-gradient-7" x1="92.92" y1="22.04" x2="119.16" y2="47.08" gradientTransform="translate(148.28 -8.53) rotate(-180) scale(1 -1.05) skewX(-9.73)" xlink:href="#linear-gradient"/>
    <linearGradient id="linear-gradient-8" x1="127" y1="26.5" x2="52.98" y2="50.69" gradientTransform="translate(148.28 -8.53) rotate(-180) scale(1 -1.05) skewX(-9.73)" xlink:href="#linear-gradient"/>
    <linearGradient id="linear-gradient-9" x1="112.26" y1="17.35" x2="72.66" y2="46.33" gradientTransform="translate(148.28 -8.53) rotate(-180) scale(1 -1.05) skewX(-9.73)" xlink:href="#linear-gradient"/>
    <linearGradient id="linear-gradient-10" x1="84.16" y1=".83" x2="76.77" y2="37.56" gradientTransform="translate(148.28 -8.53) rotate(-180) scale(1 -1.05) skewX(-9.73)" xlink:href="#linear-gradient"/>
    <linearGradient id="linear-gradient-11" x1="65.52" y1="32.59" x2="89.79" y2="37.97" gradientTransform="translate(129.88 3.45) rotate(-173.95) scale(1.02 -1.03) skewX(-9.93)" xlink:href="#linear-gradient"/>
    <linearGradient id="linear-gradient-12" x1="83.89" y1="35.89" x2="105.49" y2="56.5" gradientTransform="translate(129.88 3.45) rotate(-173.95) scale(1.02 -1.03) skewX(-9.93)" xlink:href="#linear-gradient"/>
    <linearGradient id="linear-gradient-13" x1="111.88" y1="39.56" x2="51.13" y2="59.42" gradientTransform="translate(129.88 3.45) rotate(-173.95) scale(1.02 -1.03) skewX(-9.93)" xlink:href="#linear-gradient"/>
    <linearGradient id="linear-gradient-14" x1="99.77" y1="32.06" x2="67.29" y2="55.83" gradientTransform="translate(129.88 3.45) rotate(-173.95) scale(1.02 -1.03) skewX(-9.93)" xlink:href="#linear-gradient"/>
    <linearGradient id="linear-gradient-15" x1="76.71" y1="18.47" x2="70.64" y2="48.62" gradientTransform="translate(129.88 3.45) rotate(-173.95) scale(1.02 -1.03) skewX(-9.93)" xlink:href="#linear-gradient"/>
    <linearGradient id="linear-gradient-16" x1="77" y1="29.9" x2="101.26" y2="35.27" gradientTransform="translate(-48.79 -15.91) rotate(6.05) scale(1.02 1.03) skewX(9.93)" xlink:href="#linear-gradient"/>
    <linearGradient id="linear-gradient-17" x1="95.37" y1="33.16" x2="116.9" y2="53.7" gradientTransform="translate(-48.79 -15.91) rotate(6.05) scale(1.02 1.03) skewX(9.93)" xlink:href="#linear-gradient"/>
    <linearGradient id="linear-gradient-18" x1="123.37" y1="36.83" x2="62.52" y2="56.72" gradientTransform="translate(-48.79 -15.91) rotate(6.05) scale(1.02 1.03) skewX(9.93)" xlink:href="#linear-gradient"/>
    <linearGradient id="linear-gradient-19" x1="111.27" y1="29.3" x2="78.7" y2="53.13" gradientTransform="translate(-48.79 -15.91) rotate(6.05) scale(1.02 1.03) skewX(9.93)" xlink:href="#linear-gradient"/>
    <linearGradient id="linear-gradient-20" x1="88.17" y1="15.73" x2="82.08" y2="45.95" gradientTransform="translate(-48.79 -15.91) rotate(6.05) scale(1.02 1.03) skewX(9.93)" xlink:href="#linear-gradient"/>
    <linearGradient id="linear-gradient-21" x1="93.57" y1="24.55" x2="118.16" y2="29.99" gradientTransform="translate(174.31 -12.01) rotate(174.48) scale(.98 -1.07) skewX(-9.18)" xlink:href="#linear-gradient"/>
    <linearGradient id="linear-gradient-22" x1="111.54" y1="29.79" x2="135.62" y2="52.76" gradientTransform="translate(174.31 -12.01) rotate(174.48) scale(.98 -1.07) skewX(-9.18)" xlink:href="#linear-gradient"/>
    <linearGradient id="linear-gradient-23" x1="140.76" y1="36.34" x2="79.39" y2="56.4" gradientTransform="translate(174.31 -12.01) rotate(174.48) scale(.98 -1.07) skewX(-9.18)" xlink:href="#linear-gradient"/>
    <linearGradient id="linear-gradient-24" x1="128.96" y1="26.65" x2="95.38" y2="51.22" gradientTransform="translate(174.31 -12.01) rotate(174.48) scale(.98 -1.07) skewX(-9.18)" xlink:href="#linear-gradient"/>
    <linearGradient id="linear-gradient-25" x1="106.3" y1="6.97" x2="98.8" y2="44.22" gradientTransform="translate(174.31 -12.01) rotate(174.48) scale(.98 -1.07) skewX(-9.18)" xlink:href="#linear-gradient"/>
    <linearGradient id="linear-gradient-26" x1="49.96" y1="20.48" x2="74.22" y2="25.85" gradientTransform="translate(.53 5.49) rotate(-5.52) scale(.98 1.07) skewX(9.18)" xlink:href="#linear-gradient"/>
    <linearGradient id="linear-gradient-27" x1="67.8" y1="25.08" x2="90.9" y2="47.12" gradientTransform="translate(.53 5.49) rotate(-5.52) scale(.98 1.07) skewX(9.18)" xlink:href="#linear-gradient"/>
    <linearGradient id="linear-gradient-28" x1="97.26" y1="31.92" x2="34.44" y2="52.45" gradientTransform="translate(.53 5.49) rotate(-5.52) scale(.98 1.07) skewX(9.18)" xlink:href="#linear-gradient"/>
    <linearGradient id="linear-gradient-29" x1="85.52" y1="21.49" x2="50.67" y2="47" gradientTransform="translate(.53 5.49) rotate(-5.52) scale(.98 1.07) skewX(9.18)" xlink:href="#linear-gradient"/>
    <linearGradient id="linear-gradient-30" x1="62.26" y1="2.27" x2="54.59" y2="40.38" gradientTransform="translate(.53 5.49) rotate(-5.52) scale(.98 1.07) skewX(9.18)" xlink:href="#linear-gradient"/>
    <linearGradient id="linear-gradient-31" x1="103.36" y1="15.04" x2="132.99" y2="21.6" gradientTransform="translate(174.31 -12.01) rotate(174.48) scale(.98 -1.07) skewX(-9.18)" xlink:href="#linear-gradient"/>
    <linearGradient id="linear-gradient-32" x1="125.21" y1="20.76" x2="153.51" y2="47.76" gradientTransform="translate(174.31 -12.01) rotate(174.48) scale(.98 -1.07) skewX(-9.18)" xlink:href="#linear-gradient"/>
    <linearGradient id="linear-gradient-33" x1="160.17" y1="27.7" x2="86.11" y2="51.91" gradientTransform="translate(174.31 -12.01) rotate(174.48) scale(.98 -1.07) skewX(-9.18)" xlink:href="#linear-gradient"/>
    <linearGradient id="linear-gradient-34" x1="145.8" y1="16.71" x2="105.52" y2="46.18" gradientTransform="translate(174.31 -12.01) rotate(174.48) scale(.98 -1.07) skewX(-9.18)" xlink:href="#linear-gradient"/>
    <linearGradient id="linear-gradient-35" x1="118.25" y1="-5.12" x2="109.64" y2="37.66" gradientTransform="translate(174.31 -12.01) rotate(174.48) scale(.98 -1.07) skewX(-9.18)" xlink:href="#linear-gradient"/>
    <linearGradient id="linear-gradient-36" x1="33.04" y1="10.33" x2="62.39" y2="16.83" gradientTransform="translate(.53 5.49) rotate(-5.52) scale(.98 1.07) skewX(9.18)" xlink:href="#linear-gradient"/>
    <linearGradient id="linear-gradient-37" x1="54.78" y1="15.5" x2="82.23" y2="41.69" gradientTransform="translate(.53 5.49) rotate(-5.52) scale(.98 1.07) skewX(9.18)" xlink:href="#linear-gradient"/>
    <linearGradient id="linear-gradient-38" x1="89.92" y1="22.64" x2="14.61" y2="47.25" gradientTransform="translate(.53 5.49) rotate(-5.52) scale(.98 1.07) skewX(9.18)" xlink:href="#linear-gradient"/>
    <linearGradient id="linear-gradient-39" x1="75.62" y1="11.07" x2="34.25" y2="41.35" gradientTransform="translate(.53 5.49) rotate(-5.52) scale(.98 1.07) skewX(9.18)" xlink:href="#linear-gradient"/>
    <linearGradient id="linear-gradient-40" x1="47.57" y1="-10.38" x2="38.81" y2="33.15" gradientTransform="translate(.53 5.49) rotate(-5.52) scale(.98 1.07) skewX(9.18)" xlink:href="#linear-gradient"/>
    <linearGradient id="linear-gradient-41" x1="72.78" y1="8.92" x2="98.95" y2="14.71" gradientTransform="translate(-29.47 -11.96) rotate(7.28) scale(1.06 1.02) skewX(15.96)" xlink:href="#linear-gradient"/>
    <linearGradient id="linear-gradient-42" x1="92.28" y1="13.28" x2="116.5" y2="36.38" gradientTransform="translate(-29.47 -11.96) rotate(7.28) scale(1.06 1.02) skewX(15.96)" xlink:href="#linear-gradient"/>
    <linearGradient id="linear-gradient-43" x1="110.27" y1="9.37" x2="74.37" y2="35.63" gradientTransform="translate(-29.47 -11.96) rotate(7.28) scale(1.06 1.02) skewX(15.96)" xlink:href="#linear-gradient"/>
    <linearGradient id="linear-gradient-44" x1="86.32" y1="9.55" x2="110.6" y2="32.71" gradientTransform="translate(155.88 11.66) rotate(-172.72) scale(1.06 -1.02) skewX(-15.96)" xlink:href="#linear-gradient"/>
    <linearGradient id="linear-gradient-45" x1="104.29" y1="5.65" x2="68.48" y2="31.85" gradientTransform="translate(155.88 11.66) rotate(-172.72) scale(1.06 -1.02) skewX(-15.96)" xlink:href="#linear-gradient"/>
    <linearGradient id="linear-gradient-46" x1="115.56" y1="16.48" x2="86.33" y2="37.87" gradientTransform="translate(-50.8 -21.65) rotate(12.76) scale(1.09 .99) skewX(14.86)" xlink:href="#linear-gradient"/>
    <linearGradient id="linear-gradient-47" x1="88.91" y1="11.11" x2="110.86" y2="15.97" gradientTransform="translate(183.01 12.57) rotate(-177.83) scale(1.03 -1.05) skewX(-16.48)" xlink:href="#linear-gradient"/>
    <linearGradient id="linear-gradient-48" x1="104.67" y1="16.79" x2="127.35" y2="38.44" gradientTransform="translate(183.01 12.57) rotate(-177.83) scale(1.03 -1.05) skewX(-16.48)" xlink:href="#linear-gradient"/>
    <linearGradient id="linear-gradient-49" x1="120.85" y1="14.44" x2="90.58" y2="36.59" gradientTransform="translate(183.01 12.57) rotate(-177.83) scale(1.03 -1.05) skewX(-16.48)" xlink:href="#linear-gradient"/>
    <linearGradient id="linear-gradient-50" x1="57.62" y1="7.98" x2="79.07" y2="12.72" gradientTransform="translate(.79 5.72) rotate(2.17) scale(1.03 1.05) skewX(16.48)" xlink:href="#linear-gradient"/>
    <linearGradient id="linear-gradient-51" x1="73.19" y1="12.66" x2="94.41" y2="32.91" gradientTransform="translate(.79 5.72) rotate(2.17) scale(1.03 1.05) skewX(16.48)" xlink:href="#linear-gradient"/>
    <linearGradient id="linear-gradient-52" x1="89.68" y1="9.41" x2="57.49" y2="32.97" gradientTransform="translate(.79 5.72) rotate(2.17) scale(1.03 1.05) skewX(16.48)" xlink:href="#linear-gradient"/>
    <linearGradient id="linear-gradient-53" x1="69.1" y1="-10.33" x2="61.45" y2="27.66" gradientTransform="translate(.79 5.72) rotate(2.17) scale(1.03 1.05) skewX(16.48)" xlink:href="#linear-gradient"/>
    <linearGradient id="linear-gradient-54" x1="116.63" y1="8.05" x2="143.24" y2="33.45" gradientTransform="translate(183.01 12.57) rotate(-177.83) scale(1.03 -1.05) skewX(-16.48)" xlink:href="#linear-gradient"/>
    <linearGradient id="linear-gradient-55" x1="61.7" y1="3.35" x2="86.88" y2="27.37" gradientTransform="translate(.79 5.72) rotate(2.17) scale(1.03 1.05) skewX(16.48)" xlink:href="#linear-gradient"/>
    <linearGradient id="linear-gradient-56" x1="81.27" y1="-.4" x2="43.13" y2="27.5" gradientTransform="translate(.79 5.72) rotate(2.17) scale(1.03 1.05) skewX(16.48)" xlink:href="#linear-gradient"/>
    <linearGradient id="linear-gradient-57" x1="120.11" y1="23.73" x2="149.65" y2="30.27" gradientTransform="translate(193.3 -8.53) rotate(-180) scale(1 -1.05) skewX(-9.73)" xlink:href="#linear-gradient"/>
    <linearGradient id="linear-gradient-58" x1="142.47" y1="27.72" x2="168.72" y2="52.76" gradientTransform="translate(193.3 -8.53) rotate(-180) scale(1 -1.05) skewX(-9.73)" xlink:href="#linear-gradient"/>
    <linearGradient id="linear-gradient-59" x1="176.55" y1="32.18" x2="102.54" y2="56.37" gradientTransform="translate(193.3 -8.53) rotate(-180) scale(1 -1.05) skewX(-9.73)" xlink:href="#linear-gradient"/>
    <linearGradient id="linear-gradient-60" x1="161.82" y1="23.03" x2="122.22" y2="52.01" gradientTransform="translate(193.3 -8.53) rotate(-180) scale(1 -1.05) skewX(-9.73)" xlink:href="#linear-gradient"/>
    <linearGradient id="linear-gradient-61" x1="133.72" y1="6.51" x2="126.32" y2="43.24" gradientTransform="translate(193.3 -8.53) rotate(-180) scale(1 -1.05) skewX(-9.73)" xlink:href="#linear-gradient"/>
    <linearGradient id="linear-gradient-62" x1="15.22" y1="19.92" x2="44.76" y2="26.46" gradientTransform="translate(16.64 -8.53) scale(1 1.05) skewX(9.73)" xlink:href="#linear-gradient"/>
    <linearGradient id="linear-gradient-63" x1="37.58" y1="23.91" x2="63.83" y2="48.95" gradientTransform="translate(16.64 -8.53) scale(1 1.05) skewX(9.73)" xlink:href="#linear-gradient"/>
    <linearGradient id="linear-gradient-64" x1="71.67" y1="28.37" x2="-2.35" y2="52.56" gradientTransform="translate(16.64 -8.53) scale(1 1.05) skewX(9.73)" xlink:href="#linear-gradient"/>
    <linearGradient id="linear-gradient-65" x1="56.93" y1="19.22" x2="17.33" y2="48.2" gradientTransform="translate(16.64 -8.53) scale(1 1.05) skewX(9.73)" xlink:href="#linear-gradient"/>
    <linearGradient id="linear-gradient-66" x1="28.83" y1="2.7" x2="21.43" y2="39.43" gradientTransform="translate(16.64 -8.53) scale(1 1.05) skewX(9.73)" xlink:href="#linear-gradient"/>
    <linearGradient id="linear-gradient-67" x1="9.26" y1="28.7" x2="33.53" y2="34.07" gradientTransform="translate(39.98 3.45) rotate(-6.27) scale(.98 1.07) skewX(9.08)" xlink:href="#linear-gradient"/>
    <linearGradient id="linear-gradient-68" x1="27.63" y1="32" x2="49.23" y2="52.61" gradientTransform="translate(39.98 3.45) rotate(-6.27) scale(.98 1.07) skewX(9.08)" xlink:href="#linear-gradient"/>
    <linearGradient id="linear-gradient-69" x1="43.52" y1="28.17" x2="11.03" y2="51.94" gradientTransform="translate(39.98 3.45) rotate(-6.27) scale(.98 1.07) skewX(9.08)" xlink:href="#linear-gradient"/>
    <linearGradient id="linear-gradient-70" x1="20.45" y1="14.57" x2="14.38" y2="44.72" gradientTransform="translate(39.98 3.45) rotate(-6.27) scale(.98 1.07) skewX(9.08)" xlink:href="#linear-gradient"/>
    <linearGradient id="linear-gradient-71" x1="151.13" y1="29.31" x2="172.66" y2="49.85" gradientTransform="translate(211.83 -15.91) rotate(173.73) scale(.98 -1.07) skewX(-9.08)" xlink:href="#linear-gradient"/>
    <linearGradient id="linear-gradient-72" x1="179.14" y1="32.99" x2="118.28" y2="52.87" gradientTransform="translate(211.83 -15.91) rotate(173.73) scale(.98 -1.07) skewX(-9.08)" xlink:href="#linear-gradient"/>
    <linearGradient id="linear-gradient-73" x1="167.03" y1="25.45" x2="134.46" y2="49.29" gradientTransform="translate(211.83 -15.91) rotate(173.73) scale(.98 -1.07) skewX(-9.08)" xlink:href="#linear-gradient"/>
    <linearGradient id="linear-gradient-74" x1="37.37" y1="31.52" x2="61.96" y2="36.96" gradientTransform="translate(-9.27 -12.01) rotate(5.35) scale(1.02 1.03) skewX(9.93)" xlink:href="#linear-gradient"/>
    <linearGradient id="linear-gradient-75" x1="55.34" y1="36.76" x2="79.42" y2="59.73" gradientTransform="translate(-9.27 -12.01) rotate(5.35) scale(1.02 1.03) skewX(9.93)" xlink:href="#linear-gradient"/>
    <linearGradient id="linear-gradient-76" x1="84.56" y1="43.31" x2="23.19" y2="63.37" gradientTransform="translate(-9.27 -12.01) rotate(5.35) scale(1.02 1.03) skewX(9.93)" xlink:href="#linear-gradient"/>
    <linearGradient id="linear-gradient-77" x1="72.76" y1="33.62" x2="39.18" y2="58.19" gradientTransform="translate(-9.27 -12.01) rotate(5.35) scale(1.02 1.03) skewX(9.93)" xlink:href="#linear-gradient"/>
    <linearGradient id="linear-gradient-78" x1="50.1" y1="13.94" x2="42.6" y2="51.19" gradientTransform="translate(-9.27 -12.01) rotate(5.35) scale(1.02 1.03) skewX(9.93)" xlink:href="#linear-gradient"/>
    <linearGradient id="linear-gradient-79" x1="105.33" y1="27.37" x2="129.59" y2="32.74" gradientTransform="translate(169.4 5.49) rotate(-174.65) scale(1.02 -1.03) skewX(-9.93)" xlink:href="#linear-gradient"/>
    <linearGradient id="linear-gradient-80" x1="123.17" y1="31.98" x2="146.27" y2="54.01" gradientTransform="translate(169.4 5.49) rotate(-174.65) scale(1.02 -1.03) skewX(-9.93)" xlink:href="#linear-gradient"/>
    <linearGradient id="linear-gradient-81" x1="152.63" y1="38.81" x2="89.81" y2="59.34" gradientTransform="translate(169.4 5.49) rotate(-174.65) scale(1.02 -1.03) skewX(-9.93)" xlink:href="#linear-gradient"/>
    <linearGradient id="linear-gradient-82" x1="140.89" y1="28.39" x2="106.04" y2="53.89" gradientTransform="translate(169.4 5.49) rotate(-174.65) scale(1.02 -1.03) skewX(-9.93)" xlink:href="#linear-gradient"/>
    <linearGradient id="linear-gradient-83" x1="117.63" y1="9.16" x2="109.96" y2="47.27" gradientTransform="translate(169.4 5.49) rotate(-174.65) scale(1.02 -1.03) skewX(-9.93)" xlink:href="#linear-gradient"/>
    <linearGradient id="linear-gradient-84" x1="47.17" y1="22.01" x2="76.8" y2="28.57" gradientTransform="translate(-9.27 -12.01) rotate(5.35) scale(1.02 1.03) skewX(9.93)" xlink:href="#linear-gradient"/>
    <linearGradient id="linear-gradient-85" x1="69.01" y1="27.73" x2="97.31" y2="54.73" gradientTransform="translate(-9.27 -12.01) rotate(5.35) scale(1.02 1.03) skewX(9.93)" xlink:href="#linear-gradient"/>
    <linearGradient id="linear-gradient-86" x1="103.97" y1="34.67" x2="29.91" y2="58.87" gradientTransform="translate(-9.27 -12.01) rotate(5.35) scale(1.02 1.03) skewX(9.93)" xlink:href="#linear-gradient"/>
    <linearGradient id="linear-gradient-87" x1="89.6" y1="23.68" x2="49.32" y2="53.15" gradientTransform="translate(-9.27 -12.01) rotate(5.35) scale(1.02 1.03) skewX(9.93)" xlink:href="#linear-gradient"/>
    <linearGradient id="linear-gradient-88" x1="62.05" y1="1.84" x2="53.44" y2="44.63" gradientTransform="translate(-9.27 -12.01) rotate(5.35) scale(1.02 1.03) skewX(9.93)" xlink:href="#linear-gradient"/>
    <linearGradient id="linear-gradient-89" x1="145.29" y1="29.53" x2="69.98" y2="54.14" gradientTransform="translate(169.4 5.49) rotate(-174.65) scale(1.02 -1.03) skewX(-9.93)" xlink:href="#linear-gradient"/>
    <linearGradient id="linear-gradient-90" x1="130.99" y1="17.96" x2="89.62" y2="48.24" gradientTransform="translate(169.4 5.49) rotate(-174.65) scale(1.02 -1.03) skewX(-9.93)" xlink:href="#linear-gradient"/>
    <linearGradient id="linear-gradient-91" x1="102.94" y1="-3.49" x2="94.18" y2="40.04" gradientTransform="translate(169.4 5.49) rotate(-174.65) scale(1.02 -1.03) skewX(-9.93)" xlink:href="#linear-gradient"/>
    <linearGradient id="linear-gradient-92" x1="145.9" y1="8.28" x2="170.12" y2="31.39" gradientTransform="translate(193.19 -11.96) rotate(172.4) scale(1.02 -1.06) skewX(-1.75)" xlink:href="#linear-gradient"/>
    <linearGradient id="linear-gradient-93" x1="163.89" y1="4.37" x2="128" y2="30.64" gradientTransform="translate(193.19 -11.96) rotate(172.4) scale(1.02 -1.06) skewX(-1.75)" xlink:href="#linear-gradient"/>
    <linearGradient id="linear-gradient-94" x1="32.54" y1="4.53" x2="56.81" y2="27.7" gradientTransform="translate(15.72 11.66) rotate(-7.6) scale(1.02 1.06) skewX(1.75)" xlink:href="#linear-gradient"/>
    <linearGradient id="linear-gradient-95" x1="50.5" y1=".64" x2="14.69" y2="26.84" gradientTransform="translate(15.72 11.66) rotate(-7.6) scale(1.02 1.06) skewX(1.75)" xlink:href="#linear-gradient"/>
    <linearGradient id="linear-gradient-96" x1="18.35" y1="-5.88" x2="12.3" y2="24.13" gradientTransform="translate(38.33 21.15) rotate(-13.75) scale(1.01 1.07) skewX(1.17)" xlink:href="#linear-gradient"/>
    <linearGradient id="linear-gradient-97" x1="168.91" y1="5.91" x2="139.68" y2="27.3" gradientTransform="translate(211.9 -21.65) rotate(166.25) scale(1.01 -1.07) skewX(-1.17)" xlink:href="#linear-gradient"/>
    <linearGradient id="linear-gradient-98" x1="50.84" y1="16.66" x2="73.53" y2="38.31" gradientTransform="translate(-11.32 12.57) rotate(-2.2) scale(1.02 1.06) skewX(2.2)" xlink:href="#linear-gradient"/>
    <linearGradient id="linear-gradient-99" x1="47.17" y1="-6.36" x2="39.79" y2="30.34" gradientTransform="translate(-11.32 12.57) rotate(-2.2) scale(1.02 1.06) skewX(2.2)" xlink:href="#linear-gradient"/>
    <linearGradient id="linear-gradient-100" x1="112" y1="7.82" x2="133.46" y2="12.57" gradientTransform="translate(169.23 5.72) rotate(177.8) scale(1.02 -1.06) skewX(-2.2)" xlink:href="#linear-gradient"/>
    <linearGradient id="linear-gradient-101" x1="144.07" y1="9.26" x2="111.88" y2="32.81" gradientTransform="translate(169.23 5.72) rotate(177.8) scale(1.02 -1.06) skewX(-2.2)" xlink:href="#linear-gradient"/>
    <linearGradient id="linear-gradient-102" x1="123.49" y1="-10.48" x2="115.84" y2="27.51" gradientTransform="translate(169.23 5.72) rotate(177.8) scale(1.02 -1.06) skewX(-2.2)" xlink:href="#linear-gradient"/>
    <linearGradient id="linear-gradient-103" x1="135.66" y1="-.56" x2="97.52" y2="27.35" gradientTransform="translate(169.23 5.72) rotate(177.8) scale(1.02 -1.06) skewX(-2.2)" xlink:href="#linear-gradient"/>
    <linearGradient id="linear-gradient-104" x1="87.31" y1="92.38" x2="90.58" y2="67.07" gradientTransform="translate(27.8 -16.81) rotate(7.55) scale(.81 1) skewX(-4.35)" gradientUnits="userSpaceOnUse">
      <stop offset="0" stop-color="#e95704"/>
      <stop offset="1" stop-color="#ff9521"/>
    </linearGradient>
    <linearGradient id="linear-gradient-105" x1="87.51" y1="60.96" x2="87.51" y2="78.07" gradientTransform="translate(27.8 -16.81) rotate(7.55) scale(.81 1) skewX(-4.35)" gradientUnits="userSpaceOnUse">
      <stop offset="0" stop-color="#f4c3bc"/>
      <stop offset="1" stop-color="#fb8b1c"/>
    </linearGradient>
    <linearGradient id="linear-gradient-106" x1="41.75" y1="63.35" x2="41.75" y2="80.77" gradientTransform="translate(41.42 -17.12) rotate(7.55) scale(.81 .98) skewX(4.23)" xlink:href="#linear-gradient-105"/>
    <linearGradient id="linear-gradient-107" x1="101.22" y1="68" x2="102.33" y2="76.12" xlink:href="#linear-gradient-105"/>
    <linearGradient id="linear-gradient-108" x1="113.97" y1="72.12" x2="114.98" y2="81.8" xlink:href="#linear-gradient-105"/>
    <linearGradient id="linear-gradient-109" x1="61.04" y1="97.41" x2="64.43" y2="71.2" xlink:href="#linear-gradient-104"/>
    <linearGradient id="linear-gradient-110" x1="61.65" y1="64.9" x2="61.65" y2="82.04" xlink:href="#linear-gradient-105"/>
    <linearGradient id="linear-gradient-111" x1="19.13" y1="67.4" x2="19.13" y2="84.83" gradientTransform="translate(41.42 -17.12) rotate(7.55) scale(.81 .98) skewX(4.23)" xlink:href="#linear-gradient-105"/>
    <linearGradient id="linear-gradient-112" x1="72.33" y1="71.26" x2="73.57" y2="80.4" xlink:href="#linear-gradient-105"/>
    <linearGradient id="linear-gradient-113" x1="82.52" y1="75.4" x2="83.63" y2="85.99" xlink:href="#linear-gradient-105"/>
    <linearGradient id="linear-gradient-114" x1="43.05" y1="111.24" x2="47.55" y2="76.45" xlink:href="#linear-gradient-104"/>
    <linearGradient id="linear-gradient-115" x1="43.03" y1="68.11" x2="43.03" y2="88.33" xlink:href="#linear-gradient-105"/>
    <linearGradient id="linear-gradient-116" x1="3.49" y1="70.52" x2="3.49" y2="91.08" gradientTransform="translate(41.42 -17.12) rotate(7.55) scale(.81 .98) skewX(4.23)" xlink:href="#linear-gradient-105"/>
    <linearGradient id="linear-gradient-117" x1="50.63" y1="74.47" x2="52.31" y2="86.92" xlink:href="#linear-gradient-105"/>
    <linearGradient id="linear-gradient-118" x1="58.42" y1="79.31" x2="59.9" y2="93.46" xlink:href="#linear-gradient-105"/>
    <linearGradient id="linear-gradient-119" x1="85.41" y1="47.97" x2="90.17" y2="11.12" gradientTransform="translate(-5.44 56.76) rotate(-24.3) scale(.88 .93) skewX(-12)" xlink:href="#linear-gradient-104"/>
    <linearGradient id="linear-gradient-120" x1="86.43" y1="34.34" x2="96.64" y2="12.94" gradientTransform="translate(-5.44 56.76) rotate(-24.3) scale(.88 .93) skewX(-12)" gradientUnits="userSpaceOnUse">
      <stop offset="0" stop-color="#e95704"/>
      <stop offset=".28" stop-color="#ed630a"/>
      <stop offset=".8" stop-color="#f9861a"/>
      <stop offset="1" stop-color="#ff9521"/>
    </linearGradient>
    <linearGradient id="linear-gradient-121" x1="87.68" y1="3.82" x2="87.68" y2="20.43" gradientTransform="translate(-5.44 56.76) rotate(-24.3) scale(.88 .93) skewX(-12)" xlink:href="#linear-gradient-105"/>
    <linearGradient id="linear-gradient-122" x1="57.08" y1="4.44" x2="57.08" y2="22.29" gradientTransform="translate(6.73 47.8) rotate(-24.3) scale(.88 .91) skewX(-3.41)" xlink:href="#linear-gradient-105"/>
    <linearGradient id="linear-gradient-123" x1="111.31" y1="25.25" x2="110.88" y2="39.68" gradientTransform="translate(-5.44 56.76) rotate(-24.3) scale(.88 .93) skewX(-12)" xlink:href="#linear-gradient-105"/>
    <linearGradient id="linear-gradient-124" x1="96.58" y1="10.91" x2="97.88" y2="20.52" gradientTransform="translate(-5.44 56.76) rotate(-24.3) scale(.88 .93) skewX(-12)" xlink:href="#linear-gradient-105"/>
    <linearGradient id="linear-gradient-125" x1="105.5" y1="16.47" x2="106.63" y2="27.31" gradientTransform="translate(-5.44 56.76) rotate(-24.3) scale(.88 .93) skewX(-12)" xlink:href="#linear-gradient-105"/>
    <linearGradient id="linear-gradient-126" x1="61.05" y1="43.36" x2="65.81" y2="6.51" gradientTransform="translate(-5.44 56.76) rotate(-24.3) scale(.88 .93) skewX(-12)" xlink:href="#linear-gradient-104"/>
    <linearGradient id="linear-gradient-127" x1="62.06" y1="29.74" x2="72.28" y2="8.33" xlink:href="#linear-gradient-120"/>
    <linearGradient id="linear-gradient-128" x1="63.31" y1="-.79" x2="63.31" y2="15.82" gradientTransform="translate(-5.44 56.76) rotate(-24.3) scale(.88 .93) skewX(-12)" xlink:href="#linear-gradient-105"/>
    <linearGradient id="linear-gradient-129" x1="33.42" y1="-.27" x2="33.42" y2="17.57" gradientTransform="translate(6.73 47.8) rotate(-24.3) scale(.88 .91) skewX(-3.41)" xlink:href="#linear-gradient-105"/>
    <linearGradient id="linear-gradient-130" x1="86.94" y1="20.64" x2="86.52" y2="35.07" gradientTransform="translate(-5.44 56.76) rotate(-24.3) scale(.88 .93) skewX(-12)" xlink:href="#linear-gradient-105"/>
    <linearGradient id="linear-gradient-131" x1="72.21" y1="6.3" x2="73.52" y2="15.91" gradientTransform="translate(-5.44 56.76) rotate(-24.3) scale(.88 .93) skewX(-12)" xlink:href="#linear-gradient-105"/>
    <linearGradient id="linear-gradient-132" x1="81.14" y1="11.86" x2="82.27" y2="22.7" gradientTransform="translate(-5.44 56.76) rotate(-24.3) scale(.88 .93) skewX(-12)" xlink:href="#linear-gradient-105"/>
  </defs>
  <g id="layer">
    <g>
      <path class="cls-50" d="M123.54,81.72c-1.88-4.33-5.32-8.02-9.04-11.12-2.05-1.7-11.32-5.85-9.14-9.15,1.66-2.51,5.82-.88,8.27-1.94,1.34-.58-4.64-11.29-5.84-12.1-2.74-1.85-24.43,8.35-25.1,8.62l.03,.15c-3.18-.62-6.42-1.03-9.65-1.2-11.12-.57-24.38-.99-28.66,1.23-3.28,.05-6.37,.22-8.86,.64,.25-9.48-.56-19.86-1.74-26.69-.01-.09-1.97-1.07-2.5-1.23-.02,0-.04-.01-.06-.02-.03,0-.06-.01-.08,0-1.12,.79-2.11,1.94-3.06,2.94-1.89,2-3.97,3.84-5.8,5.88-4.14,4.6-8.33,8.83-13.52,12.13-1.32,.84,.94,10.31,.74,12.03-.62,5.44-6.54,5.83-8.08,10.55-.23,.72-.94,2.62-1.35,3.93-.8,2.61,3.68,6.36,5.55,7.61,2.93,1.94,6.34,3.67,9.74,4.81,3.72,1.24,7.82,1.86,11.78,1.7,3.7-.15,7.47-2.45,11.09-2.14,6.05,.52,9.37,7.71,13.64,10.85,3.3,2.42,9.2,10.21,13.65,7.35,3.09-1.99,4-6.76,4.5-9.94,.41-2.59,.59-4.98,.51-7.57,3.6,3.52,16.01,14.39,21.16,9.33,2.62-2.58,3.13-6.92,3.23-10.3,.27-.1,.47-.15,.72-.3,4.94,2.55,9.77,5.22,14.64,7.87,4.03,2.2,9.54,7.14,13.45,2.56,3.9-4.57,1.89-11.62-.22-16.48Z"/>
      <g>
        <g>
          <path class="cls-14" d="M35,8.08c2.22-.97,4.7-1.51,7.16-1.87,5.07-.72,9.68-2.07,14.59-3.18,4.76-1.07,8.51,1.06,13.21,3.13,3.7,1.63,7.95,2.22,11.36,4.64,6.15,4.34,11.33,10.39,16.59,15.75,2.39,2.44,4.18,4.01,5.42,7.22,1.71,4.42,5.84,8.26,6.58,12.72,.6,3.64,.12,7.38-3.73,8.77-1.45,.53-2.95,.16-4.39,.57-6.62,1.89-12.15,6.01-19.59,4.91-4.38-.65-8.28-2.14-12.7-1.95-3.87,.17-6.89,1.64-10.95,1.22-2.73-.29-4.62-2.51-7.17-2.6,.1,1.43,1.28,2.28,1.49,3.68-2.59,.15-3.8-.22-5.27-2.8-1.78-3.14-2.12-3.18-5.42-2.47-1.73,.38-1.47,.34-3.07-.22-1.58-.55-1.55-1.24-3.36-.66-2.09,.66-3.4,2.9-5.44,3.55-3.82,1.22-3.51-1.69-2.77-4.31-2.39-.19-2.67,3.44-5.12,3.2-2.06-.2-3.92-3.49-4.36-5.21,1.77-.47,7.38,.15,7.35-2.65-.03-2.96-4.91-.94-6.6-2.55-2.38-2.27,.55-3.63,1.65-4.88,1.48-1.66,1.78-3.69,1.99-6.02,.55-6.12,.43-10.66,3.64-15.72,1.76-2.77,1.91-6.37,4.08-8.86,1.33-1.52,2.98-2.61,4.81-3.42Z"/>
          <path class="cls-1" d="M71.51,18.45s-16.08-9.51-38.19-2.5l.25,1.5s19.28-6.51,38.19,2.5c2.18-1.5-.25-1.5-.25-1.5Z"/>
          <path class="cls-56" d="M93.09,37.27s-11.89-14.84-36.44-18.31l-.37,1.37s21.57,2.7,36.44,18.31c2.75-.34,.37-1.37,.37-1.37Z"/>
          <path class="cls-54" d="M29.45,44.45s29.42,.11,69.65-16.65l-.46-1.14s-35.08,14.95-69.65,16.65c-3.95,2.33,.46,1.14,.46,1.14Z"/>
          <path class="cls-55" d="M31.27,35.38c8.61-2.87,29.82,0,32.17-13.97,2.35-13.97,25.97-14.55,31.65,3.25l-1.08,.19s-6.33-18.89-23.58-10.53c-7.9,3.83-2.97,11.29-11.24,16.27-8.26,4.98-26.05,4.98-26.72,6.51-1.08-.96-1.21-1.72-1.21-1.72Z"/>
          <path class="cls-59" d="M37.6,46.54c2.46-5.79,14.41-11.17,7.26-24.54-7.15-13.37,3.92-22.73,17.23-8.95l-.41,.58s-14.27-14.51-17.64-.57c-1.54,6.38,5.26,11.21,4.22,18.75-1.04,7.54-9.64,14.21-9.05,15.83-1.09-.45-1.61-1.09-1.61-1.09Z"/>
          <path class="cls-4" d="M35.56,17.39c9.56,2.74,27.7,16.89,37.51,7.82,9.8-9.07,32.05,3.88,27.63,20.34l-1.11-.47s4.42-17.64-16.16-21.18c-9.42-1.62-8.92,6.72-19.31,5.75-10.39-.98-26.91-11.04-28.37-10.29-.48-1.33-.18-1.97-.18-1.97Z"/>
          <path class="cls-4" d="M90.62,45.96c-8.14-12.83-28.63,10.2-60.14-5.99,7.3,6.03,21.89,8.2,28.77,7.45,15.31-1.65,23.89-7.68,31.37-1.46Z"/>
          <path class="cls-57" d="M50.76,14.45s12.98-9.51,37.37-2.5l.25,1.5s-21.4-6.51-37.37,2.5c-2.67-1.5-.25-1.5-.25-1.5Z"/>
          <path class="cls-58" d="M35.33,33.27s7.05-14.84,30.47-18.31l.82,1.37s-20.69,2.7-30.47,18.31c-2.86-.34-.82-1.37-.82-1.37Z"/>
          <path class="cls-52" d="M101.31,40.45s-29.39,.11-75.09-16.65l.09-1.14s39.96,14.95,75.09,16.65c4.71,2.33-.09,1.14-.09,1.14Z"/>
          <path class="cls-53" d="M96.53,31.38c-9.55-2.87-29.82,0-36.73-13.97-6.91-13.97-30.72-14.55-30.59,3.25l1.14,.19s.16-18.89,20.14-10.53c9.15,3.83,6.66,11.29,16.55,16.27,9.89,4.98,27.67,4.98,28.85,6.51,.77-.96,.64-1.72,.64-1.72Z"/>
          <path class="cls-132" d="M93.84,42.54c-4.35-5.79-18.06-11.17-15.27-24.54,2.79-13.37-11.34-22.73-20.15-8.95l.6,.58s9.53-14.51,17.45-.57c3.63,6.38-1.61,11.21,1.9,18.75,3.5,7.54,14.27,14.21,14.22,15.83,.94-.45,1.25-1.09,1.25-1.09Z"/>
          <path class="cls-4" d="M86.37,13.39c-8.67,2.74-22.19,16.89-34.95,7.82-12.76-9.07-30.79,3.88-20.99,20.34l.95-.47s-10.18-17.64,9.24-21.18c8.89-1.62,11.11,6.72,21.19,5.75,10.07-.98,23.3-11.04,25.01-10.29,.05-1.33-.46-1.97-.46-1.97Z"/>
          <path class="cls-4" d="M40.63,41.95c3.95-12.83,31.96,10.2,58.19-5.99-5.34,6.03-19.21,8.2-26.34,7.45-15.85-1.65-26.4-7.68-31.85-1.46Z"/>
          <path class="cls-133" d="M40.46,31.09s11.59-6.51,31.28,1.23l.08,1.23s-17.25-7.08-31.28-1.23c-2.09-1.44-.08-1.23-.08-1.23Z"/>
          <path class="cls-131" d="M26.05,44.87s7.1-11.3,26.86-12.06l.57,1.17s-17.43,.37-26.86,12.06c-2.35-.52-.57-1.17-.57-1.17Z"/>
          <path class="cls-130" d="M80.32,56.36s-24.45-2.46-61.05-19.89l.17-.91s31.98,15.47,61.05,19.89c3.72,2.28-.17,.91-.17,.91Z"/>
          <path class="cls-120" d="M77.1,48.66c-7.7-3.13-24.8-2.59-29.38-14.41-4.58-11.82-24.33-14.35-25.71-.04l.93,.25s1.71-15.16,17.62-6.71c7.28,3.87,4.59,9.65,12.4,14.5,7.81,4.86,22.59,6.4,23.44,7.73,.72-.7,.68-1.33,.68-1.33Z"/>
          <path class="cls-126" d="M73.93,57.39c-3.13-5.03-14.09-10.54-10.65-21.03,3.44-10.49-7.53-19.24-16.01-8.94l.45,.51s9.14-10.83,14.56,1.05c2.48,5.44-2.27,8.86,.01,15.22,2.28,6.36,10.68,12.65,10.5,13.95,.82-.28,1.13-.76,1.13-.76Z"/>
          <path class="cls-4" d="M70.16,33.33c-7.44,1.45-19.86,11.64-29.72,3.25-9.86-8.39-25.92,.44-19.15,14.52l.83-.29s-6.99-15.05,9.46-16.21c7.53-.53,8.68,6.36,17.14,6.45,8.46,.09,20.3-6.85,21.66-6.09,.15-1.06-.22-1.62-.22-1.62Z"/>
          <path class="cls-4" d="M29.74,52.31c4.35-9.96,25.72,10.97,48.88,.23-4.94,4.38-16.66,4.92-22.52,3.7-13.04-2.7-21.31-8.46-26.36-3.93Z"/>
          <path class="cls-128" d="M56.96,29.56s-12.58-9.03-31.54-5.32l.08,1.23s16.57-3.55,31.54,5.32c1.94-1.02-.08-1.23-.08-1.23Z"/>
          <path class="cls-129" d="M73.33,46.55s-8.65-12.95-28.77-17.86l-.42,1.07s17.71,4.04,28.77,17.86c2.31-.04,.42-1.07,.42-1.07Z"/>
          <path class="cls-121" d="M19.82,46.8s24.46,2.64,59.31-7.33l-.29-.96s-30.42,8.96-59.31,7.33c-3.48,1.53,.29,.96,.29,.96Z"/>
          <path class="cls-127" d="M22.08,39.67c7.4-1.56,24.8,2.59,27.92-8.43,3.12-11.02,22.81-9.43,26.05,5.36l-.91,.06s-3.69-15.72-18.72-10.5c-6.89,2.39-3.41,8.81-10.7,12.09-7.29,3.28-22.07,1.74-22.76,2.91-.82-.86-.86-1.49-.86-1.49Z"/>
          <path class="cls-123" d="M26.42,49.18c2.53-4.44,12.92-7.72,8.09-19.08s5.16-17.92,15.07-5.69l-.39,.43s-10.65-12.89-14.62-1.99c-1.82,4.99,3.44,9.46,1.94,15.43-1.5,5.97-9.2,10.57-8.85,11.93-.87-.46-1.24-1.01-1.24-1.01Z"/>
          <path class="cls-4" d="M27.15,25.6c7.72,3.03,21.63,15.97,30.53,9.53,8.91-6.43,26.33,5.89,21.27,18.74l-.88-.47s5.15-13.79-11.67-18.42c-7.7-2.12-7.98,4.62-16.54,2.94-8.56-1.69-21.45-11.2-22.73-10.72-.29-1.11,.01-1.59,.01-1.59Z"/>
          <path class="cls-4" d="M70.56,53.31c-5.69-11.01-24.66,5.71-49.51-10.03,5.57,5.47,17.52,8.48,23.3,8.48,12.87,0,20.5-4.1,26.21,1.55Z"/>
          <path class="cls-124" d="M65.24,29.29s9.36-11.34,29.71-6.3l.36,1.57s-17.9-4.8-29.71,6.3c-2.31-1.33-.36-1.57-.36-1.57Z"/>
          <path class="cls-122" d="M54.95,50.73s4.01-16.4,22.41-22.36l.81,1.37s-16.3,4.88-22.41,22.36c-2.33-.08-.81-1.37-.81-1.37Z"/>
          <path class="cls-125" d="M108.68,51.88s-23.57,2.98-62.1-10.3l-.05-1.22s33.72,11.92,62.1,10.3c4.04,2.01,.06,1.22,.06,1.22Z"/>
          <path class="cls-135" d="M103.84,42.75c-7.98-2.11-23.93,2.91-31.03-11.21-7.1-14.12-26.26-12.41-24.18,6.43l.94,.09s-1.97-20.02,14.99-13.12c7.76,3.16,6.6,11.31,15.08,15.61,8.49,4.3,22.75,2.57,23.87,4.07,.51-1.09,.33-1.89,.33-1.89Z"/>
          <path class="cls-143" d="M102.92,54.83c-4.13-5.71-15.73-10.07-14.98-24.49,.75-14.43-11.62-22.96-17.16-7.51l.54,.55s6.04-16.29,13.94-2.31c3.62,6.4-.04,12.02,3.61,19.67,3.65,7.65,13.03,13.65,13.17,15.37,.71-.57,.88-1.27,.88-1.27Z"/>
          <path class="cls-4" d="M93.69,24.69c-6.65,3.75-15.93,20.05-27.18,11.69-11.25-8.36-24.27,7.11-14.58,23.59l.71-.59s-10.13-17.69,5.06-23.34c6.96-2.59,9.66,6.03,17.64,4.01s17.47-13.97,18.93-13.34c-.11-1.41-.59-2.04-.59-2.04Z"/>
          <path class="cls-4" d="M60.16,59.41c1.74-13.97,26.78,7.68,46.02-12.03-3.61,6.9-14.51,10.56-20.3,10.46-12.9-.2-22.03-5.56-25.72,1.57Z"/>
          <path class="cls-136" d="M80.39,23.15s-13.96-8.5-30.92,1.08l.36,1.57s14.75-8.77,30.92-1.08c1.58-1.8-.36-1.57-.36-1.57Z"/>
          <path class="cls-134" d="M99.8,40.97s-11.19-14.55-31.27-15.83l-.15,1.49s17.61,.75,31.27,15.83c2.17-.63,.15-1.49,.15-1.49Z"/>
          <path class="cls-144" d="M49.53,54.79s23.62-2.76,54.04-24.44l-.5-1.17s-26.49,19.26-54.04,24.44c-2.91,2.86,.5,1.17,.5,1.17Z"/>
          <path class="cls-145" d="M49.99,45.01c6.59-3.88,23.93-2.91,24.26-17.94,.33-15.03,19.22-17.94,25.76,.35l-.85,.31s-7.18-19.39-20.09-8.85c-5.91,4.83-1.13,12.25-7.21,18.33-6.08,6.08-20.35,7.81-20.72,9.5-.97-.91-1.16-1.71-1.16-1.71Z"/>
          <path class="cls-147" d="M56.31,56.21c1.33-6.37,10.32-13.24,3.1-26.7s.62-24.45,12.83-11.16l-.26,.65s-13.06-13.97-14.22,1.12c-.53,6.91,5.47,11.35,5.47,19.44,0,8.09-6.15,15.98-5.51,17.64-.93-.37-1.41-.99-1.41-.99Z"/>
          <path class="cls-4" d="M51.43,25.54c7.98,1.96,24.1,15.18,30.96,4.62,6.86-10.56,26.15,.97,24.43,18.84l-.94-.39s1.59-19.11-15.32-20.85c-7.74-.8-6.41,7.99-14.86,7.97-8.45-.02-22.82-9.07-23.91-8.12-.54-1.36-.36-2.06-.36-2.06Z"/>
          <path class="cls-4" d="M98.78,50.41c-7.95-12.79-21.84,13.6-48.92-.47,6.53,5.67,18.47,6.54,23.91,5.08,12.1-3.25,18.31-10.47,25.01-4.61Z"/>
          <path class="cls-149" d="M48.12,21.32s11.44-12.93,36-7.18l.42,1.79s-21.59-5.47-36,7.18c-2.77-1.52-.42-1.79-.42-1.79Z"/>
          <path class="cls-148" d="M35.43,45.76s5.04-18.7,27.36-25.49l.96,1.56s-19.77,5.56-27.36,25.49c-2.82-.09-.96-1.56-.96-1.56Z"/>
          <path class="cls-146" d="M100.41,47.08s-28.54,3.4-74.99-11.74l-.05-1.39s40.65,13.59,74.99,11.74c4.87,2.29,.05,1.39,.05,1.39Z"/>
          <path class="cls-140" d="M94.66,36.66c-9.62-2.4-28.97,3.32-37.4-12.78-8.42-16.1-31.62-14.14-29.32,7.34l1.13,.1s-2.15-22.82,18.28-14.95c9.35,3.6,7.85,12.89,18.07,17.8,10.22,4.91,27.49,2.93,28.82,4.64,.63-1.24,.42-2.15,.42-2.15Z"/>
          <path class="cls-138" d="M93.41,50.44c-4.93-6.51-18.91-11.48-17.84-27.93,1.08-16.45-13.8-26.18-20.67-8.56l.65,.63s7.48-18.58,16.89-2.64c4.3,7.3-.19,13.71,4.14,22.42,4.33,8.72,15.61,15.56,15.75,17.52,.86-.65,1.08-1.45,1.08-1.45Z"/>
          <path class="cls-4" d="M82.59,16.08c-8.09,4.27-19.49,22.86-33,13.33-13.51-9.53-29.44,8.11-17.9,26.9l.87-.67s-12.05-20.16,6.39-26.6c8.44-2.95,11.62,6.88,21.29,4.58,9.67-2.3,21.29-15.93,23.04-15.21-.11-1.61-.69-2.32-.69-2.32Z"/>
          <path class="cls-4" d="M41.64,55.66c2.27-15.93,32.3,8.76,55.8-13.71-4.45,7.87-17.66,12.03-24.68,11.93-15.6-.23-26.58-6.34-31.12,1.78Z"/>
          <path class="cls-142" d="M66.52,14.32s-16.79-9.69-37.4,1.23l.42,1.79s17.93-10,37.4-1.23c1.93-2.06-.42-1.79-.42-1.79Z"/>
          <path class="cls-139" d="M89.79,34.64s-13.37-16.59-37.64-18.04l-.19,1.69s21.29,.85,37.64,18.04c2.63-.72,.19-1.69,.19-1.69Z"/>
          <path class="cls-137" d="M28.84,50.39s28.6-3.15,65.63-27.86l-.59-1.33S61.62,43.16,28.25,49.06c-3.55,3.26,.59,1.33,.59,1.33Z"/>
          <path class="cls-141" d="M29.5,39.24c8.01-4.43,28.97-3.32,29.55-20.45s23.45-20.46,31.15,.4l-1.03,.35s-8.46-22.1-24.19-10.09c-7.2,5.5-1.51,13.97-8.93,20.9-7.42,6.93-24.7,8.91-25.17,10.83-1.17-1.03-1.38-1.95-1.38-1.95Z"/>
          <path class="cls-111" d="M37.02,52.01c1.68-7.26,12.64-15.09,4.05-30.44-8.59-15.34,1.03-27.88,15.64-12.72l-.33,.74s-15.63-15.93-17.21,1.27c-.72,7.87,6.48,12.94,6.39,22.16s-7.62,18.22-6.86,20.12c-1.11-.42-1.69-1.13-1.69-1.13Z"/>
          <path class="cls-6" d="M31.46,16.83c9.62,2.24,28.98,17.3,37.39,5.26,8.41-12.04,31.62,1.11,29.33,21.48l-1.13-.44s2.14-21.79-18.29-23.78c-9.35-.91-7.84,9.11-18.06,9.09s-27.49-10.34-28.82-9.26c-.63-1.55-.42-2.35-.42-2.35Z"/>
          <path class="cls-4" d="M88.45,45.4c-9.47-14.58-26.57,15.51-59.16-.54,7.83,6.46,22.27,7.46,28.86,5.79,14.67-3.7,22.27-11.94,30.3-5.26Z"/>
          <path class="cls-110" d="M77.84,14.63S62.76,3.42,42.27,7.71l.25,1.5s17.87-4.13,35.57,6.92c2.01-1.22-.25-1.5-.25-1.5Z"/>
          <path class="cls-113" d="M98.14,35.62s-11.24-15.94-34.13-22.22l-.33,1.3s20.11,5.17,34.13,22.22c2.55-.01,.33-1.3,.33-1.3Z"/>
          <path class="cls-112" d="M40.57,26.53c7.98-1.81,27.76,3.49,29.79-9.94,2.03-13.43,24-11.23,29.5,6.9l-1,.06s-6.1-19.27-22.06-13.09c-7.31,2.83-2.64,10.73-10.27,14.65-7.64,3.91-24.19,1.83-24.8,3.26-1.02-1.07-1.14-1.83-1.14-1.83Z"/>
          <path class="cls-4" d="M44.36,9.39c8.93,3.8,25.98,19.81,35,12.06,9.02-7.75,29.88,7.55,25.94,23.19l-1.04-.59s3.92-16.79-15.28-22.67c-8.79-2.69-8.23,5.55-17.91,3.38-9.68-2.17-25.17-13.98-26.52-13.41-.47-1.36-.19-1.95-.19-1.95Z"/>
          <path class="cls-116" d="M44.33,24.93s6.39-13.73,28.15-14.39l.78,1.44s-19.23,.22-28.15,14.39c-2.67-.67-.78-1.44-.78-1.44Z"/>
          <path class="cls-114" d="M101.27,30.24c-8.92-3.93-27.76-3.49-34.35-18.01-6.59-14.52-28.75-17.87-28.43-.39l1.07,.32s-.06-18.51,18.63-7.97c8.56,4.83,6.33,11.86,15.59,17.9,9.26,6.04,25.81,8.12,26.92,9.76,.71-.85,.58-1.61,.58-1.61Z"/>
          <path class="cls-4" d="M91.61,11.4c-8.04,1.67-20.46,13.97-32.44,3.58-11.98-10.39-28.61,.2-19.3,17.5l.88-.35s-9.67-18.5,8.36-19.7c8.26-.55,10.42,7.89,19.78,8.11,9.36,.22,21.57-8.11,23.17-7.16,.03-1.29-.45-1.98-.45-1.98Z"/>
          <path class="cls-6" d="M80.53,52.89c-2.97-5.3-13.23-11.99-10.15-21.88,3.08-9.89-7.23-19.75-15-10.64l.42,.56s8.38-9.55,13.56,2.74c2.37,5.63-2.01,8.43,.18,14.93s10.09,13.66,9.93,14.91c.76-.18,1.04-.62,1.04-.62Z"/>
          <path class="cls-115" d="M32.07,29.66c6.87-.66,23.11,5.44,25.89-5.01,2.78-10.44,21.12-6.58,24.3,8.3l-.85-.05s-3.61-15.85-17.55-12.49c-6.38,1.54-3.08,8.25-9.82,10.61s-20.53-.88-21.15,.19c-.77-.94-.82-1.56-.82-1.56Z"/>
          <path class="cls-118" d="M72.12,24.53s8.58-10.03,27.58-2.7l.36,1.58s-16.71-6.8-27.58,2.7c-2.16-1.57-.36-1.58-.36-1.58Z"/>
          <path class="cls-119" d="M62.78,44.35s3.55-15.62,20.61-19.31l.77,1.44s-15.12,2.87-20.61,19.31c-2.17-.35-.77-1.44-.77-1.44Z"/>
          <path class="cls-117" d="M108.21,42.25c-7.45-3-22.24,.06-29-14.63-6.77-14.68-24.58-15.24-22.43,3.48l.87,.2s-2.06-19.87,13.8-11.11c7.26,4.01,6.27,11.87,14.22,17.08,7.95,5.22,21.21,5.18,22.26,6.79,.46-1.01,.28-1.81,.28-1.81Z"/>
          <path class="cls-6" d="M107.48,53.99c-3.91-6.08-14.76-11.72-14.22-25.78s-11.08-23.88-16.06-9.37l.51,.6c-.17,.49,5.61-14.94,12.95-.64,3.44,6.7,.1,11.79,3.58,19.71,3.48,7.93,12.28,14.91,12.43,16.62,.65-.47,.81-1.15,.81-1.15Z"/>
          <path class="cls-69" d="M86.16,20.28s-13.09-9.97-28.76-2.56l.36,1.58s13.63-6.88,28.76,2.56c1.45-1.58-.36-1.58-.36-1.58Z"/>
          <path class="cls-67" d="M104.42,40.03s-10.58-15.58-29.29-19.18l-.12,1.44s16.4,2.79,29.29,19.18c2.01-.36,.12-1.44,.12-1.44Z"/>
          <path class="cls-68" d="M58.1,38.16c6.09-3.04,22.24-.06,22.38-14.76s17.68-15.35,23.98,3.36l-.78,.2s-6.9-19.86-18.79-11.03c-5.45,4.04-.91,11.88-6.5,17.13s-18.85,5.28-19.18,6.9c-.92-1-1.1-1.81-1.1-1.81Z"/>
          <path class="cls-65" d="M64.12,49.89c1.16-6.09,9.46-11.78,2.58-25.82-6.88-14.04,.3-23.91,11.81-9.45l-.24,.61S65.96,0,65.05,14.65c-.42,6.71,5.22,11.77,5.31,19.71,.09,7.94-5.55,14.96-4.93,16.66-.87-.47-1.32-1.14-1.32-1.14Z"/>
          <path class="cls-6" d="M56.1,15.01s10.51-11.34,33.42-2.83l.41,1.8s-20.16-7.89-33.42,2.83c-2.6-1.81-.41-1.8-.41-1.8Z"/>
          <path class="cls-66" d="M44.56,37.2s4.48-17.75,25.18-21.81l.92,1.64s-18.34,3.14-25.18,21.81c-2.63-.42-.91-1.64-.91-1.64Z"/>
          <path class="cls-6" d="M98.58,48.88c-4.66-6.96-17.73-13.47-16.92-29.48,.82-16.01-13.14-27.29-19.34-10.82l.61,.69s6.76-17.35,15.69-.61c4.09,7.66-.02,13.42,4.1,22.48,4.13,9.06,14.7,17.09,14.86,19.03,.8-.53,.99-1.3,.99-1.3Z"/>
          <path class="cls-4" d="M88.12,13.6c-7.48,3.24-17.89,20.14-30.57,9.22-12.68-10.92-27.31,4.51-16.36,24.29l.8-.56s-11.44-21.19,5.65-25.35c7.82-1.9,10.89,8.1,19.86,6.98,8.97-1.12,19.64-13.13,21.28-12.22-.12-1.59-.67-2.36-.67-2.36Z"/>
          <path class="cls-6" d="M73.15,10.3S57.41-1.17,38.35,7.13l.41,1.8s16.58-7.71,34.8,3.17c1.77-1.79-.41-1.8-.41-1.8Z"/>
          <path class="cls-63" d="M95.03,32.65s-12.63-17.83-35.24-22.1l-.16,1.64s19.82,3.33,35.24,22.1c2.44-.4,.16-1.64,.16-1.64Z"/>
          <path class="cls-64" d="M38.97,30.11c7.41-3.4,26.93,.13,27.27-16.61,.34-16.74,21.59-17.32,28.99,4.04l-.95,.22s-8.12-22.67-22.63-12.72c-6.64,4.55-1.24,13.52-8.07,19.45s-22.88,5.85-23.3,7.68c-1.1-1.15-1.31-2.07-1.31-2.07Z"/>
          <path class="cls-4" d="M40.55,8.57c8.98,3.32,27.17,20.36,34.86,9.54,7.7-10.82,29.44,4.79,27.54,24.51l-1.06-.57s1.74-21.12-17.29-25.46c-8.72-1.99-7.2,8.02-16.7,6.8-9.51-1.22-25.71-13.36-26.93-12.46-.61-1.59-.42-2.36-.42-2.36Z"/>
          <path class="cls-61" d="M47.2,20.41s12.98-9.51,37.37-2.5l.25,1.5s-21.4-6.51-37.37,2.5c-2.67-1.5-.25-1.5-.25-1.5Z"/>
          <path class="cls-62" d="M31.77,39.24s7.05-14.84,30.47-18.31l.82,1.37s-20.69,2.7-30.47,18.31c-2.86-.34-.82-1.37-.82-1.37Z"/>
          <path class="cls-60" d="M97.75,46.41s-29.39,.11-75.09-16.65l.09-1.14s39.96,14.95,75.09,16.65c4.71,2.33-.09,1.14-.09,1.14Z"/>
          <path class="cls-87" d="M92.97,37.35c-9.55-2.87-29.82,0-36.73-13.97-6.91-13.97-30.72-14.55-30.59,3.25l1.14,.19s.16-18.89,20.14-10.53c9.15,3.83,6.66,11.29,16.55,16.27,9.89,4.98,27.67,4.98,28.85,6.51,.77-.96,.64-1.72,.64-1.72Z"/>
          <path class="cls-89" d="M90.28,48.5c-4.35-5.79-18.06-11.17-15.27-24.54,2.79-13.37-11.34-22.73-20.15-8.95l.6,.58s9.53-14.51,17.45-.57c3.63,6.38-1.61,11.21,1.9,18.75,3.5,7.54,14.27,14.21,14.22,15.83,.94-.45,1.25-1.09,1.25-1.09Z"/>
          <path class="cls-4" d="M82.81,19.36c-8.67,2.74-22.19,16.89-34.95,7.82-12.76-9.07-30.79,3.88-20.99,20.34l.95-.47s-10.18-17.64,9.24-21.18c8.89-1.62,11.11,6.72,21.19,5.75,10.07-.98,23.3-11.04,25.01-10.29,.05-1.33-.46-1.97-.46-1.97Z"/>
          <path class="cls-4" d="M37.07,47.92c3.95-12.83,31.96,10.2,58.19-5.99-5.34,6.03-19.21,8.2-26.34,7.45-15.85-1.65-26.4-7.68-31.85-1.46Z"/>
          <path class="cls-88" d="M66.64,16.41s-16.08-9.51-38.19-2.5l.25,1.5s19.28-6.51,38.19,2.5c2.18-1.5-.25-1.5-.25-1.5Z"/>
          <path class="cls-84" d="M88.22,35.23s-11.89-14.84-36.44-18.31l-.37,1.37s21.57,2.7,36.44,18.31c2.75-.34,.37-1.37,.37-1.37Z"/>
          <path class="cls-83" d="M24.58,42.41s29.42,.11,69.65-16.65l-.46-1.14s-35.08,14.95-69.65,16.65c-3.95,2.33,.46,1.14,.46,1.14Z"/>
          <path class="cls-86" d="M26.4,33.34c8.61-2.87,29.82,0,32.17-13.97,2.35-13.97,25.97-14.55,31.65,3.25l-1.08,.19s-6.33-18.89-23.58-10.53c-7.9,3.83-2.97,11.29-11.24,16.27-8.26,4.98-26.05,4.98-26.72,6.51-1.08-.96-1.21-1.72-1.21-1.72Z"/>
          <path class="cls-85" d="M32.74,44.5c2.46-5.79,14.41-11.17,7.26-24.54-7.15-13.37,3.92-22.73,17.23-8.95l-.41,.58s-14.27-14.51-17.64-.57c-1.55,6.38,5.26,11.21,4.22,18.75-1.04,7.54-9.64,14.21-9.05,15.83-1.09-.45-1.61-1.09-1.61-1.09Z"/>
          <path class="cls-4" d="M30.69,15.35c9.56,2.74,27.7,16.89,37.51,7.82s32.05,3.88,27.63,20.34l-1.11-.47s4.42-17.64-16.16-21.18c-9.42-1.62-8.92,6.72-19.31,5.75-10.39-.98-26.91-11.04-28.37-10.29-.48-1.33-.18-1.97-.18-1.97Z"/>
          <path class="cls-4" d="M85.76,43.92c-8.14-12.83-28.63,10.2-60.14-5.99,7.3,6.03,21.89,8.2,28.77,7.45,15.31-1.65,23.89-7.68,31.37-1.46Z"/>
          <path class="cls-81" d="M82.38,33.06s-13.71-6.51-30.88,1.23l.32,1.23s14.94-7.08,30.88-1.23c1.62-1.44-.32-1.23-.32-1.23Z"/>
          <path class="cls-80" d="M101.28,46.84s-10.79-11.3-30.8-12.06l-.19,1.17s17.55,.37,30.8,12.06c2.18-.52,.19-1.17,.19-1.17Z"/>
          <path class="cls-82" d="M51.47,50.62c6.67-3.13,23.95-2.59,24.67-14.41,.72-11.82,19.64-14.35,25.69-.04l-.85,.25s-6.66-15.16-19.82-6.71c-6.02,3.87-1.44,9.65-7.67,14.5s-20.5,6.4-20.92,7.73c-.95-.7-1.11-1.33-1.11-1.33Z"/>
          <path class="cls-76" d="M57.49,59.35c1.49-5.03,10.64-10.54,3.78-21.03-6.86-10.49,1.25-19.24,13.09-8.94l-.28,.51s-12.67-10.83-14.22,1.05c-.71,5.44,5.16,8.86,4.96,15.22-.21,6.36-6.55,12.65-5.95,13.95-.91-.28-1.38-.76-1.38-.76Z"/>
          <path class="cls-4" d="M53.41,35.29c7.91,1.45,23.66,11.64,30.78,3.25,7.12-8.39,26.07,.44,23.89,14.52l-.93-.29s2.08-15.05-14.75-16.21c-7.7-.53-6.6,6.36-15.03,6.45-8.43,.09-22.54-6.85-23.65-6.09-.5-1.06-.31-1.62-.31-1.62Z"/>
          <path class="cls-6" d="M65.38,31.31s9.63-9.03,29.81-5.32l.32,1.23s-17.73-3.55-29.81,5.32c-2.27-1.02-.32-1.23-.32-1.23Z"/>
          <path class="cls-77" d="M54.55,48.52s4.42-12.95,22.94-17.86l.77,1.07s-16.4,4.04-22.94,17.86c-2.33-.04-.77-1.07-.77-1.07Z"/>
          <path class="cls-78" d="M108.15,48.76s-23.6,2.64-61.7-7.33l-.02-.96s33.35,8.96,61.7,7.33c3.98,1.53,.02,.96,.02,.96Z"/>
          <path class="cls-79" d="M103.56,41.64c-7.91-1.56-23.95,2.59-30.67-8.43-6.72-11.02-25.89-9.43-24.3,5.36l.93,.06s-1.45-15.72,15.3-10.5c7.67,2.39,6.29,8.81,14.65,12.09,8.36,3.28,22.64,1.74,23.71,2.91,.54-.86,.37-1.49,.37-1.49Z"/>
          <path class="cls-4" d="M93.89,27.56c-6.73,3.03-16.41,15.97-27.42,9.53s-24.41,5.89-15.16,18.74l.73-.47s-9.65-13.79,5.66-18.42c7.01-2.12,9.49,4.62,17.5,2.94,8.01-1.69,17.8-11.2,19.23-10.72-.07-1.11-.53-1.59-.53-1.59Z"/>
          <path class="cls-73" d="M57.01,31.25s-13.06-11.34-31.76-6.3l.15,1.57s16.33-4.8,31.76,6.3c1.87-1.33-.15-1.57-.15-1.57Z"/>
          <path class="cls-74" d="M74.3,52.69s-9.36-16.4-29.71-22.36l-.36,1.37s17.9,4.88,29.71,22.36c2.31-.08,.36-1.37,.36-1.37Z"/>
          <path class="cls-75" d="M20.94,53.85s24.54,2.98,58.73-10.3l-.34-1.22s-29.83,11.92-58.73,10.3c-3.39,2.01,.34,1.22,.34,1.22Z"/>
          <path class="cls-70" d="M22.8,44.71c7.29-2.11,24.88,2.91,27.37-11.21s22.21-12.41,26.28,6.43l-.91,.09s-4.57-20.02-19.27-13.12c-6.73,3.16-2.91,11.31-9.99,15.61-7.08,4.3-21.92,2.57-22.54,4.07-.87-1.09-.94-1.89-.94-1.89Z"/>
          <path class="cls-71" d="M27.67,56.79c2.27-5.71,12.45-10.07,6.98-24.49-5.46-14.43,4.13-22.96,14.71-7.51l-.36,.55s-11.35-16.29-14.7-2.31c-1.53,6.4,3.97,12.02,2.82,19.67s-8.57,13.65-8.15,15.37c-.89-.57-1.3-1.27-1.3-1.27Z"/>
          <path class="cls-4" d="M27.06,26.65c7.87,3.75,22.48,20.05,30.99,11.69,8.52-8.36,26.59,7.11,22.28,23.59l-.91-.59s4.35-17.69-12.68-23.34c-7.8-2.59-7.69,6.03-16.33,4.01s-22.03-13.97-23.28-13.34c-.35-1.41-.08-2.04-.08-2.04Z"/>
          <path class="cls-72" d="M39.85,25.11s11.18-8.5,31.27,1.08l.15,1.57s-17.61-8.77-31.27-1.08c-2.17-1.8-.15-1.57-.15-1.57Z"/>
          <path class="cls-101" d="M26.27,42.94s6.44-14.55,26.11-15.83l.63,1.49s-17.36,.75-26.11,15.83c-2.37-.63-.63-1.49-.63-1.49Z"/>
          <path class="cls-100" d="M81.04,56.75s-24.52-2.76-62.01-24.44l.12-1.17s32.78,19.26,62.01,24.44c3.84,2.86-.12,1.17-.12,1.17Z"/>
          <path class="cls-109" d="M77.4,46.97c-7.85-3.88-24.88-2.91-30.12-17.94-5.24-15.03-25.08-17.94-25.64,.35l.95,.31s.85-19.39,17.2-8.85c7.49,4.83,5.13,12.25,13.19,18.33,8.06,6.08,22.9,7.81,23.82,9.5,.68-.91,.6-1.71,.6-1.71Z"/>
          <path class="cls-108" d="M74.73,58.17c-3.41-6.37-14.65-13.24-11.82-26.7,2.83-13.46-8.6-24.45-16.47-11.16l.48,.65s8.5-13.97,14.58,1.11c2.79,6.91-1.76,11.35,.88,19.44,2.64,8.09,11.37,15.98,11.27,17.64,.8-.37,1.08-.99,1.08-.99Z"/>
          <path class="cls-4" d="M69.6,27.51c-7.33,1.96-19.15,15.18-29.45,4.62-10.31-10.56-25.83,.97-18.27,18.84l.81-.39s-7.83-19.11,8.51-20.85c7.48-.8,9.02,7.99,17.46,7.97,8.44-.02,19.86-9.07,21.26-8.12,.09-1.36-.31-2.06-.31-2.06Z"/>
          <path class="cls-107" d="M71.53,23.28s-15.66-12.93-38.34-7.18l.16,1.79s19.8-5.47,38.34,7.18c2.28-1.52-.16-1.79-.16-1.79Z"/>
          <path class="cls-106" d="M92.2,47.73s-11.14-18.7-35.68-25.49l-.45,1.56s21.59,5.56,35.68,25.49c2.79-.09,.45-1.56,.45-1.56Z"/>
          <path class="cls-105" d="M27.65,49.04s29.65,3.4,71.15-11.74l-.4-1.39s-36.22,13.59-71.15,11.74c-4.12,2.29,.4,1.39,.4,1.39Z"/>
          <path class="cls-104" d="M30,38.63c8.84-2.4,30.06,3.32,33.23-12.78,3.17-16.1,27-14.14,31.71,7.34l-1.1,.1s-5.3-22.82-23.16-14.95c-8.18,3.6-3.64,12.89-12.26,17.8-8.61,4.91-26.54,2.93-27.31,4.64-1.04-1.24-1.12-2.15-1.12-2.15Z"/>
          <path class="cls-102" d="M35.75,52.4c2.81-6.51,15.17-11.48,8.72-27.93-6.45-16.45,5.25-26.18,17.88-8.56l-.44,.63s-13.55-18.58-17.75-2.64c-1.92,7.3,4.66,13.71,3.18,22.42-1.48,8.72-10.53,15.56-10.03,17.52-1.07-.65-1.56-1.45-1.56-1.45Z"/>
          <path class="cls-4" d="M35.35,18.04c9.48,4.27,26.96,22.86,37.35,13.33,10.4-9.53,32.09,8.11,26.68,26.9l-1.09-.67s5.46-20.16-15.08-26.6c-9.4-2.95-9.37,6.88-19.79,4.58-10.42-2.3-26.49-15.93-28.01-15.21-.41-1.61-.07-2.32-.07-2.32Z"/>
          <path class="cls-4" d="M89.22,57.62c-7.47-15.93-29.44,8.76-60.27-13.71,7.02,7.87,21.59,12.03,28.57,11.93,15.52-.23,24.52-6.34,31.7,1.78Z"/>
          <path class="cls-6" d="M50.84,16.06s13.62-9.69,37.81,1.23l.16,1.79s-21.2-10-37.81-1.23c-2.6-2.06-.16-1.79-.16-1.79Z"/>
          <path class="cls-6" d="M34.21,36.6s7.95-16.59,31.75-18.04l.75,1.69s-21.01,.85-31.75,18.04c-2.86-.72-.75-1.69-.75-1.69Z"/>
          <path class="cls-103" d="M100.3,52.36s-29.63-3.15-74.73-27.86l.16-1.33s39.42,21.95,74.73,27.86c4.62,3.26-.16,1.33-.16,1.33Z"/>
          <path class="cls-99" d="M96.01,41.21c-9.46-4.43-30.06-3.32-36.22-20.45C53.61,3.62,29.66,.3,28.77,21.16l1.14,.35S31.15-.59,50.81,11.42c9,5.5,6.07,13.97,15.75,20.9,9.68,6.93,27.6,8.91,28.7,10.83,.83-1.03,.75-1.95,.75-1.95Z"/>
          <path class="cls-91" d="M92.65,53.97c-4.05-7.26-17.57-15.09-13.99-30.44,3.58-15.34-10.13-27.88-19.8-12.72l.57,.74s10.44-15.93,17.62,1.27c3.29,7.87-2.26,12.94,.84,22.16s13.57,18.22,13.43,20.12c.98-.42,1.32-1.13,1.32-1.13Z"/>
          <path class="cls-6" d="M86.79,18.79c-8.89,2.24-23.33,17.3-35.68,5.26-12.34-12.04-31.25,1.11-22.32,21.48l.99-.44s-9.25-21.79,10.53-23.78c9.06-.91,10.82,9.11,21.02,9.09,10.21-.02,24.12-10.34,25.8-9.26,.13-1.55-.35-2.35-.35-2.35Z"/>
          <path class="cls-4" d="M39.06,47.36c4.71-14.58,31.63,15.51,58.99-.54-5.72,6.46-19.83,7.46-26.97,5.79-15.88-3.7-26.17-11.94-32.02-5.26Z"/>
          <path class="cls-6" d="M39.63,16.59c.5-.49,10.92-11.31,33.31-6.92l.25,1.5s-19.22-4.13-33.31,6.92c-2.41-1.22-.25-1.5-.25-1.5Z"/>
          <path class="cls-97" d="M26.18,37.58s6.03-15.94,26.87-22.22l.76,1.3s-18.42,5.17-26.87,22.22c-2.56-.01-.76-1.3-.76-1.3Z"/>
          <path class="cls-98" d="M80.78,28.49c-8.57-1.81-26.62,3.49-33.03-9.94-6.41-13.43-27.67-11.23-27.24,6.9l1.02,.06s-.19-19.27,17.79-13.09c8.23,2.83,6.14,10.73,15.06,14.65,8.91,3.91,24.78,1.83,25.86,3.26,.67-1.07,.55-1.83,.55-1.83Z"/>
          <path class="cls-4" d="M71.39,11.35c-7.69,3.8-19.51,19.81-31.06,12.06-11.55-7.75-27.41,7.55-18.37,23.19l.84-.59s-9.4-16.79,7.88-22.67c7.91-2.69,10.04,5.55,19.01,3.38,8.97-2.17,20.61-13.98,22.15-13.41,.02-1.36-.44-1.95-.44-1.95Z"/>
          <path class="cls-96" d="M76.5,26.89s-10.88-13.73-32.85-14.39l-.31,1.44s19.3,.22,32.85,14.39c2.45-.67,.31-1.44,.31-1.44Z"/>
          <path class="cls-92" d="M21.29,32.2c7.63-3.93,26.62-3.49,28.47-18.01,1.85-14.52,22.92-17.87,28.31-.39l-.96,.32s-5.98-18.51-21.23-7.97c-6.98,4.83-2.45,11.86-9.74,17.9s-23.16,8.12-23.74,9.76c-.98-.85-1.11-1.61-1.11-1.61Z"/>
          <path class="cls-4" d="M24.8,13.37c8.58,1.67,25.02,13.97,33.61,3.58,8.59-10.39,28.68,.2,25.02,17.5l-1-.35s3.64-18.5-14.8-19.7c-8.44-.55-7.84,7.89-17.13,8.11-9.29,.22-24.21-8.11-25.5-7.16-.45-1.29-.2-1.98-.2-1.98Z"/>
          <path class="cls-94" d="M49.5,55.07c1.24-5.3,9.32-11.99,3.01-21.88s.78-19.75,11.53-10.64l-.24,.56s-11.5-9.55-12.67,2.74c-.54,5.63,4.76,8.43,4.69,14.93s-5.63,13.66-5.07,14.91c-.82-.18-1.25-.62-1.25-.62Z"/>
          <path class="cls-95" d="M90.3,31.63c-7.08-.66-21.33,5.44-27.52-5.01-6.19-10.44-23.27-6.58-21.59,8.3l.83-.05s-1.57-15.85,13.47-12.49c6.88,1.54,5.77,8.25,13.29,10.61,7.52,2.37,20.24-.88,21.22,.19,.47-.94,.31-1.56,.31-1.56Z"/>
          <path class="cls-6" d="M48.57,26.49s-11.85-10.03-28.46-2.7l.16,1.58s14.49-6.8,28.46,2.7c1.65-1.57-.16-1.58-.16-1.58Z"/>
          <path class="cls-90" d="M64.38,46.32s-8.64-15.62-26.91-19.31l-.3,1.44s16.06,2.87,26.91,19.31c2.06-.35,.3-1.44,.3-1.44Z"/>
          <path class="cls-6" d="M18.28,43.99c6.47-3,22.26,.06,24.23-14.63,1.97-14.68,19.61-15.24,23.57,3.48l-.81,.2s-4.43-19.87-17.43-11.11c-5.95,4.01-2.39,11.87-8.64,17.08-6.25,5.22-19.52,5.18-20.04,6.79-.79-1.01-.87-1.81-.87-1.81Z"/>
          <path class="cls-93" d="M22.83,55.95c1.92-6.08,10.93-11.72,5.8-25.78s3.28-23.88,13-9.37l-.31,.6s-10.42-15.28-13.16-.64c-1.25,6.7,3.75,11.79,2.86,19.71-.9,7.93-7.41,14.91-7,16.62-.81-.47-1.18-1.15-1.18-1.15Z"/>
          <path class="cls-45" d="M33.15,22.24s9.83-9.97,27.93-2.56l.16,1.58s-15.87-6.88-27.93,2.56c-1.97-1.58-.16-1.58-.16-1.58Z"/>
          <path class="cls-6" d="M21.34,42s5.49-15.58,23.02-19.18l.59,1.44s-15.49,2.79-23.02,19.18c-2.13-.36-.59-1.44-.59-1.44Z"/>
          <path class="cls-44" d="M67.04,40.13c-7.08-3.04-22.26-.06-27.2-14.76-4.94-14.7-22.7-15.35-22.88,3.36l.85,.2s.42-19.86,15.19-11.03c6.77,4.04,4.79,11.88,12.1,17.13,7.3,5.25,20.57,5.28,21.43,6.9,.59-1,.51-1.81,.51-1.81Z"/>
          <path class="cls-38" d="M64.86,51.85c-3.15-6.09-13.31-11.78-11.01-25.82,2.29-14.04-8.11-23.91-14.9-9.45l.44,.61s7.34-15.23,13.03-.57c2.61,6.71-1.37,11.77,1.12,19.71,2.5,7.94,10.43,14.96,10.37,16.66,.71-.47,.95-1.14,.95-1.14Z"/>
          <path class="cls-6" d="M61.39,16.45s-14.21-11.34-34.35-2.83l.18,1.8s17.58-7.89,34.35,2.83c2.01-1.81-.18-1.8-.18-1.8Z"/>
          <path class="cls-6" d="M80.27,39.47s-10.27-17.75-32.3-21.81l-.38,1.64s19.37,3.14,32.3,21.81c2.49-.42,.38-1.64,.38-1.64Z"/>
          <path class="cls-6" d="M29.96,50.53c2.39-6.96,13.34-13.47,7.29-29.48-5.94-15.74,4.37-27.08,15.81-10.82l-.39,.69s-12.42-17.35-15.89-.61c-1.59,7.66,4.4,13.42,3.23,22.48-1.17,9.06-9.12,17.09-8.65,19.03-.97-.53-1.41-1.3-1.41-1.3Z"/>
          <path class="cls-6" d="M29.01,15.34c8.54,3.24,24.46,20.14,33.57,9.22,9.11-10.92,28.78,4.51,24.29,24.29l-.98-.56s4.52-21.19-13.92-25.35c-8.45-1.9-8.25,8.1-17.58,6.98-9.34-1.12-23.92-13.13-25.27-12.22-.4-1.59-.1-2.36-.1-2.36Z"/>
          <path class="cls-6" d="M42.81,12.27s11.99-11.47,33.77-3.17l.18,1.8s-19.1-7.71-33.77,3.17c-2.36-1.79-.18-1.8-.18-1.8Z"/>
          <path class="cls-6" d="M28.32,34.61c.24-.63,6.57-17.79,28.02-22.1l.7,1.64s-18.74,3.33-28.02,22.1c-2.57-.4-.7-1.64-.7-1.64Z"/>
          <path class="cls-37" d="M83.55,32.07c-8.52-3.4-26.89,.13-32.69-16.61C45.06-1.27,23.61-1.85,23.19,19.51l1.02,.22s.72-22.67,18.48-12.72c8.13,4.55,5.66,13.52,14.42,19.45,8.76,5.93,24.79,5.85,25.81,7.68,.72-1.15,.63-2.07,.63-2.07Z"/>
          <path class="cls-6" d="M74.94,10.31c-7.9,3.32-20.52,20.36-31.75,9.54-11.23-10.82-27.88,4.79-19.54,24.51l.87-.57s-8.64-21.12,8.98-25.46c8.07-1.99,9.81,8.02,18.92,6.8,9.11-1.22,21.35-13.36,22.87-12.46,.09-1.59-.35-2.36-.35-2.36Z"/>
        </g>
        <g>
          <g>
            <path class="cls-12" d="M74.81,42.76c.51-.56,15.91-19.87,19.75-19.87,3.84,0,11.12,5.31,11.12,5.31l-26.56,18.08-4.31-3.53Z"/>
            <path class="cls-13" d="M81.85,41.92s.01-.02,.02-.04c2.87-5.41,10.15-5.36,10.2-5.33-2.93-1.93-6-8.12,10.96-6.56,.89-.61,1.77-1.21,2.66-1.8-22.83-2.56-18.98,5.36-15.3,7.78-.06-.04-8.92-.1-12.41,6.48,0,.01-.01,.03-.02,.04-1.08,1.92,.18,4.44,1.17,3.76,.89-.6,1.77-1.21,2.66-1.81-.33-.65-.43-1.67,.07-2.55Z"/>
            <path class="cls-15" d="M93.14,26.48c3.19-.4,8.95,1.06,12.15,1.99l.38-.26s-7.28-5.32-11.12-5.31c-3.84,0-19.24,19.3-19.75,19.87l1.03,.84c4-4.98,13.64-16.66,17.3-17.12Z"/>
            <path class="cls-16" d="M93.95,23.02c-4.63,1.63-18.65,19.2-19.13,19.74l.59,.49c3.02-3.77,13.63-16.96,18.54-20.22Z"/>
            <path class="cls-5" d="M96.36,24.37c-.81,0-2.15,.87-3.75,2.24,.19-.06,.37-.11,.53-.14,3.19-.4,8.95,1.06,12.15,1.99l.2-.13c-2.44-1.57-6.56-3.97-9.13-3.96Z"/>
            <path class="cls-13" d="M98.72,32.35c-.37,.7-1.84,1.3-3.28,1.35-1.44,.05-2.31-.48-1.95-1.18,.37-.7,1.84-1.3,3.28-1.35,1.44-.05,2.31,.48,1.95,1.18Z"/>
            <path class="cls-13" d="M93.64,35.76c-.39,.4-1.14,.33-1.69-.16-.55-.49-.68-1.22-.29-1.63,.39-.4,1.14-.33,1.69,.16,.55,.49,.68,1.22,.29,1.63Z"/>
            <path class="cls-13" d="M88.59,39.35c-.29,.54-1.43,1.02-2.55,1.05-1.12,.04-1.8-.37-1.52-.92,.29-.54,1.43-1.02,2.55-1.05,1.12-.04,1.8,.37,1.52,.92Z"/>
            <path class="cls-13" d="M84.63,42c-.3,.31-.89,.26-1.32-.13-.43-.39-.53-.95-.23-1.27,.3-.31,.89-.26,1.32,.13,.43,.39,.53,.95,.23,1.27Z"/>
          </g>
          <g>
            <path class="cls-12" d="M78.17,44.61c.55-.45,17.44-16.21,21.16-15.49s10.23,7.23,10.23,7.23l-27.58,12.48-3.81-4.22Z"/>
            <path class="cls-13" d="M85.07,45.13s.01-.02,.02-.03c3.34-4.69,10.38-3.27,10.43-3.23-2.65-2.42-4.98-8.97,11.29-4.27,.92-.42,1.84-.84,2.76-1.23-21.86-6.78-18.94,1.61-15.62,4.64-.06-.05-8.63-1.77-12.69,3.93,0,.01-.02,.03-.02,.04-1.24,1.65-.28,4.33,.75,3.86,.92-.42,1.84-.83,2.76-1.25-.25-.69-.24-1.7,.32-2.45Z"/>
            <path class="cls-15" d="M97.59,32.33c3.13,.21,8.56,2.71,11.58,4.21l.4-.18s-6.51-6.51-10.23-7.23c-3.72-.72-20.61,15.04-21.16,15.49l.91,1.01c4.38-4.06,14.92-13.54,18.51-13.3Z"/>
            <path class="cls-16" d="M98.72,29.14c-4.65,.7-20.03,15.05-20.56,15.48l.53,.58c3.31-3.08,14.94-13.82,20.03-16.06Z"/>
            <path class="cls-5" d="M100.92,30.89c-.79-.15-2.17,.44-3.86,1.46,.19-.03,.37-.04,.53-.03,3.13,.21,8.56,2.71,11.58,4.21l.2-.09c-2.2-1.98-5.95-5.07-8.44-5.55Z"/>
            <path class="cls-13" d="M102.4,39.06c-.43,.61-1.91,.91-3.32,.69s-2.19-.9-1.77-1.51c.43-.61,1.91-.91,3.32-.69,1.4,.23,2.19,.9,1.77,1.51Z"/>
            <path class="cls-13" d="M97.13,41.4c-.42,.32-1.14,.1-1.62-.48-.48-.58-.53-1.31-.12-1.63,.42-.32,1.14-.1,1.62,.48,.48,.58,.53,1.31,.12,1.63Z"/>
            <path class="cls-13" d="M91.86,43.91c-.33,.47-1.49,.71-2.58,.54-1.09-.18-1.71-.7-1.38-1.17,.33-.47,1.49-.71,2.58-.54,1.09,.18,1.71,.7,1.38,1.17Z"/>
            <path class="cls-13" d="M87.76,45.74c-.32,.25-.89,.08-1.26-.37s-.42-1.02-.09-1.27c.32-.25,.89-.08,1.26,.37,.37,.45,.42,1.02,.09,1.27Z"/>
          </g>
          <g>
            <path class="cls-12" d="M83.68,47.84c.63-.35,20.65-13.34,23.32-11.44,2.66,1.91,5.12,11.21,5.12,11.21l-27.17,6.15-1.27-5.92Z"/>
            <path class="cls-13" d="M88.96,50.44s.02-.02,.03-.03c4.61-4.35,9.63-.69,9.65-.63-1.1-3.52-.22-11.66,10.77-1.57,.91-.21,1.82-.42,2.71-.6-14.57-14.09-15.75-3.69-14.37,.72-.02-.07-6.13-4.54-11.75,.77-.01,.01-.02,.03-.04,.04-1.68,1.52-2.03,4.84-1.01,4.61,.91-.2,1.81-.41,2.72-.62,.09-.85,.52-2,1.28-2.69Z"/>
            <path class="cls-15" d="M104.27,39.53c2.41,1.15,5.68,5.58,7.45,8.17l.39-.09s-2.46-9.3-5.12-11.21c-2.66-1.91-22.69,11.09-23.32,11.44l.3,1.41c5.19-3.34,17.53-11.04,20.29-9.72Z"/>
            <path class="cls-16" d="M106.51,36.23c-4-.56-22.23,11.27-22.83,11.6l.18,.82c3.92-2.53,17.67-11.36,22.65-12.42Z"/>
            <path class="cls-5" d="M107.53,38.87c-.56-.4-1.91-.13-3.69,.54,.16,.02,.31,.06,.43,.12,2.41,1.15,5.68,5.58,7.45,8.17l.2-.05c-.92-2.89-2.62-7.5-4.4-8.78Z"/>
            <path class="cls-13" d="M105.29,48.59c-.59,.56-1.9,.48-2.93-.18-1.02-.67-1.37-1.66-.78-2.23,.59-.57,1.9-.48,2.93,.18,1.02,.67,1.37,1.67,.78,2.23Z"/>
            <path class="cls-13" d="M100.12,49.71c-.46,.24-.95-.21-1.09-1.02s.12-1.65,.59-1.89c.46-.24,.95,.21,1.09,1.02,.14,.8-.12,1.65-.59,1.89Z"/>
            <path class="cls-13" d="M94.88,51.03c-.46,.44-1.48,.38-2.28-.14s-1.07-1.3-.6-1.74c.46-.44,1.48-.38,2.28,.14,.8,.52,1.07,1.3,.6,1.74Z"/>
            <path class="cls-13" d="M90.85,51.91c-.36,.19-.74-.17-.85-.79-.11-.62,.1-1.28,.46-1.47,.36-.19,.74,.17,.85,.79s-.1,1.28-.46,1.47Z"/>
          </g>
          <g>
            <path class="cls-12" d="M82.92,53.15c.69-.26,22.83-10.4,25.49-8.27,2.65,2.13,4.52,11.32,4.52,11.32l-29.13,2.76-.87-5.81Z"/>
            <path class="cls-13" d="M88.28,56.26s.02-.02,.03-.03c5.21-3.64,10.21,.45,10.22,.51-.88-3.5,.69-11.19,11.48-.26,.97-.1,1.95-.19,2.91-.26-14.25-15.16-16.31-5.35-15.21-.96-.02-.07-6.1-5.05-12.44-.62-.01,0-.03,.02-.04,.03-1.89,1.26-2.52,4.4-1.43,4.29,.97-.09,1.94-.18,2.92-.28,.16-.81,.7-1.86,1.57-2.43Z"/>
            <path class="cls-15" d="M105.29,47.57c2.44,1.38,5.55,6,7.21,8.68l.42-.04s-1.86-9.19-4.52-11.32c-2.65-2.13-24.8,8-25.49,8.27l.21,1.39c5.73-2.6,19.36-8.55,22.16-6.97Z"/>
            <path class="cls-16" d="M107.9,44.68c-4.17-1-24.33,8.22-24.98,8.48l.12,.8c4.34-1.97,19.52-8.84,24.86-9.28Z"/>
            <path class="cls-5" d="M108.77,47.32c-.56-.45-2.01-.35-3.93,.09,.17,.04,.32,.09,.45,.16,2.44,1.38,5.55,6,7.21,8.68l.22-.02c-.74-2.88-2.17-7.48-3.95-8.91Z"/>
            <path class="cls-13" d="M105.64,56.36c-.67,.47-2.05,.24-3.07-.51-1.03-.76-1.31-1.75-.64-2.22,.67-.47,2.05-.24,3.07,.51,1.03,.76,1.31,1.75,.64,2.22Z"/>
            <path class="cls-13" d="M100.1,56.84c-.51,.18-.99-.31-1.07-1.1-.08-.78,.26-1.56,.77-1.74s.99,.31,1.07,1.1c.08,.78-.26,1.56-.77,1.74Z"/>
            <path class="cls-13" d="M94.47,57.51c-.52,.37-1.59,.19-2.39-.4s-1.02-1.36-.5-1.73c.52-.37,1.59-.19,2.39,.4,.8,.59,1.02,1.36,.5,1.73Z"/>
            <path class="cls-13" d="M90.15,57.88c-.4,.14-.77-.25-.83-.86-.07-.61,.2-1.22,.6-1.35,.4-.14,.77,.25,.83,.86,.06,.61-.2,1.22-.6,1.35Z"/>
          </g>
        </g>
        <g>
          <path class="cls-36" d="M43.19,52.9c-1.68,3.29,6.94,7.46,15.1,11.33,8.17,3.87,30.23,14.46,34.2,17.76,3.97,3.3,15.82,7.93,23.6,12.76,1.91,1.19,13.82,.61,7.45-15.29-5.54-13.82-28.08-27.78-50.47-29.03-12.62-.7-28-1.2-29.88,2.47Z"/>
          <path class="cls-39" d="M97.23,56.46c-3.92,3.92-27.53-3.98-29,8.06,2.55-2.04,6.07-4.52,13.88-3.96,11.46,.83,18.57-.14,19.55-1.96l-4.44-2.14Z"/>
          <path class="cls-32" d="M76.07,50.54c-8.46-.79-22.53,2.41-18.7,9.37,1.97-2.07,4.88-4.2,8.32-5.09,9.11-2.34,13.29-1.87,18.38-2.77l-8-1.51Z"/>
          <path class="cls-33" d="M108.45,62.77c-4.15,3.72-30.99-4.06-29,8.06,2.55-2.04,3.17-5.98,10.86-4.64,14.51,2.53,19.69,.45,22.12-.53l-3.99-2.88Z"/>
          <path class="cls-35" d="M117.09,70.13c-5.82,3.39-27.75-3.67-28.04,6.31,3.48-1.86,5.79-3.1,13.43-2.08,9.94,1.33,17.05,3.45,18.16,1.56,.8-1.36-3.56-5.79-3.56-5.79Z"/>
          <path class="cls-7" d="M84.26,52.76c-4.97-1.07-12.78-2.28-18.12-1.38-7.17,1.21,14.87,8.75,21.21,12.28,17.48,9.73,22.8,17.66,27.54,16.47,4.73-1.19,6.83-6.81-2.76-14.01-9.59-7.2-18.09-11.25-27.88-13.36Z"/>
          <g>
            <path class="cls-34" d="M30.04,55.17c-1.48,3.31,5.29,7.23,11.71,10.87,6.42,3.63,23.76,13.58,26.83,16.75,3.07,3.17,12.42,7.47,18.49,12.07,1.49,1.13,11.09,.24,6.58-15.41-3.92-13.6-21.52-26.89-39.49-27.53-10.12-.36-22.48-.45-24.13,3.26Z"/>
            <path class="cls-26" d="M73.37,57.27c-3.31,4.01-21.99-3.23-23.63,8.79,2.13-2.1,5.06-4.66,11.32-4.31,9.18,.52,14.94-.63,15.8-2.47l-3.49-2.01Z"/>
            <path class="cls-22" d="M56.58,51.95c-6.78-.56-18.22,3-15.4,9.82,1.66-2.11,4.08-4.31,6.89-5.28,7.42-2.57,10.76-2.21,14.89-3.25l-6.38-1.29Z"/>
            <path class="cls-23" d="M82.16,63.25c-3.48,3.81-24.77-3.21-23.63,8.79,2.13-2.1,2.78-6.04,8.92-4.91,11.57,2.13,15.82-.08,17.82-1.12l-3.1-2.76Z"/>
            <path class="cls-27" d="M88.82,70.34c-4.81,3.53-22.18-2.91-22.8,7.03,2.87-1.94,4.77-3.24,10.89-2.43,7.94,1.05,13.58,2.98,14.55,1.06,.69-1.37-2.64-5.66-2.64-5.66Z"/>
            <path class="cls-7" d="M63.08,53.94c-3.96-.93-10.19-1.93-14.52-.89-5.82,1.39,11.62,8.3,16.59,11.65,13.69,9.22,17.66,16.96,21.52,15.65,3.85-1.31,5.76-6.96-1.68-13.86-7.44-6.91-14.12-10.71-21.91-12.55Z"/>
          </g>
          <path class="cls-51" d="M42.93,54.2c1.13,3.51,2.91-5.51,9.48-4.79s22.86,7.76,26.66,9.44c3.8,1.69,17.39,4.98,19.05,5.4s3.04-18.14-3.14-26.23c-6.77-8.86-27.75-14.22-41.02-5.96-6.29,3.91-14.59,11.13-11.02,22.14Z"/>
          <g>
            <path class="cls-28" d="M25.75,57.52c-1.41,3.95,2.67,8.35,6.46,13.13,4.43,5.59,9.46,11.56,16.49,19.68,2.7,3.12,8.15,8.88,12.5,13.91,1.07,1.24,10.6-2.84,8.34-20.85-1.97-15.66-14.57-30.2-28.45-29.97-7.82,.13-13.76-.32-15.34,4.1Z"/>
            <path class="cls-29" d="M55.55,58.62c-2.88,4.86-16.8-2.56-19.02,11.55,1.82-2.57,4.29-5.71,9.12-5.65,7.08,.1,11.64-1.55,12.45-3.74l-2.55-2.16Z"/>
            <path class="cls-30" d="M42.96,53.33c-5.21-.28-14.36,4.5-12.72,12.3,1.45-2.55,3.51-5.25,5.76-6.54,5.96-3.41,8.52-3.17,11.8-4.6l-4.84-1.16Z"/>
            <path class="cls-20" d="M61.9,65.11c-3,4.64-18.96-2.39-19.02,11.55,1.82-2.57,2.63-7.2,7.3-6.22,8.81,1.85,12.27-.96,13.9-2.28l-2.19-3.05Z"/>
            <path class="cls-21" d="M66.51,73.02c-4.01,4.38-16.97-2.18-18.23,9.45,2.38-2.43,3.96-4.04,8.63-3.43,6.08,.79,10.3,2.73,11.2,.44,.65-1.64-1.6-6.46-1.6-6.46Z"/>
            <path class="cls-7" d="M47.84,55.29c-3-.87-7.75-1.69-11.19-.24-4.62,1.95,8.36,9.05,11.95,12.68,9.89,10.01,12.36,18.83,15.45,17.09,3.09-1.74,5.01-8.43-.21-16.09s-10.1-11.73-16-13.45Z"/>
          </g>
          <g>
            <path class="cls-31" d="M42.93,54.2c1.13,3.51,2.91-5.51,9.48-4.79s24.38,2.78,28.18,4.47c3.8,1.69,15.86,9.95,17.53,10.38s3.04-18.14-3.14-26.23c-6.77-8.86-27.75-14.22-41.02-5.96-6.29,3.91-14.59,11.13-11.02,22.14Z"/>
            <path class="cls-49" d="M89.85,56.49c-6.15-5.67-12.83-6.49-21.53-8.15-7.35-1.4-19.3-6.19-24.17,.86-1.01,1.46-1.89,7.48,.93,4.31,2.01-2.27,4.02-4.47,7.34-4.11,6.57,.72,23.93,4.05,27.73,5.74,3.04,1.35,13.91,6.72,17.98,9.11-2.19-3.39-5.25-4.97-8.27-7.76Z"/>
            <path class="cls-43" d="M72.57,28.07c-.69,5.11-18.29,6.14-14.04,18.04,.67-2.85,1.73-6.45,6.68-8.73,7.26-3.34,11.13-6.81,10.95-8.88l-3.59-.43Z"/>
            <path class="cls-42" d="M57.3,30.09c-5.44,2.3-12.55,10.38-7.27,15.57,.3-2.66,1.15-5.72,2.84-7.8,4.49-5.49,7.22-6.54,9.9-9.23l-5.47,1.45Z"/>
            <path class="cls-40" d="M98.42,46.07c-2.99-4.39-14.07,1.7-15.87,5.14,2.21-1.38,5.61-4.4,10.53-3.68,4.6,.68,6.37,5.77,6.37,5.77l-1.03-7.23Z"/>
            <path class="cls-48" d="M82.02,29.99c-.92,5.01-20.41,7.31-14.04,18.04,.67-2.85-.64-6.79,4.57-8.29,9.82-2.83,12.06-6.66,13.11-8.46l-3.63-1.29Z"/>
            <path class="cls-47" d="M90.37,33.83c-2.06,5.3-18.29,6.51-14.21,16.05,1.31-3.01,2.17-5.01,7.21-6.8,6.56-2.32,11.74-2.87,11.61-5.06-.1-1.57-4.61-4.19-4.61-4.19Z"/>
            <path class="cls-7" d="M63.18,29.24c-3.46,.78-8.67,2.44-11.51,5.21-3.81,3.72,12.69,2.91,18.02,3.97,14.68,2.91,21.27,8.48,23.62,5.66s1.22-8.89-7.63-12.24c-8.85-3.35-15.7-4.12-22.5-2.6Z"/>
          </g>
          <g>
            <path class="cls-51" d="M22.51,58.73c1.13,3.51,6.12-2.3,12.69-1.58,8.68,.95,20.04,3,23.97,4.74,3.8,1.69,16.87,6.47,18.53,6.89,1.66,.42,3.04-18.14-3.14-26.23-6.77-8.86-27.75-14.22-41.02-5.96-6.29,3.91-14.59,11.13-11.02,22.14Z"/>
            <path class="cls-46" d="M22.51,58.73c1.13,3.51,2.91-5.51,9.48-4.79,6.57,.72,24.38,2.78,28.18,4.47,3.8,1.69,15.86,9.95,17.53,10.38,1.66,.42,3.04-18.14-3.14-26.23-6.77-8.86-27.75-14.22-41.02-5.96-6.29,3.91-14.59,11.13-11.02,22.14Z"/>
            <path class="cls-24" d="M69.43,61.02c-6.15-5.67-12.83-6.49-21.53-8.15-7.35-1.4-19.3-6.19-24.17,.86-1.01,1.46-1.89,7.48,.93,4.31,2.01-2.27,4.02-4.47,7.34-4.11,6.57,.72,23.88,3.77,27.68,5.46,3.04,1.35,13.96,7,18.03,9.39-2.19-3.39-5.25-4.97-8.27-7.76Z"/>
            <path class="cls-25" d="M52.15,32.59c-.69,5.11-18.29,6.14-14.04,18.04,.67-2.85,1.73-6.45,6.68-8.73,7.26-3.34,11.13-6.81,10.95-8.88l-3.59-.43Z"/>
            <path class="cls-41" d="M36.88,34.61c-5.44,2.3-12.55,10.38-7.27,15.57,.3-2.66,1.15-5.72,2.84-7.8,4.49-5.49,7.22-6.54,9.9-9.23l-5.47,1.45Z"/>
            <path class="cls-18" d="M78.01,50.59c-2.99-4.39-14.07,1.7-15.87,5.14,2.21-1.38,5.61-4.4,10.53-3.68,4.6,.68,6.37,5.77,6.37,5.77l-1.03-7.23Z"/>
            <path class="cls-19" d="M61.61,34.51c-.92,5.01-20.41,7.31-14.04,18.04,.67-2.85-.64-6.79,4.57-8.29,9.82-2.83,12.06-6.66,13.11-8.46l-3.63-1.29Z"/>
            <path class="cls-17" d="M69.95,38.36c-2.06,5.3-18.29,6.51-14.21,16.05,1.31-3.01,2.17-5.01,7.21-6.8,6.56-2.32,11.74-2.87,11.61-5.06-.1-1.57-4.61-4.19-4.61-4.19Z"/>
            <path class="cls-7" d="M42.76,33.76c-3.46,.78-8.67,2.44-11.51,5.21-3.81,3.72,12.69,2.91,18.02,3.97,14.68,2.91,21.27,8.48,23.62,5.66s1.22-8.89-7.63-12.24c-8.85-3.35-15.7-4.12-22.5-2.6Z"/>
          </g>
        </g>
        <g>
          <path class="cls-11" d="M34.31,75.24c-2.07-1.36-3.94-2.98-6.06-4.27-4.77-2.91-9.12-6.01-12.36-10.46-.34,.06-.68,.12-1.01,.2-6.96,1.53-12.31,4.86-13.45,8.68-.23,.78-.94,2.85-1.35,4.27-.27,1.48,.63,3.01,1.84,4.33,5.12,5.62,17.87,9.91,33.79,2.78,.11-.05,1.71-3.12,1.61-3.2-.64-.51-1.73-1.47-3.02-2.32Z"/>
          <g>
            <path class="cls-10" d="M34.31,75.24c-2.07-1.36-3.94-2.98-6.06-4.27-4.77-2.91-9.12-6.01-12.36-10.46-.34,.06-.68,.12-1.01,.2-9.96,2.19-16.63,8.08-12.37,13.79,5.41,7.25,22.79,9.17,34.57,3.58,.03-.01,.3-.46,.24-.53-.79-.94-1.98-1.62-3.02-2.31Z"/>
            <g>
              <path class="cls-3" d="M34.31,75.24c-2.07-1.36-3.94-2.98-6.06-4.27-4.68-2.85-8.94-5.89-12.15-10.2-.33,.06-.67,.12-1,.2-9.69,2.13-16.18,7.86-12.03,13.41,5.27,7.05,22.56,8.73,34.02,3.3,.08-.04,.16-.08,.24-.12-.79-.9-2.01-1.66-3.02-2.32Z"/>
              <path class="cls-8" d="M34.31,75.24c-2.07-1.36-3.94-2.98-6.06-4.27-4.6-2.81-8.8-5.8-12-10-.3,.06-.61,.11-.91,.18-9.39,2.08-15.57,7.65-11.48,12.99,5.15,6.72,21.71,8.33,32.75,3.18,.11-.05,.22-.11,.33-.16-.77-.72-1.77-1.35-2.63-1.91Z"/>
              <g>
                <path class="cls-2" d="M21.97,66.76l-6.11-4.71c-.35-.27-1.22-.35-1.91-.15-2.75,.8-5.07,1.9-6.79,3.2-.49,.37-.13,.76,.74,.84l13.31,1.29c.87,.08,1.21-.13,.76-.48Z"/>
                <path class="cls-2" d="M20.86,67.85l-13.53-1.31c-.88-.09-1.93,.18-2.24,.61-1.23,1.66-1.59,3.52-.75,5.36,.23,.5,1.39,.63,2.45,.3l14.23-4.36c.8-.25,.73-.51-.15-.6Z"/>
                <path class="cls-2" d="M24.04,69.47l-4.17,8.71c-.33,.69,.32,1.35,1.49,1.38,4.36,.12,8.75-.47,12.53-1.76,.92-.31,1.06-1.03,.4-1.54l-8.98-6.92c-.49-.38-1.06-.32-1.28,.13Z"/>
                <path class="cls-2" d="M21.68,68.99l-14.34,4.5c-1.08,.34-1.63,1.01-1.11,1.47,2.12,1.87,5.42,3.24,9.38,3.99,1.08,.2,2.29-.26,2.65-.95l4.45-8.67c.23-.45-.23-.61-1.04-.35Z"/>
              </g>
              <path class="cls-9" d="M28.97,73.77c-.1-.37,.21-.72,.45-1.08l2.71,2.09c-.05,.23,.05,.69-.19,.88-.54,.44-1.2-.39-1.46-.59-.44-.34-1.04-.64-1.36-1.02-.08-.1-.13-.19-.15-.28Zm3.85,1.55c-.1,.61-.19,1.21-.57,1.78,.15,.32,.28,.64,.36,.97,.34-.11,.68-.22,1.01-.34,.88-.32,1.02-1.02,.38-1.51l-1.17-.9Zm-4.16-2.88c.05-.07,.11-.14,.16-.21l-3.36-2.59c.07,.2,.14,.4,.24,.59,.33,.67,.77,1.36,1.36,2.03,.14,.16,.51,.55,.88,.59,.4,.04,.61-.26,.72-.41Zm-5.91,5.95c-.04,.07-.07,.13-.1,.2-.1,.33-.07,.68-.14,1.02,.52,0,1.05-.02,1.57-.05,.27-.01,.31-1.68,.27-1.84-.05-.21-.28-.73-.79-.51-.27,.12-.27,.44-.38,.61-.12,.19-.31,.37-.43,.56Zm-1-1.73c.31,.33,.82,.64,1.26,.08,.31-.39,.38-.84,.13-1.21-.2-.29-.43-.56-.61-.85-.11-.17-.52-.6-.44-.78l-1.01,2.14c.23,.2,.46,.4,.67,.62Zm-.09,1.52c-.14-.54-.5-.98-.92-1.4l-.71,1.51c-.32,.68,.33,1.31,1.47,1.32,.03,0,.07,0,.1,0,.13-.49,.18-.98,.06-1.43Zm4.65-2.17s-.02,0-.03,0c-.53,.04-.91,.6-1,.86-.08,.23,.1,2.6-.22,2.63,1.19-.09,2.36-.24,3.49-.44,0-.44-.06-.86-.25-1.25-.19-.39-.55-.7-.81-1.06-.17-.24-.62-.76-1.18-.74Zm-2.72-1.56c-.03,.21,.01,.43,.14,.68,.13,.26-.02,1.6,.47,1.71,.44,.1,1.3-1.1,1.41-1.31,.16-.31-.1-.67-.33-.93-.18-.2-.37-.39-.53-.58-.09-.11-.31-.41-.58-.4-.43,.02-.55,.64-.57,.83Zm-.58-.97c.1,0,.21-.03,.35-.11,.24-.15,.34-.55,.36-.73,.03-.2-.08-.42-.14-.61-.09-.29-.16-.57-.2-.86l-.73,1.55c-.07,.15-.03,.75,.35,.77Zm6.72,2.02c-.45-.03-.93,.33-1.09,.54-.29,.4,.1,.89,.31,1.29,.07,.14,.71,1.52,.47,1.57,.82-.17,1.6-.36,2.36-.57,.38-.11-.8-1.87-.96-2.05-.2-.24-.38-.52-.74-.68-.13-.06-.25-.09-.36-.09Zm-3.21-2.58c-.52-.14-.68,.42-.71,.6-.1,.5,.3,.99,.74,1.41,.56,.54,1.35,1.23,2.06,.28,.33-.44-.16-.79-.58-1.12-.44-.35-.71-.75-1.23-1.05-.1-.06-.2-.1-.28-.12Zm-2.07-3.45c-.31,.72-.34,1.49-.13,2.27,.05,.17,.14,.86,.47,.96,.33,.1,.51-.29,.59-.43,.34-.53,.13-.85-.16-1.34-.25-.44-.46-.88-.56-1.32-.02-.09-.06-.19-.1-.28-.03,0-.05,.01-.07,.02-.02,.04-.03,.09-.05,.13Z"/>
              <path class="cls-9" d="M18.6,73.85c.5-.31,1.22-.44,1.92-.61l-1.38,2.67c-.38,.15-1.03,.53-1.48,.57-1.02,.09-.18-.81-.05-1.06,.22-.43,.3-.9,.67-1.31,.09-.1,.2-.19,.32-.26Zm.18,2.77c-1.01,.4-2,.81-3.1,1.06-.39,.3-.8,.59-1.26,.87,.38,.08,.76,.15,1.15,.22,1.06,.18,2.24-.28,2.59-.94l.62-1.2Zm1.62-3.87c.14-.03,.28-.06,.42-.09l1.63-3.16c-.25,.17-.49,.34-.72,.52-.77,.61-1.5,1.27-2.11,1.98-.14,.17-.49,.59-.3,.77,.2,.19,.79,.05,1.09-.01Zm-11.99,1.88c-.11,.03-.22,.06-.32,.1-.5,.18-.96,.43-1.46,.63,.27,.2,.55,.39,.85,.58,.16,.1,2.48-1.02,2.69-1.15,.26-.16,.87-.61,.28-.65-.3-.02-.76,.2-1.05,.27-.33,.08-.67,.13-1,.22Zm1.84-1.54c-.28,.34-.45,.74,.57,.52,.71-.16,1.37-.43,1.74-.78,.29-.27,.55-.54,.84-.81,.18-.16,.53-.6,.84-.7l-3.5,1.1c-.15,.22-.3,.44-.49,.66Zm-2.12,.99c.66-.42,1.08-.85,1.42-1.28l-2.38,.75c-1.05,.33-1.57,.98-1.05,1.43,.02,.01,.03,.03,.05,.04,.73-.28,1.41-.58,1.96-.93Zm5.55,.3s-.01,0-.02-.01c-.36-.19-1.37,.06-1.79,.2-.37,.13-3.6,1.83-3.8,1.72,.76,.42,1.59,.81,2.5,1.15,.64-.3,1.21-.63,1.66-.98,.45-.35,.71-.73,1.07-1.08,.24-.24,.74-.79,.38-1Zm.66-2.14c-.31,.13-.59,.3-.87,.52-.28,.23-.94,.67-.83,.94,.1,.24,.98,.16,1.33,.06,.54-.16,.91-.51,1.14-.78,.18-.21,.33-.41,.52-.61,.1-.11,.41-.4,.22-.5-.28-.14-1.23,.25-1.51,.37Zm1.03-.89s.16,.06,.37,.05c.36-.02,.98-.26,1.25-.38,.3-.13,.55-.32,.79-.48,.36-.24,.72-.46,1.11-.68l-2.64,.83c-.25,.08-1.07,.51-.88,.66Zm1.14,4.05c-.23-.21-1.06-.15-1.47-.06-.77,.17-1.25,.68-1.71,1.05-.16,.13-1.82,1.39-2.02,1.32,.71,.24,1.46,.46,2.23,.64,.39,.09,2.31-1.71,2.49-1.91,.23-.26,.55-.54,.56-.81,0-.1-.02-.17-.08-.22Zm1.81-3.15c-.12-.3-1.04,.05-1.31,.15-.78,.31-1.25,.82-1.6,1.29-.45,.61-.98,1.41,.84,1.03,.85-.18,1.07-.64,1.29-1.04,.23-.42,.66-.82,.78-1.24,.02-.08,.02-.15,0-.19Zm3.73-3.24c-1.26,.41-2.4,.95-3.38,1.58-.21,.14-1.16,.67-1.1,.86,.06,.19,.74-.02,.99-.09,.99-.26,1.32-.56,1.86-1.02,.48-.41,.99-.8,1.57-1.15,.12-.07,.23-.15,.35-.24-.02,0-.05-.01-.07-.01-.07,.03-.15,.05-.22,.08Z"/>
              <path class="cls-9" d="M12.46,70.26c.69-.05,1.26,.11,1.89,.23l-4.36,1.36c-.39-.03-1.23,0-1.51-.13-.62-.29,.96-.6,1.36-.73,.68-.22,1.34-.51,2.08-.66,.18-.04,.36-.06,.53-.07Zm-3.59,1.94c-1.03-.08-2.05-.15-2.88-.36-.56,.07-1.12,.12-1.68,.15,.07,.18,.15,.35,.24,.53,.26,.48,1.4,.59,2.43,.27l1.89-.59Zm6.08-2.09c.12,.03,.24,.05,.36,.08l5.42-1.69c-.4,.04-.79,.08-1.19,.13-1.33,.18-2.69,.4-4.01,.69-.31,.07-1.09,.25-1.22,.43-.14,.2,.38,.3,.64,.35Zm-8.51-2.48c-.08-.01-.17-.02-.27-.03-.44-.03-.94,0-1.4-.01-.12,.2-.23,.4-.33,.6-.05,.11,2.34,.08,2.59,.06,.32-.02,1.16-.14,.94-.34-.12-.1-.6-.09-.82-.13-.25-.04-.47-.11-.72-.15Zm2.75-.46c-.55,.14-1.13,.35-.38,.5,.54,.11,1.2,.12,1.84,0,.49-.09,.97-.2,1.46-.28,.3-.05,1.05-.24,1.34-.21l-3.2-.3c-.35,.1-.7,.2-1.06,.29Zm-2.21,.03c.81-.08,1.53-.23,2.23-.42l-2.02-.19c-.86-.08-1.87,.18-2.17,.6,0,.01-.02,.03-.03,.04,.65,.03,1.31,.03,1.98-.04Zm2.24,1.83s0,0,0-.01c.06-.23-.74-.38-1.12-.41-.33-.03-3.87,.1-3.82-.03-.18,.49-.29,.98-.31,1.47,.65,0,1.31-.03,1.95-.11,.65-.09,1.23-.25,1.85-.37,.42-.08,1.36-.28,1.45-.53Zm3.08-1.21c-.33,0-.7,.02-1.13,.08-.43,.06-1.32,.16-1.61,.37-.25,.19,.28,.41,.58,.45,.48,.06,1.12-.06,1.59-.17,.36-.08,.71-.17,1.07-.25,.2-.04,.75-.15,.77-.27,.04-.18-.98-.21-1.28-.22Zm1.71-.28s.01,.09,.14,.14c.22,.1,.89,.12,1.2,.13,.35,0,.75-.05,1.1-.08,.53-.05,1.05-.09,1.57-.12l-2.65-.25c-.24-.02-1.27,.02-1.36,.18Zm-4.7,3.07c.15-.22-.33-.45-.65-.52-.59-.14-1.46,.04-2.14,.14-.23,.03-2.54,.32-2.54,.21,.02,.38,.08,.75,.19,1.12,.06,.19,3.23-.35,3.58-.42,.45-.09,.97-.18,1.33-.35,.13-.06,.2-.12,.24-.17Zm5.13-1.54c.33-.24-.64-.3-.93-.32-.83-.04-1.74,.16-2.54,.36-1.01,.26-2.31,.62-.91,.96,.67,.16,1.39-.08,2.04-.28,.69-.21,1.46-.34,2.08-.59,.12-.05,.21-.09,.26-.13Zm6.74-1.06c-1.38-.12-2.84-.1-4.28,.02-.31,.03-1.57,.09-1.79,.24-.22,.15,.45,.22,.68,.26,.92,.14,1.54,.04,2.5-.11,.87-.13,1.73-.24,2.6-.31,.18-.01,.37-.03,.56-.05,0-.01-.02-.02-.03-.03-.08,0-.17-.01-.25-.02Z"/>
              <path class="cls-9" d="M13.78,65.91c.42,.17,.52,.44,.7,.71l-3.98-.37c-.15-.13-.6-.34-.57-.5,.06-.35,1.22-.12,1.57-.09,.61,.05,1.32,.05,1.9,.15,.15,.03,.27,.06,.37,.1Zm-4.26,.24c-.39-.34-.78-.65-.9-1.01-.34-.11-.65-.22-.93-.35-.18,.13-.36,.26-.53,.39-.46,.37-.09,.74,.76,.82l1.6,.15Zm5.79,.38c.03,.05,.06,.11,.09,.16l5.53,.51c-.3-.1-.61-.2-.93-.29-1.06-.29-2.16-.55-3.32-.75-.27-.05-.94-.15-1.26-.07-.34,.09-.19,.31-.12,.43Zm-1.29-3.96s-.06-.06-.1-.09c-.19-.13-.47-.23-.68-.35-.31,.1-.61,.2-.9,.3-.15,.06,1.06,.63,1.21,.68,.19,.07,.76,.21,.9,.02,.07-.1-.19-.21-.26-.29-.08-.09-.1-.19-.18-.27Zm2.01,.4c-.47-.05-1.04-.06-.84,.23,.14,.21,.48,.4,.97,.48,.39,.07,.79,.13,1.17,.2,.24,.05,.91,.13,1.04,.22l-1.4-1.06c-.32-.02-.63-.05-.95-.08Zm-1.2-.54c.52,.15,1.1,.23,1.7,.29l-.83-.63c-.35-.26-1.19-.34-1.86-.14-.02,0-.04,.01-.06,.02,.29,.18,.63,.34,1.05,.46Zm-1.16,1.77s.01,0,.02,0c.33-.14,.1-.44-.05-.56-.13-.1-2.03-.91-1.85-.98-.68,.26-1.32,.55-1.93,.85,.3,.17,.64,.31,1.05,.42,.41,.11,.9,.16,1.35,.25,.31,.06,1.04,.18,1.4,.04Zm3.2,.03c-.18-.09-.41-.18-.73-.25-.32-.07-.91-.25-1.33-.19-.37,.06-.37,.34-.26,.45,.17,.17,.67,.26,1.06,.32,.3,.04,.61,.08,.91,.13,.16,.03,.61,.11,.78,.04,.26-.11-.27-.42-.43-.5Zm1.34,.28c-.07,.02-.11,.06-.11,.14,0,.13,.35,.34,.52,.43,.2,.1,.51,.18,.76,.26,.39,.12,.76,.25,1.12,.38l-1.26-.95c-.11-.08-.77-.35-1.03-.26Zm-6.5,.73c.35-.1,.4-.38,.33-.51-.12-.24-.77-.36-1.22-.48-.15-.04-1.57-.45-1.44-.52-.44,.24-.87,.49-1.26,.75-.2,.13,1.91,.63,2.16,.67,.33,.06,.69,.15,1.08,.14,.14,0,.25-.02,.34-.05Zm4.69,.43c.51-.07,.05-.39-.1-.48-.41-.26-1.15-.38-1.84-.47-.86-.11-1.98-.22-1.69,.38,.14,.29,.81,.34,1.41,.39,.64,.06,1.23,.19,1.9,.2,.13,0,.24,0,.32-.01Zm5.51,1.32c-.72-.52-1.64-.96-2.69-1.31-.22-.07-1.05-.4-1.38-.36-.33,.04-.04,.28,.05,.37,.34,.37,.85,.49,1.63,.68,.71,.18,1.4,.37,2.05,.6,.14,.05,.28,.1,.44,.14,.01-.01,.02-.02,.03-.03-.05-.03-.09-.06-.14-.09Z"/>
              <path class="cls-3" d="M22.77,67.3c0,.12-.23,.18-.64,.14l-.38-.04c-.13,.13-.21,.27-.24,.41l.4,.04c.6,.06,.65,.24,.11,.4l-.36,.11c.05,.06,.11,.12,.19,.18,.08,.07,.17,.12,.28,.18l.36-.11c.54-.17,.85-.06,.7,.23l-.1,.19c.28,.05,.58,.08,.89,.08l.09-.18c.15-.3,.53-.34,.85-.08l.18,.14s.03,0,.05-.01c-.81-.54-1.6-1.1-2.37-1.68Z"/>
            </g>
          </g>
        </g>
        <g>
          <path class="cls-11" d="M28.1,25.31c-1.89,2.18-3.97,4.17-5.8,6.39-4.14,5-8.33,9.59-13.52,13.17-.03,.33-.07,.67-.09,.99-.46,6.83,1.26,11.91,4.62,12.76,.68,.17,2.48,.72,3.74,1.01,1.36,.15,3.07-.87,4.68-2.17,6.84-5.56,14.52-18.63,12.08-33.98-.02-.11-2.53-1.46-2.63-1.36-.67,.68-1.9,1.84-3.08,3.2Z"/>
          <g>
            <path class="cls-10" d="M28.1,25.31c-1.89,2.18-3.97,4.17-5.8,6.39-4.14,5-8.33,9.59-13.52,13.17-.03,.33-.07,.67-.09,.99-.66,9.78,3.16,15.98,9.85,11.28,8.49-5.98,15.17-23.49,13.06-34.82,0-.02-.36-.26-.44-.2-1.12,.86-2.11,2.1-3.06,3.2Z"/>
            <g>
              <path class="cls-3" d="M28.1,25.31c-1.89,2.18-3.97,4.17-5.8,6.39-4.05,4.9-8.16,9.39-13.2,12.94-.03,.33-.07,.66-.09,.98-.64,9.51,3.08,15.54,9.58,10.97,8.26-5.82,14.68-23.22,12.64-34.25-.01-.08-.03-.15-.05-.23-1.09,.86-2.15,2.14-3.08,3.2Z"/>
              <path class="cls-8" d="M28.1,25.31c-1.89,2.18-3.97,4.17-5.8,6.39-3.99,4.82-8.04,9.25-12.97,12.77-.03,.3-.06,.6-.08,.89-.6,9.22,3.04,14.96,9.32,10.45,7.91-5.67,14.06-22.34,12.17-32.97-.02-.11-.04-.21-.06-.31-.91,.83-1.79,1.88-2.57,2.78Z"/>
              <g>
                <path class="cls-2" d="M16.49,38.31l-6.24,6.48c-.36,.37-.68,1.24-.67,1.92,0,2.69,.42,4.92,1.2,6.53,.22,.46,.69,.07,1.02-.81l4.95-13.4c.32-.88,.21-1.2-.25-.72Z"/>
                <path class="cls-2" d="M17.23,39.34l-5.03,13.62c-.33,.89-.36,1.91-.04,2.19,1.26,1.1,2.95,1.32,4.96,.33,.55-.27,.99-1.43,.97-2.47l-.25-13.87c-.01-.78-.29-.69-.62,.2Z"/>
                <path class="cls-2" d="M19.68,36.03l7.23,3.48c.57,.28,1.39-.43,1.75-1.6,1.33-4.37,1.98-8.71,1.78-12.38-.05-.89-.69-.98-1.37-.28l-9.16,9.52c-.5,.52-.61,1.09-.23,1.27Z"/>
                <path class="cls-2" d="M18.56,38.42l.35,13.97c.03,1.05,.52,1.55,1.11,.99,2.39-2.26,4.63-5.67,6.46-9.69,.5-1.1,.39-2.27-.18-2.57l-7.11-3.77c-.37-.2-.65,.28-.63,1.06Z"/>
              </g>
              <path class="cls-9" d="M25.19,30.76c-.39,.13-.63-.16-.91-.36l2.76-2.87c.2,.03,.68-.1,.8,.12,.28,.51-.71,1.23-.97,1.5-.45,.47-.91,1.09-1.36,1.44-.11,.09-.22,.14-.31,.17Zm2.56-3.97c.56,.06,1.12,.09,1.56,.43,.35-.18,.7-.33,1.04-.43,0-.33-.02-.66-.04-.98-.06-.86-.7-.94-1.35-.26l-1.2,1.24Zm-3.93,4.39c-.05-.05-.1-.1-.15-.15l-3.43,3.57c.21-.08,.42-.17,.64-.28,.74-.39,1.52-.88,2.33-1.52,.19-.15,.67-.55,.81-.93,.15-.41-.08-.59-.19-.69Zm4.09,5.44c.05,.04,.11,.06,.17,.08,.29,.08,.64,.01,.95,.06,.14-.52,.27-1.04,.39-1.56,.06-.27-1.53-.17-1.7-.13-.21,.06-.78,.34-.71,.83,.04,.26,.35,.24,.48,.34,.15,.11,.27,.28,.42,.39Zm-1.94,1.13c.4-.34,.85-.87,.43-1.27-.3-.27-.7-.32-1.13-.03-.33,.22-.66,.47-.98,.68-.2,.13-.72,.57-.87,.5l1.78,.84c.26-.24,.51-.49,.78-.72Zm1.44-.03c-.56,.19-1.09,.58-1.61,1.03l1.26,.59c.56,.27,1.35-.43,1.68-1.57,.01-.03,.02-.07,.03-.1-.44-.09-.89-.11-1.36,.05Zm-.8-4.47s0,.02,0,.03c-.11,.53,.32,.86,.55,.93,.2,.06,2.53-.31,2.47,.02,.24-1.19,.42-2.34,.54-3.45-.42,.03-.85,.13-1.27,.35-.42,.22-.83,.6-1.24,.89-.28,.19-.9,.68-1.04,1.24Zm-2.26,2.84c.19,.01,.41-.04,.69-.19,.28-.15,1.53-.11,1.78-.61,.22-.44-.7-1.22-.87-1.3-.26-.13-.68,.15-.99,.41-.24,.19-.47,.4-.71,.58-.13,.1-.48,.34-.54,.61-.1,.43,.47,.5,.64,.51Zm-1.1,.66c.03-.1,.03-.21-.01-.34-.08-.23-.43-.29-.6-.3-.18-.01-.43,.11-.63,.19-.3,.11-.6,.21-.88,.26l1.29,.61c.12,.06,.71-.03,.84-.41Zm3.81-6.87c-.15,.45,.06,.9,.22,1.04,.31,.26,.88-.17,1.32-.41,.15-.08,1.66-.83,1.64-.59,.07-.8,.1-1.57,.11-2.32,0-.37-2.02,.95-2.24,1.12-.29,.22-.61,.42-.86,.79-.09,.13-.15,.25-.19,.37Zm-3.38,3.41c-.28,.53,.22,.64,.38,.67,.45,.06,1.03-.38,1.57-.85,.68-.6,1.56-1.44,.85-2.08-.33-.29-.81,.22-1.24,.66-.45,.47-.92,.77-1.36,1.32-.09,.11-.15,.2-.19,.29Zm-3.9,2.34c.61,.25,1.34,.23,2.15-.05,.18-.06,.87-.21,1.06-.55,.18-.34-.14-.48-.25-.56-.42-.29-.78-.06-1.34,.26-.49,.29-.97,.52-1.43,.67-.09,.03-.19,.07-.3,.12,0,.02,0,.05,0,.07,.04,.01,.07,.02,.11,.04Z"/>
              <path class="cls-9" d="M22.39,41.12c-.16-.47-.08-1.18-.05-1.87l2.19,1.17c.04,.37,.23,.99,.14,1.43-.2,1.02-.83,.25-1.04,.14-.35-.19-.79-.23-1.08-.56-.07-.08-.13-.19-.17-.3Zm2.72-.39c.11,.97,.23,1.93,.16,3.02,.18,.36,.35,.76,.49,1.19,.18-.38,.36-.77,.53-1.17,.47-1.07,.36-2.22-.19-2.51l-.99-.53Zm-3.28-1.31c.01-.14,.02-.28,.03-.41l-2.59-1.38c.09,.24,.19,.47,.3,.68,.37,.73,.8,1.4,1.32,1.95,.12,.13,.44,.44,.66,.24,.24-.21,.27-.79,.29-1.08Zm-1.52,11.84c0,.11,0,.21,0,.32,.04,.49,.15,.92,.21,1.4,.27-.28,.53-.58,.8-.9,.14-.17-.3-2.4-.36-2.6-.08-.25-.35-.82-.55-.23-.1,.31-.02,.74-.03,1.03-.01,.32-.06,.66-.07,.98Zm-.97-1.72c.25,.26,.59,.39,.66-.61,.05-.7-.03-1.34-.27-1.68-.18-.27-.37-.5-.55-.77-.11-.17-.43-.49-.44-.79l.09,3.41c.17,.13,.34,.27,.5,.44Zm.37,2.04c-.22-.63-.52-1.01-.84-1.32l.06,2.32c.03,1.02,.51,1.5,1.08,.94,.02-.02,.03-.04,.05-.05-.07-.71-.17-1.36-.35-1.88Zm1.83-5.56s-.01,.01-.02,.02c-.28,.37-.32,1.37-.3,1.77,.02,.36,.77,3.45,.6,3.66,.62-.79,1.22-1.66,1.8-2.59-.12-.61-.27-1.16-.48-1.58-.21-.42-.5-.65-.75-.98-.16-.22-.55-.68-.85-.31Zm-1.87-.49c.04,.3,.12,.57,.26,.83,.14,.27,.38,.89,.68,.75,.26-.12,.43-.99,.43-1.33,0-.53-.24-.86-.44-1.08-.15-.16-.3-.3-.45-.47-.08-.09-.28-.37-.42-.18-.22,.29-.11,1.21-.07,1.48Zm-.57-.96c.05-.05,.1-.17,.15-.37,.08-.35,.02-.96-.02-1.22-.04-.29-.16-.53-.24-.75-.13-.34-.24-.68-.34-1.05l.06,2.58c0,.24,.19,1.03,.39,.82Zm4.22-1.45c-.27,.25-.44,1.07-.47,1.48-.05,.75,.3,1.19,.53,1.62,.08,.15,.83,1.71,.71,1.92,.43-.73,.84-1.49,1.24-2.28,.2-.4-1.01-2.18-1.15-2.34-.19-.21-.37-.5-.63-.5-.09,0-.17,.04-.24,.1Zm-2.53-1.56c-.32,.15-.25,1.04-.22,1.3,.08,.76,.44,1.18,.8,1.5,.46,.4,1.09,.87,1.23-.92,.06-.84-.31-1.02-.64-1.21-.34-.2-.61-.6-.98-.68-.07-.02-.13-.01-.19,.01Zm-2.09-3.47c.05,1.23,.25,2.33,.58,3.26,.07,.2,.32,1.11,.52,1.03,.2-.08,.18-.74,.19-.98,.03-.97-.17-1.28-.47-1.78-.26-.45-.49-.93-.68-1.48-.04-.11-.08-.22-.13-.33-.01,.02-.02,.05-.03,.07,0,.07,0,.14,.01,.22Z"/>
              <path class="cls-9" d="M17.22,47.53c.15-.68,.46-1.27,.75-1.91l.1,4.25c-.14,.39-.34,1.23-.54,1.51-.45,.64-.31-.92-.32-1.3-.02-.66-.12-1.3-.06-2.03,.01-.18,.04-.35,.08-.52Zm.87,3.44c-.36,1.04-.71,2.06-1.15,2.91-.09,.56-.2,1.11-.33,1.67,.19-.08,.38-.18,.58-.28,.54-.29,.96-1.45,.94-2.45l-.04-1.84Zm-.32-5.91c.06-.12,.12-.25,.18-.37l-.12-5.28c-.07,.39-.15,.79-.21,1.18-.2,1.32-.36,2.65-.45,3.95-.02,.31-.06,1.07,.08,1.18,.15,.13,.39-.4,.52-.66Zm-4.76,8.7c-.04,.08-.07,.17-.1,.27-.15,.44-.26,.94-.4,1.4,.16,.11,.32,.2,.49,.28,.09,.04,.72-2.34,.77-2.59,.07-.32,.19-1.15-.06-.91-.13,.12-.26,.6-.36,.83-.11,.26-.23,.47-.34,.73Zm.32-2.71c-.02,.54,.02,1.11,.38,.34,.25-.55,.46-1.21,.52-1.84,.05-.48,.08-.96,.13-1.44,.03-.3,.06-1.04,.17-1.32l-1.18,3.22c0,.34,0,.68-.02,1.04Zm-.58,2.2c.15-.8,.2-1.51,.22-2.2l-.74,2.03c-.32,.87-.34,1.85-.02,2.12,0,0,.02,.01,.03,.02,.21-.65,.39-1.31,.52-1.98Zm2.39-2.39s0,0-.01,0c-.21-.04-.57,.77-.71,1.16-.12,.33-.98,3.86-1.09,3.82,.42,.15,.86,.21,1.33,.19,.18-.65,.34-1.31,.43-1.94,.1-.64,.1-1.21,.16-1.82,.04-.41,.1-1.33-.11-1.41Zm-.31-2.98c-.1,.33-.17,.69-.23,1.12-.06,.43-.22,1.31-.09,1.58,.11,.24,.47-.31,.59-.62,.19-.48,.25-1.11,.28-1.58,.02-.35,.03-.7,.06-1.05,.01-.19,.07-.74-.04-.75-.17-.02-.48,1-.56,1.3Zm.2-1.69s.09-.02,.18-.15c.15-.22,.37-.9,.46-1.21,.1-.35,.16-.75,.22-1.09,.1-.52,.2-1.04,.32-1.56l-.98,2.67c-.09,.24-.33,1.27-.2,1.34Zm1.65,4.46c-.16-.14-.52,.37-.68,.69-.29,.6-.36,1.46-.46,2.13-.03,.23-.4,2.51-.51,2.53,.37-.05,.75-.14,1.14-.28,.2-.07,.56-3.2,.59-3.54,.03-.44,.1-.96,.03-1.3-.02-.12-.06-.2-.1-.23Zm-.06-5c-.14-.31-.47,.66-.56,.96-.27,.84-.33,1.73-.36,2.51-.03,.99-.04,2.26,.67,.83,.34-.68,.31-1.38,.3-2.01-.01-.67,.07-1.43,0-2.03-.01-.12-.03-.2-.05-.25Zm.85-6.65c-.5,1.39-.89,2.84-1.17,4.28-.06,.31-.35,1.56-.26,1.77,.08,.21,.34-.47,.44-.7,.39-.93,.46-1.54,.59-2.49,.11-.86,.25-1.71,.43-2.58,.04-.18,.07-.37,.1-.56-.01,0-.03,.02-.04,.03-.03,.08-.06,.17-.09,.25Z"/>
              <path class="cls-9" d="M13.39,46.56c.28-.44,.57-.56,.88-.76l-1.46,4.01c-.17,.16-.5,.62-.64,.61-.32-.04,.22-1.21,.35-1.56,.22-.62,.41-1.33,.68-1.91,.07-.15,.13-.27,.2-.38Zm-.95,4.23c-.43,.41-.85,.83-1.22,.98-.2,.34-.39,.67-.59,.96,.07,.17,.15,.34,.23,.49,.22,.43,.69,.04,1-.82l.59-1.61Zm1.98-5.81c.06-.04,.12-.07,.18-.1l2.03-5.56c-.18,.31-.36,.62-.53,.95-.58,1.08-1.13,2.2-1.64,3.37-.12,.27-.41,.95-.41,1.26,0,.33,.25,.16,.38,.09Zm-4.17,1.6s-.07,.06-.11,.1c-.17,.2-.35,.49-.53,.7,0,.3,.02,.59,.04,.87,.01,.15,.9-1.11,.99-1.26,.12-.2,.41-.78,.27-.9-.07-.06-.26,.2-.35,.28-.11,.08-.21,.12-.31,.2Zm.94-2.04c-.18,.47-.35,1.05-.01,.82,.24-.16,.51-.51,.74-1.01,.17-.39,.34-.8,.52-1.19,.11-.24,.38-.92,.51-1.06l-1.41,1.48c-.11,.32-.22,.64-.34,.95Zm-.85,1.24c.29-.53,.53-1.11,.75-1.73l-.84,.88c-.35,.37-.66,1.22-.65,1.87,0,.02,0,.04,0,.06,.25-.3,.5-.65,.74-1.09Zm1.38,1.02s0-.01,0-.02c-.04-.31-.4-.07-.56,.1-.14,.14-1.44,2.1-1.46,1.92,.06,.66,.16,1.28,.28,1.86,.24-.31,.48-.67,.7-1.08,.22-.42,.41-.91,.61-1.37,.14-.31,.46-1.05,.43-1.4Zm.92-3.2c-.14,.19-.28,.42-.44,.75-.16,.32-.49,.93-.55,1.35-.05,.37,.22,.35,.36,.23,.21-.18,.44-.69,.61-1.09,.13-.31,.25-.62,.38-.92,.07-.17,.28-.62,.25-.78-.04-.26-.48,.3-.6,.47Zm.65-1.36c0,.06,.03,.1,.1,.1,.12,0,.42-.37,.56-.56,.15-.2,.32-.52,.46-.78,.22-.4,.45-.78,.68-1.15l-1.27,1.33c-.11,.12-.55,.79-.54,1.05Zm-1.1,6.43c0-.34-.26-.37-.4-.29-.27,.14-.56,.8-.8,1.25-.08,.15-.87,1.6-.9,1.48,.11,.43,.23,.83,.37,1.2,.07,.19,1.14-1.96,1.25-2.21,.15-.34,.34-.7,.43-1.09,.03-.14,.05-.25,.05-.34Zm1.72-4.71c.08-.5-.36-.02-.49,.14-.36,.43-.69,1.18-.96,1.88-.34,.87-.76,2-.11,1.66,.32-.16,.55-.84,.76-1.44,.23-.64,.52-1.25,.72-1.92,.04-.13,.06-.24,.08-.32Zm2.8-5.6c-.7,.76-1.38,1.71-2.01,2.79-.13,.23-.67,1.08-.73,1.4-.05,.32,.26,.02,.37-.08,.45-.37,.7-.89,1.11-1.68,.37-.73,.75-1.43,1.15-2.1,.08-.14,.17-.29,.26-.45,0-.01-.01-.02-.02-.03-.04,.05-.09,.1-.13,.14Z"/>
              <path class="cls-3" d="M17.23,37.46c.11,0,.11,.22-.05,.63l-.14,.39c.09,.12,.2,.19,.33,.21l.15-.4c.22-.6,.41-.67,.42-.14v.35c.08-.05,.16-.12,.24-.2,.09-.09,.17-.18,.25-.29v-.35c-.02-.52,.17-.84,.41-.71l.16,.08c.13-.29,.24-.59,.32-.9l-.15-.07c-.25-.12-.18-.5,.16-.85l.19-.2s0-.03,0-.05c-.75,.85-1.51,1.69-2.28,2.5Z"/>
            </g>
          </g>
        </g>
      </g>
    </g>
  </g>
</svg>