<?xml version="1.0" encoding="UTF-8"?>
<svg id="Layer_2" data-name="Layer 2" xmlns="http://www.w3.org/2000/svg" viewBox="0 0 114.78 96.31">
  <defs>
    <style>
      .cls-1 {
        fill: #f86518;
      }

      .cls-2 {
        fill: #efaa65;
      }

      .cls-3 {
        fill: #efd1af;
      }

      .cls-4 {
        fill: #f6b36f;
      }

      .cls-5 {
        fill: #663a00;
      }

      .cls-6 {
        fill: #859b1d;
      }

      .cls-7 {
        fill: #b04205;
      }

      .cls-8 {
        fill: #cbc440;
      }

      .cls-9 {
        fill: #c47e26;
      }

      .cls-10 {
        fill: #dbe070;
      }

      .cls-11 {
        fill: #e0bc99;
      }

      .cls-12 {
        fill: #140d07;
      }

      .cls-13 {
        fill: #a39d3f;
      }

      .cls-14 {
        fill: #723c01;
      }

      .cls-15 {
        fill: #868500;
      }

      .cls-16 {
        fill: #5a3500;
      }

      .cls-17 {
        fill: #2b2017;
      }

      .cls-18 {
        fill: #47372b;
      }

      .cls-19 {
        fill: #3a3938;
        opacity: .2;
      }
    </style>
  </defs>
  <g id="layer">
    <g>
      <ellipse class="cls-19" cx="57.43" cy="72.58" rx="40.53" ry="23.73"/>
      <ellipse class="cls-1" cx="57.43" cy="68.81" rx="30.87" ry="18.26"/>
      <g>
        <path class="cls-7" d="M10.16,31.79c-.19,1.64-.29,3.3-.29,4.99,0,25.18,21.46,45.6,47.94,45.6s47.94-20.41,47.94-45.6c0-1.69-.1-3.35-.29-4.99H10.16Z"/>
        <g>
          <ellipse class="cls-1" cx="57.39" cy="35.69" rx="57.39" ry="35.69"/>
          <ellipse class="cls-4" cx="57.39" cy="32.71" rx="50.13" ry="32.3"/>
          <ellipse class="cls-7" cx="57.39" cy="32.71" rx="49.47" ry="31.64"/>
          <path class="cls-16" d="M57.47,6.71c-26.55,0-48.07,13.76-48.07,30.74,0,1.3,.14,2.57,.38,3.83,5.77,13.38,24.93,23.21,47.69,23.21s41.92-9.83,47.69-23.21c.24-1.26,.38-2.53,.38-3.83,0-16.98-21.52-30.74-48.07-30.74Z"/>
          <path class="cls-5" d="M58.47,9.57c-1.51,.53-3.27,1.18-4.8,.43-1.16-.57-1.73-1.29-3.16-1.47-2.5-.31-5.09,.41-7.5,.98-3.12,.74-10.69,1.9-11.85,5.72-.31,1.02,.47,1.77-.38,2.65-.79,.82-2.25,.9-3.3,1.08-1.37,.24-2.59,.74-3.9,1.33-3.6,1.64-7.06,3.92-9.4,7.17-1.17,1.62-2.23,4.31-.23,5.77,1.77,1.29,4.03,.11,5.58-.95,1.07-.73,3.27-3.21,4.76-2.86,1.48,.35,.75,2.12,.29,3.07-.71,1.47-1.74,2.76-2.45,4.24-.76,1.58-1.43,2.96-2.9,4.02-1.11,.8-3.82,1.26-4.51,2.43-.83,1.38,1.24,3.64,1.96,4.7,1.92,2.81,4.11,5.67,7.18,7.3,2.03,1.08,6.38,2.38,7.85-.29,1.49-2.7-2.08-6.55-3.47-8.55-1-1.43-4-5.07-2.2-6.9,2.88-2.91,5.31,5.09,6.53,6.38,.99,1.05,2.46,1.62,2.85,3.1,.53,2.05-.33,4.28,.3,6.41,1.31,4.38,4.97,2.96,8.28,2.02,3-.86,5.91,.4,8.87-.32,2.81-.68,5.75-1.53,8.67-1.09,3.08,.46,4.6,3.44,7.47,4.31,4.4,1.34,9.01-2.53,12.31-4.89,3.3-2.36,5.78-3.23,9.68-3.89,3.99-.68,7.57-3.39,8.86-7.32,1.09-3.32-.46-4.49-1.85-7.07-.99-1.82,.12-4.06-.64-6.03-1.27-3.31-5.25-3.56-8.25-4.06-3.66-.61-7.43-2.21-8.86-5.97-.93-2.43,.77-3.29,2.95-3.29,1.29,0,6.3,1.46,4.16-1.53-1.74-2.42-4.85-3.15-7.68-3.04-1.81,.06-3.11,.39-4.7-.65-2.71-1.76-4.88-3.84-8.19-4.16-2.6-.25-5.15,.16-7.63,.97-.23,.07-.45,.15-.68,.23Z"/>
          <path class="cls-14" d="M57.97,11.71c-2.61-.61-4.94-1.28-7.49,.49-2.19,1.53-3.71,3.81-5.95,5.32-2.41,1.62-4.69,2.35-7.56,1.58-2.94-.78-3.51-1.11-1.94,2.04,1.6,3.2,1.77,4.77-2.17,4.99-3.22,.17-4.64,.32-5.59,3.51-.59,1.98-3.69,6.1-2.35,8.01,1.29,1.83,4.69,1.88,6.68,2.01,2.6,.17,5.15,.86,7.76,.78,2.26-.07,7.25-.93,8.99,1.02,2.24,2.51-3.74,4.37-5.32,4.83-1.16,.34-6.45,.74-6,1.92,.25,.67,2.52,1.52,3.11,1.87,1.21,.73,2.37,1.52,3.55,2.29,1.98,1.28,3.88,1.96,6.2,2.39,2.9,.53,6.68,1.17,9.03-1.07,2.48-2.36,2.72-6.23,5.83-8.15,2.31-1.43,6.4-1.29,5.79,2.3-.44,2.6-4.91,6.47-3.13,9.17,2.33,3.54,8.7-1.02,10.35-3.04,2.13-2.61,2.34-7.12,5.57-8.64,3.38-1.59,9.24-.72,11.73-3.97,2.39-3.11-3.26-5.05-5.31-6.03-2.93-1.4-2.89-2.21-2.86-5.13,.03-2.87-1.97-3.61-4.36-4.57-2.54-1.02-4.3-2.06-4.87-4.89-.56-2.78-2.63-5.88-6.1-4.83-2.33,.71-3.3,2.61-6,2.44,1.95-1.21,5.69-4.13,2.21-6.04-2.39-1.31-5.73,.19-8.35-.29-.49-.09-.97-.2-1.45-.31Z"/>
          <path class="cls-12" d="M71.52,32.01c1.37-6.11-7.84-9.2-12.26-9.68-6.55-.7-13.11,2.79-17.77,7.13,2.8,3.45,7.72,7.34,12.5,7.53,2.63,.1,16.97-2.45,17.54-4.98Z"/>
          <path class="cls-17" d="M63.46,23.56c-1.45-.58-10.55-1.26-10.67,.98-.11,2.02,3.82,1.48,4.9,1.5-.21,.03-1.63,.98-1.07,1.21,1.31,.54,2.98-.04,4.22,.76-2.81,1.46,3.64,4.45,4.85,4.61,1.3,.18,3.27,.51,4.13-.76,1.12-1.67-.48-3.3-2.08-3.56,1.39-.29,.4-1.56-.35-1.98-.89-.49-2.25-.24-3.23-.24,1.65,.21,1.51-.71,.67-1.65-.35-.38-.82-.67-1.35-.88Z"/>
          <path class="cls-18" d="M56.78,23.55c-1.5,2.11,2.45,1.92,3.5,1.5-.21,.06-.38,.14-.6,.21-.5,1.71,1.96,1.65,3.03,1.36-1.07,1.62,1.79,3.79,3.13,4.18,2.97,.86,2.72-2.57,.18-2.49,1.81-.83-.82-1.59-1.7-1.53,1.85-.12-1.48-2.11-1.45-2.09-1.32-.8-4.7-3.09-6.09-1.13Z"/>
          <path class="cls-9" d="M30.97,41.65s8.52,4.54,11.78,3.23c-1.96-3.92-2.33-3.19-2.33-3.19l-9.45-.05Z"/>
          <path class="cls-3" d="M47.48,39.88s-1.45,3.96-4.72,5c-1.96-3.92-2.33-3.19-2.33-3.19l7.06-1.81Z"/>
          <path class="cls-2" d="M47.48,39.88s-13.23,.73-16.5,1.77l9.45,.05,7.06-1.81Z"/>
          <g>
            <path class="cls-9" d="M52.9,13.57s3.17,6.68,6.01,7c2.03-3.36-.3-5.18-.3-5.18l-5.71-1.83Z"/>
            <path class="cls-3" d="M67.48,14.54s-4.25,5.47-8.57,6.03c.33-2.85-.3-5.18-.3-5.18l8.87-.86Z"/>
            <path class="cls-2" d="M67.48,14.54s-10.26-1.53-14.58-.97l5.71,1.83,8.87-.86Z"/>
          </g>
          <g>
            <path class="cls-2" d="M77.35,35.46s-2.85,6.4,0,6.73c2.03-3.36,3.09-4.96,3.09-4.96l-3.09-1.77Z"/>
            <path class="cls-9" d="M93.44,38.58s-11.77,3.05-16.09,3.61c.33-2.85,3.09-4.96,3.09-4.96l13,1.35Z"/>
            <path class="cls-3" d="M93.44,38.58s-11.77-3.68-16.09-3.12l3.09,1.77,13,1.35Z"/>
          </g>
          <g>
            <g>
              <path class="cls-15" d="M37.06,17.82s.89-1.41,3.55-2.9c1.03-.28,1.12,.18,1.22,.37-.32,1.29-.99,3.23-.99,3.23l-3.79-.7Z"/>
              <path class="cls-13" d="M38.94,16.95c-.88,0-1.62,.36-1.88,.86,.45,.66,1.47,1.12,2.67,1.12,.33,0,.64-.04,.93-.1,.17-.18,.26-.4,.26-.62,0-.7-.89-1.26-1.98-1.26Z"/>
            </g>
            <path class="cls-8" d="M39.73,18.94c.23,0,.46-.02,.67-.06,.05-.13,.07-.27,.06-.41-.06-.69-.88-1.19-1.84-1.11-.6,.05-1.1,.32-1.38,.68,.51,.54,1.43,.9,2.49,.9Z"/>
          </g>
          <g>
            <g>
              <path class="cls-15" d="M70.04,54.73s.89-1.41,3.55-2.9c1.03-.28,1.12,.18,1.22,.37-.32,1.29-.99,3.23-.99,3.23l-3.79-.7Z"/>
              <path class="cls-13" d="M71.92,53.87c-.88,0-1.62,.36-1.88,.86,.45,.66,1.47,1.12,2.67,1.12,.32,0,.64-.04,.93-.1,.17-.18,.26-.4,.26-.62,0-.7-.89-1.26-1.98-1.26Z"/>
            </g>
            <path class="cls-8" d="M72.71,55.85c.23,0,.46-.02,.67-.06,.05-.13,.07-.27,.06-.41-.06-.69-.88-1.19-1.84-1.11-.6,.05-1.1,.32-1.38,.68,.51,.54,1.43,.9,2.49,.9Z"/>
          </g>
          <g>
            <g>
              <path class="cls-15" d="M62.79,41.01s-1.4-.9-4.44-1.13c-1.05,.18-.94,.64-.96,.85,.83,1.04,2.26,2.51,2.26,2.51l3.14-2.23Z"/>
              <path class="cls-13" d="M60.72,41.02c.79-.37,1.62-.35,2.07,0-.13,.78-.86,1.64-1.95,2.14-.29,.14-.59,.24-.88,.3-.23-.1-.4-.25-.5-.46-.29-.63,.27-1.52,1.27-1.98Z"/>
            </g>
            <path class="cls-8" d="M60.84,43.15c-.21,.1-.42,.17-.63,.23-.1-.1-.18-.21-.23-.34-.24-.65,.3-1.45,1.2-1.78,.56-.21,1.13-.18,1.54,.03-.24,.7-.92,1.42-1.88,1.86Z"/>
          </g>
          <g>
            <g>
              <path class="cls-15" d="M86.86,22.5s-.24-1.44-2.39-3.42c-.99-.51-1.34-.13-1.55,0-.34,1.19-.62,3.04-.62,3.04l4.56,.38Z"/>
              <path class="cls-13" d="M85.24,21.27c.97,.23,1.6,.73,1.62,1.23-.84,.45-2.22,.58-3.55,.27-.36-.08-.68-.2-.97-.33-.08-.2-.08-.41,.04-.61,.37-.6,1.65-.86,2.86-.57Z"/>
            </g>
            <path class="cls-8" d="M83.31,22.77c-.26-.06-.49-.14-.71-.22,.02-.13,.06-.25,.15-.37,.43-.58,1.61-.8,2.62-.48,.63,.2,1.05,.56,1.17,.94-.85,.33-2.06,.4-3.23,.12Z"/>
          </g>
          <g>
            <g>
              <path class="cls-15" d="M28.91,49.6s-.24-1.44-2.39-3.42c-.99-.51-1.34-.13-1.55,0-.34,1.19-.62,3.04-.62,3.04l4.56,.38Z"/>
              <path class="cls-13" d="M27.29,48.37c.97,.23,1.6,.73,1.62,1.23-.84,.45-2.22,.58-3.55,.27-.36-.08-.68-.2-.97-.33-.08-.2-.08-.41,.04-.61,.37-.6,1.65-.86,2.86-.57Z"/>
            </g>
            <path class="cls-8" d="M25.36,49.87c-.26-.06-.49-.14-.71-.22,.02-.13,.06-.25,.15-.37,.43-.58,1.61-.8,2.62-.48,.63,.2,1.05,.56,1.17,.94-.85,.33-2.06,.4-3.23,.12Z"/>
          </g>
          <g>
            <g>
              <path class="cls-15" d="M17.21,29.88s.6-1.14,3.57-1.47c1.2-.18,1.4,.19,1.4,.31-1.11,.84-1.58,1.25-1.58,1.25l-3.39-.09Z"/>
              <path class="cls-13" d="M19.64,28.8c-.88,0-1.94,.38-2.43,1.09,.04,.43,.82,.37,2.02,.37,.33,0,.66-.02,.99-.06,.28-.12,.5-.26,.64-.41,.43-.45-.12-.98-1.22-.98Z"/>
            </g>
            <path class="cls-8" d="M19.23,30.25c.23,0,.47-.02,.71-.04,.13-.09,.24-.17,.31-.27,.37-.45-.15-.78-1.16-.72-.63,.03-1.51,.02-1.83,.81,.18,.35,.91,.22,1.97,.22Z"/>
          </g>
          <g>
            <g>
              <path class="cls-15" d="M91.18,45.14s.6-1.14,3.57-1.47c1.2-.18,1.4,.19,1.4,.31-1.11,.84-1.58,1.25-1.58,1.25l-3.39-.09Z"/>
              <path class="cls-13" d="M93.61,44.05c-.88,0-1.94,.38-2.43,1.09,.04,.43,.82,.37,2.02,.37,.33,0,.66-.02,.99-.06,.28-.12,.5-.26,.64-.41,.43-.45-.12-.98-1.22-.98Z"/>
            </g>
            <path class="cls-8" d="M93.2,45.51c.23,0,.47-.02,.71-.04,.13-.09,.24-.17,.31-.27,.37-.45-.15-.78-1.16-.72-.63,.03-1.51,.02-1.83,.81,.18,.35,.91,.22,1.97,.22Z"/>
          </g>
          <g>
            <path class="cls-12" d="M56.75,51.94c.71-3.15-4.04-4.74-6.32-4.99-3.38-.36-4.68-.2-7.09,2.03,1.44,1.78,6.32,5.86,8.78,5.95,1.36,.05,4.33-1.7,4.62-3Z"/>
            <path class="cls-17" d="M52.6,47.58c-.75-.3-5.44-.65-5.5,.51-.05,1.04,1.97,.76,2.52,.78-.11,.02-.84,.5-.55,.62,.68,.28,1.54-.02,2.18,.39-1.45,.75,1.88,2.29,2.5,2.38,.67,.09,1.69,.26,2.13-.39,.58-.86-.25-1.7-1.07-1.84,.72-.15,.21-.81-.18-1.02-.46-.25-1.16-.12-1.67-.12,.85,.11,.78-.36,.34-.85-.18-.2-.42-.34-.7-.45Z"/>
            <path class="cls-18" d="M49.15,47.57c-.77,1.09,1.26,.99,1.81,.77-.11,.03-.2,.07-.31,.11-.26,.88,1.01,.85,1.56,.7-.55,.84,.92,1.95,1.61,2.15,1.53,.45,1.4-1.33,.09-1.29,.93-.43-.42-.82-.88-.79,.96-.06-.77-1.09-.75-1.08-.68-.41-2.42-1.6-3.14-.58Z"/>
          </g>
          <g>
            <path class="cls-12" d="M35.13,22.93c.68-3.34-3.91-3.63-6.12-3.24-3.27,.57-4.53,1.09-6.86,3.99,1.4,1.38,6.12,4.11,8.5,3.53,1.31-.32,4.19-2.89,4.47-4.28Z"/>
            <path class="cls-17" d="M31.11,19.72c-.72-.09-5.26,.85-5.32,2.02-.05,1.06,1.91,.22,2.44,.08-.11,.05-.81,.74-.54,.78,.65,.09,1.49-.44,2.11-.21-1.4,1.15,1.82,1.78,2.42,1.69,.65-.09,1.63-.2,2.06-.98,.56-1.02-.24-1.63-1.04-1.54,.69-.35,.2-.86-.18-.97-.44-.12-1.12,.2-1.61,.34,.82-.13,.76-.58,.33-.94-.17-.15-.41-.23-.67-.26Z"/>
            <path class="cls-18" d="M27.77,20.67c-.75,1.3,1.22,.64,1.75,.27-.1,.06-.19,.13-.3,.19-.25,.95,.98,.57,1.51,.27-.54,.99,.89,1.7,1.56,1.71,1.48,.02,1.35-1.71,.09-1.31,.9-.68-.41-.7-.85-.55,.92-.32-.74-.88-.72-.87-.66-.22-2.34-.93-3.04,.28Z"/>
          </g>
          <g>
            <path class="cls-6" d="M31.44,32.86l1.14-1.05s1.93-1.56,2.35,.16c.25,1.01,1.65,.89,1.72,1.56,.07,.67-.97,2.27-.97,2.27l-4.24-2.93Z"/>
            <path class="cls-10" d="M32.64,32.29c-1.52,.07-1.91,1.75-1.07,2.21,2.74,1.07,4.11,1.3,4.11,1.3,0,0,0-.76-1.6-1.68-.62-.35-.36-1.88-1.45-1.83Z"/>
          </g>
          <g>
            <path class="cls-6" d="M41.85,52.57l-1.07-1.11s-1.81-1.65-2.36,.17c-.32,1.07-1.72,.94-1.84,1.65-.12,.71,.81,2.39,.81,2.39l4.46-3.1Z"/>
            <path class="cls-10" d="M40.7,51.97c1.52,.08,1.78,1.85,.9,2.33-2.82,1.13-4.21,1.37-4.21,1.37,0,0,.06-.8,1.72-1.77,.65-.37,.5-1.99,1.58-1.93Z"/>
          </g>
          <g>
            <path class="cls-6" d="M75.69,21.27l-.56-1.43s-1.04-2.22-2.25-.75c-.71,.86-1.95,.21-2.33,.81-.38,.61-.18,2.52-.18,2.52l5.31-1.15Z"/>
            <path class="cls-10" d="M74.85,20.27c1.37,.66,.93,2.39-.06,2.5-3.04-.04-4.41-.35-4.41-.35,0,0,.36-.72,2.27-.97,.74-.1,1.22-1.64,2.2-1.17Z"/>
          </g>
          <g>
            <path class="cls-6" d="M92.62,32.98l-.2-1.11s-.45-1.73-1.81-.6c-.8,.67-1.74,.15-2.2,.62-.46,.47-.67,1.95-.67,1.95l4.87-.86Z"/>
            <path class="cls-10" d="M92.09,32.2c1.06,.52,.32,1.86-.56,1.94-2.64-.05-3.78-.3-3.78-.3,0,0,.46-.56,2.18-.74,.67-.07,1.4-1.27,2.16-.9Z"/>
          </g>
          <g>
            <path class="cls-6" d="M52.11,18.97l-.2-1.11s-.45-1.73-1.81-.6c-.8,.67-1.74,.15-2.2,.62s-.67,1.95-.67,1.95l4.87-.86Z"/>
            <path class="cls-10" d="M51.59,18.19c1.06,.52,.32,1.86-.56,1.94-2.64-.05-3.78-.3-3.78-.3,0,0,.46-.56,2.18-.74,.67-.07,1.4-1.27,2.16-.9Z"/>
          </g>
          <g>
            <path class="cls-6" d="M12.95,37.57l.32-1.29s.68-1.98,2.17-.55c.88,.85,2.03,.32,2.52,.91,.5,.59,.62,2.34,.62,2.34l-5.63-1.42Z"/>
            <path class="cls-10" d="M13.63,36.7c-1.29,.51-.53,2.15,.5,2.32,3.1,.16,4.45-.03,4.45-.03,0,0-.49-.69-2.49-1.05-.77-.14-1.54-1.6-2.46-1.23Z"/>
          </g>
          <g>
            <path class="cls-6" d="M65.54,46.56l.19-1.08s.44-1.68,1.76-.58c.78,.65,1.69,.14,2.14,.6s.65,1.9,.65,1.9l-4.74-.84Z"/>
            <path class="cls-10" d="M66.05,45.8c-1.04,.5-.31,1.81,.55,1.89,2.57-.05,3.68-.29,3.68-.29,0,0-.45-.54-2.12-.72-.65-.07-1.37-1.23-2.1-.87Z"/>
          </g>
          <g>
            <path class="cls-2" d="M63.26,59.73c.03,.77-1.53,1.44-3.48,1.51-1.95,.07-3.04-.72-3.58-1.27-.17-.18-.56-.79-.54-.86,.23-.68,2.25-.59,4.02-.65,1.81-.06,2.74-.64,2.97,.04,.02,.05,.61,1.17,.61,1.22Z"/>
            <path class="cls-3" d="M62.69,58.7c.03,.77-1.53,1.44-3.48,1.51-1.95,.07-3.55-.5-3.58-1.27-.03-.77,1.53-1.44,3.48-1.51,1.95-.07,3.55,.5,3.58,1.27Z"/>
            <path class="cls-11" d="M62.06,58.44c.02,.53-1.24,1.01-2.81,1.07-1.57,.05-2.86-.33-2.88-.87-.02-.53,1.24-1.01,2.81-1.07,1.57-.05,2.86,.33,2.88,.87Z"/>
            <path class="cls-3" d="M60.88,58.22c.01,.32-.74,.6-1.67,.63s-1.7-.2-1.71-.52c-.01-.32,.74-.6,1.67-.63,.93-.03,1.7,.2,1.71,.52Z"/>
          </g>
          <g>
            <path class="cls-2" d="M83.31,28.6c.03,.77-1.53,1.44-3.48,1.51-1.95,.07-3.04-.72-3.58-1.27-.17-.18-.56-.79-.54-.86,.23-.68,2.25-.59,4.02-.65,1.81-.06,2.74-.64,2.97,.04,.02,.05,.61,1.17,.61,1.22Z"/>
            <path class="cls-3" d="M82.74,27.56c.03,.77-1.53,1.44-3.48,1.51-1.95,.07-3.55-.5-3.58-1.27-.03-.77,1.53-1.44,3.48-1.51,1.95-.07,3.55,.5,3.58,1.27Z"/>
            <path class="cls-11" d="M82.1,27.3c.02,.53-1.24,1.01-2.81,1.07-1.57,.05-2.86-.33-2.88-.87-.02-.53,1.24-1.01,2.81-1.07,1.57-.05,2.86,.33,2.88,.87Z"/>
            <path class="cls-3" d="M80.93,27.08c.01,.32-.74,.6-1.67,.63-.93,.03-1.7-.2-1.71-.52-.01-.32,.74-.6,1.67-.63,.93-.03,1.7,.2,1.71,.52Z"/>
          </g>
          <g>
            <path class="cls-2" d="M45.12,22.46c.03,.77-1.53,1.44-3.48,1.51-1.95,.07-3.04-.72-3.58-1.27-.17-.18-.56-.79-.54-.86,.23-.68,2.25-.59,4.02-.65,1.81-.06,2.74-.64,2.97,.04,.02,.05,.61,1.17,.61,1.22Z"/>
            <path class="cls-3" d="M44.55,21.43c.03,.77-1.53,1.44-3.48,1.51-1.95,.07-3.55-.5-3.58-1.27-.03-.77,1.53-1.44,3.48-1.51,1.95-.07,3.55,.5,3.58,1.27Z"/>
            <path class="cls-11" d="M43.91,21.17c.02,.53-1.24,1.01-2.81,1.07-1.57,.05-2.86-.33-2.88-.87-.02-.53,1.24-1.01,2.81-1.07,1.57-.05,2.86,.33,2.88,.87Z"/>
            <path class="cls-3" d="M42.74,20.95c.01,.32-.74,.6-1.67,.63-.93,.03-1.7-.2-1.71-.52-.01-.32,.74-.6,1.67-.63,.93-.03,1.7,.2,1.71,.52Z"/>
          </g>
        </g>
      </g>
    </g>
  </g>
</svg>