<?xml version="1.0" encoding="UTF-8"?>
<svg xmlns="http://www.w3.org/2000/svg" viewBox="0 0 98 71.95">
  <defs>
    <style>
      .cls-1 {
        fill: #030800;
      }

      .cls-2 {
        fill: #ece2ac;
      }

      .cls-3 {
        fill: #e61300;
      }

      .cls-4, .cls-5 {
        fill: #fff;
      }

      .cls-6 {
        fill: #f4493a;
      }

      .cls-7 {
        fill: #fcfbe6;
      }

      .cls-8 {
        fill: #ff685a;
      }

      .cls-9 {
        fill: #9cbf1d;
      }

      .cls-10 {
        fill: #113000;
      }

      .cls-11 {
        fill: #556810;
      }

      .cls-12 {
        fill: #b8b5aa;
        mix-blend-mode: multiply;
      }

      .cls-5 {
        mix-blend-mode: color-dodge;
        opacity: .3;
      }

      .cls-13 {
        isolation: isolate;
      }
    </style>
  </defs>
  <g class="cls-13">
    <g id="Layer_2" data-name="Layer 2">
      <g id="_图层_5" data-name="图层 5">
        <g id="_图层_1_005" data-name="图层 1,005">
          <path class="cls-12" d="M10.08,70.27c-1.02-7.17-13.54-44.97,7.11-58.19C37.83-1.13,91.65,4.64,94.36,4.62c2.71-.02,4.71,.94,3.02,3.86-1.69,2.93-27.74,43.25-36.72,52.76-15.56,16.47-50.58,9.03-50.58,9.03Z"/>
        </g>
        <g id="_图层_1_004" data-name="图层 1,004">
          <path class="cls-1" d="M4.83,68.19c-1.05-6.98-13.96-46.85,7.33-59.72C33.45-4.39,88.93,1.22,91.73,1.21c2.79-.02,5.93,.91,4.19,3.76-1.75,2.85-35.07,42.12-44.34,51.38-16.04,16.03-46.75,11.85-46.75,11.85Z"/>
        </g>
        <g id="_图层_1_003" data-name="图层 1,003">
          <path class="cls-2" d="M60.61,6.87c-.22-.02-.44,.02-.65,.09-.53-.78-1.72-1.34-3.12-1.36-.65,0-1.25,.11-1.77,.3-.32-.5-.77-.97-1.33-1.37-1.44-1.01-3.11-1.15-3.94-.4-.59-1.19-1.57-1.91-2.49-1.7-1.07,.24-1.68,1.67-1.47,3.29-.07,.01-.14,.03-.21,.05-.11-.12-.21-.24-.33-.36-1.46-1.39-3.38-1.75-4.28-.8-.18,.18-.29,.42-.36,.66-1.02-.1-2.3,.55-3.25,1.75-.47,.58-.78,1.21-.95,1.82-.2-.06-.41-.11-.62-.14-1.9-.31-3.61,.43-3.81,1.66-.02,.11-.01,.22,0,.34-1,.22-1.9,1.42-2.14,2.99-.07,.48-.07,.95-.02,1.38-.07-.04-.13-.08-.21-.11-1.84-.87-3.79-.6-4.35,.59-.14,.29-.18,.61-.13,.95-1.07,.29-1.98,1.63-2.16,3.34-.08,.72,0,1.4,.17,1.99-1.87-.13-3.45,.7-3.57,1.92-.09,.86,.59,1.67,1.64,2.17-.11-.01-.21-.03-.32-.03-1.9-.06-3.48,.89-3.51,2.12-.01,.35,.12,.69,.33,.99-.77,.53-1.33,1.69-1.37,3.07-.02,.74,.12,1.43,.36,2-1.71,.06-3.08,.91-3.16,2.06-.08,1.12,1.08,2.15,2.7,2.49,0,.02,0,.03,0,.04-1.9,.3-3.29,1.49-3.15,2.75,.11,.99,1.14,1.73,2.51,1.93-1.84,.53-3.07,1.87-2.78,3.09,.29,1.2,1.92,1.83,3.75,1.53-.1,.11-.2,.21-.28,.33-1.18,1.56-1.32,3.45-.31,4.22,.4,.3,.92,.38,1.47,.27-.37,.47-.55,.98-.46,1.5,.23,1.24,1.95,1.95,3.85,1.63,.24,.79,.82,1.61,1.68,2.25,1.07,.8,2.29,1.1,3.2,.91,.06,.93,.44,1.68,1.12,1.98,.92,.4,2.09-.16,2.94-1.29,0,.65,.22,1.22,.66,1.56,1.03,.79,2.85,.15,4.08-1.44,.08-.1,.14-.21,.21-.31,.2,.41,.49,.73,.87,.89,1.21,.52,2.85-.58,3.65-2.46,0-.01,.01-.03,.02-.04,.23,.55,.59,.95,1.09,1.11,1.21,.39,2.68-.81,3.28-2.68,.1-.3,.15-.59,.2-.88,.72,.96,1.69,1.47,2.54,1.2,1.03-.34,1.53-1.71,1.3-3.26,1.03,.08,2.28-.79,3.01-2.21,.33-.64,.51-1.3,.55-1.9,.14,.04,.27,.08,.42,.11,1.99,.37,3.8-.37,4.04-1.66,.1-.55-.11-1.11-.54-1.61,.17,0,.35,0,.52-.01,1.85-.17,3.26-1.29,3.14-2.48-.03-.3-.15-.57-.34-.82,.58,.09,1.11,0,1.49-.34,.72-.64,.69-1.89,.03-3.09,.18,.04,.37,.05,.56,.02,1.25-.2,2.01-1.93,1.69-3.86-.07-.46-.21-.89-.38-1.27,1.77,.48,3.45,.02,3.86-1.13,.29-.81-.13-1.77-.99-2.52,.45,.01,.86-.1,1.17-.37,.94-.81,.69-2.64-.55-4.1,0,0,0,0,0,0,.39-.02,.74-.14,1.02-.38,.98-.84,.72-2.75-.58-4.27,0,0-.01-.01-.02-.02,.3-.04,.58-.14,.81-.33,.97-.79,.78-2.64-.44-4.15-.5-.62-1.09-1.07-1.69-1.35,1.11-1.05,1.53-2.41,.93-3.27-.56-.8-1.84-.9-3.12-.35-.01-.02-.03-.04-.04-.06,.15-.41,.26-.86,.31-1.34,.21-1.98-.67-3.69-1.95-3.82Z"/>
        </g>
        <g id="_图层_1_002" data-name="图层 1,002">
          <path class="cls-7" d="M45.86,13.63s-.02,.03-.04,.05c-.09-.12-.17-.25-.27-.37-1.23-1.43-2.98-1.95-3.91-1.16-.47,.4-.64,1.06-.53,1.8-1.13-1.19-2.62-1.62-3.47-.93-.39,.32-.57,.82-.57,1.4-.79-.12-1.79,.15-2.7,.78-.46,.33-.83,.71-1.12,1.11-.25-.22-.54-.36-.86-.39-1.21-.13-2.35,1.29-2.54,3.16-.04,.41-.03,.8,.02,1.17-.33-.07-.66-.12-1.02-.13-1.8-.03-3.28,.9-3.3,2.07,0,.02,0,.04,0,.06-.05-.01-.1-.03-.15-.04-.42-.04-.84,.11-1.21,.39-.56,.05-1.04,.26-1.32,.67-.36,.51-.34,1.2-.02,1.9-.02,.09-.04,.17-.05,.27-.07,.68,0,1.32,.16,1.88-1.76-.13-3.26,.67-3.37,1.82-.08,.81,.56,1.58,1.55,2.05-.1,0-.2-.03-.31-.03-1.8-.06-3.29,.85-3.32,2.01-.01,.4,.16,.78,.45,1.11-.67,.53-1.14,1.58-1.17,2.81-.02,.89,.19,1.7,.54,2.29-1.22,.25-2.11,.96-2.18,1.85-.08,1.09,1.08,2.07,2.67,2.37-1.85,.25-3.23,1.4-3.09,2.62,.14,1.21,1.72,2.01,3.57,1.86-.91,.62-1.41,1.47-1.22,2.28,.29,1.21,2.04,1.83,3.91,1.38,.1-.02,.18-.06,.28-.09-1,1.44-1.1,3.11-.18,3.81,.73,.55,1.89,.32,2.89-.48,.36,1.07,1.94,1.66,3.67,1.34,.68-.13,1.29-.38,1.77-.71,.2,.21,.41,.41,.65,.59,1.51,1.12,3.32,1.24,4.05,.27,.05-.06,.07-.13,.1-.2,1.08,.43,2.49-.49,3.26-2.09,.99,.62,2.62,.01,3.73-1.43,.24-.31,.42-.63,.58-.96,1.07,.08,2.31-.9,2.97-2.44,.09-.2,.15-.4,.21-.6,1.12,.28,2.45-.83,3.01-2.55,.11-.35,.18-.7,.21-1.03,.5,.33,1.04,.46,1.54,.3,1.15-.37,1.62-2.12,1.04-3.9-.02-.06-.05-.12-.07-.18,.75-.28,1.51-.99,2.01-1.96,.44-.86,.59-1.75,.49-2.48,1.61,.1,2.96-.57,3.17-1.65,.2-1.08-.83-2.2-2.37-2.69,.09,0,.18,0,.28,0,1.75-.17,3.08-1.22,2.97-2.35-.06-.59-.49-1.08-1.13-1.39,.16-.06,.31-.14,.44-.25,.86-.76,.6-2.45-.57-3.77-.15-.18-.32-.33-.49-.48,.35-.68,.49-1.6,.33-2.58-.16-.96-.56-1.77-1.08-2.3,.32-1.16-.79-2.57-2.55-3.2-.63-.22-1.25-.31-1.82-.3-.18-.41-.43-.83-.76-1.22-1.18-1.38-2.86-1.88-3.75-1.11Z"/>
        </g>
        <g id="_图层_1_001" data-name="图层 1,001">
          <path class="cls-9" d="M35.22,47.02c12.58-12.01,21.77-22.8,20.52-24.11-1.25-1.31-12.46,7.36-25.04,19.37-12.58,12-21.77,22.8-20.52,24.11,1.25,1.31,12.46-7.36,25.05-19.37Z"/>
        </g>
        <g id="_图层_1_000" data-name="图层 1,000">
          <path class="cls-11" d="M35.09,46.89c12.58-12,21.77-22.8,20.52-24.11-1.25-1.31-9.54,10.42-22.13,22.43-12.58,12-24.69,19.74-23.44,21.05,1.25,1.31,12.46-7.36,25.05-19.37Z"/>
        </g>
        <g id="_图层_999" data-name="图层 999">
          <path class="cls-4" d="M15.94,60.21c.91-.95,1.46-1.91,1.21-2.15-.24-.23-1.19,.34-2.1,1.29-.92,.95-1.46,1.91-1.21,2.14,.25,.24,1.18-.34,2.1-1.29Z"/>
        </g>
        <g id="_图层_998" data-name="图层 998">
          <path class="cls-4" d="M12.19,64.15c.61-.63,.97-1.26,.8-1.42-.16-.16-.78,.23-1.39,.86-.6,.63-.97,1.26-.8,1.42,.16,.16,.79-.23,1.39-.86Z"/>
        </g>
        <g id="_图层_997" data-name="图层 997">
          <path class="cls-4" d="M18.49,56.24c.42-.43,.67-.87,.56-.98-.11-.11-.54,.16-.96,.59-.42,.43-.67,.87-.55,.98,.11,.11,.54-.16,.96-.59Z"/>
        </g>
        <g id="_图层_996" data-name="图层 996">
          <path class="cls-9" d="M34.73,42.91c14.08-10.21,24.63-19.68,23.57-21.14-1.06-1.47-13.34,5.62-27.41,15.84-14.08,10.21-24.63,19.67-23.56,21.14,1.06,1.47,13.34-5.62,27.41-15.83Z"/>
        </g>
        <g id="_图层_995" data-name="图层 995">
          <path class="cls-11" d="M34.62,42.76c14.08-10.21,24.63-19.68,23.56-21.14-1.06-1.47-10.85,9.05-24.93,19.26-14.08,10.21-27.11,16.25-26.05,17.72,1.06,1.46,13.34-5.62,27.41-15.84Z"/>
        </g>
        <g id="_图层_994" data-name="图层 994">
          <path class="cls-4" d="M13.86,53.4c1.04-.82,1.7-1.7,1.49-1.96-.21-.27-1.22,.18-2.25,1-1.04,.82-1.7,1.7-1.49,1.96,.21,.27,1.22-.18,2.25-1Z"/>
        </g>
        <g id="_图层_993" data-name="图层 993">
          <path class="cls-4" d="M9.62,56.8c.69-.54,1.13-1.12,.99-1.3-.14-.18-.81,.12-1.49,.66-.68,.55-1.13,1.13-.99,1.3,.14,.18,.81-.12,1.49-.66Z"/>
        </g>
        <g id="_图层_992" data-name="图层 992">
          <path class="cls-4" d="M16.92,49.8c.47-.38,.78-.78,.68-.9-.1-.12-.56,.08-1.03,.46-.47,.37-.78,.78-.68,.9,.1,.12,.56-.08,1.03-.46Z"/>
        </g>
        <g id="_图层_991" data-name="图层 991">
          <path class="cls-9" d="M38.1,34.72c15.1-8.62,26.62-16.88,25.72-18.45-.9-1.57-13.87,4.14-28.97,12.76-15.1,8.62-26.62,16.88-25.73,18.45,.9,1.57,13.87-4.14,28.98-12.76Z"/>
        </g>
        <g id="_图层_990" data-name="图层 990">
          <path class="cls-11" d="M38.01,34.56c15.1-8.62,26.62-16.88,25.72-18.45-.89-1.57-11.77,7.81-26.88,16.43-15.1,8.62-28.72,13.21-27.82,14.78,.9,1.57,13.87-4.14,28.98-12.76Z"/>
        </g>
        <g id="_图层_989" data-name="图层 989">
          <path class="cls-4" d="M16.21,42.88c1.12-.7,1.88-1.5,1.7-1.79-.18-.29-1.23,.05-2.35,.75-1.12,.7-1.88,1.5-1.7,1.79,.18,.29,1.23-.05,2.35-.75Z"/>
        </g>
        <g id="_图层_988" data-name="图层 988">
          <path class="cls-4" d="M11.63,45.8c.74-.47,1.24-1,1.12-1.19-.12-.19-.82,.03-1.56,.49-.74,.46-1.24,1-1.13,1.19,.12,.19,.82-.03,1.56-.5Z"/>
        </g>
        <g id="_图层_987" data-name="图层 987">
          <path class="cls-4" d="M19.64,39.64c.51-.32,.86-.69,.78-.82-.08-.13-.56,.02-1.07,.34-.51,.32-.86,.69-.78,.82,.08,.13,.56-.02,1.07-.34Z"/>
        </g>
        <g id="_图层_986" data-name="图层 986">
          <path class="cls-3" d="M77.42,20.85C73.71,15.9,59.9,.52,45.06,2.07,30.21,3.62,5.96,12.58,2.89,36.62c-2.2,17.17,3.4,8.97,13.91,3.71,10.51-5.26,34.94-17.01,50.72-16.08,15.77,.93,9.9-3.4,9.9-3.4Z"/>
        </g>
        <g id="_图层_985" data-name="图层 985">
          <path class="cls-6" d="M4.43,45.11c1.09,0,3.12-1.28,5.48-2.77,1.89-1.19,4.03-2.55,6.48-3.77,21.54-10.77,38.13-16.23,49.31-16.23,.64,0,1.26,.02,1.87,.05,1.45,.08,2.78,.13,3.94,.13,5.51,0,6.04-.98,6.05-.99,.01-.16-.36-.62-.69-.87l-.11-.08-.08-.11c-.57-.75-14.06-18.51-29.51-18.51-.67,0-1.35,.03-2.01,.1C41.31,2.46,7.51,6.81,3.81,35.81c-.66,5.19-.62,8.25,.14,9.11,.1,.12,.23,.2,.49,.2Z"/>
        </g>
        <g id="_图层_984" data-name="图层 984">
          <path class="cls-8" d="M45.06,2.07c14.84-1.55,28.65,13.83,32.36,18.78,0,0,.17,.12,.37,.32-1.49-.06-3.42-.27-5.93-.71-14.9-2.64-37.63,2.86-48.26,7.54-10.63,4.67-19.21,4.8-16.85-3.52C14.86,9.44,33.04,3.32,45.06,2.07Z"/>
        </g>
        <g id="_图层_983" data-name="图层 983">
          <path class="cls-4" d="M49.63,4.94c-1.33-1.03-2.7-1.99-4.09-2.91,.5-.04,1.01-.06,1.51-.06,8.31,5.75,15.33,13.46,20.26,22.27-.28-.01-.56-.02-.84-.03-4.3-7.47-10.08-14.06-16.83-19.27Z"/>
        </g>
        <g id="_图层_982" data-name="图层 982">
          <path class="cls-4" d="M51.67,26.26c-1.88-2.66-3.99-5.19-6.29-7.56-1.74-1.81-3.58-3.49-5.51-5.04-3.74-2.78-7.75-5.2-11.94-7.17,.77-.32,1.54-.62,2.31-.91,1.67,.83,3.3,1.79,4.89,2.87,2.13,1.28,4.16,2.69,6.07,4.24,1.91,1.55,3.71,3.22,5.37,5.02,2.26,2.39,4.31,4.97,6.11,7.72,.12,.18,.22,.36,.33,.54-.44,.11-.89,.22-1.33,.34,0-.01-.02-.02-.03-.04Z"/>
        </g>
        <g id="_图层_981" data-name="图层 981">
          <path class="cls-4" d="M58.06,24.91c-3.15-4.67-6.88-9.06-11.08-12.94-2.25-2.08-4.62-4-7.12-5.73-1.33-.86-2.7-1.66-4.08-2.42,1-.27,1.99-.51,2.97-.72,.65,.39,1.3,.78,1.93,1.19,2.57,1.73,5.01,3.67,7.3,5.79,4.57,4.23,8.53,9.17,11.68,14.58-.53,.07-1.06,.16-1.59,.25Z"/>
        </g>
        <g id="_图层_980" data-name="图层 980">
          <path class="cls-4" d="M58.36,4.73c2.76,1.32,5.36,3,7.71,4.79,3.92,4.43,7.3,9.34,10.06,14.51-.46,.09-.99,.17-1.62,.23-.13-.22-.25-.45-.37-.67-4.3-6.61-9.61-13.25-15.77-18.86Z"/>
        </g>
        <g id="_图层_979" data-name="图层 979">
          <path class="cls-4" d="M4.04,31.1c3.36,.7,6.66,1.86,9.81,3.75,2.06,1.29,3.97,2.65,5.69,4.12-.23,.11-.46,.22-.67,.33-4.27-3.23-9.59-4.95-15.41-5.92,.17-.78,.36-1.54,.58-2.28Z"/>
        </g>
        <g id="_图层_978" data-name="图层 978">
          <path class="cls-4" d="M4.83,28.7c.48-1.29,1.03-2.52,1.64-3.7,7.77,1.77,14.75,5.11,19.95,10.71-.28,.13-.57,.26-.85,.39-5.5-4.55-12.81-6.53-20.75-7.4Z"/>
        </g>
        <g id="_图层_977" data-name="图层 977">
          <path class="cls-4" d="M2.61,39.09c.03-.34,.06-.68,.1-1.05,3.61,1.07,7.06,2.54,10.07,4.54-.24,.15-.48,.29-.71,.44-2.88-1.81-6.06-3.05-9.46-3.93Z"/>
        </g>
        <g id="_图层_976" data-name="图层 976">
          <path class="cls-4" d="M39.88,21.71c-5.59-5.19-12.22-9-19.34-11.42,1.02-.63,2.05-1.22,3.1-1.77,7.75,2.66,14.77,7.21,20.17,14.11,1.26,1.55,2.38,3.21,3.37,4.96-.48,.15-.96,.3-1.44,.46-1.81-2.31-3.77-4.42-5.86-6.33Z"/>
        </g>
        <g id="_图层_975" data-name="图层 975">
          <path class="cls-4" d="M8.95,20.94c.49-.69,1.01-1.36,1.54-2,9.35,1.61,17.77,5.46,23.82,13.34-.6,.25-1.19,.49-1.78,.74-6.51-6.63-14.68-10.29-23.58-12.08Z"/>
        </g>
        <g id="_图层_974" data-name="图层 974">
          <path class="cls-4" d="M14.07,15.17c.5-.46,1.01-.91,1.54-1.34,9.7,2.66,18.41,7.86,24.44,16.19-.33,.12-.65,.24-.97,.37-6.38-7.68-15.24-12.65-25.01-15.22Z"/>
        </g>
        <g id="_图层_973" data-name="图层 973">
          <path class="cls-4" d="M5.74,33.53c-1.24-1.01,1.14-5.97,5.31-11.09,4.17-5.12,8.55-8.45,9.79-7.44,1.24,1.01-3.38,4.15-7.55,9.27-4.17,5.12-6.31,10.27-7.55,9.27Z"/>
        </g>
        <g id="_图层_972" data-name="图层 972">
          <path class="cls-1" d="M91.73,1.21c-2.79,.02-58.28-5.6-79.57,7.27-4.84,2.93-7.9,7.25-9.74,12.27,3.84-6.03,8.07-10.51,12.13-11.93,14.2-4.96,30.25,4.02,35.86,20.06,4.62,13.23,.69,27.12-8.8,34.37,3.63-1.73,7.05-3.97,9.97-6.9C60.84,47.09,94.17,7.82,95.91,4.97c1.75-2.85-1.39-3.78-4.19-3.76Z"/>
        </g>
        <g id="_图层_971" data-name="图层 971">
          <path class="cls-10" d="M45.71,18.19c4.16-2.33,8.62-4.17,13.37-5.52,5.79-1.64,11.63-3.26,17.59-4.17,4.9-.74,9.79-1.54,14.73-1.98,.75-.07,1.54-.21,2.36-.41,.65-.83,1.09-1.41,1.26-1.69,.23-.37,.46-.88,.29-1.19-.27-.48-1.56-.97-3.59-.97h0c-.35,0-1.24-.06-2.71-.16-4.84-.34-14.92-1.04-26.68-1.04-19.48,0-34.62,1.99-44.35,5.78,1.52-.28,3.07-.42,4.64-.42,8.92,0,17.32,4.48,23.11,11.79Z"/>
        </g>
        <g id="_图层_970" data-name="图层 970">
          <path class="cls-5" d="M29.78,4.73c-.14-1.8,12.53-1.86,18.18-2.29,5.65-.43,12.74-1.14,12.88,.66,.14,1.79-7.15-.71-13.13,.43-9.55,1.81-17.79,3-17.93,1.2Z"/>
        </g>
      </g>
    </g>
  </g>
</svg>