<?xml version="1.0" encoding="UTF-8"?>
<svg xmlns="http://www.w3.org/2000/svg" viewBox="0 0 98 74.74">
  <defs>
    <style>
      .cls-1 {
        fill: #030800;
      }

      .cls-2 {
        fill: #ece2ac;
      }

      .cls-3 {
        fill: #fff;
      }

      .cls-4 {
        fill: #fe9;
      }

      .cls-5 {
        fill: #fdd459;
      }

      .cls-6 {
        fill: #fcfbe6;
      }

      .cls-7 {
        fill: #fdbb42;
      }

      .cls-8, .cls-9 {
        fill: #fde471;
      }

      .cls-10 {
        fill: #113000;
      }

      .cls-11 {
        fill: #b8b5aa;
      }

      .cls-11, .cls-9 {
        mix-blend-mode: multiply;
      }

      .cls-12 {
        isolation: isolate;
      }
    </style>
  </defs>
  <g class="cls-12">
    <g id="Layer_2" data-name="Layer 2">
      <g id="_图层_5" data-name="图层 5">
        <g id="_图层_1_237" data-name="图层 1,237">
          <path class="cls-11" d="M94.99,66.62c-.1-.19-.27-.36-.49-.53,.75-.55,.83-1.62,.06-2.78-.36-.54-.85-1.02-1.41-1.42,.49-.33,.88-.77,1.1-1.3,.54-1.34-.21-2.73-1.7-3.31,1.27-.66,1.69-1.58,.88-2.31-.94-.85-3.2-1.14-5.28-.73-.06-.06-.12-.11-.18-.17,.1-.11,.21-.21,.3-.33,1.04-1.41,.44-3.04-1.34-3.65-.35-.12-.72-.18-1.1-.2-.45-.85-2.06-1.82-4.21-2.43-1.05-.3-2.08-.46-2.99-.52-.04-.17-.08-.35-.16-.53-.66-1.62-2.63-2.92-4.4-2.91-.16,0-.31,.02-.45,.05-.87-.79-3-1.36-5.25-1.33-.69,0-1.32,.08-1.87,.19,0-.06,.03-.12,.04-.19,.12-1.65-1.34-3.22-3.27-3.51-.47-.07-.93-.06-1.35,.03-1-.84-3.33-1.4-5.73-1.3-1.01,.04-1.89,.2-2.59,.43-.88-1.56-2.9-2.74-4.61-2.67-1.21,.05-1.92,.73-1.99,1.67-.05-.09-.09-.18-.14-.27-1-1.58-3.18-2.74-4.86-2.59-.48,.04-.86,.2-1.14,.42-1.15-.56-3.04-.85-4.92-.68-1.01,.09-1.86,.31-2.49,.59-1.05-1.4-2.97-2.41-4.57-2.31-1.56,.1-2.28,1.21-1.82,2.59-.02,0-.04,0-.06,0-1.49-1.52-3.88-2.5-5.49-2.2-1.27,.24-1.68,1.19-1.19,2.35-1.76-1.44-4.26-2.26-5.75-1.84-1.45,.41-1.38,1.85,.07,3.32-.2-.06-.39-.13-.6-.19-2.78-.75-5.41-.59-5.86,.36-.18,.37,0,.81,.47,1.25-.84-.24-1.64-.31-2.28-.16-1.53,.37-1.52,1.89,0,3.42-.92,.31-1.7,.91-2.07,1.72-.47,1-.19,2.05,.59,2.78-1.22,.19-2.02,.61-2.03,1.21-.02,.82,1.4,1.7,3.4,2.24-.87,.1-1.51,.36-1.72,.78-.49,.96,1.42,2.38,4.26,3.16,.18,.05,.36,.08,.54,.13-.43,.22-.7,.51-.71,.85-.01,1.08,2.4,2.27,5.38,2.66,.03,0,.05,0,.07,0-.61,.27-.95,.63-.88,1.06,.16,1.06,2.61,2.09,5.47,2.32,.45,.04,.88,.04,1.3,.03-.89,.74-1.02,1.61-.17,2.27,1.04,.8,3.17,1.02,5.13,.6,.48,.87,2.35,1.76,4.69,2.16,1.05,.18,2.04,.23,2.87,.17,.03,.12,.05,.24,.09,.37,.63,1.7,2.65,3.09,4.53,3.1,.81,0,1.44-.26,1.86-.68,.1,.14,.2,.29,.32,.43,1.28,1.5,3.58,2.5,5.13,2.24,.39-.07,.69-.21,.91-.4,.2,.49,.64,.92,1.31,1.18,1.27,.5,2.94,.29,4.18-.43,.05,.16,.14,.31,.28,.46,.98,1,3.74,1.37,6.16,.83,.57-.13,1.07-.3,1.49-.5,.36,1.53,1.92,2.85,3.71,3.02,1.26,.12,2.31-.36,2.83-1.19,.24,.37,.62,.69,1.16,.91,1.62,.66,3.96,.19,5.22-1.06,0,0,0,0,0,0,.25,.32,.61,.59,1.09,.79,1.69,.69,4.12,.19,5.42-1.1,0,0,.01-.01,.02-.02,.22,.24,.52,.46,.9,.62,1.61,.69,4,.26,5.34-.97,.55-.5,.82-1.06,.85-1.59,2.05,.76,4.12,.91,4.93,.29,.76-.58,.16-1.65-1.31-2.63,.02-.01,.04-.03,.06-.04,.64,.07,1.31,.09,1.98,.06,2.78-.12,4.59-1.09,4.04-2.17Z"/>
        </g>
        <g id="_图层_1_236" data-name="图层 1,236">
          <path class="cls-2" d="M96.92,43.96c-.13-.31-.34-.56-.58-.79,.64-1.24,.52-3.19-.44-5.02-.45-.85-1.02-1.55-1.64-2.09,.42-.76,.73-1.68,.84-2.7,.29-2.59-.71-4.85-2.27-5.4,1.13-1.61,1.37-3.4,.45-4.44-1.08-1.22-3.35-1-5.32,.42-.06-.08-.14-.16-.21-.24,.08-.23,.17-.45,.24-.69,.77-2.88-.12-5.62-1.98-6.12-.37-.1-.74-.08-1.12,0-.6-1.39-2.35-2.6-4.58-2.99-1.08-.19-2.12-.15-3.03,.06-.07-.3-.15-.6-.25-.9-.94-2.69-3.11-4.38-4.85-3.77-.16,.06-.3,.15-.44,.24-1-1.14-3.19-1.46-5.4-.66-.68,.25-1.28,.57-1.81,.95,0-.12,.01-.23,0-.35-.18-3.01-1.9-5.35-3.85-5.24-.48,.03-.93,.21-1.32,.5-1.13-1.18-3.52-1.42-5.87-.44-.99,.41-1.83,.98-2.47,1.62-1.15-2.51-3.35-3.98-5.02-3.28-1.18,.5-1.76,1.95-1.66,3.66-.06-.15-.11-.3-.19-.45-1.27-2.51-3.62-3.88-5.25-3.06-.47,.23-.81,.64-1.05,1.13-1.23-.63-3.14-.53-4.96,.39-.98,.5-1.78,1.16-2.34,1.89-1.28-2.18-3.36-3.36-4.91-2.65-1.52,.69-2.03,2.92-1.32,5.26-.02,0-.04,.02-.06,.02-1.74-2.25-4.27-3.22-5.8-2.14-1.2,.84-1.44,2.7-.74,4.62-1.99-2.01-4.6-2.66-5.98-1.42-1.35,1.22-1.02,3.79,.67,5.95-.21-.05-.41-.1-.63-.14-2.87-.43-5.42,.72-5.7,2.58-.11,.73,.16,1.46,.68,2.1-.87-.15-1.67-.02-2.27,.47-1.44,1.18-1.16,3.91,.61,6.16-.85,.87-1.5,2.2-1.73,3.78-.28,1.96,.18,3.75,1.08,4.81-1.16,.74-1.88,1.77-1.78,2.85,.13,1.48,1.69,2.6,3.75,2.9-.84,.47-1.43,1.14-1.56,1.97-.3,1.89,1.83,3.81,4.76,4.28,.19,.03,.37,.03,.55,.05-.39,.55-.6,1.15-.54,1.77,.18,1.94,2.77,3.29,5.77,3,.03,0,.05,0,.07-.01-.54,.68-.81,1.45-.67,2.2,.35,1.85,2.95,2.91,5.8,2.37,.45-.09,.87-.22,1.28-.37-.74,1.62-.72,3.24,.24,4.14,1.16,1.1,3.31,.78,5.16-.62,.63,1.4,2.63,2.4,5.01,2.34,1.06-.03,2.05-.26,2.86-.63,.05,.21,.09,.42,.16,.63,.92,2.85,3.17,4.68,5.01,4.08,.79-.26,1.37-.94,1.71-1.84,.12,.22,.24,.45,.39,.67,1.54,2.28,3.98,3.32,5.45,2.33,.37-.25,.64-.6,.82-1.02,.29,.82,.79,1.44,1.5,1.7,1.34,.49,2.95-.44,4.03-2.14,.08,.27,.19,.52,.36,.74,1.15,1.48,3.93,1.24,6.21-.54,.54-.42,1-.89,1.38-1.39,.63,2.64,2.41,4.49,4.19,4.22,1.26-.2,2.2-1.42,2.58-3.07,.3,.59,.73,1.04,1.3,1.26,1.72,.65,3.93-.97,4.94-3.62,0,0,0,0,0,0,.3,.49,.7,.86,1.21,1.06,1.79,.68,4.09-1.01,5.13-3.77,0-.01,0-.02,.01-.03,.27,.36,.59,.65,1,.82,1.71,.71,3.98-.86,5.08-3.5,.45-1.09,.62-2.18,.55-3.14,2.15,.69,4.22,.28,4.91-1.1,.64-1.29-.14-3.03-1.76-4.3,.02-.03,.03-.06,.05-.1,.64-.09,1.3-.26,1.96-.54,2.71-1.13,4.32-3.48,3.59-5.24Z"/>
        </g>
        <g id="_图层_1_235" data-name="图层 1,235">
          <path class="cls-6" d="M77.7,29.59s-.06,0-.09-.02c.1-.2,.2-.4,.28-.62,.99-2.61,.43-5.25-1.26-5.89-.85-.32-1.82-.08-2.71,.58,.75-2.31,.25-4.55-1.25-5.17-.69-.28-1.47-.16-2.22,.24-.4-1.11-1.46-2.23-2.92-2.95-.75-.37-1.51-.58-2.24-.66,.1-.48,.08-.96-.1-1.39-.69-1.66-3.34-2.14-5.91-1.06-.56,.23-1.06,.53-1.51,.85-.13-.47-.31-.95-.55-1.42-1.24-2.36-3.49-3.63-5.02-2.82-.03,.01-.04,.04-.07,.05-.02-.07-.02-.15-.05-.22-.24-.58-.73-1.01-1.36-1.3-.46-.69-1.07-1.16-1.8-1.24-.91-.1-1.8,.41-2.48,1.31-.13,.05-.25,.08-.38,.13-.93,.39-1.72,.93-2.33,1.53-1.08-2.38-3.17-3.76-4.75-3.1-1.11,.47-1.66,1.84-1.57,3.46-.06-.14-.11-.28-.18-.42-1.2-2.38-3.42-3.67-4.96-2.9-.53,.27-.9,.76-1.12,1.38-1.16-.49-2.86-.36-4.47,.46-1.17,.6-2.07,1.44-2.59,2.33-1.19-1.4-2.74-2.06-3.95-1.52-1.47,.66-1.93,2.87-1.19,5.14-1.64-2.23-4.11-3.2-5.59-2.16-1.47,1.03-1.4,3.66,.11,5.95-1.44-.74-2.91-.79-3.82,.02-1.37,1.23-.93,3.94,.97,6.05,.1,.11,.21,.2,.31,.3-2.58-.28-4.82,.78-5.07,2.47-.2,1.34,.92,2.68,2.67,3.42-1.13,1.23-.79,3.69,.86,5.71,.65,.79,1.4,1.4,2.17,1.8-.13,.4-.24,.82-.3,1.26-.39,2.75,.74,5.19,2.52,5.44,.11,.02,.23,0,.34,0,.2,1.7,2.4,2.89,5.01,2.75-.1,1.72,1.84,3.41,4.5,3.83,.57,.09,1.12,.1,1.65,.07,.65,1.44,2.81,2.36,5.26,2.13,.32-.03,.63-.09,.93-.15,.43,1.66,2.81,2.6,5.44,2.1,.54-.1,1.03-.27,1.49-.46-.07,.89,.13,1.69,.69,2.22,1.3,1.23,3.91,.6,5.81-1.41,.07-.07,.12-.15,.18-.22,.9,.77,2.35,1.26,3.98,1.22,1.43-.03,2.7-.47,3.57-1.13,1.01,2.16,2.84,3.45,4.38,2.95,1.54-.5,2.27-2.62,1.81-4.97,.07,.12,.13,.24,.21,.36,1.45,2.16,3.76,3.14,5.15,2.2,.72-.49,1.05-1.4,1.01-2.46,.19,.16,.39,.3,.63,.39,1.59,.58,3.61-.95,4.5-3.41,.12-.32,.21-.65,.28-.97,1.12-.03,2.42-.5,3.58-1.4,1.13-.88,1.9-1.98,2.23-3.04,1.73-.41,2.78-2.84,2.35-5.58-.15-.97-.48-1.85-.9-2.57,.41-.53,.78-1.14,1.05-1.85,.95-2.51,.41-5.04-1.21-5.66Z"/>
        </g>
        <g id="_图层_1_234" data-name="图层 1,234">
          <path class="cls-3" d="M48.31,41.02c1.34-4.82-4.21-10.56-12.4-12.83-8.18-2.27-15.9-.2-17.23,4.61-1.34,4.82,4.22,10.56,12.4,12.83,8.19,2.27,15.9,.2,17.24-4.61Z"/>
        </g>
        <g id="_图层_1_233" data-name="图层 1,233">
          <path class="cls-8" d="M0,19.83C3.02,11.73,14.11,3.63,21.06,1.43c13.42-.48,55.79-1.62,76.63,15.76,.58,8.76,.2,9.3,0,11.35-4.16,1.08-17.95,3.15-27.22,15.73C57.76,39.11,19.18,27.04,1.29,31.13c-.86-5.39-1.29-11.3-1.29-11.3Z"/>
        </g>
        <g id="_图层_1_232" data-name="图层 1,232">
          <path class="cls-5" d="M70.47,44.28c2.07-2.81,4.37-5.07,6.74-6.94-1.24-2.17-4.01-4.57-9.1-7.28C47.84,19.28,9.65,18.18,0,19.83c0,0,.43,5.92,1.29,11.3,17.89-4.09,56.46,7.97,69.18,13.15Z"/>
        </g>
        <g id="_图层_1_231" data-name="图层 1,231">
          <path class="cls-7" d="M97.69,28.54c.2-2.05,.58-2.59,0-11.35-12.65-1.65-26.14,9.19-29.59,12.86,2.59,4.74,2.37,14.22,2.37,14.22,9.27-12.58,23.06-14.65,27.22-15.73Z"/>
        </g>
        <g id="_图层_1_230" data-name="图层 1,230">
          <path class="cls-4" d="M84.92,14.44c3.86-1.18-9.28-8.55-21.88-10.15-12.59-1.6-23.21,.34-23.72,4.34-.51,4,4.02,5.21,14.98,11.6,18.83,10.97,7.81,1.2,30.61-5.79Z"/>
        </g>
        <g id="_图层_1_229" data-name="图层 1,229">
          <path class="cls-7" d="M31.71,1.22c-.93,0-1.84,0-2.7,.02,.87,0,1.77-.02,2.7-.02Z"/>
        </g>
        <g id="_图层_1_228" data-name="图层 1,228">
          <path class="cls-7" d="M26.32,1.28c.74-.01,1.5-.03,2.29-.04-.8,.01-1.56,.02-2.29,.04Z"/>
        </g>
        <g id="_图层_1_227" data-name="图层 1,227">
          <path class="cls-7" d="M97.69,17.2C81.01,3.28,50.54,1.24,32.16,1.22c20.84,.02,48.72,2.72,64.28,15.32,.44,6.8,.25,8.25,.07,9.66-.18,.04-.37,.09-.57,.13-5.22,1.2-17.28,3.99-25.91,15.08-11.56-4.56-40.86-13.7-60.09-13.7-2.83,0-5.37,.2-7.58,.59-.61-4.21-.97-8.45-1.06-9.58C4.36,11.01,14.87,3.53,21.29,1.43c1.42-.05,2.99-.1,4.71-.14-1.9,.04-3.57,.1-4.93,.14C14.11,3.63,3.02,11.73,0,19.83c0,0,.43,5.92,1.29,11.3,17.89-4.09,56.46,7.97,69.18,13.15,9.27-12.58,23.06-14.65,27.22-15.73,.2-2.05,.58-2.59,0-11.35Z"/>
        </g>
        <g id="_图层_1_226" data-name="图层 1,226">
          <path class="cls-9" d="M81.07,26.46c0-.93-.76-1.69-1.69-1.69s-1.69,.76-1.69,1.69,.76,1.69,1.69,1.69,1.69-.76,1.69-1.69Z"/>
        </g>
        <g id="_图层_1_225" data-name="图层 1,225">
          <path class="cls-9" d="M51.01,30.65c0-.62-.51-1.13-1.13-1.13s-1.13,.51-1.13,1.13,.51,1.13,1.13,1.13,1.13-.51,1.13-1.13Z"/>
        </g>
        <g id="_图层_1_224" data-name="图层 1,224">
          <path class="cls-9" d="M16.37,23.06c0-.83-.67-1.5-1.5-1.5s-1.5,.67-1.5,1.5,.67,1.5,1.5,1.5,1.5-.67,1.5-1.5Z"/>
        </g>
        <g id="_图层_1_223" data-name="图层 1,223">
          <path class="cls-9" d="M59.53,29.85c0-1.03-.83-1.86-1.86-1.86s-1.86,.83-1.86,1.86,.83,1.86,1.86,1.86,1.86-.83,1.86-1.86Z"/>
        </g>
        <g id="_图层_1_222" data-name="图层 1,222">
          <path class="cls-9" d="M6.16,24.36c0-.77-.63-1.4-1.4-1.4s-1.4,.63-1.4,1.4,.63,1.4,1.4,1.4,1.4-.63,1.4-1.4Z"/>
        </g>
        <g id="_图层_1_221" data-name="图层 1,221">
          <path class="cls-9" d="M12.1,13.6c.08-.47-.49-.97-1.28-1.11-.79-.14-1.5,.13-1.58,.61-.08,.47,.49,.97,1.28,1.11,.79,.14,1.5-.13,1.58-.61Z"/>
        </g>
        <g id="_图层_1_220" data-name="图层 1,220">
          <path class="cls-9" d="M24.48,3.94c.07-.4-.41-.82-1.08-.94-.67-.12-1.26,.11-1.33,.51-.07,.4,.41,.82,1.08,.94,.67,.12,1.26-.11,1.33-.51Z"/>
        </g>
        <g id="_图层_1_219" data-name="图层 1,219">
          <path class="cls-9" d="M24.57,11.48c.08-.43-.44-.88-1.16-1.01-.72-.13-1.36,.12-1.44,.55-.08,.43,.45,.88,1.16,1.01,.72,.13,1.36-.12,1.44-.55Z"/>
        </g>
        <g id="_图层_1_218" data-name="图层 1,218">
          <path class="cls-9" d="M65.41,15.13c.06-.32-.33-.66-.88-.76-.54-.1-1.02,.09-1.08,.41-.06,.32,.33,.66,.87,.76,.54,.1,1.03-.09,1.08-.42Z"/>
        </g>
        <g id="_图层_1_217" data-name="图层 1,217">
          <path class="cls-9" d="M29.75,5.5c.04-.24-.25-.5-.66-.57-.41-.07-.78,.07-.82,.31-.04,.24,.25,.5,.66,.57,.41,.07,.78-.07,.82-.31Z"/>
        </g>
        <g id="_图层_1_216" data-name="图层 1,216">
          <path class="cls-9" d="M56.88,20.69c.06-.34-.36-.71-.93-.81-.57-.1-1.09,.1-1.15,.44-.06,.34,.36,.71,.93,.81,.57,.1,1.09-.1,1.15-.44Z"/>
        </g>
        <g id="_图层_1_215" data-name="图层 1,215">
          <path class="cls-9" d="M80.15,12.2c.04-.25-.26-.52-.68-.6-.42-.07-.8,.07-.85,.33-.04,.25,.26,.52,.68,.59,.42,.07,.8-.07,.85-.33Z"/>
        </g>
        <g id="_图层_1_214" data-name="图层 1,214">
          <path class="cls-9" d="M70.21,10.48c.08-.45-.46-.92-1.22-1.06-.75-.13-1.42,.13-1.5,.58-.08,.45,.46,.92,1.22,1.06,.75,.13,1.42-.13,1.5-.58Z"/>
        </g>
        <g id="_图层_1_213" data-name="图层 1,213">
          <path class="cls-9" d="M68.35,23.03c.09-.53-.54-1.08-1.43-1.24s-1.67,.15-1.76,.67c-.09,.53,.54,1.08,1.43,1.24,.88,.16,1.67-.15,1.76-.67Z"/>
        </g>
        <g id="_图层_1_212" data-name="图层 1,212">
          <path class="cls-9" d="M76.99,17.3c.08-.45-.46-.91-1.2-1.04-.74-.13-1.41,.12-1.49,.57-.08,.45,.46,.91,1.2,1.04,.74,.13,1.41-.12,1.49-.57Z"/>
        </g>
        <g id="_图层_1_211" data-name="图层 1,211">
          <path class="cls-9" d="M66.6,35.87c0-1.07-.87-1.95-1.94-1.95s-1.94,.87-1.94,1.95,.87,1.95,1.94,1.95,1.94-.87,1.94-1.95Z"/>
        </g>
        <g id="_图层_1_210" data-name="图层 1,210">
          <path class="cls-9" d="M94.46,22.75c0-.8-.65-1.46-1.46-1.46s-1.46,.65-1.46,1.46,.65,1.46,1.46,1.46,1.46-.65,1.46-1.46Z"/>
        </g>
        <g id="_图层_1_209" data-name="图层 1,209">
          <path class="cls-9" d="M76.23,34.81c0-.62-.5-1.12-1.12-1.12s-1.12,.5-1.12,1.12,.51,1.12,1.12,1.12,1.12-.5,1.12-1.12Z"/>
        </g>
        <g id="_图层_1_208" data-name="图层 1,208">
          <path class="cls-1" d="M48.13,0c-8.4,1.44-21.83,14.26-24.85,19.68-.21,2.4-2.38,28.97,4.39,42.23,1.21,1.35,15.87,7,21.41,6.56-2.35-5.15-5.67-32.93-1.29-45.37,3.26-4.73,13.6-15.81,23.94-17.73C82.06,3.45,48.13,0,48.13,0Z"/>
        </g>
        <g id="_图层_1_207" data-name="图层 1,207">
          <path class="cls-10" d="M49,12.47c-5.63,9.58-6.23,10.19-12.5,8.61-5.93-1.5-13.98-.38-4.79-9.02C41.93,2.45,51.98-.24,57.07,1.89c2.46,1.03-3.12,2.16-8.07,10.59Z"/>
        </g>
        <g id="_图层_1_206" data-name="图层 1,206">
          <path class="cls-3" d="M61.81,5.09c.14-1.04-3.27-2.36-7.61-2.94-4.34-.58-7.97-.2-8.11,.85-.14,1.04,4.03-.77,7.86,1.04,6.57,3.11,7.72,2.09,7.86,1.05Z"/>
        </g>
      </g>
    </g>
  </g>
</svg>