<?xml version="1.0" encoding="UTF-8"?>
<svg xmlns="http://www.w3.org/2000/svg" viewBox="0 0 98 100.8">
  <defs>
    <style>
      .cls-1 {
        fill: #030800;
      }

      .cls-2 {
        fill: #e3e1ba;
      }

      .cls-3 {
        fill: #fcfbe6;
      }

      .cls-4 {
        fill: #fdbb42;
      }

      .cls-5 {
        fill: #ff9447;
      }

      .cls-6 {
        fill: #fde471;
      }

      .cls-7 {
        fill: #ff6a21;
      }

      .cls-8 {
        fill: #9cbf1d;
      }

      .cls-9 {
        fill: #de4900;
      }

      .cls-10 {
        fill: #113000;
      }

      .cls-11 {
        fill: #556810;
      }

      .cls-12 {
        fill: #b8b5aa;
        mix-blend-mode: multiply;
      }

      .cls-13 {
        fill: #fff;
        mix-blend-mode: color-dodge;
        opacity: .3;
      }

      .cls-14 {
        isolation: isolate;
      }
    </style>
  </defs>
  <g class="cls-14">
    <g id="Layer_2" data-name="Layer 2">
      <g id="_图层_5" data-name="图层 5">
        <g id="_图层_1_149" data-name="图层 1,149">
          <path class="cls-12" d="M97.99,83.04c.63-11.22-20.8-21.54-47.85-23.05C23.08,58.47,.64,66.34,.01,77.56c-.63,11.22,20.8,21.54,47.85,23.05,27.05,1.51,49.5-6.36,50.12-17.58Z"/>
        </g>
        <g id="_图层_1_148" data-name="图层 1,148">
          <path class="cls-1" d="M44.28,0C20.17,0,.63,7.52,.63,16.8v56.25c0,13.38,19.55,24.22,43.66,24.22s43.65-10.84,43.65-24.22V16.8C87.94,7.52,68.39,0,44.28,0Z"/>
        </g>
        <g id="_图层_1_147" data-name="图层 1,147">
          <path class="cls-3" d="M86.04,16.8c0-8.34-18.69-15.1-41.76-15.1S2.53,8.45,2.53,16.8s18.69,15.1,41.76,15.1,41.76-6.76,41.76-15.1Z"/>
        </g>
        <g id="_图层_1_146" data-name="图层 1,146">
          <path class="cls-10" d="M29.05,65.42c8.68-.91,3.66-6.19,2.23-8.61-6.45-3.47-5.29-5.07-2.87-7.64,.88-4.83,2.56-4.88-.86-5.29-2.69-2.58-3.85-.12-1-3,0-.16,2.85,.64-4.09-1.33-.84-.1-.8-.32,1.13-2.07,2.18-2.21,1.2-.7-3.94-1.57,3.64-1.23-9.4-4.26-11.18-5.3-5.35-3.13-7-2.24-5.29,27.75,.35,6.22,.88,10.91,1.54,14.47,.66,3.56,1.46,5.99,2.38,7.71,1.43,.75,7.85,6.31,9.83,6.68,7.18,5.71,6.23,2.18,11.04,2.4-.68,3.29,5.31,.63,11.95,.61,.33-1.26-10.13-5.12-11.16-5.99-1.03-.87,7.36,1.25,13.68-.63-4.19-1.95-12.65-7.9-15.02-9.87,7.35-3.45,4.91-5.72,1.63-8.32Z"/>
        </g>
        <g id="_图层_1_145" data-name="图层 1,145">
          <path class="cls-9" d="M26.38,8.42c7.01-2.02,8.34-7.08,27.7-3.03,19.36,4.04,17.54,4.04,7.22,9.6-10.32,5.56-5,2.55-22.57,2.02-33.87-1.01-12.36-8.59-12.36-8.59Z"/>
        </g>
        <g id="_图层_1_144" data-name="图层 1,144">
          <path class="cls-7" d="M53.22,15.84c-.65,0-1.45-.12-2.56-.28-2.25-.33-5.64-.82-11.87-1.01-16.98-.51-17.67-2.68-17.67-2.7-.14-.61,2.53-2.36,5.83-3.53,1.76-.51,3.23-1.23,4.65-1.93,2.65-1.3,5.15-2.53,10.22-2.53,3.21,0,7.1,.49,11.89,1.49,5.49,1.15,12.24,2.56,13.6,3.45-.6,.62-2.82,1.8-4.96,2.94l-1.86,1c-4.48,2.41-5.83,3.11-7.28,3.11Z"/>
        </g>
        <g id="_图层_1_143" data-name="图层 1,143">
          <path class="cls-5" d="M34.54,13.8c4.79-3.71,10.2-6.73,15.99-9.09-2.3-.39-4.3-.63-6.06-.75-5.57,2.72-10.62,6.27-14.87,10.8-.49,.5-.93,1.03-1.39,1.55,.89,.11,1.87,.2,2.93,.29,1.1-.97,2.24-1.91,3.4-2.8Z"/>
        </g>
        <g id="_图层_1_142" data-name="图层 1,142">
          <path class="cls-5" d="M27.6,10.64c2.19-1.9,4.51-3.66,6.93-5.29,.45-.28,.91-.53,1.37-.8-3.09,.8-5.06,2.16-7.61,3.2-.75,.61-1.5,1.21-2.2,1.85-1.81,1.6-3.5,3.29-5.09,5.04,.44,.23,.99,.45,1.69,.65,1.55-1.6,3.18-3.16,4.91-4.65Z"/>
        </g>
        <g id="_图层_1_141" data-name="图层 1,141">
          <path class="cls-5" d="M61.31,14.99c2.7-1.46,4.81-2.53,6.12-3.4-6.28,1.24-12.16,3.27-17.31,6.37,4.37,.63,4.32,.73,11.18-2.97Z"/>
        </g>
        <g id="_图层_1_140" data-name="图层 1,140">
          <path class="cls-5" d="M60.46,6.75c-7.63,2.24-14.62,5.63-20.42,10.31,.87,.03,1.68,.07,2.43,.12,6.3-4.36,13.73-7.49,21.74-9.53-1.05-.28-2.29-.57-3.75-.89Z"/>
        </g>
        <g id="_图层_1_139" data-name="图层 1,139">
          <path class="cls-4" d="M46.85,25.26c-6.99,2.08-1.95,4.93-21.34,1.05-19.39-3.88-14.63-6.73-13.64-7.32,9.56-5.66,4.65-2.1,22.22-1.72,33.88,.73,12.76,8,12.76,8Z"/>
        </g>
        <g id="_图层_1_138" data-name="图层 1,138">
          <path class="cls-6" d="M39.27,25.09c-2.26,.13-6.31-.43-13.55-1.88-10.25-2.05-12.83-3.65-13.46-4.24,.08-.06,.18-.12,.32-.2,3.69-2.18,5.03-2.88,6.24-2.95,.68-.04,1.47,.1,2.67,.3,2.29,.4,5.76,.99,12.48,1.14,13.57,.29,16.85,1.66,17.6,2.17-.66,.74-3.04,2.01-5.31,2.79-2.05,.61-3.18,1.31-4.09,1.87-.95,.59-1.47,.91-2.89,1Z"/>
        </g>
        <g id="_图层_1_137" data-name="图层 1,137">
          <path class="cls-2" d="M71.24,25.68c.07-.39-.4-.8-1.06-.92-.65-.11-1.24,.11-1.31,.5-.07,.39,.4,.8,1.06,.92,.65,.12,1.24-.11,1.31-.5Z"/>
        </g>
        <g id="_图层_1_136" data-name="图层 1,136">
          <path class="cls-2" d="M57.14,4.07c.07-.39-.4-.8-1.06-.92-.65-.11-1.24,.11-1.31,.5-.07,.39,.4,.8,1.06,.92,.65,.12,1.24-.11,1.31-.5Z"/>
        </g>
        <g id="_图层_1_135" data-name="图层 1,135">
          <path class="cls-2" d="M42.55,30.52c.07-.42-.43-.85-1.12-.98-.69-.12-1.31,.12-1.39,.53-.07,.42,.43,.85,1.12,.98,.7,.12,1.32-.12,1.39-.53Z"/>
        </g>
        <g id="_图层_1_134" data-name="图层 1,134">
          <path class="cls-2" d="M25.85,6.63c.07-.42-.43-.85-1.12-.98s-1.31,.12-1.39,.53c-.07,.42,.43,.85,1.12,.98,.69,.12,1.32-.12,1.39-.53Z"/>
        </g>
        <g id="_图层_1_133" data-name="图层 1,133">
          <path class="cls-2" d="M77.74,11.51c.05-.31-.32-.63-.83-.72-.51-.09-.97,.09-1.02,.39-.05,.31,.32,.63,.83,.72,.51,.09,.97-.09,1.02-.39Z"/>
        </g>
        <g id="_图层_1_132" data-name="图层 1,132">
          <path class="cls-2" d="M70.56,7.04c.1-.54-.56-1.12-1.47-1.28-.91-.16-1.72,.15-1.82,.7-.1,.54,.56,1.12,1.47,1.28,.91,.16,1.72-.15,1.82-.7Z"/>
        </g>
        <g id="_图层_1_131" data-name="图层 1,131">
          <path class="cls-2" d="M17.2,14.2c.1-.54-.56-1.11-1.47-1.27-.91-.16-1.72,.15-1.82,.7-.1,.55,.56,1.12,1.47,1.28,.91,.16,1.72-.15,1.82-.7Z"/>
        </g>
        <g id="_图层_1_130" data-name="图层 1,130">
          <path class="cls-2" d="M13.9,9.11c.1-.55-.56-1.12-1.47-1.28-.91-.16-1.72,.15-1.82,.7-.1,.54,.56,1.11,1.47,1.28,.91,.16,1.72-.15,1.82-.7Z"/>
        </g>
        <g id="_图层_1_129" data-name="图层 1,129">
          <path class="cls-2" d="M77.81,21.85c.11-.64-.66-1.31-1.72-1.5-1.07-.19-2.02,.18-2.13,.82-.11,.64,.66,1.31,1.72,1.5,1.07,.19,2.02-.18,2.13-.82Z"/>
        </g>
        <g id="_图层_1_128" data-name="图层 1,128">
          <path class="cls-2" d="M82.2,17.08c.09-.54-.56-1.1-1.46-1.26-.9-.16-1.7,.15-1.8,.69-.09,.54,.56,1.1,1.46,1.26,.9,.16,1.7-.15,1.8-.69Z"/>
        </g>
        <g id="_图层_1_127" data-name="图层 1,127">
          <path class="cls-2" d="M18.77,26.21c.05-.31-.32-.63-.83-.72-.51-.09-.97,.09-1.02,.39-.05,.31,.32,.63,.83,.72,.51,.09,.97-.09,1.02-.39Z"/>
        </g>
        <g id="_图层_1_126" data-name="图层 1,126">
          <path class="cls-2" d="M9.4,18.46c.1-.54-.56-1.1-1.45-1.26-.9-.16-1.7,.15-1.8,.69-.1,.54,.56,1.1,1.45,1.26,.9,.16,1.7-.15,1.8-.69Z"/>
        </g>
        <g id="_图层_1_125" data-name="图层 1,125">
          <path class="cls-13" d="M8.04,76.59c-2.67,.26-3.18-18.63-4.01-27.05-.83-8.41-2.11-18.98,.56-19.24,2.67-.26-.83,10.7,1.06,19.58,3.02,14.2,5.06,26.45,2.38,26.71Z"/>
        </g>
        <g id="_图层_1_124" data-name="图层 1,124">
          <path class="cls-11" d="M70,11.63c-1.18-1.55-5.28,3.13-11.95,8.23-6.68,5.1-14.91,7.47-13.39,8.7,2.33,1.88,15.45-.02,22.12-5.12,6.67-5.1,6.73-7.22,3.22-11.81Z"/>
        </g>
        <g id="_图层_1_123" data-name="图层 1,123">
          <path class="cls-8" d="M58.04,19.87c-4.8,3.67-10.38,5.92-12.59,7.35,2.87,.97,13.55-1.36,19.35-5.79,5.95-4.55,6.31-6.4,3.76-9.87-1.97,.91-5.52,4.49-10.51,8.31Z"/>
        </g>
      </g>
    </g>
  </g>
</svg>