<?xml version="1.0" encoding="UTF-8"?>
<svg xmlns="http://www.w3.org/2000/svg" viewBox="0 0 98 100.8">
  <defs>
    <style>
      .cls-1 {
        fill: #030800;
      }

      .cls-2 {
        fill: #e3e1ba;
      }

      .cls-3 {
        fill: #e61300;
      }

      .cls-4, .cls-5 {
        fill: #fff;
      }

      .cls-6 {
        fill: #f4493a;
      }

      .cls-7 {
        fill: #fcfbe6;
      }

      .cls-8 {
        fill: #113000;
      }

      .cls-9 {
        fill: #b8b5aa;
        mix-blend-mode: multiply;
      }

      .cls-5 {
        mix-blend-mode: color-dodge;
        opacity: .3;
      }

      .cls-10 {
        isolation: isolate;
      }
    </style>
  </defs>
  <g class="cls-10">
    <g id="Layer_2" data-name="Layer 2">
      <g id="_图层_5" data-name="图层 5">
        <g id="_图层_1_172" data-name="图层 1,172">
          <path class="cls-9" d="M97.99,83.04c.63-11.22-20.8-21.54-47.85-23.05C23.08,58.47,.64,66.34,.01,77.56c-.63,11.22,20.8,21.54,47.85,23.05,27.06,1.51,49.49-6.36,50.12-17.58Z"/>
        </g>
        <g id="_图层_1_171" data-name="图层 1,171">
          <path class="cls-1" d="M44.28,0C20.17,0,.63,7.52,.63,16.8v56.25c0,13.38,19.54,24.22,43.65,24.22s43.65-10.84,43.65-24.22V16.8C87.94,7.52,68.39,0,44.28,0Z"/>
        </g>
        <g id="_图层_1_170" data-name="图层 1,170">
          <path class="cls-7" d="M86.04,16.8c0-8.34-18.69-15.1-41.76-15.1S2.53,8.45,2.53,16.8s18.69,15.1,41.76,15.1,41.76-6.76,41.76-15.1Z"/>
        </g>
        <g id="_图层_1_169" data-name="图层 1,169">
          <path class="cls-8" d="M29.05,65.42c8.68-.91,3.66-6.19,2.22-8.61-6.45-3.47-5.29-5.07-2.87-7.64,.89-4.83,2.56-4.88-.86-5.29-2.69-2.58-3.85-.12-1-3,0-.16,2.85,.64-4.09-1.33-.84-.1-.8-.32,1.13-2.07,2.18-2.21,1.2-.7-3.94-1.57,3.64-1.23-9.4-4.26-11.18-5.3-5.35-3.13-7-2.24-5.29,27.75,.35,6.22,.87,10.91,1.54,14.47s1.46,5.99,2.38,7.71c1.43,.75,7.85,6.31,9.83,6.68,7.18,5.71,6.23,2.18,11.04,2.4-.68,3.29,5.31,.63,11.95,.61,.33-1.26-10.13-5.12-11.16-5.99-1.03-.87,7.36,1.25,13.68-.63-4.19-1.95-12.65-7.9-15.02-9.87,7.36-3.45,4.91-5.72,1.63-8.32Z"/>
        </g>
        <g id="_图层_1_168" data-name="图层 1,168">
          <path class="cls-3" d="M30.33,12.4c5.29-2.26,6.29-7.91,20.9-3.39,14.61,4.52,13.23,4.52,5.45,10.74-7.78,6.22-3.77,2.85-17.02,2.26-25.55-1.13-9.32-9.61-9.32-9.61Z"/>
        </g>
        <g id="_图层_1_167" data-name="图层 1,167">
          <path class="cls-6" d="M50.58,20.69c-.49,0-1.09-.13-1.93-.31-1.69-.36-4.25-.92-8.96-1.13-12.81-.57-13.33-3-13.33-3.02-.1-.69,1.91-2.64,4.4-3.95,1.33-.57,2.44-1.37,3.51-2.16,2-1.46,3.88-2.83,7.71-2.83,2.42,0,5.36,.54,8.97,1.66,4.14,1.28,9.23,2.86,10.26,3.85-.45,.69-2.12,2.01-3.74,3.29l-1.4,1.11c-3.38,2.7-4.4,3.48-5.49,3.48Z"/>
        </g>
        <g id="_图层_1_166" data-name="图层 1,166">
          <path class="cls-4" d="M36.49,18.42c3.62-4.15,7.69-7.53,12.06-10.17-1.74-.44-3.24-.7-4.57-.84-4.2,3.04-8.01,7.02-11.22,12.08-.37,.56-.7,1.15-1.05,1.74,.67,.12,1.41,.23,2.21,.32,.83-1.09,1.68-2.14,2.57-3.13Z"/>
        </g>
        <g id="_图层_1_165" data-name="图层 1,165">
          <path class="cls-4" d="M31.26,14.88c1.65-2.12,3.4-4.1,5.23-5.92,.34-.31,.69-.6,1.03-.9-2.33,.9-3.82,2.42-5.74,3.58-.56,.68-1.13,1.35-1.66,2.07-1.37,1.79-2.64,3.67-3.84,5.63,.33,.25,.75,.5,1.27,.73,1.17-1.79,2.4-3.53,3.71-5.2Z"/>
        </g>
        <g id="_图层_1_164" data-name="图层 1,164">
          <path class="cls-4" d="M56.68,19.74c2.04-1.63,3.63-2.83,4.62-3.8-4.74,1.39-9.17,3.65-13.06,7.12,3.3,.71,3.26,.82,8.44-3.32Z"/>
        </g>
        <g id="_图层_1_163" data-name="图层 1,163">
          <path class="cls-4" d="M56.04,10.53c-5.76,2.51-11.03,6.29-15.41,11.53,.66,.04,1.26,.08,1.83,.13,4.75-4.87,10.36-8.38,16.4-10.66-.8-.31-1.73-.64-2.82-1Z"/>
        </g>
        <g id="_图层_1_162" data-name="图层 1,162">
          <path class="cls-2" d="M50.93,29.49c.07-.39-.4-.8-1.06-.92-.65-.11-1.24,.11-1.31,.5-.07,.39,.4,.8,1.06,.92,.65,.12,1.24-.11,1.31-.5Z"/>
        </g>
        <g id="_图层_1_161" data-name="图层 1,161">
          <path class="cls-2" d="M54.77,5.88c.07-.39-.4-.8-1.06-.92-.65-.12-1.24,.11-1.31,.5-.07,.39,.4,.8,1.06,.92,.65,.12,1.24-.11,1.31-.5Z"/>
        </g>
        <g id="_图层_1_160" data-name="图层 1,160">
          <path class="cls-2" d="M37.51,28.77c.07-.42-.43-.85-1.12-.98-.69-.12-1.32,.12-1.39,.53-.07,.42,.43,.85,1.12,.98s1.31-.12,1.39-.53Z"/>
        </g>
        <g id="_图层_1_159" data-name="图层 1,159">
          <path class="cls-2" d="M36.25,5.1c.07-.42-.43-.85-1.12-.98-.69-.12-1.32,.12-1.39,.53-.07,.42,.43,.85,1.12,.98,.69,.12,1.32-.12,1.39-.53Z"/>
        </g>
        <g id="_图层_1_158" data-name="图层 1,158">
          <path class="cls-2" d="M77.74,11.51c.05-.31-.32-.63-.83-.72-.51-.09-.97,.09-1.02,.39-.05,.31,.32,.63,.83,.72,.51,.09,.97-.09,1.02-.39Z"/>
        </g>
        <g id="_图层_1_157" data-name="图层 1,157">
          <path class="cls-2" d="M65.74,9.44c.1-.54-.56-1.11-1.47-1.27-.91-.16-1.72,.15-1.82,.7-.1,.55,.56,1.12,1.47,1.28,.91,.16,1.72-.15,1.82-.7Z"/>
        </g>
        <g id="_图层_1_156" data-name="图层 1,156">
          <path class="cls-2" d="M21.94,23.73c.1-.54-.56-1.11-1.47-1.27-.91-.16-1.72,.15-1.82,.7-.1,.55,.56,1.12,1.47,1.28,.91,.16,1.72-.15,1.82-.7Z"/>
        </g>
        <g id="_图层_1_155" data-name="图层 1,155">
          <path class="cls-2" d="M25.24,10.47c.1-.54-.56-1.12-1.47-1.28-.91-.16-1.72,.15-1.82,.7-.1,.54,.56,1.12,1.47,1.28,.91,.16,1.72-.15,1.82-.7Z"/>
        </g>
        <g id="_图层_1_154" data-name="图层 1,154">
          <path class="cls-2" d="M63.48,24.6c.11-.64-.66-1.31-1.72-1.5-1.07-.19-2.02,.18-2.13,.82-.11,.64,.66,1.31,1.72,1.5,1.07,.19,2.02-.18,2.13-.82Z"/>
        </g>
        <g id="_图层_1_153" data-name="图层 1,153">
          <path class="cls-2" d="M73.92,17.68c.1-.54-.56-1.1-1.45-1.26-.9-.16-1.7,.15-1.8,.69-.09,.54,.56,1.1,1.45,1.26,.9,.16,1.7-.15,1.8-.69Z"/>
        </g>
        <g id="_图层_1_152" data-name="图层 1,152">
          <path class="cls-2" d="M13.22,12.3c.05-.31-.32-.63-.83-.72-.51-.09-.97,.09-1.02,.39-.05,.31,.32,.63,.83,.72,.51,.09,.97-.09,1.02-.39Z"/>
        </g>
        <g id="_图层_1_151" data-name="图层 1,151">
          <path class="cls-2" d="M9.4,18.46c.09-.54-.56-1.1-1.45-1.26-.9-.16-1.7,.15-1.8,.69-.1,.54,.56,1.1,1.45,1.26,.9,.16,1.7-.15,1.8-.69Z"/>
        </g>
        <g id="_图层_1_150" data-name="图层 1,150">
          <path class="cls-5" d="M8.04,76.59c-2.67,.26-3.18-18.63-4.01-27.05-.83-8.41-2.11-18.98,.56-19.24,2.67-.26-.83,10.7,1.06,19.58,3.02,14.2,5.06,26.45,2.38,26.71Z"/>
        </g>
      </g>
    </g>
  </g>
</svg>