<?xml version="1.0" encoding="UTF-8"?>
<svg id="Layer_2" data-name="Layer 2" xmlns="http://www.w3.org/2000/svg" xmlns:xlink="http://www.w3.org/1999/xlink" viewBox="0 0 97.07 79.19">
  <defs>
    <style>
      .cls-1 {
        fill: url(#linear-gradient);
      }

      .cls-2 {
        fill: #f9f6c0;
      }

      .cls-3 {
        fill: #fb8b1c;
      }

      .cls-4 {
        fill: #f4f2f2;
      }

      .cls-5 {
        fill: #e6fcb1;
      }

      .cls-6 {
        fill: #fff;
      }

      .cls-7 {
        fill: #ffdaa4;
      }

      .cls-8 {
        fill: #ffca79;
      }

      .cls-9 {
        fill: #ffb354;
      }

      .cls-10 {
        fill: #f16f0f;
      }

      .cls-11 {
        fill: #8fad3b;
      }

      .cls-12 {
        fill: #2f564f;
      }

      .cls-13 {
        fill: #d8d6d6;
      }

      .cls-14 {
        fill: #a5a4a4;
      }

      .cls-15 {
        fill: #bbdb77;
      }

      .cls-16 {
        fill: #d6ed9d;
      }

      .cls-17 {
        fill: #0a3430;
      }

      .cls-18 {
        fill: #1b3f39;
      }

      .cls-19 {
        fill: #86a943;
      }

      .cls-20 {
        fill: #5b771e;
      }

      .cls-21 {
        fill: #3a3938;
        opacity: .2;
      }

      .cls-22 {
        fill: url(#linear-gradient-8);
      }

      .cls-23 {
        fill: url(#linear-gradient-9);
      }

      .cls-24 {
        fill: url(#linear-gradient-3);
      }

      .cls-25 {
        fill: url(#linear-gradient-4);
      }

      .cls-26 {
        fill: url(#linear-gradient-2);
      }

      .cls-27 {
        fill: url(#linear-gradient-6);
      }

      .cls-28 {
        fill: url(#linear-gradient-7);
      }

      .cls-29 {
        fill: url(#linear-gradient-5);
      }

      .cls-30 {
        opacity: .5;
      }

      .cls-31 {
        fill: url(#linear-gradient-14);
      }

      .cls-32 {
        fill: url(#linear-gradient-18);
      }

      .cls-33 {
        fill: url(#linear-gradient-22);
      }

      .cls-34 {
        fill: url(#linear-gradient-20);
      }

      .cls-35 {
        fill: url(#linear-gradient-21);
      }

      .cls-36 {
        fill: url(#linear-gradient-23);
      }

      .cls-37 {
        fill: url(#linear-gradient-15);
      }

      .cls-38 {
        fill: url(#linear-gradient-19);
      }

      .cls-39 {
        fill: url(#linear-gradient-16);
      }

      .cls-40 {
        fill: url(#linear-gradient-17);
      }

      .cls-41 {
        fill: url(#linear-gradient-13);
      }

      .cls-42 {
        fill: url(#linear-gradient-12);
      }

      .cls-43 {
        fill: url(#linear-gradient-10);
      }

      .cls-44 {
        fill: url(#linear-gradient-11);
      }

      .cls-45 {
        fill: url(#linear-gradient-27);
      }

      .cls-46 {
        fill: url(#linear-gradient-24);
      }

      .cls-47 {
        fill: url(#linear-gradient-26);
      }

      .cls-48 {
        fill: url(#linear-gradient-38);
      }

      .cls-49 {
        fill: url(#linear-gradient-35);
      }

      .cls-50 {
        fill: url(#linear-gradient-37);
      }

      .cls-51 {
        fill: url(#linear-gradient-34);
      }

      .cls-52 {
        fill: url(#linear-gradient-39);
      }

      .cls-53 {
        fill: url(#linear-gradient-36);
      }

      .cls-54 {
        fill: url(#linear-gradient-25);
      }

      .cls-55 {
        fill: url(#linear-gradient-28);
      }

      .cls-56 {
        fill: url(#linear-gradient-29);
      }

      .cls-57 {
        fill: url(#linear-gradient-33);
      }

      .cls-58 {
        fill: url(#linear-gradient-30);
      }

      .cls-59 {
        fill: url(#linear-gradient-32);
      }

      .cls-60 {
        fill: url(#linear-gradient-31);
      }
    </style>
    <linearGradient id="linear-gradient" x1="58.21" y1="36.81" x2="58.21" y2="28.12" gradientTransform="translate(23.4 19.45) scale(1 .75) skewX(-12.23)" gradientUnits="userSpaceOnUse">
      <stop offset="0" stop-color="#e95704"/>
      <stop offset="1" stop-color="#ff9521"/>
    </linearGradient>
    <linearGradient id="linear-gradient-2" x1="60.35" y1="26.34" x2="61" y2="30.6" gradientTransform="translate(23.4 19.45) scale(1 .75) skewX(-12.23)" gradientUnits="userSpaceOnUse">
      <stop offset="0" stop-color="#f4c3bc"/>
      <stop offset="1" stop-color="#fb8b1c"/>
    </linearGradient>
    <linearGradient id="linear-gradient-3" x1="65.24" y1="26.96" x2="66.24" y2="33.52" xlink:href="#linear-gradient-2"/>
    <linearGradient id="linear-gradient-4" x1="66.24" y1="28.53" x2="63.01" y2="40.17" xlink:href="#linear-gradient-2"/>
    <linearGradient id="linear-gradient-5" x1="62.1" y1="27.17" x2="58.8" y2="39.07" xlink:href="#linear-gradient-2"/>
    <linearGradient id="linear-gradient-6" x1="57.1" y1="27.85" x2="54.57" y2="36.99" xlink:href="#linear-gradient-2"/>
    <linearGradient id="linear-gradient-7" x1="55.83" y1="36.99" x2="55.83" y2="27.68" gradientTransform="translate(55.11 22.26) rotate(21.25) scale(.54 .61) skewX(-23.25)" xlink:href="#linear-gradient"/>
    <linearGradient id="linear-gradient-8" x1="57.77" y1="26.65" x2="58.43" y2="30.95" gradientTransform="translate(55.11 22.26) rotate(21.25) scale(.54 .61) skewX(-23.25)" xlink:href="#linear-gradient-2"/>
    <linearGradient id="linear-gradient-9" x1="63.1" y1="27.77" x2="64.06" y2="34.07" gradientTransform="translate(55.11 22.26) rotate(21.25) scale(.54 .61) skewX(-23.25)" xlink:href="#linear-gradient-2"/>
    <linearGradient id="linear-gradient-10" x1="63.83" y1="29.35" x2="60.82" y2="40.18" gradientTransform="translate(55.11 22.26) rotate(21.25) scale(.54 .61) skewX(-23.25)" xlink:href="#linear-gradient-2"/>
    <linearGradient id="linear-gradient-11" x1="59.46" y1="27.82" x2="56.38" y2="38.89" gradientTransform="translate(55.11 22.26) rotate(21.25) scale(.54 .61) skewX(-23.25)" xlink:href="#linear-gradient-2"/>
    <linearGradient id="linear-gradient-12" x1="54.29" y1="28.15" x2="51.93" y2="36.67" gradientTransform="translate(55.11 22.26) rotate(21.25) scale(.54 .61) skewX(-23.25)" xlink:href="#linear-gradient-2"/>
    <linearGradient id="linear-gradient-13" x1="53.91" y1="19.57" x2="57.3" y2="47.78" gradientTransform="translate(23.4 19.45) scale(1 .75) skewX(-12.23)" gradientUnits="userSpaceOnUse">
      <stop offset=".19" stop-color="#ffd993"/>
      <stop offset="1" stop-color="#ff9521"/>
    </linearGradient>
    <linearGradient id="linear-gradient-14" x1="28.64" y1="49.29" x2="28.64" y2="40.6" gradientTransform="translate(24.06 13.14) scale(1 .84) skewX(-15.83)" xlink:href="#linear-gradient"/>
    <linearGradient id="linear-gradient-15" x1="30.76" y1="38.82" x2="31.41" y2="43.08" gradientTransform="translate(24.06 13.14) scale(1 .84) skewX(-15.83)" xlink:href="#linear-gradient-2"/>
    <linearGradient id="linear-gradient-16" x1="35.67" y1="39.43" x2="36.67" y2="46" gradientTransform="translate(24.06 13.14) scale(1 .84) skewX(-15.83)" xlink:href="#linear-gradient-2"/>
    <linearGradient id="linear-gradient-17" x1="36.65" y1="41.02" x2="33.43" y2="52.63" gradientTransform="translate(24.06 13.14) scale(1 .84) skewX(-15.83)" xlink:href="#linear-gradient-2"/>
    <linearGradient id="linear-gradient-18" x1="32.52" y1="39.66" x2="29.22" y2="51.54" gradientTransform="translate(24.06 13.14) scale(1 .84) skewX(-15.83)" xlink:href="#linear-gradient-2"/>
    <linearGradient id="linear-gradient-19" x1="27.52" y1="40.34" x2="24.98" y2="49.46" gradientTransform="translate(24.06 13.14) scale(1 .84) skewX(-15.83)" xlink:href="#linear-gradient-2"/>
    <linearGradient id="linear-gradient-20" x1="20.23" y1="69.03" x2="20.23" y2="59.76" gradientTransform="translate(55.05 17.29) rotate(24.13) scale(.53 .68) skewX(-22.27)" xlink:href="#linear-gradient"/>
    <linearGradient id="linear-gradient-21" x1="22.15" y1="58.72" x2="22.81" y2="63.01" gradientTransform="translate(55.05 17.29) rotate(24.13) scale(.53 .68) skewX(-22.27)" xlink:href="#linear-gradient-2"/>
    <linearGradient id="linear-gradient-22" x1="27.51" y1="59.82" x2="28.47" y2="66.11" gradientTransform="translate(55.05 17.29) rotate(24.13) scale(.53 .68) skewX(-22.27)" xlink:href="#linear-gradient-2"/>
    <linearGradient id="linear-gradient-23" x1="28.22" y1="61.4" x2="25.22" y2="72.21" gradientTransform="translate(55.05 17.29) rotate(24.13) scale(.53 .68) skewX(-22.27)" xlink:href="#linear-gradient-2"/>
    <linearGradient id="linear-gradient-24" x1="23.84" y1="59.88" x2="20.77" y2="70.92" gradientTransform="translate(55.05 17.29) rotate(24.13) scale(.53 .68) skewX(-22.27)" xlink:href="#linear-gradient-2"/>
    <linearGradient id="linear-gradient-25" x1="18.66" y1="60.21" x2="16.3" y2="68.71" gradientTransform="translate(55.05 17.29) rotate(24.13) scale(.53 .68) skewX(-22.27)" xlink:href="#linear-gradient-2"/>
    <linearGradient id="linear-gradient-26" x1="24.34" y1="32.04" x2="27.73" y2="60.27" gradientTransform="translate(24.06 13.14) scale(1 .84) skewX(-15.83)" xlink:href="#linear-gradient-13"/>
    <linearGradient id="linear-gradient-27" x1="25.67" y1="4.32" x2="25.67" y2="-3.83" gradientTransform="translate(24.96 17.59) rotate(-9.65) scale(1.02 .82) skewX(-12.62)" xlink:href="#linear-gradient"/>
    <linearGradient id="linear-gradient-28" x1="27.86" y1="-5.91" x2="28.5" y2="-1.77" gradientTransform="translate(24.96 17.59) rotate(-9.65) scale(1.02 .82) skewX(-12.62)" xlink:href="#linear-gradient-2"/>
    <linearGradient id="linear-gradient-29" x1="32.73" y1="-5.49" x2="33.72" y2=".99" gradientTransform="translate(24.96 17.59) rotate(-9.65) scale(1.02 .82) skewX(-12.62)" xlink:href="#linear-gradient-2"/>
    <linearGradient id="linear-gradient-30" x1="33.74" y1="-3.98" x2="30.52" y2="7.63" gradientTransform="translate(24.96 17.59) rotate(-9.65) scale(1.02 .82) skewX(-12.62)" xlink:href="#linear-gradient-2"/>
    <linearGradient id="linear-gradient-31" x1="29.62" y1="-5.23" x2="26.32" y2="6.66" gradientTransform="translate(24.96 17.59) rotate(-9.65) scale(1.02 .82) skewX(-12.62)" xlink:href="#linear-gradient-2"/>
    <linearGradient id="linear-gradient-32" x1="24.62" y1="-4.41" x2="22.09" y2="4.7" gradientTransform="translate(24.96 17.59) rotate(-9.65) scale(1.02 .82) skewX(-12.62)" xlink:href="#linear-gradient-2"/>
    <linearGradient id="linear-gradient-33" x1="-16.06" y1="14.43" x2="-16.06" y2="5.52" gradientTransform="translate(58.12 15.59) rotate(12.91) scale(.55 .65) skewX(-21.18)" xlink:href="#linear-gradient"/>
    <linearGradient id="linear-gradient-34" x1="-14.1" y1="4.24" x2="-13.46" y2="8.44" gradientTransform="translate(58.12 15.59) rotate(12.91) scale(.55 .65) skewX(-21.18)" xlink:href="#linear-gradient-2"/>
    <linearGradient id="linear-gradient-35" x1="-8.92" y1="5.13" x2="-7.95" y2="11.42" gradientTransform="translate(58.12 15.59) rotate(12.91) scale(.55 .65) skewX(-21.18)" xlink:href="#linear-gradient-2"/>
    <linearGradient id="linear-gradient-36" x1="-8.14" y1="6.68" x2="-11.17" y2="17.61" gradientTransform="translate(58.12 15.59) rotate(12.91) scale(.55 .65) skewX(-21.18)" xlink:href="#linear-gradient-2"/>
    <linearGradient id="linear-gradient-37" x1="-12.42" y1="5.24" x2="-15.52" y2="16.41" gradientTransform="translate(58.12 15.59) rotate(12.91) scale(.55 .65) skewX(-21.18)" xlink:href="#linear-gradient-2"/>
    <linearGradient id="linear-gradient-38" x1="-17.5" y1="5.7" x2="-19.89" y2="14.29" gradientTransform="translate(58.12 15.59) rotate(12.91) scale(.55 .65) skewX(-21.18)" xlink:href="#linear-gradient-2"/>
    <linearGradient id="linear-gradient-39" x1="21.42" y1="-12.46" x2="24.73" y2="15.12" gradientTransform="translate(24.96 17.59) rotate(-9.65) scale(1.02 .82) skewX(-12.62)" xlink:href="#linear-gradient-13"/>
  </defs>
  <g id="layer">
    <g>
      <path class="cls-21" d="M2.97,23.81c-2.84-.47-5.94,12.35,2.59,25.62s13.74,32.7,39.33,29.38c25.59-3.32,19.9-9,20.85-11.37,9,2.84,41.82,4.56,27.96-9.48S2.97,23.81,2.97,23.81Z"/>
      <g>
        <g>
          <path class="cls-18" d="M66.33,62.64c-2.34-.76-6.27-1.94-11.57-6.68-2.47-2.21-15.89-6.56-23.51-10.5C12.05,35.54,1.04,18.06,3.42,18.11c7.88,.75,75.66,12.04,81.13,16.67,5.47,4.62-18.22,27.86-18.22,27.86Z"/>
          <g>
            <path class="cls-17" d="M89.95,38.92c4.83,5.96,6.11,15.49,3.01,23.42-2.19,1.26-20.23,4.92-30.72-1.36-8.72-5.22-7.24-19.99,2.99-26.54,8.75-5.61,19.89-1.49,24.72,4.48Z"/>
            <path class="cls-14" d="M87.72,60.97c-7.27,3.8-19.75,4.27-26.36-2.25-5.83-5.75-2.7-15.13,.68-20.38,.73-1.13,2.78-2.16,3.52-2.53,.86-.44,.86-.97,2.02-1.56,.3-.15,1.38-.1,1.6-.33,1.65-1.79,4.51-1.56,6.71-.7,.41,.16,.92-.58,3.25-.34,1.08,.11,2.45,1.53,3.55,1.72,.89,.15,2.19,.19,3.07,.52,1.59,.59,3.14,3.1,4.58,3.86,3.39,1.8,3.54,5.11,3.39,6.12-.23,1.51,.3,2.79,.17,4.26-.01,.12,1.62,2.09-.72,3.27,.88,.21,1.96,2.08-.51,3.46-.49,.49-.64,1.31-1.82,1.77-1.23,.5,.52,1.2-3.14,3.11Z"/>
            <g>
              <path class="cls-13" d="M87.51,60.97c-7.26,3.81-19.71,4.31-26.28-2.17-5.8-5.71-2.64-15.07,.75-20.32,.73-1.13,2.78-2.16,3.52-2.53,.86-.44,.86-.97,2.02-1.56,.3-.15,1.38-.11,1.59-.34,1.65-1.79,4.5-1.57,6.69-.72,.41,.16,.92-.58,3.24-.35,1.07,.11,2.44,1.52,3.54,1.7,.89,.15,2.18,.18,3.06,.51,1.59,.58,3.12,3.08,4.55,3.84,3.37,1.78,3.52,5.08,3.36,6.09-.23,1.5,.29,2.78,.16,4.25-.01,.12,1.61,2.08-.73,3.26,.88,.2,1.94,2.07-.52,3.45-.49,.49-.65,1.31-1.82,1.77-1.22,.5,.51,1.2-3.14,3.11Z"/>
              <g>
                <path class="cls-4" d="M86.03,42.93c-.63,.5-2.17-.1-3.44-1.34-1.26-1.25-1.78-2.66-1.14-3.17,.63-.5,2.17,.1,3.44,1.34s1.78,2.66,1.14,3.17Z"/>
                <path class="cls-6" d="M85.27,41.28c-.36,.28-1.35-.11-2.22-.89s-1.29-1.63-.93-1.91c.36-.28,1.35,.11,2.22,.89,.87,.77,1.29,1.63,.93,1.91Z"/>
              </g>
              <g>
                <path class="cls-4" d="M80.64,38.74c-.49,.73-2.72,.82-4.99,.2s-3.7-1.72-3.21-2.45c.49-.73,2.72-.82,4.99-.2s3.7,1.72,3.21,2.45Z"/>
                <path class="cls-6" d="M78.75,37.54c-.28,.41-1.72,.46-3.23,.11-1.51-.35-2.51-.97-2.23-1.38,.28-.41,1.72-.46,3.23-.11s2.51,.97,2.23,1.38Z"/>
              </g>
              <g>
                <path class="cls-4" d="M59.73,54.18c-.88,.25-1.64-1.33-1.7-3.53-.05-2.2,.62-4.18,1.51-4.44,.88-.25,1.64,1.33,1.7,3.53,.05,2.2-.62,4.18-1.51,4.44Z"/>
                <path class="cls-6" d="M60.38,51.77c-.5,.14-.98-.89-1.08-2.3-.1-1.41,.22-2.67,.72-2.81,.5-.14,.98,.89,1.08,2.3,.1,1.41-.22,2.67-.72,2.81Z"/>
              </g>
              <g>
                <path class="cls-4" d="M66.49,47c-.85,.44-1.8,.17-2.13-.61s.09-1.77,.93-2.21c.85-.44,1.8-.17,2.13,.61,.33,.78-.09,1.77-.93,2.21Z"/>
                <path class="cls-6" d="M66.83,45.87c-.47,.25-1.08,.06-1.36-.41-.28-.47-.12-1.06,.36-1.31,.47-.25,1.08-.06,1.36,.41,.28,.47,.12,1.06-.36,1.31Z"/>
              </g>
              <g>
                <path class="cls-4" d="M74.09,58.39c.06,.48-1,.75-2.36,.61-1.36-.14-2.51-.64-2.57-1.12-.06-.48,1-.75,2.36-.61,1.36,.14,2.51,.64,2.57,1.12Z"/>
                <path class="cls-6" d="M72.67,57.83c.05,.27-.61,.46-1.49,.42-.88-.04-1.63-.29-1.68-.56-.05-.27,.61-.46,1.49-.41,.88,.04,1.63,.29,1.68,.56Z"/>
              </g>
              <g>
                <path class="cls-4" d="M92.79,44.85c-.59,.36-1.77-.51-2.63-1.95-.86-1.44-1.07-2.9-.48-3.26,.59-.36,1.77,.51,2.63,1.95,.86,1.44,1.07,2.9,.48,3.26Z"/>
                <path class="cls-6" d="M92.4,43.12c-.33,.2-1.09-.37-1.69-1.28-.6-.91-.82-1.81-.48-2.01,.33-.2,1.09,.37,1.69,1.28,.6,.91,.82,1.81,.48,2.01Z"/>
              </g>
              <g>
                <path class="cls-4" d="M93.57,54.88c-.5,.6-1.77,.7-2.84,.22s-1.53-1.34-1.04-1.94c.5-.6,1.77-.7,2.84-.22s1.53,1.34,1.04,1.94Z"/>
                <path class="cls-6" d="M92.89,53.93c-.28,.33-1.1,.39-1.83,.13-.73-.26-1.1-.75-.82-1.08,.28-.33,1.1-.39,1.83-.13s1.1,.75,.82,1.08Z"/>
              </g>
              <g>
                <path class="cls-4" d="M87.31,60.48c-.16,.49-.95,.92-1.78,.95-.82,.03-1.36-.35-1.2-.84,.16-.49,.95-.92,1.78-.95s1.36,.35,1.2,.84Z"/>
                <path class="cls-6" d="M86.61,60.11c-.09,.28-.6,.55-1.15,.6-.55,.06-.92-.12-.83-.4,.09-.28,.6-.55,1.15-.6,.55-.06,.92,.12,.83,.4Z"/>
              </g>
              <g>
                <path class="cls-4" d="M88.86,48.52c-.47,.27-1.26-.27-1.78-1.21-.51-.94-.55-1.93-.08-2.2,.47-.27,1.26,.27,1.78,1.21,.51,.94,.55,1.93,.08,2.2Z"/>
                <path class="cls-6" d="M88.71,47.36c-.26,.15-.77-.2-1.14-.8-.37-.59-.45-1.2-.19-1.35,.26-.15,.77,.2,1.14,.8,.37,.59,.45,1.2,.19,1.35Z"/>
              </g>
              <g>
                <path class="cls-4" d="M64.01,59.55c-.68,.49-2.17-.24-3.33-1.63-1.16-1.39-1.55-2.91-.87-3.4,.68-.49,2.17,.24,3.33,1.63s1.55,2.91,.87,3.4Z"/>
                <path class="cls-6" d="M63.38,57.77c-.38,.27-1.34-.21-2.14-1.07-.8-.87-1.15-1.79-.76-2.07,.38-.27,1.34,.21,2.14,1.07s1.15,1.79,.76,2.07Z"/>
              </g>
              <g>
                <path class="cls-4" d="M85.09,59.6c-.43,.64-2.39,.71-4.37,.16s-3.23-1.52-2.8-2.16,2.39-.71,4.37-.16c1.98,.55,3.23,1.52,2.8,2.16Z"/>
                <path class="cls-6" d="M83.44,58.53c-.24,.36-1.51,.4-2.83,.08-1.32-.31-2.19-.86-1.95-1.22,.24-.36,1.51-.4,2.83-.08,1.32,.31,2.19,.86,1.95,1.22Z"/>
              </g>
              <g>
                <path class="cls-4" d="M69.09,43.2c-.86,.4-1.84-.13-2.19-1.18-.35-1.05,.07-2.24,.93-2.64s1.84,.13,2.19,1.18c.35,1.05-.07,2.24-.93,2.64Z"/>
                <path class="cls-6" d="M69.43,41.82c-.48,.23-1.11-.12-1.4-.78-.29-.66-.13-1.37,.35-1.6,.48-.23,1.11,.12,1.4,.78,.29,.66,.13,1.37-.35,1.6Z"/>
              </g>
              <g>
                <path class="cls-4" d="M66.32,43.7c-.77,.56-2.25,.03-3.31-1.2-1.06-1.23-1.3-2.68-.53-3.24,.77-.56,2.25-.03,3.31,1.2,1.06,1.23,1.3,2.68,.53,3.24Z"/>
                <path class="cls-6" d="M65.87,42.02c-.43,.32-1.39-.04-2.13-.8-.75-.76-1-1.63-.57-1.94,.43-.32,1.39,.04,2.13,.8,.75,.76,1,1.63,.57,1.94Z"/>
              </g>
              <g>
                <path class="cls-4" d="M66.58,59.99c-.87,.17-1.47-.55-1.36-1.59,.12-1.05,.91-2.03,1.78-2.19,.87-.17,1.47,.55,1.36,1.59s-.91,2.03-1.78,2.19Z"/>
                <path class="cls-6" d="M67.38,58.81c-.49,.09-.87-.37-.86-1.04,.01-.67,.42-1.29,.9-1.38,.49-.09,.87,.37,.86,1.04-.01,.67-.42,1.29-.9,1.38Z"/>
              </g>
              <g>
                <path class="cls-4" d="M69.27,62.02c-.34,.34-1.71,.22-3.05-.25-1.34-.48-2.15-1.14-1.81-1.47,.34-.34,1.71-.22,3.05,.25,1.34,.48,2.15,1.14,1.81,1.47Z"/>
                <path class="cls-6" d="M68.19,61.27c-.41,.3-1.08,.11-1.98-.17-.9-.29-1.47-.67-1.28-.86,.19-.19,1.08-.11,1.98,.17,.9,.29,1.5,.7,1.28,.86Z"/>
              </g>
              <g>
                <path class="cls-4" d="M91.54,56.97c-.4,.5-1.45,.53-2.36,.07-.91-.47-1.32-1.26-.93-1.76,.4-.5,1.45-.53,2.36-.07,.91,.47,1.32,1.26,.93,1.76Z"/>
                <path class="cls-6" d="M90.94,56.1c-.22,.28-.9,.3-1.52,.03-.62-.27-.94-.71-.72-1,.22-.28,.9-.3,1.52-.03,.62,.27,.94,.71,.72,1Z"/>
              </g>
              <g>
                <path class="cls-4" d="M66.3,39.83c-.83,.02-1.14-1.08-.68-2.47,.46-1.38,1.51-2.53,2.34-2.55,.83-.02,1.14,1.08,.68,2.47s-1.51,2.53-2.34,2.55Z"/>
                <path class="cls-6" d="M67.42,38.42c-.47,.01-.65-.71-.42-1.61s.81-1.64,1.28-1.65c.47-.01,.65,.71,.42,1.61s-.81,1.64-1.28,1.65Z"/>
              </g>
              <g>
                <path class="cls-4" d="M87.98,44.21c-.75,.23-1.46-1.06-1.59-2.88-.13-1.83,.37-3.5,1.11-3.73,.75-.23,1.46,1.06,1.59,2.88,.13,1.83-.37,3.5-1.11,3.73Z"/>
                <path class="cls-6" d="M88.44,42.19c-.42,.13-.87-.71-1.01-1.88-.14-1.17,.09-2.23,.5-2.36,.42-.13,.87,.71,1.01,1.88,.14,1.17-.09,2.23-.5,2.36Z"/>
              </g>
              <g>
                <path class="cls-4" d="M92.79,48.36c-.61,.47-2.03-.13-3.18-1.34-1.15-1.21-1.59-2.57-.98-3.04,.61-.47,2.03,.13,3.18,1.34,1.15,1.21,1.59,2.57,.98,3.04Z"/>
                <path class="cls-6" d="M92.18,46.84c-.34,.26-1.26-.14-2.05-.89-.79-.75-1.16-1.58-.82-1.84,.34-.26,1.26,.14,2.05,.89,.79,.75,1.16,1.58,.82,1.84Z"/>
              </g>
              <g>
                <path class="cls-4" d="M65.45,56.97c-.83,.47-2.27-.62-3.22-2.44-.95-1.82-1.04-3.68-.21-4.15,.83-.47,2.27,.62,3.22,2.44,.95,1.82,1.04,3.68,.21,4.15Z"/>
                <path class="cls-6" d="M65.16,54.76c-.47,.27-1.39-.45-2.07-1.6-.68-1.15-.85-2.3-.38-2.56s1.39,.45,2.07,1.6c.68,1.15,.85,2.3,.38,2.56Z"/>
              </g>
              <g>
                <path class="cls-4" d="M73.07,60.76c-.38,.59-1.87,.77-3.34,.42-1.47-.36-2.36-1.12-1.98-1.71,.38-.59,1.87-.77,3.34-.42,1.47,.36,2.36,1.12,1.98,1.71Z"/>
                <path class="cls-6" d="M71.89,59.93c-.21,.33-1.18,.44-2.17,.25-.98-.19-1.61-.61-1.4-.94,.21-.33,1.18-.44,2.17-.25,.98,.19,1.61,.61,1.4,.94Z"/>
              </g>
              <g>
                <path class="cls-4" d="M77.96,62.88c-.3,.6-2.27,.89-4.4,.64-2.13-.25-3.6-.94-3.3-1.54,.3-.6,2.27-.89,4.4-.64,2.13,.25,3.6,.94,3.3,1.54Z"/>
                <path class="cls-6" d="M76.06,62.15c-.17,.34-1.45,.52-2.85,.4s-2.41-.49-2.24-.82c.17-.34,1.45-.52,2.85-.4,1.41,.12,2.41,.49,2.24,.82Z"/>
              </g>
              <g>
                <path class="cls-4" d="M93.11,52.27c-.75,.58-2.16,.21-3.15-.83s-1.17-2.35-.42-2.93c.75-.58,2.16-.21,3.15,.83s1.17,2.35,.42,2.93Z"/>
                <path class="cls-6" d="M92.72,50.76c-.42,.33-1.33,.08-2.03-.56-.7-.63-.92-1.41-.49-1.73,.42-.33,1.33-.08,2.03,.56,.7,.63,.92,1.41,.49,1.73Z"/>
              </g>
              <g>
                <path class="cls-4" d="M86.79,37.89c-.58,.7-2.18,.77-3.56,.16-1.39-.61-2.04-1.67-1.45-2.37s2.18-.77,3.56-.16c1.39,.61,2.04,1.67,1.45,2.37Z"/>
                <path class="cls-6" d="M85.86,36.72c-.33,.39-1.36,.43-2.3,.08s-1.44-.95-1.12-1.34c.33-.39,1.36-.43,2.3-.08s1.44,.95,1.12,1.34Z"/>
              </g>
              <g>
                <path class="cls-4" d="M63.18,47.12c-.84,.45-1.99-.24-2.57-1.54-.58-1.3-.37-2.71,.48-3.16,.84-.45,1.99,.24,2.57,1.54s.37,2.71-.48,3.16Z"/>
                <path class="cls-6" d="M63.26,45.46c-.47,.25-1.21-.2-1.65-1.01s-.41-1.67,.06-1.92,1.21,.2,1.65,1.01c.44,.81,.41,1.67-.06,1.92Z"/>
              </g>
              <g>
                <path class="cls-4" d="M81.51,35.93c-.56,.71-2.19,.8-3.64,.21-1.45-.59-2.16-1.64-1.59-2.34s2.19-.8,3.64-.21c1.45,.59,2.16,1.64,1.59,2.34Z"/>
                <path class="cls-6" d="M80.5,34.78c-.32,.4-1.37,.45-2.35,.12-.98-.33-1.52-.92-1.2-1.32,.32-.4,1.37-.45,2.35-.12,.98,.33,1.52,.92,1.2,1.32Z"/>
              </g>
              <g>
                <path class="cls-4" d="M75.8,34.88c-.42,.75-2.1,1.12-3.75,.84-1.65-.28-2.65-1.12-2.23-1.87,.42-.75,2.1-1.12,3.75-.84,1.65,.28,2.65,1.12,2.23,1.87Z"/>
                <path class="cls-6" d="M74.47,34c-.24,.42-1.32,.65-2.43,.52s-1.81-.58-1.57-.99,1.32-.65,2.43-.52c1.11,.13,1.81,.58,1.57,.99Z"/>
              </g>
              <g>
                <path class="cls-4" d="M73.36,40.43c-.69,.64-2.2,.44-3.38-.44-1.18-.88-1.57-2.1-.88-2.74,.69-.64,2.2-.44,3.38,.44,1.18,.88,1.57,2.1,.88,2.74Z"/>
                <path class="cls-6" d="M72.73,39.04c-.39,.36-1.36,.22-2.18-.3-.82-.52-1.16-1.24-.77-1.59,.39-.36,1.36-.22,2.18,.3,.82,.52,1.16,1.24,.77,1.59Z"/>
              </g>
              <g>
                <path class="cls-4" d="M65.05,49.17c-.52,.72-1.73,1.06-2.7,.75s-1.34-1.15-.83-1.87c.52-.72,1.73-1.06,2.7-.75,.97,.31,1.34,1.15,.83,1.87Z"/>
                <path class="cls-6" d="M64.48,48.28c-.29,.41-1.07,.61-1.74,.46-.67-.15-.98-.6-.69-1,.29-.41,1.07-.61,1.74-.46,.67,.15,.98,.6,.69,1Z"/>
              </g>
              <g>
                <path class="cls-4" d="M84,61.43c-.22,.67-1.7,1.25-3.29,1.28s-2.7-.47-2.47-1.14c.22-.67,1.7-1.25,3.29-1.28,1.59-.04,2.7,.47,2.47,1.14Z"/>
                <path class="cls-6" d="M82.58,60.94c-.13,.38-1.08,.74-2.13,.82s-1.8-.17-1.68-.55c.13-.38,1.08-.74,2.13-.82,1.05-.07,1.8,.17,1.68,.55Z"/>
              </g>
              <g>
                <path class="cls-4" d="M87.77,55.13c-.88,.16-1.49-.56-1.36-1.6,.13-1.05,.95-2.03,1.83-2.19s1.49,.56,1.36,1.6c-.13,1.05-.95,2.03-1.83,2.19Z"/>
                <path class="cls-6" d="M88.6,53.95c-.49,.09-.88-.38-.86-1.05,.02-.67,.44-1.29,.93-1.38,.49-.09,.88,.38,.86,1.05-.02,.67-.44,1.29-.93,1.38Z"/>
              </g>
              <g>
                <path class="cls-4" d="M78.61,60.71c-.55,.71-2.04,.9-3.32,.43-1.28-.48-1.87-1.44-1.32-2.15s2.04-.9,3.32-.43c1.28,.48,1.87,1.44,1.32,2.15Z"/>
                <path class="cls-6" d="M77.76,59.66c-.31,.4-1.27,.51-2.14,.26s-1.33-.79-1.02-1.19c.31-.4,1.27-.51,2.14-.26,.87,.26,1.33,.79,1.02,1.19Z"/>
              </g>
              <g>
                <path class="cls-4" d="M89.1,59.26c-.68,.64-2.35,.37-3.73-.61-1.38-.98-1.95-2.3-1.27-2.94,.68-.64,2.35-.37,3.73,.61,1.38,.98,1.95,2.3,1.27,2.94Z"/>
                <path class="cls-6" d="M88.25,57.76c-.38,.36-1.46,.17-2.41-.42-.95-.59-1.41-1.36-1.02-1.72,.38-.36,1.46-.17,2.41,.42,.95,.59,1.41,1.36,1.02,1.72Z"/>
              </g>
            </g>
            <g>
              <g>
                <path class="cls-15" d="M67.83,50.71c.25,.27,7.72,9.44,9.94,9.29,2.22-.15,6.83-3.15,6.83-3.15l-14.02-8.11-2.76,1.97Z"/>
                <path class="cls-16" d="M71.84,50.84s0,.01,0,.02c1.26,2.63,5.47,2.31,5.5,2.29-1.84,1.1-4.08,4.36,5.85,2.88,.47,.27,.93,.54,1.41,.8-13.41,2.23-10.58-1.95-8.27-3.33-.04,.02-5.17,.41-6.7-2.79,0,0,0-.01,0-.02-.48-.93,.44-2.26,.96-1.96,.47,.27,.94,.54,1.4,.81-.24,.34-.37,.87-.15,1.29Z"/>
                <path class="cls-19" d="M77.21,58.23c1.82,.08,5.26-.9,7.18-1.5l.2,.12s-4.61,2.99-6.83,3.15c-2.22,.15-9.69-9.02-9.94-9.29l.66-.47c1.94,2.37,6.65,7.91,8.73,7.99Z"/>
                <path class="cls-20" d="M77.42,59.95c-2.56-.64-9.35-8.99-9.59-9.25l.38-.27c1.47,1.79,6.62,8.06,9.21,9.52Z"/>
                <path class="cls-5" d="M78.92,59.17c-.47,.03-1.18-.36-2-.99,.1,.02,.2,.04,.3,.05,1.82,.08,5.26-.9,7.18-1.5l.1,.06c-1.53,.9-4.09,2.28-5.58,2.38Z"/>
                <path class="cls-16" d="M80.88,55.02c-.16-.34-.96-.59-1.8-.55-.83,.03-1.38,.34-1.22,.68,.16,.34,.96,.59,1.8,.55,.83-.03,1.38-.34,1.22-.68Z"/>
                <path class="cls-16" d="M78.2,53.49c-.19-.19-.64-.12-.99,.15-.35,.27-.48,.65-.29,.84,.19,.19,.64,.12,.99-.15s.48-.65,.29-.84Z"/>
                <path class="cls-16" d="M75.54,51.88c-.12-.26-.75-.46-1.4-.43-.65,.03-1.07,.26-.95,.53,.12,.26,.75,.46,1.4,.43,.65-.03,1.07-.26,.95-.53Z"/>
                <path class="cls-16" d="M73.45,50.69c-.15-.15-.5-.09-.77,.12-.28,.21-.38,.51-.23,.65s.5,.09,.77-.12c.28-.21,.38-.51,.23-.65Z"/>
              </g>
              <g>
                <path class="cls-15" d="M69.91,49.63c.28,.21,8.88,7.52,11.09,7.01,2.21-.52,6.47-4.09,6.47-4.09l-15.03-5.22-2.52,2.3Z"/>
                <path class="cls-16" d="M73.94,49.08s0,.01,0,.02c1.58,2.24,5.76,1.24,5.79,1.22-1.71,1.33-3.56,4.76,6.22,1.71,.5,.18,1,.35,1.51,.52-13.16,4.33-10.84-.05-8.69-1.72-.04,.03-5.13,1.25-7.05-1.48,0,0,0-.01-.01-.02-.6-.79,.16-2.18,.72-1.99,.5,.17,1,.35,1.5,.52-.2,.36-.27,.87,0,1.23Z"/>
                <path class="cls-19" d="M80.22,55.08c1.83-.23,5.16-1.72,7.02-2.61l.22,.08s-4.26,3.57-6.47,4.09c-2.21,.52-10.8-6.8-11.09-7.01l.6-.55c2.23,1.89,7.62,6.27,9.72,6Z"/>
                <path class="cls-20" d="M80.64,56.65c-2.64-.17-10.47-6.83-10.74-7.02l.35-.32c1.69,1.43,7.61,6.41,10.39,7.34Z"/>
                <path class="cls-5" d="M82.05,55.67c-.47,.11-1.22-.14-2.13-.59,.11,0,.21,0,.3,0,1.83-.23,5.16-1.72,7.02-2.61l.11,.04c-1.42,1.09-3.82,2.81-5.3,3.16Z"/>
                <path class="cls-16" d="M83.51,51.47c-.2-.29-1.04-.39-1.87-.22-.83,.17-1.34,.55-1.14,.84s1.04,.39,1.87,.22c.83-.17,1.34-.55,1.14-.84Z"/>
                <path class="cls-16" d="M80.64,50.49c-.22-.14-.65,0-.97,.31-.32,.31-.41,.69-.19,.83,.22,.14,.65,0,.97-.31,.32-.31,.41-.69,.19-.83Z"/>
                <path class="cls-16" d="M77.78,49.43c-.16-.23-.81-.3-1.45-.17-.65,.13-1.04,.43-.88,.65,.16,.23,.81,.3,1.45,.17,.65-.13,1.04-.43,.88-.65Z"/>
                <path class="cls-16" d="M75.54,48.67c-.17-.11-.51,0-.76,.24-.25,.25-.32,.54-.15,.65,.17,.11,.51,0,.76-.24,.25-.25,.32-.54,.15-.65Z"/>
              </g>
              <g>
                <path class="cls-15" d="M73.34,47.77c.34,.15,10.95,5.94,12.64,4.86,1.68-1.08,3.81-5.9,3.81-5.9l-15.27-2.02-1.18,3.06Z"/>
                <path class="cls-16" d="M76.59,46.23s0,0,.01,.01c2.34,2.02,5.52-.04,5.54-.07-.9,1.83-1,5.93,6.12,.36,.51,.07,1.02,.14,1.53,.19-9.49,7.74-9.39,2.51-8.26,.22-.02,.04-3.89,2.55-6.74,.09,0,0-.01-.01-.02-.02-.86-.7-.81-2.37-.24-2.3,.51,.07,1.02,.13,1.53,.2-.01,.43,.15,1,.54,1.32Z"/>
                <path class="cls-19" d="M84.64,51.15c1.48-.68,3.71-3.06,4.93-4.45l.22,.03s-2.12,4.82-3.81,5.9c-1.68,1.08-12.3-4.71-12.64-4.86l.28-.73c2.75,1.49,9.32,4.9,11.01,4.11Z"/>
                <path class="cls-20" d="M85.68,52.73c-2.35,.45-12.02-4.82-12.34-4.96l.16-.42c2.08,1.13,9.37,5.05,12.18,5.39Z"/>
                <path class="cls-5" d="M86.47,51.35c-.36,.23-1.12,.15-2.09-.12,.09-.02,.18-.04,.26-.08,1.48-.68,3.71-3.06,4.93-4.45h.11c-.75,1.52-2.08,3.93-3.21,4.65Z"/>
                <path class="cls-16" d="M85.9,46.51c-.3-.26-1.07-.17-1.71,.21s-.92,.9-.62,1.16,1.07,.17,1.71-.21,.92-.9,.62-1.16Z"/>
                <path class="cls-16" d="M82.99,46.15c-.25-.1-.57,.15-.71,.56-.14,.41-.05,.83,.2,.93s.57-.15,.71-.56c.14-.41,.05-.83-.2-.93Z"/>
                <path class="cls-16" d="M80.06,45.69c-.23-.2-.83-.13-1.33,.17-.5,.3-.71,.7-.48,.91,.23,.2,.83,.13,1.33-.17,.5-.3,.71-.7,.48-.91Z"/>
                <path class="cls-16" d="M77.79,45.41c-.19-.08-.44,.11-.55,.44-.11,.32-.04,.65,.15,.73,.19,.08,.44-.11,.55-.44,.11-.32,.04-.65-.15-.73Z"/>
              </g>
              <g>
                <path class="cls-15" d="M73.3,45.1c.38,.11,12.43,4.35,14.13,3.16,1.7-1.19,3.46-5.93,3.46-5.93l-16.65-.22-.94,2.99Z"/>
                <path class="cls-16" d="M76.63,43.31s.01,0,.02,.01c2.74,1.64,5.94-.64,5.95-.67-.77,1.81-.44,5.65,6.63-.34,.56,0,1.11,.02,1.66,.01-9.38,8.28-9.84,3.38-8.88,1.11-.02,.04-3.91,2.81-7.25,.82,0,0-.01,0-.02-.01-1-.56-1.13-2.13-.51-2.12,.56,0,1.11,.01,1.67,.02,.03,.4,.27,.91,.72,1.17Z"/>
                <path class="cls-19" d="M85.83,47.03c1.52-.8,3.66-3.27,4.83-4.7h.24s-1.77,4.74-3.46,5.93c-1.7,1.19-13.75-3.06-14.13-3.16l.22-.71c3.12,1.09,10.56,3.56,12.3,2.64Z"/>
                <path class="cls-20" d="M87.12,48.39c-2.49,.67-13.46-3.19-13.82-3.29l.13-.41c2.36,.83,10.64,3.7,13.7,3.7Z"/>
                <path class="cls-5" d="M87.82,47.01c-.36,.25-1.19,.26-2.27,.11,.1-.03,.19-.06,.27-.1,1.52-.8,3.66-3.27,4.83-4.7h.12c-.65,1.49-1.82,3.89-2.95,4.69Z"/>
                <path class="cls-16" d="M86.69,42.55c-.35-.21-1.17-.04-1.82,.39-.65,.43-.89,.94-.54,1.16s1.17,.04,1.82-.39c.65-.43,.89-.94,.54-1.16Z"/>
                <path class="cls-16" d="M83.52,42.53c-.28-.07-.59,.2-.7,.6-.11,.4,.03,.78,.31,.85,.28,.07,.59-.2,.7-.6,.11-.4-.03-.78-.31-.85Z"/>
                <path class="cls-16" d="M80.31,42.42c-.27-.17-.91-.03-1.41,.3-.51,.33-.69,.73-.42,.9,.27,.17,.91,.03,1.41-.3,.51-.33,.69-.73,.42-.9Z"/>
                <path class="cls-16" d="M77.84,42.41c-.22-.05-.46,.16-.55,.47-.08,.31,.03,.61,.24,.66,.22,.05,.46-.16,.55-.47,.08-.31-.03-.61-.24-.66Z"/>
              </g>
            </g>
            <polygon class="cls-11" points="80.3 52.13 68.61 48.08 69.43 46.32 81.89 48.81 80.3 52.13"/>
            <path class="cls-15" d="M72.62,44.7s13.63,.17,16.33,2.5c-4.48,.76-7.87,1.87-7.87,1.87l-11.66-2.75s1.38-1.09,3.19-1.63Z"/>
            <path class="cls-20" d="M80.41,47.98c2.24-.25,4.09-.95,5.86-1.92-4.86-1.25-13.65-1.36-13.65-1.36-1.29,.38-2.36,1.04-2.87,1.39,3.52,.58,6.72,2.34,10.65,1.89Z"/>
            <path class="cls-2" d="M88.95,47.2c.78,.27-1.46,3.82-1.46,3.82,0,0-3,1.53-7.2,1.1-.7-.9,.79-3.06,.79-3.06,0,0,4.72-2.98,7.87-1.87Z"/>
            <g>
              <polygon class="cls-1" points="78.78 47.93 69.1 45.64 69.32 43.48 79.24 43.85 78.78 47.93"/>
              <path class="cls-26" d="M72.16,41.11s10.31-2.49,14.11-.23c-4.55,1.59-7.79,3.4-7.79,3.4l-9.16-.79s1.08-1.47,2.84-2.38Z"/>
              <path class="cls-24" d="M86.27,40.88c.95,.19-.13,4.64-.13,4.64,0,0-2.66,2.24-7.36,2.41-1.09-.93-.3-3.65-.3-3.65,0,0,3.97-4.18,7.79-3.4Z"/>
              <path class="cls-25" d="M86.27,40.88c-3.12,.3-6.42,3.04-6.42,3.04,0,0-.7,1.11-1.07,4.01-1.09-.93-.3-3.65-.3-3.65,0,0,3.97-4.18,7.79-3.4Z"/>
              <path class="cls-29" d="M83,39.97c-1.36,.15-5.9,1.12-8.27,4.04-.3,1,.2,3.08,.2,3.08,0,0-1.17-1.6-1.35-3.2,1.46-1.93,4.54-3.53,6.55-3.95,1.13-.03,2.88,.03,2.88,.03Z"/>
              <path class="cls-27" d="M70.97,45.95s-.28-1.47,.46-2.18c.74-.71,5.13-3.43,5.13-3.43,0,0-1.24-.16-2.67,.38-1.29,.71-3.49,2.56-3.61,2.99-.12,.44,.69,2.23,.69,2.23Z"/>
            </g>
            <g>
              <polygon class="cls-28" points="69.48 52.62 65.52 48.78 66.43 47.33 71.23 49.88 69.48 52.62"/>
              <path class="cls-22" d="M68.72,46.32s6.05,.63,7.1,3.1c-2.85,.06-5.14,.58-5.14,.58l-4.26-2.67s1.08-.78,2.3-1.01Z"/>
              <path class="cls-23" d="M75.82,49.41c.4,.35-1.79,3.22-1.79,3.22,0,0-2.16,.95-4.55-.01-.2-.91,1.21-2.63,1.21-2.63,0,0,3.53-2.01,5.14-.58Z"/>
              <path class="cls-43" d="M75.82,49.41c-1.66-.51-4.32,.65-4.32,.65,0,0-.76,.62-2.02,2.56-.2-.91,1.21-2.63,1.21-2.63,0,0,3.53-2.01,5.14-.58Z"/>
              <path class="cls-44" d="M74.54,48.02c-.73-.21-3.35-.58-5.61,.92-.52,.63-1.05,2.2-1.05,2.2,0,0,.01-1.39,.52-2.55,1.45-1.01,3.57-1.43,4.73-1.26,.57,.24,1.42,.69,1.42,.69Z"/>
              <path class="cls-42" d="M66.33,49.44s.41-1.09,1.04-1.42c.63-.32,3.83-1.22,3.83-1.22,0,0-.56-.4-1.47-.35-.9,.2-2.69,.98-2.91,1.26-.22,.28-.49,1.72-.49,1.72Z"/>
            </g>
            <path class="cls-41" d="M62.78,47.58c-.84,1.11-1.61,2.36-.87,3.38,.72,.99,2.64,.52,3.32,1.55,.58,.87,.3,1.92,.69,2.77,.49,1.08,1.68,.75,2.55,1.37,1.36,.97,1.72,2.16,3.78,2.35,1.38,.13,2.59-.06,2-1.29-.12-.26-2.75-2.98-3.88-4.07-1.17-1.13-1.85-1.94-3.63-3.87-.28-2.35,2.85-2.45,3.81-4.32,1.2-2.33-.21-3.47,3.17-4.64,1.34-.46,6.31-.85,7.53-.89,1.01-.03,.66-2.09-.68-3.34-1.43-1.33-5.47-2.13-7.75-.49-1.04,.75-.77,1.61-1.52,2.42-.93,1.02-1.57,.69-2.73,.89-1.06,.18-1.75,.24-2.46,1.24-.81,1.15,.29,1.96-.34,3.1-.19,.35-1.02,.84-1.32,1.22-.49,.6-.7,1.33-1.19,1.95-.16,.21-.34,.43-.51,.65Z"/>
            <path class="cls-7" d="M79.04,36.16c-1.21-.31-2.38-.66-3.72-.66-1.16,0-2.18,.6-2.83,1.56-.4,.6-.99,1.4-1.24,2.03-.18,.47,.28,.3,.76,.26,1.07-.08,2.14-.16,3.22-.39,.9-.19,1.81-.53,2.7-.53,.88,0,1.66,.4,2.55,.33,.9-.08,.73-.8,.48-1.24-.38-.67-1.09-1.14-1.93-1.36Z"/>
            <g class="cls-30">
              <path class="cls-6" d="M76.46,36.77c.17-.09,.29-.19,.32-.31,.09-.33-.55-.59-1.42-.59s-1.65,.27-1.74,.59,.55,.59,1.42,.59c.13,0,.25,0,.37-.02-.03,.03-.06,.06-.06,.1-.05,.2,.34,.37,.88,.37s1.02-.16,1.08-.37c.05-.2-.32-.36-.84-.37Z"/>
            </g>
            <path class="cls-7" d="M69.7,41.39c.49-.12,.97-.26,1.34-.58,.6-.51,.19-1.12-.41-1.21-.67-.1-1.54,.38-2.23,.36-.53-.01-1.27-.1-1.74,.37-.45,.46-.19,.97-.13,1.4,.07,.47-.77,2.52,.17,2.44,.79-.06,.67-1.09,.82-1.48,.38-.96,1.3-1.1,2.18-1.31Z"/>
            <g class="cls-30">
              <path class="cls-6" d="M68.99,40.4c.12-.06,.19-.13,.22-.21,.06-.22-.37-.4-.97-.4s-1.12,.18-1.18,.4c-.06,.22,.37,.4,.97,.4,.09,0,.17,0,.25-.01-.02,.02-.04,.04-.04,.07-.04,.14,.23,.25,.6,.25s.7-.11,.73-.25c.04-.13-.22-.24-.57-.25Z"/>
            </g>
            <path class="cls-8" d="M64.44,46.08c-.55,.67-.91,1.43-1.46,2.12-.56,.7-1.11,1.48-.66,2.17,.37,.57,1.36,.73,2.05,.08,.59-.55,.58-1.34,1.06-1.94,.58-.73,1.54-1.14,2.24-1.76,.77-.68,1-1.43,1.15-2.26,.04-.24,.43-1.96,.03-1.96-.45,0-.53,.89-.62,1.08-.77,1.62-2.75,1.2-3.79,2.47Z"/>
            <path class="cls-7" d="M63.79,49.06c.62,.16,.88-.29,.79-.72-.02-.09-.32-.86-.39-.87-.4-.07-1.5,1.24-1.62,1.54-.4,.98,.89,.83,1.22,.05Z"/>
            <path class="cls-9" d="M81.76,38.5c-.16,.17,.24,.84-.03,1.18-.28,.33-.51,.3-.92,.37-.79,.15-1.52-.03-2.29,.02-1.46,.11-2.94,.3-4.41,.7-3.34,.91-1.96,2.86-3.52,4.82-.69,.87-1.99,1.53-2.88,2.26,.57-1.11,1.5-1.98,2.19-3.03,.72-1.09,.51-2.29,1.2-3.33,.53-.8,2.33-1.53,3.26-1.7,.69-.13,1.25,.08,1.9,.1,.66,.02,1.3-.16,1.97-.24,1.43-.18,2.42,.07,3.54-1.16Z"/>
            <path class="cls-3" d="M63.23,51.13c.48,.04,1.56,.76,1.87,1.08,.54,.55,.47,1.38,.79,2.04,.36,.74,1.15,1.23,1.9,1.65,1.39,.76,2.25,2.19,3.89,2.64,1.92,.54,2.75-.78,1.7-1.99-.99-1.15-2.31-2.03-3.29-3.2-1.04-1.23-2.27-2.31-3.32-3.54-.06,.87,.1,1.65,.62,2.29,.43,.53,1.37,1.04,1.29,1.85-.12,1.21-1.14,.24-1.51-.18-.47-.54-.86-1.13-1.4-1.63-.69-.64-1.45-.93-2.54-1.02Z"/>
            <path class="cls-10" d="M73.57,57.93c.62-1.02-1.1-1.69-1.86-1.81-1.54-.25-2.95-.76-4.38-1.24-.78-.26-1.3-.1-.74,.61,.47,.6,1.25,.55,1.98,.77,.64,.19,3.95,3.41,5,1.66Z"/>
          </g>
          <path class="cls-17" d="M4.73,18.89c-6.14-1.37,50.29,28.57,52.65,25.77,.67-.8,1.9-8.37,7.57-11.55,3.82-2.14-58.76-13.91-60.21-14.23Z"/>
        </g>
        <g>
          <path class="cls-18" d="M30.17,71.59c-2.28-.85-6.71-1.66-11.02-7.43C5.68,46.11,.95,18.62,3.32,18.68c7.82,.83,42.27,16.8,47.36,21.94s-20.51,30.97-20.51,30.97Z"/>
          <g>
            <path class="cls-17" d="M55.73,45.22c4.34,6.63,4.84,17.22,1.1,26.04-2.29,1.4-20.63,5.48-30.61-1.51-8.29-5.8-5.6-22.22,5.16-29.51,9.21-6.23,20.01-1.65,24.35,4.98Z"/>
            <path class="cls-14" d="M51.71,69.74c-7.58,4.22-20.1,4.75-26.18-2.5-5.36-6.39-1.46-16.82,2.35-22.66,.82-1.26,2.95-2.4,3.72-2.81,.9-.49,.94-1.08,2.15-1.73,.31-.17,1.39-.12,1.62-.37,1.8-1.99,4.63-1.73,6.77-.78,.4,.18,.97-.65,3.28-.38,1.07,.13,2.32,1.71,3.41,1.91,.88,.17,2.17,.21,3.03,.57,1.55,.65,2.89,3.45,4.26,4.29,3.24,2,3.13,5.68,2.89,6.81-.35,1.68,.07,3.1-.18,4.74-.02,.14,1.45,2.32-.99,3.64,.86,.23,1.79,2.32-.79,3.85-.53,.55-.75,1.46-1.97,1.97-1.27,.55,.42,1.34-3.39,3.46Z"/>
            <g>
              <path class="cls-13" d="M51.49,69.74c-7.58,4.23-20.06,4.79-26.11-2.41-5.33-6.35-1.41-16.76,2.42-22.59,.82-1.26,2.95-2.4,3.72-2.82,.9-.49,.94-1.08,2.15-1.73,.31-.17,1.39-.12,1.62-.38,1.8-1.99,4.63-1.74,6.75-.8,.4,.18,.97-.65,3.27-.38,1.07,.12,2.31,1.69,3.4,1.89,.88,.16,2.16,.2,3.02,.56,1.54,.64,2.87,3.43,4.24,4.27,3.23,1.98,3.1,5.65,2.86,6.77-.35,1.67,.06,3.09-.19,4.72-.02,.14,1.44,2.31-1,3.63,.86,.23,1.78,2.3-.8,3.84-.53,.55-.75,1.46-1.97,1.96-1.27,.55,.41,1.33-3.39,3.46Z"/>
              <g>
                <path class="cls-4" d="M51.49,49.69c-.68,.56-2.17-.11-3.33-1.49-1.16-1.38-1.56-2.96-.88-3.52,.68-.56,2.17,.11,3.33,1.49,1.16,1.38,1.56,2.96,.88,3.52Z"/>
                <path class="cls-6" d="M50.86,47.85c-.38,.31-1.34-.13-2.15-.99-.81-.86-1.15-1.81-.77-2.13,.38-.31,1.34,.13,2.15,.99,.81,.86,1.15,1.81,.77,2.13Z"/>
              </g>
              <g>
                <path class="cls-4" d="M46.44,45.03c-.55,.81-2.79,.91-5,.22s-3.56-1.91-3.01-2.72c.55-.81,2.79-.91,5-.22,2.21,.69,3.56,1.91,3.01,2.72Z"/>
                <path class="cls-6" d="M44.65,43.69c-.31,.46-1.76,.51-3.24,.12-1.48-.39-2.43-1.08-2.12-1.53s1.76-.51,3.24-.12c1.48,.39,2.43,1.08,2.12,1.53Z"/>
              </g>
              <g>
                <path class="cls-4" d="M24.27,62.19c-.91,.28-1.54-1.48-1.41-3.92,.13-2.44,.97-4.65,1.87-4.93,.91-.28,1.54,1.48,1.41,3.92s-.97,4.65-1.87,4.93Z"/>
                <path class="cls-6" d="M25.12,59.51c-.51,.16-.91-.99-.89-2.56,.02-1.57,.44-2.97,.95-3.13,.51-.16,.91,.99,.89,2.56-.02,1.57-.44,2.97-.95,3.13Z"/>
              </g>
              <g>
                <path class="cls-4" d="M31.61,54.21c-.88,.49-1.81,.18-2.08-.68-.27-.87,.23-1.96,1.11-2.45,.88-.49,1.81-.18,2.08,.68s-.23,1.96-1.11,2.45Z"/>
                <path class="cls-6" d="M32.05,52.95c-.49,.27-1.09,.07-1.33-.46-.24-.53-.03-1.18,.46-1.45,.49-.27,1.09-.07,1.33,.46,.24,.53,.03,1.18-.46,1.45Z"/>
              </g>
              <g>
                <path class="cls-4" d="M38.29,66.87c.02,.53-1.06,.83-2.41,.68-1.35-.16-2.46-.71-2.48-1.24-.02-.53,1.06-.83,2.41-.68,1.35,.16,2.46,.71,2.48,1.25Z"/>
                <path class="cls-6" d="M36.9,66.25c.03,.3-.65,.51-1.53,.46-.87-.04-1.61-.32-1.64-.62s.65-.51,1.53-.46c.87,.04,1.61,.32,1.64,.62Z"/>
              </g>
              <g>
                <path class="cls-4" d="M58.1,51.82c-.62,.4-1.73-.57-2.47-2.17s-.83-3.22-.21-3.62c.62-.4,1.73,.57,2.47,2.17,.74,1.6,.83,3.22,.21,3.62Z"/>
                <path class="cls-6" d="M57.85,49.89c-.35,.23-1.06-.41-1.59-1.42-.53-1.01-.67-2.01-.32-2.24s1.06,.41,1.59,1.42,.67,2.01,.32,2.24Z"/>
              </g>
              <g>
                <path class="cls-4" d="M58.05,62.97c-.55,.66-1.82,.77-2.85,.25-1.03-.53-1.42-1.49-.88-2.15s1.82-.77,2.85-.25c1.03,.53,1.42,1.49,.88,2.15Z"/>
                <path class="cls-6" d="M57.44,61.91c-.31,.37-1.13,.43-1.84,.14-.71-.29-1.04-.83-.73-1.2,.31-.37,1.13-.43,1.84-.14s1.04,.83,.73,1.2Z"/>
              </g>
              <g>
                <path class="cls-4" d="M51.33,69.19c-.2,.55-1.03,1.02-1.85,1.05s-1.33-.39-1.13-.94c.2-.55,1.03-1.02,1.85-1.05s1.33,.39,1.13,.94Z"/>
                <path class="cls-6" d="M50.66,68.79c-.11,.31-.65,.61-1.2,.67-.55,.06-.91-.14-.79-.45,.11-.31,.65-.61,1.2-.67,.55-.06,.91,.14,.79,.45Z"/>
              </g>
              <g>
                <path class="cls-4" d="M53.86,55.9c-.49,.3-1.24-.3-1.68-1.35-.44-1.05-.39-2.14,.1-2.45,.49-.3,1.24,.3,1.68,1.35,.44,1.05,.39,2.14-.1,2.45Z"/>
                <path class="cls-6" d="M53.81,54.61c-.28,.17-.76-.23-1.08-.89-.32-.66-.36-1.33-.08-1.5,.28-.17,.76,.23,1.08,.89,.32,.66,.36,1.33,.08,1.5Z"/>
              </g>
              <g>
                <path class="cls-4" d="M28.11,68.16c-.72,.54-2.15-.27-3.19-1.81-1.04-1.54-1.31-3.23-.59-3.78,.72-.54,2.15,.27,3.19,1.81,1.04,1.54,1.31,3.23,.59,3.78Z"/>
                <path class="cls-6" d="M27.63,66.18c-.4,.3-1.32-.23-2.06-1.19-.73-.96-1-1.99-.6-2.3,.4-.3,1.32,.23,2.06,1.19,.73,.96,1,1.99,.6,2.3Z"/>
              </g>
              <g>
                <path class="cls-4" d="M49.18,68.22c-.49,.71-2.45,.79-4.38,.18-1.94-.61-3.11-1.69-2.62-2.4,.49-.71,2.45-.79,4.38-.18s3.11,1.69,2.62,2.4Z"/>
                <path class="cls-6" d="M47.62,67.03c-.27,.4-1.54,.44-2.84,.09-1.3-.35-2.12-.95-1.85-1.35,.27-.4,1.54-.44,2.84-.09,1.3,.35,2.12,.95,1.85,1.35Z"/>
              </g>
              <g>
                <path class="cls-4" d="M34.53,49.99c-.89,.45-1.83-.14-2.09-1.31-.26-1.17,.25-2.49,1.14-2.93,.89-.45,1.83,.14,2.09,1.31,.26,1.17-.25,2.49-1.14,2.93Z"/>
                <path class="cls-6" d="M34.98,48.45c-.5,.25-1.1-.14-1.33-.87-.24-.73-.02-1.53,.48-1.78s1.1,.14,1.33,.87c.24,.73,.02,1.53-.48,1.78Z"/>
              </g>
              <g>
                <path class="cls-4" d="M31.72,50.54c-.81,.63-2.25,.03-3.22-1.33-.96-1.36-1.08-2.97-.27-3.6,.81-.63,2.25-.03,3.22,1.33,.96,1.36,1.08,2.97,.27,3.6Z"/>
                <path class="cls-6" d="M31.4,48.67c-.46,.35-1.38-.05-2.07-.89-.69-.84-.87-1.81-.41-2.16,.46-.35,1.38,.05,2.07,.89,.69,.84,.87,1.81,.41,2.16Z"/>
              </g>
              <g>
                <path class="cls-4" d="M30.64,68.65c-.88,.18-1.43-.61-1.23-1.77,.2-1.16,1.08-2.26,1.96-2.44,.88-.19,1.43,.61,1.23,1.77s-1.08,2.26-1.96,2.44Z"/>
                <path class="cls-6" d="M31.54,67.34c-.49,.1-.84-.41-.77-1.16s.52-1.43,1.01-1.53c.49-.1,.84,.41,.77,1.16s-.52,1.43-1.01,1.53Z"/>
              </g>
              <g>
                <path class="cls-4" d="M33.17,70.91c-.37,.37-1.73,.25-3.03-.28-1.3-.53-2.06-1.26-1.69-1.64s1.73-.25,3.03,.28c1.3,.53,2.06,1.26,1.69,1.64Z"/>
                <path class="cls-6" d="M32.15,70.08c-.43,.33-1.09,.12-1.96-.19-.88-.32-1.42-.74-1.21-.95,.21-.21,1.09-.12,1.96,.19,.88,.32,1.44,.77,1.21,.95Z"/>
              </g>
              <g>
                <path class="cls-4" d="M55.85,65.29c-.44,.56-1.49,.59-2.36,.07-.87-.52-1.22-1.4-.78-1.96s1.49-.59,2.36-.07c.87,.52,1.22,1.4,.78,1.96Z"/>
                <path class="cls-6" d="M55.32,64.32c-.24,.31-.93,.33-1.52,.03-.6-.3-.88-.79-.64-1.11,.24-.31,.93-.33,1.52-.03,.6,.3,.88,.79,.64,1.11Z"/>
              </g>
              <g>
                <path class="cls-4" d="M32.01,46.24c-.84,.03-1.05-1.2-.48-2.74,.57-1.54,1.71-2.81,2.55-2.83,.84-.03,1.05,1.2,.48,2.74-.57,1.54-1.71,2.81-2.55,2.83Z"/>
                <path class="cls-6" d="M33.25,44.67c-.47,.01-.6-.78-.28-1.79,.31-1,.94-1.82,1.41-1.84,.47-.01,.6,.78,.28,1.79-.31,1-.94,1.82-1.41,1.84Z"/>
              </g>
              <g>
                <path class="cls-4" d="M53.33,51.11c-.76,.26-1.37-1.17-1.35-3.21s.65-3.89,1.42-4.15,1.37,1.17,1.35,3.21c-.02,2.03-.65,3.89-1.42,4.15Z"/>
                <path class="cls-6" d="M53.96,48.86c-.43,.15-.81-.79-.86-2.09-.04-1.3,.27-2.48,.7-2.62,.43-.15,.81,.79,.86,2.09,.04,1.3-.27,2.48-.7,2.62Z"/>
              </g>
              <g>
                <path class="cls-4" d="M57.8,55.72c-.65,.52-2.02-.15-3.07-1.5-1.05-1.35-1.38-2.86-.73-3.38,.65-.52,2.02,.15,3.07,1.5,1.05,1.35,1.38,2.86,.73,3.38Z"/>
                <path class="cls-6" d="M57.32,54.03c-.36,.29-1.25-.15-1.98-.99-.73-.84-1.03-1.75-.67-2.04,.36-.29,1.25,.15,1.98,.99s1.03,1.75,.67,2.04Z"/>
              </g>
              <g>
                <path class="cls-4" d="M29.76,65.29c-.87,.53-2.22-.69-3.02-2.71-.8-2.02-.74-4.09,.13-4.62,.87-.53,2.22,.69,3.02,2.71,.8,2.02,.74,4.09-.13,4.62Z"/>
                <path class="cls-6" d="M29.65,62.84c-.49,.3-1.35-.5-1.94-1.78-.58-1.28-.66-2.55-.17-2.85,.49-.3,1.35,.5,1.94,1.78,.58,1.28,.66,2.55,.17,2.85Z"/>
              </g>
              <g>
                <path class="cls-4" d="M37.07,69.5c-.42,.65-1.94,.86-3.38,.46-1.44-.4-2.27-1.25-1.84-1.9,.42-.65,1.94-.86,3.38-.46,1.44,.4,2.27,1.25,1.84,1.9Z"/>
                <path class="cls-6" d="M35.96,68.58c-.24,.37-1.22,.49-2.19,.28-.97-.21-1.56-.68-1.32-1.05,.24-.37,1.22-.49,2.19-.28,.97,.21,1.56,.68,1.32,1.05Z"/>
              </g>
              <g>
                <path class="cls-4" d="M41.78,71.86c-.35,.67-2.34,.99-4.45,.71-2.11-.28-3.53-1.04-3.18-1.71,.35-.67,2.34-.99,4.45-.71,2.11,.28,3.53,1.04,3.18,1.71Z"/>
                <path class="cls-6" d="M39.94,71.05c-.2,.38-1.49,.57-2.89,.44-1.4-.13-2.37-.54-2.17-.92,.2-.37,1.49-.57,2.89-.44,1.4,.13,2.37,.54,2.17,.92Z"/>
              </g>
              <g>
                <path class="cls-4" d="M57.8,60.07c-.8,.64-2.18,.23-3.08-.92s-.98-2.61-.18-3.25c.8-.64,2.18-.23,3.08,.92,.9,1.15,.98,2.61,.18,3.25Z"/>
                <path class="cls-6" d="M57.53,58.39c-.45,.36-1.34,.08-1.98-.62-.64-.7-.8-1.57-.35-1.93,.45-.36,1.34-.09,1.98,.62,.64,.7,.8,1.57,.35,1.93Z"/>
              </g>
              <g>
                <path class="cls-4" d="M52.66,44.08c-.64,.78-2.24,.86-3.57,.18-1.34-.68-1.9-1.86-1.26-2.64s2.24-.86,3.57-.18c1.34,.68,1.9,1.86,1.26,2.64Z"/>
                <path class="cls-6" d="M51.83,42.78c-.36,.44-1.39,.48-2.31,.09-.92-.39-1.37-1.05-1.01-1.49s1.39-.48,2.31-.09c.92,.39,1.37,1.05,1.01,1.49Z"/>
              </g>
              <g>
                <path class="cls-4" d="M28.29,54.34c-.88,.5-1.97-.27-2.45-1.71-.47-1.44-.14-3.02,.74-3.51,.88-.5,1.97,.27,2.45,1.71,.47,1.44,.14,3.02-.74,3.51Z"/>
                <path class="cls-6" d="M28.51,52.5c-.49,.28-1.19-.23-1.57-1.13-.37-.9-.27-1.86,.22-2.14,.49-.28,1.19,.23,1.57,1.13s.27,1.86-.22,2.14Z"/>
              </g>
              <g>
                <path class="cls-4" d="M47.54,41.91c-.62,.78-2.26,.89-3.66,.24-1.4-.65-2.03-1.82-1.4-2.6,.62-.78,2.26-.89,3.66-.24,1.4,.65,2.03,1.82,1.4,2.6Z"/>
                <path class="cls-6" d="M46.63,40.63c-.35,.44-1.41,.5-2.36,.13-.96-.37-1.45-1.02-1.1-1.46,.35-.44,1.41-.5,2.36-.13,.95,.37,1.45,1.02,1.1,1.46Z"/>
              </g>
              <g>
                <path class="cls-4" d="M41.91,40.74c-.48,.83-2.19,1.25-3.82,.93-1.63-.32-2.56-1.25-2.07-2.07,.48-.83,2.19-1.25,3.82-.93,1.63,.32,2.56,1.25,2.07,2.07Z"/>
                <path class="cls-6" d="M40.66,39.76c-.27,.47-1.38,.73-2.47,.58-1.09-.15-1.76-.64-1.49-1.11s1.38-.73,2.47-.58c1.09,.15,1.76,.64,1.49,1.11Z"/>
              </g>
              <g>
                <path class="cls-4" d="M39.02,46.9c-.74,.71-2.24,.49-3.34-.48-1.1-.97-1.4-2.34-.65-3.04,.74-.71,2.24-.49,3.34,.48,1.1,.97,1.4,2.34,.65,3.04Z"/>
                <path class="cls-6" d="M38.5,45.36c-.42,.4-1.38,.25-2.15-.34-.77-.58-1.06-1.38-.64-1.77s1.38-.25,2.15,.34c.77,.58,1.06,1.38,.64,1.77Z"/>
              </g>
              <g>
                <path class="cls-4" d="M30,56.62c-.58,.8-1.81,1.18-2.76,.83-.95-.35-1.25-1.28-.67-2.08,.58-.8,1.81-1.18,2.76-.83,.95,.35,1.25,1.28,.67,2.08Z"/>
                <path class="cls-6" d="M29.5,55.63c-.32,.45-1.12,.68-1.78,.52-.66-.17-.93-.67-.61-1.12s1.12-.68,1.78-.52,.93,.67,.61,1.12Z"/>
              </g>
              <g>
                <path class="cls-4" d="M47.95,70.25c-.28,.75-1.8,1.38-3.39,1.43s-2.66-.53-2.38-1.27,1.8-1.38,3.39-1.43,2.66,.53,2.38,1.27Z"/>
                <path class="cls-6" d="M46.57,69.7c-.16,.42-1.14,.82-2.2,.91-1.06,.08-1.79-.19-1.63-.61,.16-.42,1.14-.82,2.2-.91,1.06-.08,1.79,.19,1.63,.61Z"/>
              </g>
              <g>
                <path class="cls-4" d="M52.23,63.25c-.89,.18-1.44-.62-1.23-1.78,.21-1.17,1.11-2.26,2.01-2.44s1.44,.62,1.23,1.78c-.21,1.17-1.11,2.26-2.01,2.44Z"/>
                <path class="cls-6" d="M53.16,61.93c-.5,.1-.85-.42-.77-1.17,.07-.75,.54-1.43,1.04-1.53s.85,.42,.77,1.17c-.07,.75-.54,1.43-1.04,1.53Z"/>
              </g>
              <g>
                <path class="cls-4" d="M42.61,69.45c-.61,.79-2.11,1-3.35,.47-1.24-.53-1.75-1.6-1.14-2.39,.61-.79,2.11-1,3.35-.47,1.24,.53,1.75,1.6,1.14,2.39Z"/>
                <path class="cls-6" d="M41.85,68.28c-.34,.44-1.31,.57-2.16,.28s-1.27-.88-.92-1.32c.34-.44,1.31-.57,2.16-.28,.85,.29,1.27,.88,.92,1.32Z"/>
              </g>
              <g>
                <path class="cls-4" d="M53.22,67.84c-.73,.71-2.38,.41-3.68-.68-1.3-1.09-1.76-2.55-1.02-3.27,.73-.71,2.38-.41,3.68,.68,1.3,1.09,1.76,2.55,1.02,3.27Z"/>
                <path class="cls-6" d="M52.49,66.18c-.41,.4-1.47,.19-2.37-.47-.9-.66-1.29-1.52-.88-1.92,.41-.4,1.47-.19,2.37,.47s1.3,1.52,.88,1.92Z"/>
              </g>
            </g>
            <g>
              <g>
                <path class="cls-15" d="M32.65,58.33c.23,.3,6.94,10.5,9.18,10.33,2.24-.17,7.09-3.5,7.09-3.5l-13.35-9.01-2.92,2.19Z"/>
                <path class="cls-16" d="M36.65,58.48s0,.01,0,.02c1.04,2.92,5.28,2.57,5.32,2.55-1.93,1.22-4.44,4.85,5.62,3.21,.44,.3,.89,.61,1.34,.89-13.59,2.48-10.42-2.17-8-3.7-.04,.03-5.2,.46-6.47-3.1,0,0,0-.02,0-.02-.41-1.04,.62-2.51,1.12-2.18,.45,.3,.89,.6,1.34,.9-.27,.38-.44,.96-.26,1.44Z"/>
                <path class="cls-19" d="M41.42,66.69c1.81,.08,5.33-1,7.31-1.67l.19,.13s-4.86,3.33-7.09,3.5c-2.23,.17-8.95-10.03-9.18-10.33l.7-.52c1.75,2.63,6,8.79,8.07,8.89Z"/>
                <path class="cls-20" d="M41.49,68.61c-2.5-.71-8.62-10-8.84-10.28l.4-.3c1.32,1.99,5.96,8.96,8.43,10.58Z"/>
                <path class="cls-5" d="M43.05,67.74c-.47,.04-1.15-.4-1.92-1.1,.1,.03,.2,.05,.29,.05,1.81,.08,5.33-1,7.31-1.67l.1,.07c-1.6,1-4.28,2.53-5.78,2.65Z"/>
                <path class="cls-16" d="M45.35,63.12c-.13-.38-.92-.65-1.75-.61s-1.4,.38-1.27,.75c.13,.38,.92,.65,1.75,.61s1.4-.38,1.27-.75Z"/>
                <path class="cls-16" d="M42.79,61.43c-.18-.21-.63-.14-1,.17-.38,.3-.54,.72-.36,.93,.18,.21,.63,.14,1-.17,.38-.3,.54-.72,.36-.93Z"/>
                <path class="cls-16" d="M40.27,59.63c-.1-.29-.71-.51-1.36-.48-.65,.03-1.09,.29-.99,.59s.71,.51,1.36,.48,1.09-.29,.99-.59Z"/>
                <path class="cls-16" d="M38.28,58.31c-.14-.16-.49-.11-.78,.13-.29,.24-.42,.56-.28,.73,.14,.16,.49,.11,.78-.13s.42-.56,.28-.73Z"/>
              </g>
              <g>
                <path class="cls-15" d="M34.82,57.13c.27,.23,8.26,8.36,10.51,7.79s6.8-4.54,6.8-4.54l-14.6-5.8-2.71,2.56Z"/>
                <path class="cls-16" d="M38.9,56.53s0,.01,0,.02c1.4,2.49,5.66,1.38,5.69,1.35-1.82,1.48-3.95,5.29,6.08,1.9,.49,.2,.97,.39,1.46,.57-13.52,4.81-10.84-.06-8.55-1.92-.04,.03-5.23,1.39-6.93-1.65,0,0,0-.01,0-.02-.53-.88,.34-2.43,.89-2.21,.49,.19,.97,.39,1.46,.58-.23,.4-.34,.97-.1,1.37Z"/>
                <path class="cls-19" d="M44.69,63.19c1.85-.26,5.3-1.92,7.23-2.9l.21,.08s-4.55,3.97-6.8,4.54c-2.25,.57-10.25-7.56-10.51-7.79l.65-.61c2.08,2.1,7.11,6.97,9.22,6.67Z"/>
                <path class="cls-20" d="M44.98,64.94c-2.63-.19-9.91-7.59-10.16-7.81l.37-.35c1.57,1.59,7.09,7.13,9.79,8.16Z"/>
                <path class="cls-5" d="M46.46,63.85c-.48,.12-1.21-.15-2.08-.65,.11,0,.21,0,.3,0,1.85-.26,5.3-1.92,7.23-2.9l.11,.04c-1.51,1.22-4.05,3.13-5.56,3.51Z"/>
                <path class="cls-16" d="M48.27,59.17c-.18-.32-1.01-.43-1.85-.24-.84,.19-1.38,.61-1.2,.93,.18,.32,1.01,.43,1.85,.24,.84-.19,1.38-.61,1.2-.93Z"/>
                <path class="cls-16" d="M45.48,58.09c-.2-.16-.65,0-1,.34s-.46,.76-.26,.92c.2,.16,.65,0,1-.34,.35-.35,.46-.76,.26-.92Z"/>
                <path class="cls-16" d="M42.71,56.91c-.14-.25-.78-.34-1.44-.19-.66,.15-1.08,.47-.94,.72,.14,.25,.78,.34,1.44,.19,.66-.15,1.08-.47,.94-.72Z"/>
                <path class="cls-16" d="M40.53,56.06c-.16-.13-.51,0-.78,.27-.27,.27-.36,.59-.2,.72s.51,0,.78-.27c.27-.27,.36-.59,.2-.72Z"/>
              </g>
              <g>
                <path class="cls-15" d="M38.4,55.06c.32,.17,10.47,6.6,12.24,5.41,1.77-1.2,4.29-6.56,4.29-6.56l-15.1-2.24-1.43,3.4Z"/>
                <path class="cls-16" d="M41.78,53.35s0,.01,.01,.02c2.18,2.25,5.52-.04,5.54-.08-1.05,2.04-1.49,6.59,6.09,.4,.5,.08,1.01,.15,1.51,.22-10.13,8.61-9.6,2.8-8.28,.24-.02,.04-4.1,2.84-6.75,.1,0,0-.01-.01-.02-.02-.8-.78-.62-2.64-.05-2.55,.5,.07,1.01,.15,1.51,.22-.05,.48,.07,1.11,.43,1.46Z"/>
                <path class="cls-19" d="M49.42,58.82c1.53-.76,3.96-3.41,5.29-4.95l.22,.03s-2.52,5.36-4.29,6.56c-1.77,1.2-11.92-5.24-12.24-5.41l.34-.81c2.63,1.65,8.92,5.44,10.68,4.57Z"/>
                <path class="cls-20" d="M50.34,60.58c-2.39,.5-11.63-5.36-11.94-5.52l.2-.47c1.99,1.25,8.96,5.62,11.74,5.99Z"/>
                <path class="cls-5" d="M51.24,59.05c-.38,.25-1.13,.16-2.08-.14,.1-.02,.19-.05,.27-.09,1.53-.76,3.96-3.41,5.29-4.95l.11,.02c-.87,1.68-2.4,4.35-3.59,5.15Z"/>
                <path class="cls-16" d="M51.07,53.66c-.28-.29-1.05-.19-1.73,.24-.67,.42-.99,1-.71,1.29,.28,.29,1.05,.19,1.73-.24,.67-.42,.99-1,.71-1.29Z"/>
                <path class="cls-16" d="M48.19,53.26c-.24-.11-.58,.16-.75,.62-.17,.46-.12,.92,.12,1.04,.24,.11,.58-.16,.75-.62,.17-.46,.12-.92-.12-1.04Z"/>
                <path class="cls-16" d="M45.29,52.75c-.22-.23-.82-.15-1.34,.18-.52,.33-.77,.78-.55,1.01s.82,.15,1.34-.18c.52-.33,.77-.78,.55-1.01Z"/>
                <path class="cls-16" d="M43.05,52.44c-.19-.09-.45,.13-.59,.49-.14,.36-.09,.72,.09,.81,.19,.09,.45-.13,.59-.49,.14-.36,.09-.72-.09-.81Z"/>
              </g>
              <g>
                <path class="cls-15" d="M38.58,52.09c.37,.12,12.08,4.84,13.87,3.52s3.95-6.59,3.95-6.59l-16.64-.24-1.18,3.32Z"/>
                <path class="cls-16" d="M42.06,50.1s.01,0,.02,.01c2.61,1.82,5.99-.71,6.01-.75-.92,2.01-.9,6.28,6.65-.37,.56,0,1.11,.02,1.66,.02-10.06,9.2-10.12,3.76-8.97,1.23-.02,.04-4.14,3.12-7.32,.91,0,0-.01-.01-.02-.02-.95-.63-.96-2.37-.33-2.36,.56,0,1.11,.02,1.67,.02,0,.45,.19,1.02,.63,1.3Z"/>
                <path class="cls-19" d="M50.95,54.24c1.58-.89,3.93-3.64,5.21-5.22h.24s-2.16,5.28-3.95,6.6-13.5-3.4-13.87-3.52l.28-.79c3.03,1.21,10.27,3.95,12.09,2.93Z"/>
                <path class="cls-20" d="M52.14,55.75c-2.54,.75-13.2-3.55-13.56-3.66l.16-.46c2.29,.92,10.33,4.11,13.39,4.12Z"/>
                <path class="cls-5" d="M52.95,54.22c-.38,.28-1.21,.29-2.28,.13,.1-.03,.2-.07,.28-.11,1.58-.89,3.93-3.64,5.21-5.22h.12c-.77,1.66-2.13,4.32-3.34,5.21Z"/>
                <path class="cls-16" d="M52.18,49.26c-.34-.24-1.16-.04-1.85,.43-.69,.47-.97,1.05-.63,1.28,.34,.24,1.16,.04,1.85-.43,.69-.47,.97-1.05,.63-1.28Z"/>
                <path class="cls-16" d="M49.01,49.24c-.27-.08-.61,.22-.75,.67s-.03,.87,.24,.95c.27,.08,.61-.22,.75-.67,.14-.45,.03-.87-.24-.95Z"/>
                <path class="cls-16" d="M45.81,49.12c-.26-.18-.91-.03-1.44,.33s-.75,.82-.49,1c.26,.18,.91,.03,1.44-.33,.53-.37,.75-.82,.49-1Z"/>
                <path class="cls-16" d="M43.34,49.1c-.21-.06-.48,.17-.59,.52-.11,.35-.02,.68,.19,.74s.48-.17,.59-.52c.11-.35,.02-.68-.19-.74Z"/>
              </g>
            </g>
            <polygon class="cls-11" points="45 59.91 33.65 55.4 34.61 53.46 46.86 56.22 45 59.91"/>
            <path class="cls-15" d="M37.94,51.65s13.61,.19,16.13,2.78c-4.55,.85-8.02,2.08-8.02,2.08l-11.43-3.06s1.47-1.21,3.33-1.81Z"/>
            <path class="cls-20" d="M45.45,55.3c2.26-.28,4.16-1.05,6.02-2.13-4.76-1.39-13.54-1.52-13.54-1.52-1.32,.42-2.44,1.16-2.98,1.55,3.47,.65,6.53,2.6,10.5,2.1Z"/>
            <path class="cls-2" d="M54.06,54.43c.76,.31-1.77,4.25-1.77,4.25,0,0-3.12,1.7-7.29,1.23-.62-1.01,1.04-3.4,1.04-3.4,0,0,4.96-3.31,8.02-2.08Z"/>
            <g>
              <polygon class="cls-31" points="43.83 55.24 34.34 52.69 34.73 50.3 44.63 50.71 43.83 55.24"/>
              <path class="cls-37" d="M37.77,47.66s10.51-2.77,14.13-.25c-4.68,1.76-8.07,3.78-8.07,3.78l-9.09-.88s1.2-1.64,3.03-2.64Z"/>
              <path class="cls-39" d="M51.9,47.4c.93,.22-.52,5.16-.52,5.16,0,0-2.85,2.49-7.55,2.68-1.02-1.04,0-4.06,0-4.06,0,0,4.31-4.65,8.07-3.78Z"/>
              <path class="cls-40" d="M51.9,47.4c-3.14,.33-6.67,3.38-6.67,3.38,0,0-.79,1.23-1.4,4.46-1.02-1.04,0-4.06,0-4.06,0,0,4.31-4.65,8.07-3.78Z"/>
              <path class="cls-32" d="M48.7,46.39c-1.38,.17-5.99,1.24-8.6,4.49-.38,1.11-.05,3.42-.05,3.42,0,0-1.04-1.78-1.09-3.56,1.62-2.15,4.83-3.92,6.87-4.39,1.13-.03,2.87,.03,2.87,.03Z"/>
              <path class="cls-38" d="M36.18,53.05s-.16-1.63,.64-2.42c.8-.79,5.41-3.81,5.41-3.81,0,0-1.23-.18-2.7,.42-1.35,.79-3.7,2.84-3.86,3.33s.51,2.48,.51,2.48Z"/>
            </g>
            <g>
              <polygon class="cls-34" points="34.14 60.46 30.5 56.19 31.53 54.57 36.12 57.41 34.14 60.46"/>
              <path class="cls-35" d="M33.91,53.45s6,.7,6.85,3.44c-2.86,.07-5.19,.65-5.19,.65l-4.04-2.97s1.15-.87,2.38-1.12Z"/>
              <path class="cls-33" d="M40.75,56.89c.37,.39-2.06,3.58-2.06,3.58,0,0-2.23,1.06-4.55-.01-.12-1.01,1.42-2.92,1.42-2.92,0,0,3.69-2.24,5.19-.65Z"/>
              <path class="cls-36" d="M40.75,56.89c-1.62-.57-4.38,.72-4.38,.72,0,0-.81,.68-2.23,2.85-.12-1.01,1.42-2.92,1.42-2.92,0,0,3.69-2.24,5.19-.65Z"/>
              <path class="cls-46" d="M39.58,55.34c-.72-.23-3.3-.64-5.69,1.03-.57,.7-1.23,2.45-1.23,2.45,0,0,.13-1.55,.72-2.84,1.53-1.13,3.68-1.59,4.83-1.4,.55,.27,1.36,.76,1.36,.76Z"/>
              <path class="cls-54" d="M31.26,56.92s.5-1.22,1.15-1.58c.66-.36,3.93-1.35,3.93-1.35,0,0-.52-.45-1.44-.39-.92,.22-2.77,1.09-3.01,1.4-.24,.31-.63,1.91-.63,1.91Z"/>
            </g>
            <path class="cls-47" d="M27.86,54.85c-.93,1.24-1.8,2.62-1.14,3.76,.64,1.1,2.59,.58,3.2,1.72,.51,.97,.14,2.13,.46,3.09,.4,1.2,1.62,.83,2.44,1.52,1.28,1.08,1.54,2.4,3.59,2.62,1.37,.14,2.59-.06,2.11-1.44-.1-.29-2.51-3.31-3.54-4.53-1.08-1.26-1.69-2.15-3.31-4.3-.08-2.62,3.05-2.73,4.16-4.81,1.39-2.59,.08-3.86,3.55-5.15,1.38-.51,6.38-.94,7.61-.99,1.02-.04,.83-2.32-.41-3.71-1.32-1.48-5.29-2.37-7.71-.54-1.11,.84-.91,1.79-1.72,2.69-1.02,1.13-1.63,.77-2.8,.99-1.08,.2-1.77,.27-2.56,1.38-.9,1.28,.13,2.18-.59,3.45-.22,.39-1.09,.94-1.42,1.35-.54,.67-.81,1.48-1.35,2.17-.18,.23-.37,.48-.56,.72Z"/>
            <path class="cls-7" d="M45.05,42.16c-1.18-.35-2.33-.73-3.67-.73-1.16,0-2.23,.67-2.95,1.73-.45,.66-1.11,1.55-1.4,2.25-.22,.52,.25,.33,.74,.29,1.07-.09,2.15-.18,3.25-.43,.92-.21,1.86-.59,2.75-.59,.88,0,1.63,.45,2.52,.36,.9-.08,.8-.89,.59-1.38-.32-.75-.99-1.27-1.82-1.51Z"/>
            <g class="cls-30">
              <path class="cls-6" d="M42.42,42.84c.18-.1,.3-.22,.34-.34,.11-.36-.5-.66-1.37-.66s-1.67,.3-1.78,.66c-.11,.36,.5,.66,1.37,.66,.13,0,.25,0,.37-.02-.03,.03-.06,.07-.07,.11-.07,.23,.31,.41,.85,.41s1.04-.18,1.11-.41c.07-.22-.29-.4-.81-.41Z"/>
            </g>
            <path class="cls-7" d="M35.28,47.97c.5-.13,.99-.29,1.39-.64,.65-.57,.28-1.24-.32-1.34-.66-.12-1.57,.42-2.26,.4-.53-.02-1.26-.12-1.77,.41-.49,.51-.27,1.08-.24,1.56,.03,.52-.97,2.8-.03,2.72,.79-.07,.76-1.21,.95-1.64,.46-1.07,1.39-1.22,2.28-1.45Z"/>
            <g class="cls-30">
              <path class="cls-6" d="M34.66,46.87c.12-.07,.21-.15,.23-.23,.08-.25-.34-.45-.93-.45s-1.14,.2-1.22,.45c-.08,.25,.34,.45,.93,.45,.09,0,.17,0,.25-.01-.02,.02-.04,.05-.05,.07-.05,.15,.21,.28,.58,.28s.71-.12,.75-.28c.05-.15-.2-.27-.55-.28Z"/>
            </g>
            <path class="cls-8" d="M29.64,53.18c-.6,.75-1.03,1.59-1.63,2.35-.62,.78-1.23,1.65-.84,2.41,.33,.64,1.3,.82,2.05,.09,.64-.61,.69-1.49,1.22-2.16,.64-.81,1.63-1.27,2.39-1.96,.83-.76,1.12-1.59,1.33-2.51,.06-.27,.59-2.18,.19-2.18-.45,0-.6,.99-.71,1.2-.91,1.8-2.85,1.33-3.99,2.75Z"/>
            <path class="cls-7" d="M28.75,56.5c.6,.18,.91-.32,.85-.8-.01-.1-.25-.96-.32-.97-.39-.08-1.6,1.38-1.75,1.71-.48,1.09,.82,.93,1.21,.06Z"/>
            <path class="cls-9" d="M47.58,44.75c-.17,.19,.17,.94-.13,1.31-.3,.37-.54,.33-.95,.42-.8,.17-1.51-.04-2.29,.03-1.47,.12-2.96,.33-4.47,.78-3.41,1.01-2.2,3.18-3.91,5.35-.77,.97-2.11,1.71-3.07,2.52,.66-1.23,1.66-2.2,2.44-3.37,.81-1.21,.7-2.54,1.47-3.7,.59-.88,2.45-1.7,3.4-1.89,.7-.14,1.24,.09,1.89,.11,.66,.02,1.31-.18,1.99-.27,1.45-.2,2.41,.08,3.63-1.28Z"/>
            <path class="cls-3" d="M28.02,58.8c.47,.04,1.5,.85,1.78,1.2,.49,.61,.36,1.54,.62,2.27,.29,.82,1.05,1.37,1.76,1.83,1.32,.85,2.07,2.43,3.67,2.94,1.88,.6,2.82-.86,1.87-2.21-.9-1.27-2.14-2.26-3.03-3.55-.94-1.37-2.08-2.57-3.03-3.94-.13,.97-.04,1.83,.43,2.54,.39,.59,1.29,1.16,1.14,2.05-.22,1.34-1.16,.26-1.49-.2-.43-.6-.77-1.26-1.27-1.81-.63-.71-1.37-1.03-2.45-1.13Z"/>
            <path class="cls-10" d="M37.81,66.36c.7-1.14-.96-1.87-1.71-2.01-1.52-.27-2.89-.84-4.28-1.38-.76-.29-1.29-.11-.79,.68,.42,.67,1.2,.61,1.92,.86,.62,.21,3.67,3.79,4.86,1.85Z"/>
          </g>
          <path class="cls-12" d="M4.57,19.54c-6.03-1.52,15.61,29.4,18.19,26.29,.73-.88,5.11-7.2,14.65-9.23,4.32-.92-31.42-16.7-32.85-17.06Z"/>
        </g>
        <g>
          <g>
            <path class="cls-18" d="M68.25,6.68C62.56-.8,50.5-1.91,40.34,2.89,29.28,8.11,10.98,11.86,3.79,16.64c-.48,.32-1.31,1.45-.19,2.02,4.64,2.37,23.46,15.21,34.22,17.47,8.68,1.83,24.48-.28,35.49-6.21,.83-.45,1.49-14.62-5.07-23.24Z"/>
            <path class="cls-17" d="M65.36,5.2c5.82,5.31,8.66,15.02,6.85,23.9-1.99,1.73-19.52,9-31.09,4.44-9.61-3.79-10.53-19.5-1.33-28.3,7.88-7.53,19.74-5.34,25.56-.04Z"/>
          </g>
          <path class="cls-12" d="M40.01,3.01c-4.58,2.43-7.66,8.63-8.17,16.53-.35,5.37-30.4-.85-26.63-3.28L40.01,3.01Z"/>
          <path class="cls-14" d="M66.73,28.66c-6.68,5.35-19.14,8.22-26.85,2.68-6.8-4.89-5.18-15.29-2.64-21.43,.55-1.32,2.44-2.78,3.12-3.32,.79-.62,.7-1.18,1.78-2.01,.28-.21,1.37-.37,1.55-.65,1.37-2.18,4.27-2.49,6.63-2.01,.44,.09,.83-.78,3.21-.97,1.1-.09,2.71,1.14,3.85,1.12,.92-.01,2.23-.22,3.17-.05,1.7,.31,3.66,2.64,5.23,3.16,3.7,1.23,4.39,4.66,4.41,5.75,.02,1.62,.76,2.86,.87,4.42,0,.13,1.97,1.87-.19,3.55,.92,.05,2.31,1.8,.06,3.71-.41,.61-.43,1.49-1.54,2.19-1.15,.75,.72,1.16-2.64,3.85Z"/>
          <g>
            <path class="cls-13" d="M66.51,28.7c-6.68,5.36-19.1,8.26-26.76,2.74-6.76-4.86-5.11-15.24-2.56-21.37,.55-1.32,2.44-2.78,3.12-3.32,.79-.62,.7-1.18,1.78-2.01,.28-.22,1.37-.38,1.55-.66,1.37-2.18,4.26-2.49,6.61-2.02,.44,.09,.83-.78,3.2-.98,1.1-.09,2.7,1.13,3.83,1.1,.92-.02,2.22-.22,3.16-.06,1.69,.3,3.64,2.62,5.2,3.14,3.68,1.22,4.36,4.64,4.37,5.72,.01,1.61,.74,2.85,.85,4.41,0,.13,1.95,1.86-.2,3.55,.91,.05,2.29,1.79,.04,3.71-.41,.61-.43,1.49-1.54,2.19-1.15,.75,.71,1.15-2.65,3.85Z"/>
            <g>
              <path class="cls-4" d="M62.09,10.14c-.55,.65-2.2,.31-3.67-.75s-2.22-2.45-1.66-3.09c.55-.65,2.2-.31,3.67,.75,1.47,1.06,2.22,2.45,1.66,3.09Z"/>
              <path class="cls-6" d="M61.04,8.56c-.31,.36-1.37,.14-2.37-.51-1-.64-1.56-1.46-1.25-1.82s1.37-.14,2.37,.51c1,.64,1.56,1.46,1.25,1.82Z"/>
            </g>
            <g>
              <path class="cls-4" d="M55.98,6.79c-.37,.86-2.6,1.37-4.98,1.16-2.37-.22-4-1.09-3.62-1.95,.37-.86,2.6-1.37,4.98-1.16,2.37,.22,4,1.09,3.62,1.95Z"/>
              <path class="cls-6" d="M53.89,5.89c-.21,.48-1.66,.81-3.23,.73-1.57-.08-2.68-.53-2.47-1.01,.21-.48,1.66-.81,3.23-.73,1.57,.08,2.68,.53,2.47,1.01Z"/>
            </g>
            <g>
              <path class="cls-4" d="M37.5,26.9c-.85,.43-1.87-1.07-2.28-3.36-.41-2.29-.06-4.49,.79-4.92,.85-.43,1.87,1.07,2.28,3.36,.41,2.29,.06,4.49-.79,4.92Z"/>
              <path class="cls-6" d="M37.76,24.26c-.48,.24-1.13-.74-1.46-2.2-.33-1.46-.21-2.83,.26-3.08,.48-.24,1.13,.74,1.46,2.2,.33,1.46,.21,2.83-.26,3.08Z"/>
            </g>
            <g>
              <path class="cls-4" d="M43.11,18.11c-.78,.62-1.78,.52-2.24-.24-.46-.75-.2-1.86,.58-2.48,.78-.62,1.78-.52,2.24,.24,.46,.75,.2,1.86-.58,2.48Z"/>
              <path class="cls-6" d="M43.27,16.86c-.44,.35-1.08,.27-1.43-.17-.36-.44-.29-1.08,.15-1.43,.44-.35,1.08-.27,1.43,.17s.29,1.08-.15,1.43Z"/>
            </g>
            <g>
              <path class="cls-4" d="M52.61,28.56c.14,.49-.88,.97-2.27,1.08-1.39,.11-2.63-.19-2.77-.68s.88-.97,2.27-1.08,2.63,.19,2.77,.68Z"/>
              <path class="cls-6" d="M51.09,28.25c.1,.27-.54,.59-1.43,.72-.89,.13-1.69,0-1.78-.26-.1-.27,.54-.59,1.43-.72,.89-.12,1.69,0,1.78,.26Z"/>
            </g>
            <g>
              <path class="cls-4" d="M69.19,10.85c-.54,.49-1.86-.2-2.96-1.54-1.1-1.34-1.55-2.82-1.01-3.31,.54-.49,1.86,.2,2.96,1.54,1.1,1.34,1.55,2.82,1.01,3.31Z"/>
              <path class="cls-6" d="M68.52,9.12c-.3,.28-1.16-.18-1.91-1.02-.75-.84-1.12-1.74-.82-2.01,.3-.28,1.16,.18,1.91,1.02,.75,.84,1.12,1.74,.82,2.01Z"/>
            </g>
            <g>
              <path class="cls-4" d="M71.6,21.18c-.4,.72-1.66,1.06-2.81,.77-1.15-.29-1.76-1.11-1.36-1.82,.4-.72,1.66-1.06,2.81-.77,1.15,.29,1.76,1.11,1.36,1.82Z"/>
              <path class="cls-6" d="M70.76,20.32c-.23,.4-1.04,.62-1.82,.48-.78-.14-1.23-.57-1-.98,.23-.4,1.04-.62,1.82-.48s1.23,.57,1,.98Z"/>
            </g>
            <g>
              <path class="cls-4" d="M66.23,28.22c-.08,.55-.81,1.14-1.63,1.33-.82,.19-1.42-.1-1.34-.65,.08-.55,.81-1.14,1.63-1.33,.82-.19,1.42,.1,1.34,.65Z"/>
              <path class="cls-6" d="M65.47,27.98c-.04,.31-.52,.69-1.06,.85-.54,.16-.94,.04-.9-.26s.52-.69,1.06-.85,.94-.04,.9,.26Z"/>
            </g>
            <g>
              <path class="cls-4" d="M65.83,15.44c-.43,.37-1.31-.04-1.98-.93s-.87-1.91-.44-2.28c.43-.37,1.31,.04,1.98,.93,.67,.89,.87,1.91,.44,2.28Z"/>
              <path class="cls-6" d="M65.5,14.25c-.24,.21-.81-.07-1.28-.61-.47-.55-.65-1.17-.41-1.38,.24-.21,.81,.07,1.28,.61,.47,.55,.65,1.17,.41,1.38Z"/>
            </g>
            <g>
              <path class="cls-4" d="M42.67,31.7c-.6,.64-2.22,.16-3.61-1.07-1.39-1.23-2.03-2.74-1.42-3.38,.6-.64,2.22-.16,3.61,1.07,1.39,1.23,2.03,2.74,1.42,3.38Z"/>
              <path class="cls-6" d="M41.75,29.95c-.34,.36-1.38,.04-2.33-.71-.95-.75-1.44-1.65-1.1-2.01,.34-.36,1.38-.04,2.33,.71,.95,.75,1.44,1.65,1.11,2.01Z"/>
            </g>
            <g>
              <path class="cls-4" d="M63.85,27.73c-.33,.75-2.29,1.2-4.37,1-2.08-.2-3.5-.97-3.17-1.72s2.29-1.2,4.37-1c2.08,.2,3.5,.97,3.17,1.72Z"/>
              <path class="cls-6" d="M62.02,26.93c-.19,.42-1.45,.7-2.83,.63-1.38-.08-2.34-.48-2.16-.9,.19-.42,1.45-.7,2.83-.63,1.38,.08,2.34,.48,2.16,.9Z"/>
            </g>
            <g>
              <path class="cls-4" d="M45.11,13.65c-.8,.58-1.87,.22-2.39-.82-.52-1.04-.3-2.35,.5-2.93s1.87-.22,2.39,.82c.52,1.04,.3,2.35-.5,2.93Z"/>
              <path class="cls-6" d="M45.22,12.14c-.45,.33-1.13,.08-1.53-.55-.4-.63-.36-1.41,.09-1.74,.45-.33,1.13-.08,1.53,.55,.4,.63,.36,1.41-.09,1.74Z"/>
            </g>
            <g>
              <path class="cls-4" d="M42.41,14.7c-.68,.74-2.26,.46-3.52-.62-1.27-1.08-1.74-2.55-1.06-3.28,.68-.74,2.26-.46,3.52,.62,1.27,1.08,1.74,2.55,1.06,3.28Z"/>
              <path class="cls-6" d="M41.68,13.03c-.38,.41-1.4,.22-2.27-.43-.87-.65-1.27-1.51-.89-1.92,.38-.41,1.4-.22,2.27,.43,.87,.65,1.27,1.51,.89,1.92Z"/>
            </g>
            <g>
              <path class="cls-4" d="M45.32,31.67c-.84,.34-1.57-.29-1.62-1.41-.05-1.11,.59-2.29,1.43-2.63,.84-.34,1.57,.29,1.62,1.41,.05,1.11-.59,2.29-1.43,2.63Z"/>
              <path class="cls-6" d="M45.94,30.28c-.47,.19-.93-.22-1.03-.92-.1-.7,.21-1.42,.68-1.61,.47-.19,.93,.22,1.03,.92s-.21,1.42-.68,1.61Z"/>
            </g>
            <g>
              <path class="cls-4" d="M48.36,33.27c-.29,.42-1.68,.56-3.11,.32-1.43-.24-2.35-.78-2.06-1.19,.29-.42,1.68-.56,3.11-.32,1.43,.24,2.35,.78,2.06,1.19Z"/>
              <path class="cls-6" d="M47.16,32.7c-.36,.39-1.06,.32-2.01,.19-.95-.13-1.59-.42-1.43-.65,.16-.23,1.06-.32,2.01-.19,.95,.13,1.62,.44,1.43,.65Z"/>
            </g>
            <g>
              <path class="cls-4" d="M69.91,23.75c-.31,.6-1.37,.84-2.36,.52s-1.53-1.06-1.22-1.66c.31-.6,1.37-.84,2.36-.52,.99,.32,1.53,1.06,1.22,1.66Z"/>
              <path class="cls-6" d="M69.17,22.96c-.18,.34-.86,.48-1.52,.32-.67-.16-1.06-.57-.89-.9,.18-.34,.86-.48,1.52-.32,.67,.16,1.06,.57,.89,.9Z"/>
            </g>
            <g>
              <path class="cls-4" d="M41.75,10.66c-.83,.18-1.32-.91-1.08-2.45,.24-1.53,1.1-2.93,1.93-3.11s1.32,.91,1.08,2.45-1.1,2.93-1.93,3.11Z"/>
              <path class="cls-6" d="M42.65,8.97c-.47,.1-.77-.61-.68-1.6,.09-.99,.55-1.87,1.01-1.97s.77,.61,.68,1.6c-.09,.99-.55,1.87-1.01,1.97Z"/>
            </g>
            <g>
              <path class="cls-4" d="M64.25,11.1c-.71,.39-1.63-.83-2.07-2.71-.43-1.88-.2-3.73,.51-4.11,.71-.39,1.63,.83,2.07,2.71,.43,1.88,.2,3.73-.51,4.11Z"/>
              <path class="cls-6" d="M64.38,8.9c-.4,.22-.99-.58-1.32-1.78-.33-1.2-.28-2.35,.12-2.56s.99,.58,1.32,1.78,.28,2.35-.12,2.56Z"/>
            </g>
            <g>
              <path class="cls-4" d="M69.76,14.52c-.53,.6-2.06,.25-3.42-.8s-2.02-2.38-1.48-2.99c.53-.6,2.06-.25,3.42,.8,1.35,1.05,2.02,2.38,1.48,2.99Z"/>
              <path class="cls-6" d="M68.9,13.04c-.3,.34-1.29,.1-2.21-.54-.92-.64-1.42-1.43-1.12-1.76,.3-.34,1.29-.1,2.21,.54,.92,.64,1.42,1.43,1.12,1.76Z"/>
            </g>
            <g>
              <path class="cls-4" d="M43.7,28.73c-.76,.65-2.38-.21-3.63-1.94s-1.65-3.65-.89-4.3,2.38,.21,3.63,1.94c1.25,1.72,1.65,3.65,.89,4.3Z"/>
              <path class="cls-6" d="M43.05,26.48c-.42,.37-1.47-.21-2.34-1.28-.87-1.07-1.23-2.24-.8-2.6,.42-.37,1.47,.21,2.34,1.28,.87,1.07,1.23,2.24,.8,2.6Z"/>
            </g>
            <g>
              <path class="cls-4" d="M51.97,31.23c-.28,.69-1.76,1.17-3.29,1.07-1.54-.09-2.55-.72-2.27-1.41,.28-.69,1.76-1.17,3.29-1.07s2.55,.72,2.27,1.41Z"/>
              <path class="cls-6" d="M50.65,30.59c-.16,.38-1.11,.69-2.13,.68-1.02-.01-1.72-.33-1.56-.72,.16-.38,1.11-.69,2.13-.68,1.02,.01,1.72,.33,1.56,.72Z"/>
            </g>
            <g>
              <path class="cls-4" d="M57.23,32.52c-.21,.69-2.14,1.36-4.31,1.51-2.18,.15-3.77-.29-3.57-.98s2.14-1.36,4.31-1.51,3.77,.29,3.57,.98Z"/>
              <path class="cls-6" d="M55.2,32.12c-.12,.38-1.37,.81-2.8,.96-1.43,.15-2.5-.05-2.38-.43,.12-.38,1.37-.81,2.8-.96,1.43-.15,2.5,.05,2.38,.43Z"/>
            </g>
            <g>
              <path class="cls-4" d="M70.72,18.54c-.66,.75-2.14,.63-3.3-.26-1.16-.9-1.56-2.23-.9-2.98,.66-.75,2.14-.63,3.3,.26,1.16,.9,1.56,2.23,.9,2.98Z"/>
              <path class="cls-6" d="M70.08,17.05c-.37,.42-1.32,.33-2.13-.19-.8-.53-1.15-1.3-.78-1.72s1.32-.33,2.13,.19,1.15,1.3,.78,1.72Z"/>
            </g>
            <g>
              <path class="cls-4" d="M62.02,4.73c-.47,.84-2.06,1.22-3.55,.84-1.49-.37-2.32-1.36-1.85-2.2s2.06-1.22,3.55-.84c1.49,.37,2.32,1.36,1.85,2.2Z"/>
              <path class="cls-6" d="M60.9,3.68c-.26,.47-1.29,.71-2.3,.52-1-.18-1.61-.71-1.34-1.18,.26-.47,1.29-.71,2.3-.52,1,.18,1.61,.71,1.34,1.18Z"/>
            </g>
            <g>
              <path class="cls-4" d="M39.81,18.87c-.77,.63-2.04,.13-2.84-1.12s-.81-2.76-.04-3.39c.77-.63,2.04-.13,2.84,1.12,.79,1.25,.81,2.76,.04,3.39Z"/>
              <path class="cls-6" d="M39.62,17.12c-.43,.35-1.25,.02-1.82-.75s-.69-1.67-.25-2.02c.43-.35,1.25-.02,1.82,.75,.57,.76,.69,1.67,.25,2.02Z"/>
            </g>
            <g>
              <path class="cls-4" d="M56.4,3.69c-.45,.85-2.07,1.26-3.62,.92s-2.44-1.3-1.98-2.14c.45-.85,2.07-1.26,3.62-.92,1.55,.34,2.44,1.3,1.98,2.14Z"/>
              <path class="cls-6" d="M55.2,2.68c-.25,.47-1.3,.73-2.34,.57-1.04-.16-1.68-.67-1.42-1.14,.25-.47,1.3-.73,2.34-.57,1.04,.16,1.68,.67,1.42,1.14Z"/>
            </g>
            <g>
              <path class="cls-4" d="M50.49,3.68c-.3,.86-1.93,1.57-3.63,1.59-1.71,.02-2.84-.67-2.54-1.53,.3-.86,1.93-1.57,3.63-1.59,1.71-.02,2.84,.67,2.54,1.53Z"/>
              <path class="cls-6" d="M49.01,3.01c-.17,.48-1.22,.93-2.36,1.01-1.13,.07-1.91-.26-1.74-.74,.17-.48,1.22-.93,2.36-1.01,1.13-.07,1.91,.26,1.74,.74Z"/>
            </g>
            <g>
              <path class="cls-4" d="M48.95,9.94c-.59,.8-2.14,.88-3.46,.19-1.32-.69-1.92-1.9-1.33-2.69,.59-.8,2.14-.88,3.46-.19,1.32,.69,1.92,1.9,1.33,2.69Z"/>
              <path class="cls-6" d="M48.08,8.61c-.33,.45-1.33,.49-2.24,.1-.9-.39-1.37-1.07-1.04-1.52s1.33-.49,2.24-.1c.9,.39,1.37,1.07,1.04,1.52Z"/>
            </g>
            <g>
              <path class="cls-4" d="M42.02,20.65c-.4,.85-1.56,1.43-2.59,1.29-1.03-.14-1.54-.94-1.14-1.8s1.56-1.43,2.59-1.29c1.03,.14,1.54,.94,1.14,1.8Z"/>
              <path class="cls-6" d="M41.31,19.83c-.23,.48-.98,.84-1.68,.82s-1.08-.44-.86-.92c.23-.48,.98-.84,1.68-.82,.7,.03,1.08,.44,.86,.92Z"/>
            </g>
            <g>
              <path class="cls-4" d="M63.06,29.85c-.12,.74-1.5,1.62-3.09,1.97-1.59,.34-2.79,.02-2.67-.72s1.5-1.62,3.09-1.97c1.59-.34,2.79-.02,2.67,.72Z"/>
              <path class="cls-6" d="M61.55,29.61c-.07,.42-.96,.98-2.01,1.26-1.04,.28-1.84,.17-1.77-.25,.07-.42,.96-.98,2.01-1.26,1.04-.28,1.84-.17,1.77,.25Z"/>
            </g>
            <g>
              <path class="cls-4" d="M65.82,22.55c-.86,.34-1.59-.3-1.63-1.42-.04-1.12,.62-2.3,1.48-2.64,.86-.34,1.59,.3,1.63,1.42,.04,1.12-.62,2.3-1.48,2.64Z"/>
              <path class="cls-6" d="M66.46,21.15c-.48,.19-.94-.23-1.03-.93-.09-.7,.23-1.43,.71-1.62,.48-.19,.94,.23,1.03,.93,.09,.7-.23,1.43-.71,1.62Z"/>
            </g>
            <g>
              <path class="cls-4" d="M57.53,30.12c-.44,.85-1.9,1.33-3.26,1.08s-2.11-1.15-1.68-1.99c.44-.85,1.9-1.33,3.26-1.08,1.36,.25,2.11,1.15,1.68,1.99Z"/>
              <path class="cls-6" d="M56.5,29.19c-.25,.48-1.19,.78-2.11,.67-.92-.1-1.47-.57-1.22-1.05,.25-.48,1.19-.78,2.11-.67,.92,.1,1.47,.57,1.22,1.05Z"/>
            </g>
            <g>
              <path class="cls-4" d="M67.83,26.62c-.58,.8-2.3,.83-3.85,.07-1.55-.76-2.33-2.03-1.75-2.83s2.3-.83,3.85-.07,2.33,2.03,1.75,2.83Z"/>
              <path class="cls-6" d="M66.73,25.21c-.32,.45-1.44,.46-2.49,.02s-1.64-1.16-1.31-1.61c.32-.45,1.44-.46,2.49-.02,1.05,.44,1.64,1.16,1.31,1.61Z"/>
            </g>
          </g>
          <g>
            <g>
              <path class="cls-15" d="M45.06,21.73c.3,.23,9.29,8.39,11.5,7.81,2.21-.59,6.35-4.59,6.35-4.59l-15.4-5.8-2.45,2.58Z"/>
              <path class="cls-16" d="M49.11,21.11s0,.01,.01,.02c1.69,2.51,5.87,1.37,5.9,1.34-1.67,1.5-3.39,5.34,6.35,1.9,.51,.2,1.03,.39,1.54,.57-13.1,4.88-10.95-.02-8.85-1.9-.03,.03-5.13,1.42-7.19-1.64,0,0,0-.01-.01-.02-.64-.88,.07-2.45,.65-2.23,.51,.19,1.03,.39,1.54,.58-.18,.4-.23,.98,.06,1.38Z"/>
              <path class="cls-19" d="M55.72,27.8c1.84-.27,5.14-1.94,6.97-2.94l.22,.08s-4.14,4.01-6.35,4.59c-2.21,.58-11.2-7.58-11.5-7.81l.58-.62c2.33,2.1,7.97,6.99,10.07,6.69Z"/>
              <path class="cls-20" d="M56.21,29.56c-2.67-.18-10.86-7.61-11.15-7.83l.34-.36c1.77,1.59,7.96,7.16,10.81,8.19Z"/>
              <path class="cls-5" d="M57.58,28.46c-.47,.12-1.24-.15-2.17-.65,.11,0,.21,0,.31,0,1.84-.27,5.14-1.94,6.97-2.94l.11,.04c-1.39,1.23-3.74,3.16-5.22,3.55Z"/>
              <path class="cls-16" d="M58.88,23.75c-.22-.32-1.06-.43-1.89-.24s-1.33,.62-1.11,.94,1.06,.43,1.89,.24c.83-.19,1.33-.62,1.11-.94Z"/>
              <path class="cls-16" d="M55.94,22.67c-.22-.16-.66,0-.97,.35-.31,.35-.38,.77-.16,.93,.22,.16,.66,0,.97-.35,.31-.35,.38-.77,.16-.93Z"/>
              <path class="cls-16" d="M53.01,21.48c-.17-.25-.83-.33-1.48-.18-.65,.15-1.03,.48-.86,.73,.17,.25,.83,.33,1.48,.18,.65-.15,1.03-.48,.86-.73Z"/>
              <path class="cls-16" d="M50.71,20.64c-.18-.13-.51,0-.76,.27-.24,.28-.3,.6-.12,.73,.18,.13,.51,0,.76-.27,.24-.28,.3-.6,.12-.73Z"/>
            </g>
            <g>
              <path class="cls-15" d="M46.98,20.21c.32,.16,10.15,6.17,12.28,5.21,2.13-.96,5.83-5.5,5.83-5.5l-15.95-2.59-2.16,2.88Z"/>
              <path class="cls-16" d="M50.94,18.87s0,0,.01,.01c1.95,2.04,5.99,.2,6.02,.17-1.5,1.72-2.8,5.65,6.52,.6,.53,.09,1.06,.18,1.6,.25-12.52,7.03-10.9,2.01-9.01-.15-.03,.04-4.95,2.28-7.33-.2,0,0,0-.01-.01-.02-.73-.71-.19-2.31,.4-2.22,.53,.09,1.06,.17,1.6,.26-.14,.41-.13,.96,.2,1.29Z"/>
              <path class="cls-19" d="M58.23,23.94c1.8-.59,4.9-2.78,6.62-4.06l.23,.04s-3.69,4.54-5.83,5.5c-2.13,.96-11.96-5.05-12.28-5.21l.52-.69c2.55,1.55,8.68,5.1,10.74,4.42Z"/>
              <path class="cls-20" d="M58.91,25.5c-2.68,.33-11.63-5.14-11.93-5.29l.3-.4c1.93,1.17,8.69,5.25,11.63,5.69Z"/>
              <path class="cls-5" d="M60.16,24.21c-.45,.2-1.25,.09-2.23-.21,.11-.01,.21-.03,.3-.06,1.8-.59,4.9-2.78,6.62-4.06l.12,.02c-1.25,1.42-3.38,3.67-4.81,4.31Z"/>
              <path class="cls-16" d="M60.95,19.53c-.25-.27-1.11-.21-1.91,.13-.81,.34-1.25,.83-1,1.09s1.11,.21,1.91-.13c.81-.34,1.25-.83,1-1.09Z"/>
              <path class="cls-16" d="M57.9,19.06c-.24-.11-.66,.12-.93,.51-.27,.39-.3,.8-.06,.91,.24,.11,.66-.12,.93-.51,.27-.39,.3-.8,.06-.91Z"/>
              <path class="cls-16" d="M54.86,18.5c-.19-.21-.86-.16-1.49,.1s-.98,.64-.78,.85c.19,.21,.86,.16,1.49-.1,.63-.26,.98-.64,.78-.85Z"/>
              <path class="cls-16" d="M52.48,18.13c-.19-.09-.51,.09-.72,.4-.21,.3-.23,.62-.04,.7,.19,.09,.51-.09,.72-.4,.21-.3,.23-.62,.04-.7Z"/>
            </g>
            <g>
              <path class="cls-15" d="M50.12,17.61c.36,.1,11.97,4.12,13.49,2.67,1.52-1.44,2.86-6.89,2.86-6.89l-15.66,.8-.69,3.42Z"/>
              <path class="cls-16" d="M53.14,15.38s.01,0,.02,.01c2.68,1.67,5.54-1.09,5.55-1.13-.6,2.09-.04,6.39,6.2-.79,.52-.03,1.05-.05,1.56-.09-8.27,9.9-9.03,4.42-8.27,1.8-.01,.04-3.49,3.41-6.76,1.38,0,0-.01-.01-.02-.01-.98-.57-1.2-2.32-.62-2.35,.52-.03,1.05-.05,1.57-.08,.06,.45,.31,1.01,.76,1.27Z"/>
              <path class="cls-19" d="M62.02,18.99c1.37-.99,3.23-3.91,4.23-5.59h.23s-1.35,5.43-2.86,6.88c-1.52,1.44-13.13-2.58-13.49-2.67l.16-.82c3.01,1.03,10.16,3.34,11.73,2.2Z"/>
              <path class="cls-20" d="M63.33,20.44c-2.29,.91-12.86-2.74-13.21-2.83l.09-.47c2.27,.78,10.24,3.49,13.11,3.31Z"/>
              <path class="cls-5" d="M63.9,18.85c-.32,.31-1.1,.36-2.12,.27,.09-.04,.18-.08,.25-.13,1.37-.99,3.23-3.91,4.23-5.59h.12c-.51,1.71-1.45,4.48-2.47,5.45Z"/>
              <path class="cls-16" d="M62.54,13.9c-.35-.22-1.1,.03-1.68,.55-.58,.52-.78,1.12-.43,1.33,.35,.22,1.1-.03,1.68-.55,.58-.52,.78-1.12,.43-1.33Z"/>
              <path class="cls-16" d="M59.56,14.08c-.27-.06-.55,.26-.62,.72-.07,.46,.08,.88,.35,.94,.27,.06,.55-.26,.62-.72s-.08-.88-.35-.94Z"/>
              <path class="cls-16" d="M56.54,14.16c-.27-.17-.86,.02-1.31,.43-.45,.4-.6,.87-.33,1.04,.27,.17,.86-.02,1.31-.43,.45-.4,.6-.87,.33-1.04Z"/>
              <path class="cls-16" d="M54.21,14.3c-.21-.05-.42,.2-.48,.56-.06,.36,.06,.68,.27,.73,.21,.05,.43-.2,.48-.56,.06-.36-.06-.68-.27-.73Z"/>
            </g>
            <g>
              <path class="cls-15" d="M49.65,14.83c.4,.04,13.2,2.18,14.71,.61,1.51-1.57,2.51-6.86,2.51-6.86l-16.77,2.95-.46,3.3Z"/>
              <path class="cls-16" d="M52.7,12.32s.01,0,.02,0c3.02,1.19,5.86-1.8,5.87-1.84-.48,2.04,.48,5.99,6.6-1.61,.56-.1,1.12-.19,1.67-.3-8.08,10.44-9.34,5.41-8.74,2.85,0,.04-3.47,3.68-7.15,2.24,0,0-.02,0-.02-.01-1.1-.4-1.48-2.01-.86-2.12,.56-.1,1.12-.2,1.68-.3,.1,.41,.42,.9,.92,1.09Z"/>
              <path class="cls-19" d="M62.54,14.45c1.4-1.13,3.15-4.11,4.08-5.83l.24-.04s-1,5.29-2.51,6.86c-1.51,1.57-14.31-.57-14.71-.61l.11-.79c3.31,.54,11.19,1.7,12.79,.41Z"/>
              <path class="cls-20" d="M64.07,15.63c-2.39,1.18-14.05-.77-14.42-.8l.06-.46c2.51,.41,11.29,1.84,14.36,1.26Z"/>
              <path class="cls-5" d="M64.55,14.06c-.32,.33-1.15,.5-2.26,.55,.1-.05,.18-.1,.26-.16,1.4-1.13,3.15-4.11,4.08-5.83l.12-.02c-.41,1.68-1.19,4.41-2.2,5.46Z"/>
              <path class="cls-16" d="M62.68,9.61c-.39-.15-1.18,.18-1.76,.75-.58,.57-.74,1.15-.35,1.31,.39,.16,1.18-.18,1.76-.75,.58-.57,.74-1.15,.35-1.31Z"/>
              <path class="cls-16" d="M59.49,10.2c-.29-.02-.56,.32-.61,.76-.04,.44,.16,.81,.45,.83,.29,.02,.56-.32,.61-.76,.04-.44-.16-.81-.45-.83Z"/>
              <path class="cls-16" d="M56.25,10.69c-.3-.12-.92,.14-1.37,.58-.45,.44-.58,.9-.27,1.02s.92-.14,1.37-.58c.45-.44,.58-.9,.27-1.02Z"/>
              <path class="cls-16" d="M53.77,11.15c-.23-.01-.44,.25-.47,.59-.03,.34,.13,.63,.35,.65s.44-.25,.47-.59c.03-.34-.13-.63-.35-.65Z"/>
            </g>
          </g>
          <polygon class="cls-11" points="57.82 20.84 45.42 18.83 45.96 16.84 58.88 17.07 57.82 20.84"/>
          <path class="cls-15" d="M48.9,14.54s13.72-2.42,16.82-.5c-4.38,1.65-7.6,3.45-7.6,3.45l-12.16-.65s1.21-1.4,2.94-2.31Z"/>
          <path class="cls-20" d="M57.26,16.49c2.2-.69,3.95-1.77,5.58-3.12-5.09-.38-13.94,1.18-13.94,1.18-1.23,.65-2.2,1.54-2.66,2,3.63-.06,7.13,1.16,11.01-.05Z"/>
          <path class="cls-2" d="M65.72,14.04c.83,.14-.84,4.27-.84,4.27,0,0-2.76,2.17-7.05,2.52-.85-.81,.29-3.34,.29-3.34,0,0,4.25-4.01,7.6-3.45Z"/>
          <g>
            <polygon class="cls-45" points="55.61 16.74 45.51 16.19 45.39 13.9 55.42 12.39 55.61 16.74"/>
            <path class="cls-55" d="M47.85,10.87s9.95-4.57,14.14-2.93c-4.32,2.52-7.27,5.04-7.27,5.04l-9.33,.92s.85-1.74,2.46-3.03Z"/>
            <path class="cls-56" d="M61.99,7.95c.98,.02,.62,4.88,.62,4.88,0,0-2.31,2.84-7,3.92-1.25-.77-.9-3.76-.9-3.76,0,0,3.31-5.12,7.27-5.04Z"/>
            <path class="cls-58" d="M61.99,7.95c-3.08,.9-5.96,4.4-5.96,4.4,0,0-.52,1.29-.42,4.39-1.25-.77-.9-3.76-.9-3.76,0,0,3.31-5.12,7.27-5.04Z"/>
            <path class="cls-60" d="M58.56,7.62c-1.34,.42-5.74,2.29-7.65,5.8-.14,1.1,.7,3.18,.7,3.18,0,0-1.43-1.45-1.88-3.08,1.16-2.3,3.98-4.55,5.93-5.38,1.13-.25,2.89-.52,2.89-.52Z"/>
            <path class="cls-59" d="M47.44,16.17s-.52-1.48,.1-2.36c.63-.88,4.6-4.56,4.6-4.56,0,0-1.27,.07-2.62,.91-1.18,.98-3.09,3.34-3.14,3.81-.05,.48,1.06,2.2,1.06,2.2Z"/>
          </g>
          <g>
            <polygon class="cls-57" points="47.04 23.42 42.43 20.16 43.11 18.47 48.34 20.21 47.04 23.42"/>
            <path class="cls-51" d="M45.25,16.97s6.18-.49,7.64,1.88c-2.86,.61-5.07,1.59-5.07,1.59l-4.71-1.98s.96-1.02,2.14-1.49Z"/>
            <path class="cls-49" d="M52.89,18.86c.46,.29-1.28,3.71-1.28,3.71,0,0-2.01,1.41-4.58,.86-.35-.91,.78-2.98,.78-2.98,0,0,3.22-2.78,5.07-1.59Z"/>
            <path class="cls-53" d="M52.89,18.86c-1.75-.22-4.24,1.5-4.24,1.5,0,0-.66,.79-1.61,3.06-.35-.91,.78-2.98,.78-2.98,0,0,3.22-2.78,5.07-1.59Z"/>
            <path class="cls-50" d="M51.37,17.65c-.77-.08-3.46,.03-5.49,2.03-.42,.76-.69,2.5-.69,2.5,0,0-.21-1.45,.1-2.77,1.29-1.34,3.35-2.17,4.54-2.21,.61,.14,1.54,.45,1.54,.45Z"/>
            <path class="cls-48" d="M43.35,20.69s.23-1.22,.81-1.68c.58-.46,3.64-2,3.64-2,0,0-.62-.31-1.53-.09-.88,.38-2.54,1.54-2.71,1.87-.17,.33-.21,1.89-.21,1.89Z"/>
          </g>
          <path class="cls-52" d="M39.48,19.43c-.67,1.32-1.23,2.77-.32,3.7,.88,.9,2.73,.05,3.59,.99,.73,.8,.62,1.95,1.15,2.77,.67,1.03,1.81,.46,2.79,.94,1.53,.75,2.08,1.93,4.18,1.74,1.41-.13,2.59-.55,1.8-1.73-.17-.25-3.25-2.59-4.56-3.51-1.36-.96-2.18-1.67-4.28-3.35-.66-2.41,2.46-3.11,3.12-5.24,.83-2.67-.78-3.59,2.43-5.45,1.27-.74,6.2-2.09,7.42-2.36,1.01-.23,.32-2.31-1.23-3.36-1.65-1.12-5.84-1.19-7.87,.97-.93,.98-.52,1.83-1.13,2.82-.77,1.24-1.46,1.02-2.6,1.45-1.04,.39-1.72,.59-2.27,1.77-.63,1.36,.61,2,.17,3.3-.14,.41-.88,1.07-1.12,1.52-.39,.72-.49,1.53-.88,2.27-.13,.25-.27,.51-.4,.78Z"/>
          <path class="cls-7" d="M53.96,4.4c-1.26-.1-2.5-.23-3.85,.02-1.16,.22-2.1,1.05-2.59,2.17-.31,.7-.77,1.65-.91,2.35-.1,.52,.33,.26,.81,.13,1.06-.29,2.12-.58,3.17-1.02,.87-.37,1.73-.9,2.63-1.07,.88-.17,1.73,.1,2.61-.15,.89-.25,.6-.98,.28-1.39-.49-.63-1.28-.98-2.16-1.05Z"/>
          <g class="cls-30">
            <path class="cls-6" d="M51.46,5.53c.16-.13,.26-.26,.27-.38,.03-.36-.65-.52-1.52-.35-.88,.17-1.61,.59-1.65,.95-.03,.36,.65,.52,1.52,.35,.13-.02,.25-.05,.37-.09-.03,.04-.05,.08-.05,.11-.02,.22,.4,.32,.94,.22,.54-.1,1-.37,1.02-.59,.02-.22-.38-.31-.9-.22Z"/>
          </g>
          <path class="cls-7" d="M45.42,11.64c.47-.22,.93-.46,1.26-.86,.52-.65,0-1.2-.61-1.18-.69,.02-1.48,.69-2.19,.8-.53,.09-1.3,.13-1.69,.72-.38,.56-.03,1.05,.1,1.49,.15,.47-.36,2.77,.57,2.52,.78-.21,.5-1.27,.59-1.7,.23-1.08,1.12-1.39,1.97-1.78Z"/>
          <g class="cls-30">
            <path class="cls-6" d="M44.55,10.74c.11-.09,.17-.18,.18-.26,.02-.24-.44-.35-1.04-.24-.6,.11-1.1,.4-1.12,.65-.02,.24,.44,.35,1.04,.24,.09-.02,.17-.04,.25-.06-.02,.03-.03,.05-.03,.08-.01,.15,.27,.22,.64,.15,.37-.07,.68-.25,.7-.4,.01-.15-.26-.21-.61-.15Z"/>
          </g>
          <path class="cls-8" d="M40.91,17.54c-.44,.81-.68,1.67-1.12,2.49-.45,.84-.87,1.76-.31,2.39,.47,.53,1.48,.51,2.08-.3,.5-.69,.36-1.51,.75-2.23,.46-.87,1.36-1.49,1.97-2.27,.66-.86,.77-1.68,.78-2.58,0-.26,.12-2.13-.29-2.05-.45,.09-.38,1.03-.44,1.25-.51,1.84-2.57,1.77-3.41,3.3Z"/>
          <path class="cls-7" d="M40.74,20.78c.65,.05,.84-.47,.68-.9-.04-.09-.46-.84-.53-.84-.41,0-1.31,1.59-1.38,1.92-.24,1.1,1.03,.7,1.23-.18Z"/>
          <path class="cls-9" d="M57.07,6.32c-.13,.21,.38,.84,.16,1.24-.22,.4-.47,.41-.86,.57-.77,.31-1.53,.25-2.3,.46-1.45,.39-2.9,.87-4.32,1.57-3.2,1.58-1.51,3.37-2.75,5.7-.55,1.04-1.75,1.98-2.53,2.91,.39-1.27,1.18-2.35,1.71-3.58,.54-1.27,.14-2.49,.66-3.71,.4-.93,2.09-2.04,3-2.4,.67-.27,1.27-.15,1.92-.26,.66-.1,1.28-.41,1.94-.63,1.41-.46,2.44-.38,3.37-1.88Z"/>
          <path class="cls-3" d="M40.52,23.05c.48-.05,1.69,.5,2.06,.77,.63,.47,.7,1.36,1.12,1.98,.48,.7,1.36,1.07,2.18,1.36,1.52,.53,2.62,1.86,4.34,2.02,2.02,.19,2.64-1.33,1.39-2.4-1.18-1.01-2.65-1.68-3.83-2.71-1.25-1.09-2.66-1.99-3.91-3.07,.08,.92,.36,1.7,.99,2.27,.52,.47,1.55,.83,1.6,1.68,.07,1.28-1.11,.47-1.54,.1-.56-.48-1.05-1.02-1.67-1.44-.79-.53-1.61-.69-2.71-.58Z"/>
          <path class="cls-10" d="M52.02,28.18c.45-1.19-1.38-1.55-2.16-1.53-1.58,.03-3.09-.23-4.61-.46-.83-.13-1.32,.15-.65,.78,.57,.54,1.34,.34,2.12,.43,.67,.08,4.52,2.81,5.29,.78Z"/>
        </g>
      </g>
    </g>
  </g>
</svg>