<?xml version="1.0" encoding="UTF-8"?>
<svg xmlns="http://www.w3.org/2000/svg" xmlns:xlink="http://www.w3.org/1999/xlink" width="139px" height="150px" viewBox="0 0 139 149" version="1.1">
<defs>
<filter id="alpha" filterUnits="objectBoundingBox" x="0%" y="0%" width="100%" height="100%">
  <feColorMatrix type="matrix" in="SourceGraphic" values="0 0 0 0 1 0 0 0 0 1 0 0 0 0 1 0 0 0 1 0"/>
</filter>
<mask id="mask0">
  <g filter="url(#alpha)">
<rect x="0" y="0" width="139" height="149" style="fill:rgb(0%,0%,0%);fill-opacity:0.301961;stroke:none;"/>
  </g>
</mask>
<clipPath id="clip1">
  <rect x="0" y="0" width="139" height="149"/>
</clipPath>
<g id="surface5" clip-path="url(#clip1)">
<path style=" stroke:none;fill-rule:nonzero;fill:rgb(100%,100%,100%);fill-opacity:1;" d="M 13.488281 114.898438 C 9.699219 115.261719 8.996094 88.640625 7.820312 76.796875 C 6.644531 64.953125 4.828125 50.066406 8.613281 49.6875 C 12.402344 49.320312 7.4375 64.753906 10.113281 77.265625 C 14.390625 97.261719 17.277344 114.53125 13.488281 114.898438 Z M 13.488281 114.898438 "/>
</g>
</defs>
<g id="surface1">
<path style=" stroke:none;fill-rule:nonzero;fill:rgb(72.156863%,70.980392%,66.666667%);fill-opacity:1;" d="M 138.832031 123.972656 C 139.71875 108.160156 109.398438 93.625 71.105469 91.5 C 32.808594 89.371094 1.054688 100.453125 0.167969 116.265625 C -0.71875 132.078125 29.601562 146.613281 67.894531 148.742188 C 106.191406 150.871094 137.945312 139.785156 138.832031 123.972656 Z M 138.832031 123.972656 "/>
<path style=" stroke:none;fill-rule:nonzero;fill:rgb(1.176471%,3.137255%,0%);fill-opacity:1;" d="M 62.824219 6.992188 C 28.703125 6.992188 1.039062 17.589844 1.039062 30.652344 L 1.039062 109.894531 C 1.039062 128.734375 28.703125 144.011719 62.824219 144.011719 C 96.949219 144.011719 124.609375 128.734375 124.609375 109.894531 L 124.609375 30.652344 C 124.609375 17.574219 96.949219 6.992188 62.824219 6.992188 Z M 62.824219 6.992188 "/>
<path style=" stroke:none;fill-rule:nonzero;fill:rgb(100%,37.647059%,12.941176%);fill-opacity:1;" d="M 68.078125 8.773438 C 68.078125 3.9375 64.136719 0 59.265625 0 C 54.394531 0 50.453125 3.921875 50.453125 8.773438 C 50.453125 13.621094 54.394531 17.546875 59.265625 17.546875 C 64.136719 17.546875 68.078125 13.621094 68.078125 8.773438 Z M 68.078125 8.773438 "/>
<path style=" stroke:none;fill-rule:nonzero;fill:rgb(87.058824%,24.705882%,0%);fill-opacity:1;" d="M 65.636719 7.875 C 65.636719 3.984375 62.457031 0.820312 58.546875 0.820312 C 54.636719 0.820312 51.460938 3.984375 51.460938 7.875 C 51.460938 11.769531 54.636719 14.929688 58.546875 14.929688 C 62.457031 14.929688 65.636719 11.769531 65.636719 7.875 Z M 65.636719 7.875 "/>
<path style=" stroke:none;fill-rule:nonzero;fill:rgb(100%,100%,100%);fill-opacity:1;" d="M 60.105469 3.027344 C 58.824219 1.597656 56.300781 1.765625 54.46875 3.390625 C 52.636719 5.015625 52.179688 7.496094 53.445312 8.925781 C 54.714844 10.355469 54.914062 7.570312 56.746094 5.945312 C 58.578125 4.316406 61.375 4.453125 60.105469 3.027344 Z M 60.105469 3.027344 "/>
<path style=" stroke:none;fill-rule:nonzero;fill:rgb(100%,60.392157%,0%);fill-opacity:1;" d="M 57.9375 14.277344 C 59.113281 15.492188 61.648438 14.960938 63.589844 13.074219 C 65.527344 11.207031 66.140625 8.695312 64.949219 7.480469 C 63.773438 6.265625 63.40625 9.03125 61.464844 10.902344 C 59.527344 12.769531 56.746094 13.058594 57.9375 14.277344 Z M 57.9375 14.277344 "/>
<path style=" stroke:none;fill-rule:nonzero;fill:rgb(100%,37.647059%,12.941176%);fill-opacity:1;" d="M 90.058594 10.808594 C 90.058594 5.976562 86.117188 2.039062 81.246094 2.039062 C 76.375 2.039062 72.433594 5.960938 72.433594 10.808594 C 72.433594 15.660156 76.375 19.582031 81.246094 19.582031 C 86.117188 19.582031 90.058594 15.660156 90.058594 10.808594 Z M 90.058594 10.808594 "/>
<path style=" stroke:none;fill-rule:nonzero;fill:rgb(87.058824%,24.705882%,0%);fill-opacity:1;" d="M 87.601562 9.914062 C 87.601562 6.019531 84.421875 2.859375 80.511719 2.859375 C 76.601562 2.859375 73.425781 6.019531 73.425781 9.914062 C 73.425781 13.804688 76.601562 16.96875 80.511719 16.96875 C 84.421875 16.96875 87.601562 13.804688 87.601562 9.914062 Z M 87.601562 9.914062 "/>
<path style=" stroke:none;fill-rule:nonzero;fill:rgb(100%,100%,100%);fill-opacity:1;" d="M 82.070312 5.0625 C 80.804688 3.632812 78.269531 3.800781 76.433594 5.429688 C 74.601562 7.054688 74.144531 9.53125 75.410156 10.960938 C 76.679688 12.390625 76.878906 9.609375 78.710938 7.980469 C 80.542969 6.355469 83.339844 6.492188 82.070312 5.0625 Z M 82.070312 5.0625 "/>
<path style=" stroke:none;fill-rule:nonzero;fill:rgb(100%,60.392157%,0%);fill-opacity:1;" d="M 79.917969 16.328125 C 81.109375 17.546875 83.628906 17.011719 85.570312 15.128906 C 87.507812 13.257812 88.121094 10.75 86.929688 9.53125 C 85.738281 8.316406 85.386719 11.082031 83.445312 12.953125 C 81.507812 14.824219 78.726562 15.113281 79.917969 16.328125 Z M 79.917969 16.328125 "/>
<path style=" stroke:none;fill-rule:nonzero;fill:rgb(100%,37.647059%,12.941176%);fill-opacity:1;" d="M 114.804688 14.929688 C 114.804688 10.09375 110.863281 6.15625 105.992188 6.15625 C 101.117188 6.15625 97.179688 10.082031 97.179688 14.929688 C 97.179688 19.78125 101.117188 23.703125 105.992188 23.703125 C 110.863281 23.703125 114.804688 19.78125 114.804688 14.929688 Z M 114.804688 14.929688 "/>
<path style=" stroke:none;fill-rule:nonzero;fill:rgb(87.058824%,24.705882%,0%);fill-opacity:1;" d="M 112.359375 14.035156 C 112.359375 10.140625 109.183594 6.980469 105.273438 6.980469 C 101.363281 6.980469 98.1875 10.140625 98.1875 14.035156 C 98.1875 17.925781 101.363281 21.089844 105.273438 21.089844 C 109.183594 21.089844 112.359375 17.925781 112.359375 14.035156 Z M 112.359375 14.035156 "/>
<path style=" stroke:none;fill-rule:nonzero;fill:rgb(100%,100%,100%);fill-opacity:1;" d="M 106.816406 9.183594 C 105.546875 7.753906 103.011719 7.921875 101.179688 9.546875 C 99.347656 11.175781 98.886719 13.652344 100.15625 15.082031 C 101.425781 16.511719 101.621094 13.730469 103.457031 12.101562 C 105.289062 10.476562 108.082031 10.613281 106.816406 9.183594 Z M 106.816406 9.183594 "/>
<path style=" stroke:none;fill-rule:nonzero;fill:rgb(100%,60.392157%,0%);fill-opacity:1;" d="M 104.664062 20.433594 C 105.855469 21.652344 108.375 21.117188 110.3125 19.234375 C 112.253906 17.363281 112.863281 14.855469 111.671875 13.636719 C 110.496094 12.421875 110.128906 15.1875 108.191406 17.058594 C 106.25 18.929688 103.472656 19.21875 104.664062 20.433594 Z M 104.664062 20.433594 "/>
<path style=" stroke:none;fill-rule:nonzero;fill:rgb(100%,37.647059%,12.941176%);fill-opacity:1;" d="M 47.105469 11.054688 C 47.105469 6.21875 43.167969 2.28125 38.292969 2.28125 C 33.421875 2.28125 29.480469 6.203125 29.480469 11.054688 C 29.480469 15.902344 33.421875 19.824219 38.292969 19.824219 C 43.167969 19.824219 47.105469 15.902344 47.105469 11.054688 Z M 47.105469 11.054688 "/>
<path style=" stroke:none;fill-rule:nonzero;fill:rgb(87.058824%,24.705882%,0%);fill-opacity:1;" d="M 44.664062 10.171875 C 44.664062 6.277344 41.484375 3.117188 37.574219 3.117188 C 33.664062 3.117188 30.488281 6.277344 30.488281 10.171875 C 30.488281 14.0625 33.664062 17.226562 37.574219 17.226562 C 41.484375 17.226562 44.664062 14.0625 44.664062 10.171875 Z M 44.664062 10.171875 "/>
<path style=" stroke:none;fill-rule:nonzero;fill:rgb(100%,100%,100%);fill-opacity:1;" d="M 39.117188 5.304688 C 37.851562 3.878906 35.316406 4.042969 33.480469 5.671875 C 31.648438 7.296875 31.191406 9.777344 32.457031 11.207031 C 33.726562 12.632812 33.925781 9.851562 35.757812 8.226562 C 37.589844 6.597656 40.386719 6.734375 39.117188 5.304688 Z M 39.117188 5.304688 "/>
<path style=" stroke:none;fill-rule:nonzero;fill:rgb(100%,60.392157%,0%);fill-opacity:1;" d="M 36.964844 16.574219 C 38.15625 17.789062 40.675781 17.257812 42.617188 15.371094 C 44.554688 13.5 45.167969 10.992188 43.976562 9.777344 C 42.800781 8.558594 42.433594 11.328125 40.492188 13.195312 C 38.554688 15.066406 35.773438 15.355469 36.964844 16.574219 Z M 36.964844 16.574219 "/>
<path style=" stroke:none;fill-rule:nonzero;fill:rgb(100%,37.647059%,12.941176%);fill-opacity:1;" d="M 27.769531 24.644531 C 27.769531 19.8125 23.828125 15.875 18.957031 15.875 C 14.082031 15.875 10.140625 19.796875 10.140625 24.644531 C 10.140625 29.496094 14.082031 33.417969 18.957031 33.417969 C 23.828125 33.417969 27.769531 29.496094 27.769531 24.644531 Z M 27.769531 24.644531 "/>
<path style=" stroke:none;fill-rule:nonzero;fill:rgb(87.058824%,24.705882%,0%);fill-opacity:1;" d="M 25.324219 23.75 C 25.324219 19.839844 22.148438 16.695312 18.238281 16.695312 C 14.328125 16.695312 11.152344 19.855469 11.152344 23.75 C 11.152344 27.640625 14.328125 30.804688 18.238281 30.804688 C 22.148438 30.804688 25.324219 27.640625 25.324219 23.75 Z M 25.324219 23.75 "/>
<path style=" stroke:none;fill-rule:nonzero;fill:rgb(100%,100%,100%);fill-opacity:1;" d="M 19.796875 18.898438 C 18.511719 17.46875 15.992188 17.636719 14.144531 19.261719 C 12.3125 20.890625 11.851562 23.367188 13.121094 24.796875 C 14.390625 26.226562 14.585938 23.445312 16.421875 21.816406 C 18.253906 20.191406 21.046875 20.328125 19.78125 18.898438 Z M 19.796875 18.898438 "/>
<path style=" stroke:none;fill-rule:nonzero;fill:rgb(100%,60.392157%,0%);fill-opacity:1;" d="M 17.628906 30.164062 C 18.804688 31.382812 21.339844 30.847656 23.277344 28.964844 C 25.21875 27.09375 25.828125 24.585938 24.636719 23.367188 C 23.460938 22.152344 23.09375 24.917969 21.15625 26.789062 C 19.214844 28.660156 16.4375 28.949219 17.628906 30.164062 Z M 17.628906 30.164062 "/>
<path style=" stroke:none;fill-rule:nonzero;fill:rgb(100%,37.647059%,12.941176%);fill-opacity:1;" d="M 37.042969 18.351562 C 37.042969 13.5 33.101562 9.578125 28.226562 9.578125 C 23.355469 9.578125 19.414062 13.5 19.414062 18.351562 C 19.414062 23.203125 23.355469 27.125 28.226562 27.125 C 33.101562 27.125 37.042969 23.203125 37.042969 18.351562 Z M 37.042969 18.351562 "/>
<path style=" stroke:none;fill-rule:nonzero;fill:rgb(87.058824%,24.705882%,0%);fill-opacity:1;" d="M 34.597656 17.453125 C 34.597656 13.5625 31.421875 10.398438 27.511719 10.398438 C 23.597656 10.398438 20.421875 13.5625 20.421875 17.453125 C 20.421875 21.347656 23.597656 24.507812 27.511719 24.507812 C 31.421875 24.507812 34.597656 21.347656 34.597656 17.453125 Z M 34.597656 17.453125 "/>
<path style=" stroke:none;fill-rule:nonzero;fill:rgb(100%,100%,100%);fill-opacity:1;" d="M 29.066406 12.605469 C 27.785156 11.175781 25.265625 11.34375 23.429688 12.96875 C 21.597656 14.597656 21.140625 17.074219 22.40625 18.503906 C 23.675781 19.933594 23.875 17.148438 25.707031 15.523438 C 27.539062 13.898438 30.335938 14.035156 29.066406 12.605469 Z M 29.066406 12.605469 "/>
<path style=" stroke:none;fill-rule:nonzero;fill:rgb(100%,60.392157%,0%);fill-opacity:1;" d="M 26.898438 23.855469 C 28.089844 25.070312 30.609375 24.539062 32.550781 22.652344 C 34.492188 20.785156 35.101562 18.273438 33.910156 17.058594 C 32.734375 15.84375 32.367188 18.609375 30.425781 20.480469 C 28.488281 22.351562 25.707031 22.640625 26.898438 23.855469 Z M 26.898438 23.855469 "/>
<path style=" stroke:none;fill-rule:nonzero;fill:rgb(100%,37.647059%,12.941176%);fill-opacity:1;" d="M 55.90625 16.769531 C 55.90625 11.921875 51.964844 7.996094 47.09375 7.996094 C 42.21875 7.996094 38.277344 11.921875 38.277344 16.769531 C 38.277344 21.621094 42.21875 25.542969 47.09375 25.542969 C 51.964844 25.542969 55.90625 21.621094 55.90625 16.769531 Z M 55.90625 16.769531 "/>
<path style=" stroke:none;fill-rule:nonzero;fill:rgb(87.058824%,24.705882%,0%);fill-opacity:1;" d="M 53.460938 15.886719 C 53.460938 11.996094 50.285156 8.832031 46.375 8.832031 C 42.464844 8.832031 39.285156 11.996094 39.285156 15.886719 C 39.285156 19.78125 42.464844 22.941406 46.375 22.941406 C 50.285156 22.941406 53.460938 19.78125 53.460938 15.886719 Z M 53.460938 15.886719 "/>
<path style=" stroke:none;fill-rule:nonzero;fill:rgb(100%,100%,100%);fill-opacity:1;" d="M 47.933594 11.023438 C 46.648438 9.59375 44.128906 9.761719 42.296875 11.386719 C 40.460938 13.015625 40.003906 15.492188 41.273438 16.921875 C 42.539062 18.351562 42.738281 15.570312 44.570312 13.941406 C 46.40625 12.316406 49.199219 12.453125 47.933594 11.023438 Z M 47.933594 11.023438 "/>
<path style=" stroke:none;fill-rule:nonzero;fill:rgb(100%,60.392157%,0%);fill-opacity:1;" d="M 45.761719 22.289062 C 46.953125 23.503906 49.476562 22.972656 51.414062 21.089844 C 53.355469 19.21875 53.964844 16.710938 52.773438 15.492188 C 51.597656 14.277344 51.230469 17.042969 49.292969 18.914062 C 47.351562 20.785156 44.570312 21.074219 45.761719 22.289062 Z M 45.761719 22.289062 "/>
<path style=" stroke:none;fill-rule:nonzero;fill:rgb(100%,37.647059%,12.941176%);fill-opacity:1;" d="M 76.894531 19.066406 C 76.894531 14.230469 72.953125 10.292969 68.078125 10.292969 C 63.207031 10.292969 59.265625 14.214844 59.265625 19.066406 C 59.265625 23.917969 63.207031 27.839844 68.078125 27.839844 C 72.953125 27.839844 76.894531 23.917969 76.894531 19.066406 Z M 76.894531 19.066406 "/>
<path style=" stroke:none;fill-rule:nonzero;fill:rgb(87.058824%,24.705882%,0%);fill-opacity:1;" d="M 74.433594 18.167969 C 74.433594 14.277344 71.257812 11.113281 67.347656 11.113281 C 63.4375 11.113281 60.257812 14.277344 60.257812 18.167969 C 60.257812 22.0625 63.4375 25.222656 67.347656 25.222656 C 71.257812 25.222656 74.433594 22.0625 74.433594 18.167969 Z M 74.433594 18.167969 "/>
<path style=" stroke:none;fill-rule:nonzero;fill:rgb(100%,100%,100%);fill-opacity:1;" d="M 68.902344 13.320312 C 67.621094 11.890625 65.101562 12.058594 63.253906 13.683594 C 61.417969 15.308594 60.960938 17.789062 62.230469 19.21875 C 63.496094 20.648438 63.695312 17.863281 65.527344 16.238281 C 67.375 14.609375 70.15625 14.746094 68.890625 13.320312 Z M 68.902344 13.320312 "/>
<path style=" stroke:none;fill-rule:nonzero;fill:rgb(100%,60.392157%,0%);fill-opacity:1;" d="M 66.75 24.585938 C 67.941406 25.800781 70.460938 25.269531 72.402344 23.382812 C 74.34375 21.515625 74.953125 19.003906 73.761719 17.789062 C 72.585938 16.574219 72.21875 19.339844 70.277344 21.210938 C 68.339844 23.078125 65.558594 23.367188 66.75 24.585938 Z M 66.75 24.585938 "/>
<path style=" stroke:none;fill-rule:nonzero;fill:rgb(100%,37.647059%,12.941176%);fill-opacity:1;" d="M 98.859375 19.582031 C 98.859375 14.746094 94.917969 10.808594 90.042969 10.808594 C 85.171875 10.808594 81.230469 14.734375 81.230469 19.582031 C 81.230469 24.433594 85.171875 28.355469 90.042969 28.355469 C 94.917969 28.355469 98.859375 24.433594 98.859375 19.582031 Z M 98.859375 19.582031 "/>
<path style=" stroke:none;fill-rule:nonzero;fill:rgb(87.058824%,24.705882%,0%);fill-opacity:1;" d="M 96.414062 18.6875 C 96.414062 14.792969 93.238281 11.632812 89.328125 11.632812 C 85.417969 11.632812 82.238281 14.792969 82.238281 18.6875 C 82.238281 22.578125 85.417969 25.742188 89.328125 25.742188 C 93.238281 25.742188 96.414062 22.578125 96.414062 18.6875 Z M 96.414062 18.6875 "/>
<path style=" stroke:none;fill-rule:nonzero;fill:rgb(100%,100%,100%);fill-opacity:1;" d="M 90.882812 13.835938 C 89.601562 12.40625 87.082031 12.574219 85.25 14.199219 C 83.414062 15.828125 82.957031 18.304688 84.226562 19.734375 C 85.492188 21.164062 85.691406 18.382812 87.523438 16.753906 C 89.355469 15.128906 92.152344 15.265625 90.882812 13.835938 Z M 90.882812 13.835938 "/>
<path style=" stroke:none;fill-rule:nonzero;fill:rgb(100%,60.392157%,0%);fill-opacity:1;" d="M 88.714844 25.085938 C 89.90625 26.304688 92.425781 25.769531 94.367188 23.886719 C 96.308594 22.015625 96.917969 19.507812 95.726562 18.289062 C 94.550781 17.074219 94.183594 19.839844 92.242188 21.710938 C 90.304688 23.582031 87.523438 23.871094 88.714844 25.085938 Z M 88.714844 25.085938 "/>
<path style=" stroke:none;fill-rule:nonzero;fill:rgb(100%,37.647059%,12.941176%);fill-opacity:1;" d="M 123.601562 23.765625 C 123.601562 18.914062 119.664062 14.992188 114.789062 14.992188 C 109.917969 14.992188 105.976562 18.914062 105.976562 23.765625 C 105.976562 28.613281 109.917969 32.535156 114.789062 32.535156 C 119.664062 32.535156 123.601562 28.613281 123.601562 23.765625 Z M 123.601562 23.765625 "/>
<path style=" stroke:none;fill-rule:nonzero;fill:rgb(87.058824%,24.705882%,0%);fill-opacity:1;" d="M 121.160156 22.867188 C 121.160156 18.976562 117.980469 15.8125 114.070312 15.8125 C 110.160156 15.8125 106.984375 18.976562 106.984375 22.867188 C 106.984375 26.757812 110.160156 29.921875 114.070312 29.921875 C 117.980469 29.921875 121.160156 26.757812 121.160156 22.867188 Z M 121.160156 22.867188 "/>
<path style=" stroke:none;fill-rule:nonzero;fill:rgb(100%,100%,100%);fill-opacity:1;" d="M 115.628906 18 C 114.347656 16.574219 111.828125 16.738281 109.976562 18.367188 C 108.144531 19.992188 107.6875 22.472656 108.953125 23.902344 C 110.222656 25.328125 110.421875 22.546875 112.253906 20.921875 C 114.085938 19.292969 116.882812 19.429688 115.613281 18 Z M 115.628906 18 "/>
<path style=" stroke:none;fill-rule:nonzero;fill:rgb(100%,60.392157%,0%);fill-opacity:1;" d="M 113.460938 29.269531 C 114.636719 30.484375 117.171875 29.953125 119.113281 28.066406 C 121.050781 26.195312 121.664062 23.6875 120.472656 22.472656 C 119.296875 21.253906 118.929688 24.023438 116.988281 25.890625 C 115.050781 27.761719 112.269531 28.050781 113.460938 29.269531 Z M 113.460938 29.269531 "/>
<path style=" stroke:none;fill-rule:nonzero;fill:rgb(100%,37.647059%,12.941176%);fill-opacity:1;" d="M 110.007812 25.40625 C 110.007812 20.570312 106.066406 16.632812 101.195312 16.632812 C 96.324219 16.632812 92.382812 20.554688 92.382812 25.40625 C 92.382812 30.257812 96.324219 34.179688 101.195312 34.179688 C 106.066406 34.179688 110.007812 30.257812 110.007812 25.40625 Z M 110.007812 25.40625 "/>
<path style=" stroke:none;fill-rule:nonzero;fill:rgb(87.058824%,24.705882%,0%);fill-opacity:1;" d="M 107.550781 24.507812 C 107.550781 20.617188 104.371094 17.453125 100.460938 17.453125 C 96.550781 17.453125 93.375 20.617188 93.375 24.507812 C 93.375 28.402344 96.550781 31.5625 100.460938 31.5625 C 104.371094 31.5625 107.550781 28.402344 107.550781 24.507812 Z M 107.550781 24.507812 "/>
<path style=" stroke:none;fill-rule:nonzero;fill:rgb(100%,100%,100%);fill-opacity:1;" d="M 102.019531 19.660156 C 100.753906 18.230469 98.214844 18.398438 96.382812 20.023438 C 94.550781 21.652344 94.09375 24.128906 95.359375 25.558594 C 96.628906 26.988281 96.828125 24.203125 98.660156 22.578125 C 100.492188 20.953125 103.289062 21.089844 102.019531 19.660156 Z M 102.019531 19.660156 "/>
<path style=" stroke:none;fill-rule:nonzero;fill:rgb(100%,60.392157%,0%);fill-opacity:1;" d="M 99.867188 30.925781 C 101.058594 32.140625 103.578125 31.609375 105.519531 29.722656 C 107.457031 27.855469 108.070312 25.34375 106.878906 24.128906 C 105.699219 22.914062 105.335938 25.679688 103.394531 27.550781 C 101.453125 29.417969 98.675781 29.707031 99.867188 30.925781 Z M 99.867188 30.925781 "/>
<path style=" stroke:none;fill-rule:nonzero;fill:rgb(100%,37.647059%,12.941176%);fill-opacity:1;" d="M 87.355469 25.054688 C 87.355469 20.222656 83.414062 16.285156 78.542969 16.285156 C 73.671875 16.285156 69.730469 20.207031 69.730469 25.054688 C 69.730469 29.90625 73.671875 33.828125 78.542969 33.828125 C 83.414062 33.828125 87.355469 29.90625 87.355469 25.054688 Z M 87.355469 25.054688 "/>
<path style=" stroke:none;fill-rule:nonzero;fill:rgb(87.058824%,24.705882%,0%);fill-opacity:1;" d="M 84.898438 24.160156 C 84.898438 20.25 81.71875 17.105469 77.808594 17.105469 C 73.898438 17.105469 70.722656 20.265625 70.722656 24.160156 C 70.722656 28.050781 73.898438 31.214844 77.808594 31.214844 C 81.71875 31.214844 84.898438 28.050781 84.898438 24.160156 Z M 84.898438 24.160156 "/>
<path style=" stroke:none;fill-rule:nonzero;fill:rgb(100%,100%,100%);fill-opacity:1;" d="M 79.367188 19.308594 C 78.101562 17.878906 75.5625 18.046875 73.730469 19.675781 C 71.898438 21.300781 71.441406 23.777344 72.707031 25.207031 C 73.976562 26.636719 74.175781 23.855469 76.007812 22.226562 C 77.839844 20.601562 80.636719 20.738281 79.367188 19.308594 Z M 79.367188 19.308594 "/>
<path style=" stroke:none;fill-rule:nonzero;fill:rgb(100%,60.392157%,0%);fill-opacity:1;" d="M 77.214844 30.558594 C 78.40625 31.777344 80.925781 31.246094 82.867188 29.359375 C 84.804688 27.488281 85.417969 24.980469 84.226562 23.765625 C 83.046875 22.546875 82.683594 25.316406 80.742188 27.183594 C 78.800781 29.054688 76.023438 29.34375 77.214844 30.558594 Z M 77.214844 30.558594 "/>
<path style=" stroke:none;fill-rule:nonzero;fill:rgb(100%,37.647059%,12.941176%);fill-opacity:1;" d="M 65.375 26.804688 C 65.375 21.96875 61.433594 18.03125 56.5625 18.03125 C 51.691406 18.03125 47.75 21.953125 47.75 26.804688 C 47.75 31.65625 51.691406 35.578125 56.5625 35.578125 C 61.433594 35.578125 65.375 31.65625 65.375 26.804688 Z M 65.375 26.804688 "/>
<path style=" stroke:none;fill-rule:nonzero;fill:rgb(87.058824%,24.705882%,0%);fill-opacity:1;" d="M 62.933594 25.90625 C 62.933594 22.015625 59.753906 18.851562 55.84375 18.851562 C 51.933594 18.851562 48.757812 22.015625 48.757812 25.90625 C 48.757812 29.800781 51.933594 32.960938 55.84375 32.960938 C 59.753906 32.960938 62.933594 29.800781 62.933594 25.90625 Z M 62.933594 25.90625 "/>
<path style=" stroke:none;fill-rule:nonzero;fill:rgb(100%,100%,100%);fill-opacity:1;" d="M 57.402344 21.058594 C 56.121094 19.628906 53.597656 19.796875 51.765625 21.421875 C 49.933594 23.050781 49.476562 25.527344 50.742188 26.957031 C 52.011719 28.386719 52.210938 25.605469 54.042969 23.976562 C 55.875 22.351562 58.671875 22.488281 57.402344 21.058594 Z M 57.402344 21.058594 "/>
<path style=" stroke:none;fill-rule:nonzero;fill:rgb(100%,60.392157%,0%);fill-opacity:1;" d="M 55.234375 32.308594 C 56.425781 33.523438 58.945312 32.992188 60.886719 31.109375 C 62.824219 29.238281 63.4375 26.730469 62.246094 25.511719 C 61.066406 24.296875 60.703125 27.0625 58.761719 28.933594 C 56.820312 30.804688 54.042969 31.09375 55.234375 32.308594 Z M 55.234375 32.308594 "/>
<path style=" stroke:none;fill-rule:nonzero;fill:rgb(100%,37.647059%,12.941176%);fill-opacity:1;" d="M 45.855469 26.804688 C 45.855469 21.96875 41.914062 18.03125 37.042969 18.03125 C 32.167969 18.03125 28.226562 21.953125 28.226562 26.804688 C 28.226562 31.65625 32.167969 35.578125 37.042969 35.578125 C 41.914062 35.578125 45.855469 31.65625 45.855469 26.804688 Z M 45.855469 26.804688 "/>
<path style=" stroke:none;fill-rule:nonzero;fill:rgb(87.058824%,24.705882%,0%);fill-opacity:1;" d="M 43.410156 25.90625 C 43.410156 22.015625 40.234375 18.851562 36.324219 18.851562 C 32.414062 18.851562 29.234375 22.015625 29.234375 25.90625 C 29.234375 29.800781 32.414062 32.960938 36.324219 32.960938 C 40.234375 32.960938 43.410156 29.800781 43.410156 25.90625 Z M 43.410156 25.90625 "/>
<path style=" stroke:none;fill-rule:nonzero;fill:rgb(100%,100%,100%);fill-opacity:1;" d="M 37.882812 21.058594 C 36.613281 19.628906 34.078125 19.796875 32.246094 21.421875 C 30.410156 23.050781 29.953125 25.527344 31.222656 26.957031 C 32.488281 28.386719 32.6875 25.605469 34.519531 23.976562 C 36.355469 22.351562 39.148438 22.488281 37.882812 21.058594 Z M 37.882812 21.058594 "/>
<path style=" stroke:none;fill-rule:nonzero;fill:rgb(100%,60.392157%,0%);fill-opacity:1;" d="M 35.710938 32.308594 C 36.902344 33.523438 39.425781 32.992188 41.363281 31.109375 C 43.304688 29.238281 43.914062 26.730469 42.722656 25.511719 C 41.53125 24.296875 41.179688 27.0625 39.242188 28.933594 C 37.300781 30.804688 34.519531 31.09375 35.710938 32.308594 Z M 35.710938 32.308594 "/>
<path style=" stroke:none;fill-rule:nonzero;fill:rgb(100%,37.647059%,12.941176%);fill-opacity:1;" d="M 21.230469 32.597656 C 21.230469 27.761719 17.289062 23.824219 12.417969 23.824219 C 7.546875 23.824219 3.605469 27.746094 3.605469 32.597656 C 3.605469 37.449219 7.546875 41.371094 12.417969 41.371094 C 17.289062 41.371094 21.230469 37.449219 21.230469 32.597656 Z M 21.230469 32.597656 "/>
<path style=" stroke:none;fill-rule:nonzero;fill:rgb(87.058824%,24.705882%,0%);fill-opacity:1;" d="M 18.773438 31.699219 C 18.773438 27.792969 15.59375 24.644531 11.683594 24.644531 C 7.773438 24.644531 4.597656 27.808594 4.597656 31.699219 C 4.597656 35.59375 7.773438 38.753906 11.683594 38.753906 C 15.59375 38.753906 18.773438 35.59375 18.773438 31.699219 Z M 18.773438 31.699219 "/>
<path style=" stroke:none;fill-rule:nonzero;fill:rgb(100%,100%,100%);fill-opacity:1;" d="M 13.242188 26.851562 C 11.976562 25.421875 9.441406 25.589844 7.605469 27.214844 C 5.773438 28.84375 5.316406 31.320312 6.582031 32.75 C 7.851562 34.179688 8.050781 31.394531 9.882812 29.769531 C 11.714844 28.144531 14.511719 28.28125 13.242188 26.851562 Z M 13.242188 26.851562 "/>
<path style=" stroke:none;fill-rule:nonzero;fill:rgb(100%,60.392157%,0%);fill-opacity:1;" d="M 11.089844 38.117188 C 12.28125 39.332031 14.800781 38.800781 16.742188 36.914062 C 18.679688 35.046875 19.292969 32.535156 18.101562 31.320312 C 16.925781 30.105469 16.558594 32.871094 14.617188 34.742188 C 12.679688 36.613281 9.898438 36.898438 11.089844 38.117188 Z M 11.089844 38.117188 "/>
<path style=" stroke:none;fill-rule:nonzero;fill:rgb(100%,37.647059%,12.941176%);fill-opacity:1;" d="M 38.035156 34.511719 C 38.035156 29.679688 34.09375 25.742188 29.21875 25.742188 C 24.347656 25.742188 20.40625 29.664062 20.40625 34.511719 C 20.40625 39.363281 24.347656 43.285156 29.21875 43.285156 C 34.09375 43.285156 38.035156 39.363281 38.035156 34.511719 Z M 38.035156 34.511719 "/>
<path style=" stroke:none;fill-rule:nonzero;fill:rgb(87.058824%,24.705882%,0%);fill-opacity:1;" d="M 35.589844 33.617188 C 35.589844 29.722656 32.414062 26.5625 28.503906 26.5625 C 24.59375 26.5625 21.414062 29.722656 21.414062 33.617188 C 21.414062 37.507812 24.59375 40.671875 28.503906 40.671875 C 32.414062 40.671875 35.589844 37.507812 35.589844 33.617188 Z M 35.589844 33.617188 "/>
<path style=" stroke:none;fill-rule:nonzero;fill:rgb(100%,100%,100%);fill-opacity:1;" d="M 30.0625 28.765625 C 28.777344 27.335938 26.257812 27.503906 24.410156 29.132812 C 22.574219 30.757812 22.117188 33.234375 23.386719 34.664062 C 24.652344 36.09375 24.851562 33.3125 26.683594 31.683594 C 28.519531 30.058594 31.3125 30.195312 30.046875 28.765625 Z M 30.0625 28.765625 "/>
<path style=" stroke:none;fill-rule:nonzero;fill:rgb(100%,60.392157%,0%);fill-opacity:1;" d="M 27.890625 40.015625 C 29.082031 41.234375 31.601562 40.703125 33.542969 38.816406 C 35.484375 36.945312 36.09375 34.4375 34.902344 33.222656 C 33.726562 32.003906 33.359375 34.773438 31.421875 36.640625 C 29.480469 38.511719 26.699219 38.800781 27.890625 40.015625 Z M 27.890625 40.015625 "/>
<path style=" stroke:none;fill-rule:nonzero;fill:rgb(100%,37.647059%,12.941176%);fill-opacity:1;" d="M 55.90625 34.511719 C 55.90625 29.679688 51.964844 25.742188 47.09375 25.742188 C 42.21875 25.742188 38.277344 29.664062 38.277344 34.511719 C 38.277344 39.363281 42.21875 43.285156 47.09375 43.285156 C 51.964844 43.285156 55.90625 39.363281 55.90625 34.511719 Z M 55.90625 34.511719 "/>
<path style=" stroke:none;fill-rule:nonzero;fill:rgb(87.058824%,24.705882%,0%);fill-opacity:1;" d="M 53.460938 33.617188 C 53.460938 29.722656 50.285156 26.5625 46.375 26.5625 C 42.464844 26.5625 39.285156 29.722656 39.285156 33.617188 C 39.285156 37.507812 42.464844 40.671875 46.375 40.671875 C 50.285156 40.671875 53.460938 37.507812 53.460938 33.617188 Z M 53.460938 33.617188 "/>
<path style=" stroke:none;fill-rule:nonzero;fill:rgb(100%,100%,100%);fill-opacity:1;" d="M 47.933594 28.765625 C 46.648438 27.335938 44.128906 27.503906 42.296875 29.132812 C 40.460938 30.757812 40.003906 33.234375 41.273438 34.664062 C 42.539062 36.09375 42.738281 33.3125 44.570312 31.683594 C 46.40625 30.058594 49.199219 30.195312 47.933594 28.765625 Z M 47.933594 28.765625 "/>
<path style=" stroke:none;fill-rule:nonzero;fill:rgb(100%,60.392157%,0%);fill-opacity:1;" d="M 45.761719 40.015625 C 46.953125 41.234375 49.476562 40.703125 51.414062 38.816406 C 53.355469 36.945312 53.964844 34.4375 52.773438 33.222656 C 51.597656 32.003906 51.230469 34.773438 49.292969 36.640625 C 47.351562 38.511719 44.570312 38.800781 45.761719 40.015625 Z M 45.761719 40.015625 "/>
<path style=" stroke:none;fill-rule:nonzero;fill:rgb(100%,37.647059%,12.941176%);fill-opacity:1;" d="M 76.894531 33.496094 C 76.894531 28.660156 72.953125 24.722656 68.078125 24.722656 C 63.207031 24.722656 59.265625 28.644531 59.265625 33.496094 C 59.265625 38.34375 63.207031 42.265625 68.078125 42.265625 C 72.953125 42.265625 76.894531 38.34375 76.894531 33.496094 Z M 76.894531 33.496094 "/>
<path style=" stroke:none;fill-rule:nonzero;fill:rgb(87.058824%,24.705882%,0%);fill-opacity:1;" d="M 74.433594 32.597656 C 74.433594 28.707031 71.257812 25.542969 67.347656 25.542969 C 63.4375 25.542969 60.257812 28.707031 60.257812 32.597656 C 60.257812 36.488281 63.4375 39.652344 67.347656 39.652344 C 71.257812 39.652344 74.433594 36.488281 74.433594 32.597656 Z M 74.433594 32.597656 "/>
<path style=" stroke:none;fill-rule:nonzero;fill:rgb(100%,100%,100%);fill-opacity:1;" d="M 68.902344 27.746094 C 67.621094 26.316406 65.101562 26.484375 63.253906 28.113281 C 61.417969 29.738281 60.960938 32.21875 62.230469 33.648438 C 63.496094 35.074219 63.695312 32.292969 65.527344 30.667969 C 67.375 29.039062 70.15625 29.175781 68.890625 27.746094 Z M 68.902344 27.746094 "/>
<path style=" stroke:none;fill-rule:nonzero;fill:rgb(100%,60.392157%,0%);fill-opacity:1;" d="M 66.75 39.015625 C 67.941406 40.230469 70.460938 39.699219 72.402344 37.8125 C 74.34375 35.941406 74.953125 33.433594 73.761719 32.21875 C 72.585938 31 72.21875 33.769531 70.277344 35.636719 C 68.339844 37.507812 65.558594 37.796875 66.75 39.015625 Z M 66.75 39.015625 "/>
<path style=" stroke:none;fill-rule:nonzero;fill:rgb(100%,37.647059%,12.941176%);fill-opacity:1;" d="M 100.019531 35.046875 C 100.019531 30.195312 96.078125 26.273438 91.207031 26.273438 C 86.332031 26.273438 82.390625 30.195312 82.390625 35.046875 C 82.390625 39.894531 86.332031 43.816406 91.207031 43.816406 C 96.078125 43.816406 100.019531 39.894531 100.019531 35.046875 Z M 100.019531 35.046875 "/>
<path style=" stroke:none;fill-rule:nonzero;fill:rgb(87.058824%,24.705882%,0%);fill-opacity:1;" d="M 97.574219 34.148438 C 97.574219 30.257812 94.398438 27.09375 90.488281 27.09375 C 86.578125 27.09375 83.398438 30.257812 83.398438 34.148438 C 83.398438 38.039062 86.578125 41.203125 90.488281 41.203125 C 94.398438 41.203125 97.574219 38.039062 97.574219 34.148438 Z M 97.574219 34.148438 "/>
<path style=" stroke:none;fill-rule:nonzero;fill:rgb(100%,100%,100%);fill-opacity:1;" d="M 92.03125 29.296875 C 90.761719 27.867188 88.226562 28.035156 86.394531 29.664062 C 84.5625 31.289062 84.101562 33.769531 85.371094 35.199219 C 86.636719 36.625 86.835938 33.84375 88.667969 32.21875 C 90.503906 30.589844 93.296875 30.726562 92.03125 29.296875 Z M 92.03125 29.296875 "/>
<path style=" stroke:none;fill-rule:nonzero;fill:rgb(100%,60.392157%,0%);fill-opacity:1;" d="M 89.875 40.566406 C 91.066406 41.78125 93.589844 41.25 95.527344 39.363281 C 97.46875 37.492188 98.078125 34.984375 96.886719 33.769531 C 95.695312 32.550781 95.34375 35.320312 93.40625 37.1875 C 91.464844 39.058594 88.683594 39.347656 89.875 40.566406 Z M 89.875 40.566406 "/>
<path style=" stroke:none;fill-rule:nonzero;fill:rgb(100%,37.647059%,12.941176%);fill-opacity:1;" d="M 117.125 36.792969 C 117.125 31.957031 113.1875 28.019531 108.3125 28.019531 C 103.441406 28.019531 99.5 31.945312 99.5 36.792969 C 99.5 41.644531 103.441406 45.566406 108.3125 45.566406 C 113.1875 45.566406 117.125 41.644531 117.125 36.792969 Z M 117.125 36.792969 "/>
<path style=" stroke:none;fill-rule:nonzero;fill:rgb(87.058824%,24.705882%,0%);fill-opacity:1;" d="M 114.683594 35.910156 C 114.683594 32.019531 111.503906 28.855469 107.59375 28.855469 C 103.683594 28.855469 100.507812 32.019531 100.507812 35.910156 C 100.507812 39.804688 103.683594 42.964844 107.59375 42.964844 C 111.503906 42.964844 114.683594 39.804688 114.683594 35.910156 Z M 114.683594 35.910156 "/>
<path style=" stroke:none;fill-rule:nonzero;fill:rgb(100%,100%,100%);fill-opacity:1;" d="M 109.152344 31.046875 C 107.886719 29.617188 105.351562 29.785156 103.515625 31.410156 C 101.683594 33.039062 101.226562 35.515625 102.492188 36.945312 C 103.761719 38.375 103.960938 35.59375 105.792969 33.964844 C 107.625 32.339844 110.421875 32.476562 109.152344 31.046875 Z M 109.152344 31.046875 "/>
<path style=" stroke:none;fill-rule:nonzero;fill:rgb(100%,60.392157%,0%);fill-opacity:1;" d="M 106.984375 42.3125 C 108.175781 43.527344 110.695312 42.996094 112.636719 41.113281 C 114.574219 39.242188 115.1875 36.734375 113.996094 35.515625 C 112.804688 34.300781 112.453125 37.066406 110.511719 38.9375 C 108.574219 40.808594 105.792969 41.097656 106.984375 42.3125 Z M 106.984375 42.3125 "/>
<path style=" stroke:none;fill-rule:nonzero;fill:rgb(100%,37.647059%,12.941176%);fill-opacity:1;" d="M 88.5 39.652344 C 88.5 34.800781 84.5625 30.878906 79.6875 30.878906 C 74.816406 30.878906 70.875 34.800781 70.875 39.652344 C 70.875 44.503906 74.816406 48.425781 79.6875 48.425781 C 84.5625 48.425781 88.5 44.503906 88.5 39.652344 Z M 88.5 39.652344 "/>
<path style=" stroke:none;fill-rule:nonzero;fill:rgb(87.058824%,24.705882%,0%);fill-opacity:1;" d="M 86.058594 38.753906 C 86.058594 34.863281 82.878906 31.699219 78.96875 31.699219 C 75.058594 31.699219 71.882812 34.863281 71.882812 38.753906 C 71.882812 42.648438 75.058594 45.808594 78.96875 45.808594 C 82.878906 45.808594 86.058594 42.648438 86.058594 38.753906 Z M 86.058594 38.753906 "/>
<path style=" stroke:none;fill-rule:nonzero;fill:rgb(100%,100%,100%);fill-opacity:1;" d="M 80.527344 33.90625 C 79.246094 32.476562 76.726562 32.644531 74.875 34.269531 C 73.042969 35.898438 72.585938 38.375 73.851562 39.804688 C 75.121094 41.234375 75.320312 38.449219 77.152344 36.824219 C 78.984375 35.199219 81.78125 35.335938 80.511719 33.90625 Z M 80.527344 33.90625 "/>
<path style=" stroke:none;fill-rule:nonzero;fill:rgb(100%,60.392157%,0%);fill-opacity:1;" d="M 78.359375 45.171875 C 79.535156 46.386719 82.070312 45.855469 84.011719 43.96875 C 85.949219 42.101562 86.5625 39.589844 85.371094 38.375 C 84.195312 37.160156 83.828125 39.925781 81.886719 41.796875 C 79.949219 43.667969 77.167969 43.953125 78.359375 45.171875 Z M 78.359375 45.171875 "/>
<path style=" stroke:none;fill-rule:nonzero;fill:rgb(100%,37.647059%,12.941176%);fill-opacity:1;" d="M 63.757812 48.789062 C 63.757812 43.941406 59.816406 40.015625 54.941406 40.015625 C 50.070312 40.015625 46.128906 43.941406 46.128906 48.789062 C 46.128906 53.640625 50.070312 57.5625 54.941406 57.5625 C 59.816406 57.5625 63.757812 53.640625 63.757812 48.789062 Z M 63.757812 48.789062 "/>
<path style=" stroke:none;fill-rule:nonzero;fill:rgb(87.058824%,24.705882%,0%);fill-opacity:1;" d="M 61.3125 47.894531 C 61.3125 44 58.136719 40.839844 54.226562 40.839844 C 50.316406 40.839844 47.136719 44 47.136719 47.894531 C 47.136719 51.785156 50.316406 54.949219 54.226562 54.949219 C 58.136719 54.949219 61.3125 51.785156 61.3125 47.894531 Z M 61.3125 47.894531 "/>
<path style=" stroke:none;fill-rule:nonzero;fill:rgb(100%,100%,100%);fill-opacity:1;" d="M 55.785156 43.042969 C 54.5 41.613281 51.980469 41.78125 50.148438 43.40625 C 48.3125 45.035156 47.855469 47.511719 49.125 48.941406 C 50.390625 50.371094 50.589844 47.589844 52.421875 45.960938 C 54.253906 44.335938 57.050781 44.472656 55.785156 43.042969 Z M 55.785156 43.042969 "/>
<path style=" stroke:none;fill-rule:nonzero;fill:rgb(100%,60.392157%,0%);fill-opacity:1;" d="M 53.613281 54.292969 C 54.804688 55.511719 57.324219 54.976562 59.265625 53.09375 C 61.207031 51.222656 61.816406 48.714844 60.625 47.496094 C 59.449219 46.28125 59.082031 49.046875 57.144531 50.917969 C 55.203125 52.789062 52.421875 53.078125 53.613281 54.292969 Z M 53.613281 54.292969 "/>
<path style=" stroke:none;fill-rule:nonzero;fill:rgb(100%,37.647059%,12.941176%);fill-opacity:1;" d="M 68.078125 40.015625 C 68.078125 35.167969 64.136719 31.246094 59.265625 31.246094 C 54.394531 31.246094 50.453125 35.167969 50.453125 40.015625 C 50.453125 44.867188 54.394531 48.789062 59.265625 48.789062 C 64.136719 48.789062 68.078125 44.867188 68.078125 40.015625 Z M 68.078125 40.015625 "/>
<path style=" stroke:none;fill-rule:nonzero;fill:rgb(87.058824%,24.705882%,0%);fill-opacity:1;" d="M 65.636719 39.121094 C 65.636719 35.226562 62.457031 32.066406 58.546875 32.066406 C 54.636719 32.066406 51.460938 35.226562 51.460938 39.121094 C 51.460938 43.011719 54.636719 46.175781 58.546875 46.175781 C 62.457031 46.175781 65.636719 43.011719 65.636719 39.121094 Z M 65.636719 39.121094 "/>
<path style=" stroke:none;fill-rule:nonzero;fill:rgb(100%,100%,100%);fill-opacity:1;" d="M 60.105469 34.269531 C 58.839844 32.839844 56.300781 33.007812 54.46875 34.636719 C 52.636719 36.261719 52.179688 38.738281 53.445312 40.167969 C 54.714844 41.597656 54.914062 38.816406 56.746094 37.1875 C 58.578125 35.5625 61.375 35.699219 60.105469 34.269531 Z M 60.105469 34.269531 "/>
<path style=" stroke:none;fill-rule:nonzero;fill:rgb(100%,60.392157%,0%);fill-opacity:1;" d="M 57.9375 45.519531 C 59.128906 46.738281 61.648438 46.207031 63.589844 44.320312 C 65.527344 42.449219 66.140625 39.941406 64.949219 38.726562 C 63.773438 37.507812 63.40625 40.277344 61.464844 42.144531 C 59.527344 44.015625 56.746094 44.304688 57.9375 45.519531 Z M 57.9375 45.519531 "/>
<path style=" stroke:none;fill-rule:nonzero;fill:rgb(100%,37.647059%,12.941176%);fill-opacity:1;" d="M 48.101562 43.527344 C 48.101562 38.679688 44.160156 34.757812 39.285156 34.757812 C 34.414062 34.757812 30.472656 38.679688 30.472656 43.527344 C 30.472656 48.378906 34.414062 52.300781 39.285156 52.300781 C 44.160156 52.300781 48.101562 48.378906 48.101562 43.527344 Z M 48.101562 43.527344 "/>
<path style=" stroke:none;fill-rule:nonzero;fill:rgb(87.058824%,24.705882%,0%);fill-opacity:1;" d="M 45.65625 42.632812 C 45.65625 38.738281 42.480469 35.578125 38.570312 35.578125 C 34.660156 35.578125 31.480469 38.738281 31.480469 42.632812 C 31.480469 46.523438 34.660156 49.6875 38.570312 49.6875 C 42.480469 49.6875 45.65625 46.523438 45.65625 42.632812 Z M 45.65625 42.632812 "/>
<path style=" stroke:none;fill-rule:nonzero;fill:rgb(100%,100%,100%);fill-opacity:1;" d="M 40.125 37.765625 C 38.84375 36.335938 36.324219 36.503906 34.476562 38.132812 C 32.640625 39.757812 32.183594 42.238281 33.453125 43.667969 C 34.71875 45.09375 34.917969 42.3125 36.75 40.6875 C 38.582031 39.058594 41.378906 39.195312 40.113281 37.765625 Z M 40.125 37.765625 "/>
<path style=" stroke:none;fill-rule:nonzero;fill:rgb(100%,60.392157%,0%);fill-opacity:1;" d="M 37.957031 49.03125 C 39.148438 50.25 41.667969 49.71875 43.609375 47.832031 C 45.550781 45.960938 46.160156 43.453125 44.96875 42.238281 C 43.792969 41.019531 43.425781 43.789062 41.484375 45.65625 C 39.546875 47.527344 36.765625 47.816406 37.957031 49.03125 Z M 37.957031 49.03125 "/>
<path style=" stroke:none;fill-rule:nonzero;fill:rgb(100%,37.647059%,12.941176%);fill-opacity:1;" d="M 29.386719 42.632812 C 29.386719 37.796875 25.449219 33.859375 20.574219 33.859375 C 15.703125 33.859375 11.761719 37.78125 11.761719 42.632812 C 11.761719 47.480469 15.703125 51.40625 20.574219 51.40625 C 25.449219 51.40625 29.386719 47.480469 29.386719 42.632812 Z M 29.386719 42.632812 "/>
<path style=" stroke:none;fill-rule:nonzero;fill:rgb(87.058824%,24.705882%,0%);fill-opacity:1;" d="M 26.945312 41.734375 C 26.945312 37.84375 23.765625 34.679688 19.855469 34.679688 C 15.945312 34.679688 12.769531 37.84375 12.769531 41.734375 C 12.769531 45.628906 15.945312 48.789062 19.855469 48.789062 C 23.765625 48.789062 26.945312 45.628906 26.945312 41.734375 Z M 26.945312 41.734375 "/>
<path style=" stroke:none;fill-rule:nonzero;fill:rgb(100%,100%,100%);fill-opacity:1;" d="M 21.414062 36.871094 C 20.148438 35.441406 17.613281 35.609375 15.777344 37.234375 C 13.945312 38.863281 13.488281 41.339844 14.753906 42.769531 C 16.023438 44.199219 16.222656 41.414062 18.054688 39.789062 C 19.886719 38.164062 22.683594 38.300781 21.414062 36.871094 Z M 21.414062 36.871094 "/>
<path style=" stroke:none;fill-rule:nonzero;fill:rgb(100%,60.392157%,0%);fill-opacity:1;" d="M 19.246094 48.136719 C 20.4375 49.351562 22.957031 48.820312 24.898438 46.933594 C 26.835938 45.066406 27.449219 42.554688 26.257812 41.339844 C 25.082031 40.125 24.714844 42.890625 22.773438 44.761719 C 20.835938 46.632812 18.054688 46.917969 19.246094 48.136719 Z M 19.246094 48.136719 "/>
<path style=" stroke:none;fill-rule:nonzero;fill:rgb(100%,37.647059%,12.941176%);fill-opacity:1;" d="M 78.039062 49.6875 C 78.039062 44.851562 74.097656 40.914062 69.226562 40.914062 C 64.351562 40.914062 60.410156 44.835938 60.410156 49.6875 C 60.410156 54.535156 64.351562 58.460938 69.226562 58.460938 C 74.097656 58.460938 78.039062 54.535156 78.039062 49.6875 Z M 78.039062 49.6875 "/>
<path style=" stroke:none;fill-rule:nonzero;fill:rgb(87.058824%,24.705882%,0%);fill-opacity:1;" d="M 75.59375 48.789062 C 75.59375 44.898438 72.417969 41.734375 68.507812 41.734375 C 64.597656 41.734375 61.417969 44.898438 61.417969 48.789062 C 61.417969 52.683594 64.597656 55.84375 68.507812 55.84375 C 72.417969 55.84375 75.59375 52.683594 75.59375 48.789062 Z M 75.59375 48.789062 "/>
<path style=" stroke:none;fill-rule:nonzero;fill:rgb(100%,100%,100%);fill-opacity:1;" d="M 70.066406 43.925781 C 68.78125 42.496094 66.261719 42.664062 64.429688 44.289062 C 62.597656 45.917969 62.136719 48.394531 63.40625 49.824219 C 64.671875 51.253906 64.871094 48.46875 66.703125 46.84375 C 68.539062 45.21875 71.332031 45.355469 70.066406 43.925781 Z M 70.066406 43.925781 "/>
<path style=" stroke:none;fill-rule:nonzero;fill:rgb(100%,60.392157%,0%);fill-opacity:1;" d="M 67.894531 55.191406 C 69.074219 56.40625 71.609375 55.875 73.546875 53.988281 C 75.488281 52.121094 76.097656 49.609375 74.90625 48.394531 C 73.730469 47.179688 73.363281 49.945312 71.425781 51.816406 C 69.484375 53.6875 66.703125 53.972656 67.894531 55.191406 Z M 67.894531 55.191406 "/>
<path style=" stroke:none;fill-rule:nonzero;fill:rgb(100%,37.647059%,12.941176%);fill-opacity:1;" d="M 98.140625 48.425781 C 98.140625 43.589844 94.199219 39.652344 89.328125 39.652344 C 84.453125 39.652344 80.511719 43.574219 80.511719 48.425781 C 80.511719 53.273438 84.453125 57.199219 89.328125 57.199219 C 94.199219 57.199219 98.140625 53.273438 98.140625 48.425781 Z M 98.140625 48.425781 "/>
<path style=" stroke:none;fill-rule:nonzero;fill:rgb(87.058824%,24.705882%,0%);fill-opacity:1;" d="M 95.679688 47.527344 C 95.679688 43.636719 92.503906 40.472656 88.59375 40.472656 C 84.683594 40.472656 81.507812 43.636719 81.507812 47.527344 C 81.507812 51.421875 84.683594 54.582031 88.59375 54.582031 C 92.503906 54.582031 95.679688 51.421875 95.679688 47.527344 Z M 95.679688 47.527344 "/>
<path style=" stroke:none;fill-rule:nonzero;fill:rgb(100%,100%,100%);fill-opacity:1;" d="M 90.152344 42.679688 C 88.867188 41.25 86.347656 41.414062 84.515625 43.042969 C 82.683594 44.667969 82.222656 47.148438 83.492188 48.578125 C 84.757812 50.007812 84.957031 47.222656 86.789062 45.597656 C 88.625 43.96875 91.417969 44.105469 90.152344 42.679688 Z M 90.152344 42.679688 "/>
<path style=" stroke:none;fill-rule:nonzero;fill:rgb(100%,60.392157%,0%);fill-opacity:1;" d="M 87.996094 53.929688 C 89.1875 55.144531 91.710938 54.613281 93.648438 52.726562 C 95.589844 50.859375 96.199219 48.347656 95.007812 47.132812 C 93.832031 45.917969 93.464844 48.683594 91.527344 50.554688 C 89.585938 52.421875 86.804688 52.710938 87.996094 53.929688 Z M 87.996094 53.929688 "/>
<path style=" stroke:none;fill-rule:nonzero;fill:rgb(100%,37.647059%,12.941176%);fill-opacity:1;" d="M 110.574219 45.566406 C 110.574219 40.714844 106.632812 36.792969 101.761719 36.792969 C 96.886719 36.792969 92.945312 40.714844 92.945312 45.566406 C 92.945312 50.417969 96.886719 54.339844 101.761719 54.339844 C 106.632812 54.339844 110.574219 50.417969 110.574219 45.566406 Z M 110.574219 45.566406 "/>
<path style=" stroke:none;fill-rule:nonzero;fill:rgb(87.058824%,24.705882%,0%);fill-opacity:1;" d="M 108.128906 44.667969 C 108.128906 40.777344 104.953125 37.613281 101.042969 37.613281 C 97.132812 37.613281 93.953125 40.777344 93.953125 44.667969 C 93.953125 48.5625 97.132812 51.722656 101.042969 51.722656 C 104.953125 51.722656 108.128906 48.5625 108.128906 44.667969 Z M 108.128906 44.667969 "/>
<path style=" stroke:none;fill-rule:nonzero;fill:rgb(100%,100%,100%);fill-opacity:1;" d="M 102.601562 39.820312 C 101.332031 38.390625 98.796875 38.558594 96.964844 40.183594 C 95.132812 41.8125 94.671875 44.289062 95.941406 45.71875 C 97.207031 47.148438 97.40625 44.367188 99.238281 42.738281 C 101.074219 41.113281 103.867188 41.25 102.601562 39.820312 Z M 102.601562 39.820312 "/>
<path style=" stroke:none;fill-rule:nonzero;fill:rgb(100%,60.392157%,0%);fill-opacity:1;" d="M 100.429688 51.085938 C 101.621094 52.300781 104.144531 51.769531 106.082031 49.882812 C 108.023438 48.015625 108.632812 45.503906 107.441406 44.289062 C 106.265625 43.074219 105.898438 45.839844 103.960938 47.710938 C 102.019531 49.582031 99.238281 49.871094 100.429688 51.085938 Z M 100.429688 51.085938 "/>
<path style=" stroke:none;fill-rule:nonzero;fill:rgb(1.176471%,3.137255%,0%);fill-opacity:1;" d="M 62.824219 51.9375 C 30.183594 51.9375 3.726562 42.402344 3.726562 30.667969 L 3.726562 99.996094 L 121.921875 99.996094 L 121.921875 30.652344 C 121.921875 42.402344 95.46875 51.921875 62.824219 51.921875 Z M 62.824219 51.9375 "/>
<path style=" stroke:none;fill-rule:nonzero;fill:rgb(6.666667%,18.823529%,0%);fill-opacity:1;" d="M 42.019531 99.160156 C 54.300781 97.867188 47.199219 90.433594 45.167969 87.027344 C 36.03125 82.132812 37.683594 79.898438 41.105469 76.265625 C 42.355469 69.46875 44.738281 69.390625 39.898438 68.8125 C 36.09375 65.179688 34.445312 68.644531 38.476562 64.585938 C 38.476562 64.359375 42.507812 65.484375 32.6875 62.71875 C 31.511719 62.578125 31.558594 62.261719 34.292969 59.796875 C 37.378906 56.679688 36.003906 58.808594 28.714844 57.578125 C 33.863281 55.84375 15.414062 51.585938 12.890625 50.113281 C 5.316406 45.703125 2.980469 46.964844 5.40625 89.203125 C 5.910156 97.976562 6.644531 104.574219 7.578125 109.589844 C 8.507812 114.609375 9.652344 118.027344 10.953125 120.445312 C 12.984375 121.496094 22.058594 129.339844 24.867188 129.859375 C 35.023438 137.902344 33.695312 132.929688 40.492188 133.234375 C 39.53125 137.871094 48.007812 134.128906 57.402344 134.101562 C 57.875 132.335938 43.058594 126.894531 41.609375 125.660156 C 40.140625 124.429688 52.027344 127.425781 60.976562 124.78125 C 55.050781 122.027344 43.074219 113.652344 39.730469 110.867188 C 50.148438 106.003906 46.679688 102.808594 42.035156 99.160156 Z M 42.019531 99.160156 "/>
<use xlink:href="#surface5" mask="url(#mask0)"/>
</g>
</svg>
