<?xml version="1.0" encoding="UTF-8"?>
<svg xmlns="http://www.w3.org/2000/svg" viewBox="0 0 98 72.62">
  <defs>
    <style>
      .cls-1 {
        fill: #ece2ac;
      }

      .cls-2 {
        fill: #e61300;
      }

      .cls-3 {
        fill: #fff;
      }

      .cls-4 {
        fill: #f4493a;
      }

      .cls-5 {
        fill: #fcfbe6;
      }

      .cls-6 {
        fill: #ff685a;
      }

      .cls-7 {
        fill: #b8b5aa;
        mix-blend-mode: multiply;
      }

      .cls-8 {
        isolation: isolate;
      }
    </style>
  </defs>
  <g class="cls-8">
    <g id="Layer_2" data-name="Layer 2">
      <g id="_图层_5" data-name="图层 5">
        <g id="_图层_1_274" data-name="图层 1,274">
          <path class="cls-7" d="M91.5,65.12c-.09-.17-.26-.33-.45-.49,.69-.51,.77-1.5,.06-2.57-.33-.5-.79-.94-1.3-1.31,.45-.31,.81-.71,1.01-1.2,.5-1.24-.2-2.53-1.57-3.06,1.17-.61,1.56-1.46,.82-2.13-.87-.79-2.96-1.06-4.88-.68-.05-.05-.11-.1-.17-.15,.1-.1,.19-.19,.28-.3,.96-1.3,.41-2.81-1.24-3.37-.32-.11-.67-.16-1.02-.19-.41-.79-1.9-1.68-3.89-2.25-.97-.27-1.92-.43-2.76-.48-.03-.16-.08-.32-.15-.49-.61-1.49-2.43-2.7-4.07-2.68-.15,0-.28,.02-.42,.04-.8-.73-2.77-1.26-4.85-1.23-.64,0-1.22,.07-1.73,.17,0-.06,.03-.11,.03-.17,.11-1.52-1.24-2.98-3.02-3.24-.44-.07-.86-.05-1.25,.03-.92-.78-3.07-1.29-5.3-1.2-.94,.04-1.75,.18-2.39,.39-.81-1.44-2.69-2.54-4.26-2.46-1.12,.05-1.78,.67-1.84,1.54-.05-.08-.08-.17-.13-.25-.93-1.46-2.94-2.53-4.49-2.4-.44,.04-.79,.18-1.06,.39-1.06-.52-2.81-.79-4.54-.63-.94,.09-1.72,.28-2.3,.55-.97-1.3-2.75-2.23-4.22-2.14-1.44,.09-2.11,1.11-1.68,2.39-.02,0-.04,0-.06,0-1.37-1.41-3.59-2.31-5.08-2.03-1.17,.22-1.55,1.1-1.09,2.17-1.62-1.33-3.94-2.09-5.31-1.7-1.34,.38-1.27,1.71,.06,3.07-.18-.06-.36-.12-.56-.17-2.57-.69-5-.55-5.42,.33-.17,.34,.01,.75,.43,1.16-.77-.22-1.52-.29-2.11-.15-1.42,.35-1.41,1.75,0,3.16-.85,.29-1.57,.84-1.91,1.59-.43,.93-.18,1.9,.55,2.57-1.13,.17-1.87,.57-1.88,1.12-.02,.75,1.3,1.57,3.14,2.07-.81,.09-1.4,.33-1.59,.72-.45,.89,1.31,2.2,3.93,2.92,.17,.05,.33,.08,.5,.12-.4,.21-.65,.47-.65,.79,0,1,2.22,2.1,4.97,2.46,.02,0,.04,0,.07,0-.56,.25-.88,.58-.81,.98,.15,.98,2.41,1.94,5.06,2.14,.42,.03,.81,.04,1.2,.03-.82,.68-.95,1.49-.16,2.1,.96,.74,2.93,.94,4.75,.55,.45,.8,2.17,1.63,4.34,2,.97,.16,1.88,.21,2.66,.16,.03,.11,.04,.22,.09,.34,.58,1.57,2.45,2.85,4.19,2.86,.74,0,1.33-.24,1.72-.63,.09,.13,.18,.26,.29,.4,1.19,1.39,3.31,2.31,4.74,2.07,.36-.06,.64-.19,.84-.37,.19,.45,.59,.85,1.21,1.09,1.17,.46,2.72,.27,3.86-.39,.05,.15,.13,.29,.26,.43,.91,.93,3.46,1.27,5.7,.77,.53-.12,.99-.28,1.38-.46,.33,1.42,1.78,2.63,3.43,2.79,1.17,.11,2.13-.34,2.62-1.1,.22,.34,.57,.64,1.07,.84,1.5,.61,3.66,.17,4.82-.98,0,0,0,0,0,0,.23,.29,.56,.55,1.01,.73,1.56,.64,3.81,.18,5.01-1.02,0,0,0-.01,.01-.02,.21,.22,.48,.42,.83,.57,1.49,.64,3.7,.24,4.94-.89,.51-.46,.76-.98,.79-1.47,1.89,.7,3.81,.84,4.56,.27,.7-.54,.15-1.53-1.21-2.43,.02-.01,.03-.03,.05-.04,.59,.06,1.21,.09,1.83,.06,2.57-.11,4.25-1.01,3.74-2.01Z"/>
        </g>
        <g id="_图层_1_273" data-name="图层 1,273">
          <path class="cls-1" d="M93.27,44.17c-.12-.28-.31-.52-.53-.73,.59-1.15,.48-2.95-.41-4.64-.41-.78-.94-1.43-1.52-1.93,.39-.7,.67-1.55,.78-2.5,.27-2.39-.65-4.48-2.1-4.99,1.04-1.49,1.27-3.14,.42-4.11-1-1.13-3.1-.92-4.92,.39-.06-.07-.13-.15-.19-.22,.08-.21,.16-.41,.22-.64,.71-2.66-.11-5.2-1.83-5.66-.34-.09-.69-.07-1.03,0-.55-1.29-2.17-2.4-4.23-2.76-1-.17-1.96-.14-2.8,.06-.06-.28-.13-.56-.23-.84-.87-2.49-2.88-4.05-4.49-3.49-.15,.05-.28,.13-.41,.22-.92-1.05-2.95-1.35-4.99-.61-.63,.23-1.19,.53-1.67,.88,0-.11,0-.21,0-.32-.17-2.78-1.76-4.95-3.56-4.84-.44,.03-.85,.19-1.22,.46-1.05-1.09-3.26-1.31-5.43-.41-.91,.38-1.69,.91-2.28,1.5-1.06-2.32-3.1-3.68-4.64-3.03-1.09,.46-1.63,1.8-1.53,3.39-.06-.14-.11-.28-.18-.41-1.18-2.32-3.35-3.59-4.85-2.83-.43,.22-.75,.59-.97,1.04-1.14-.58-2.9-.49-4.58,.36-.91,.46-1.64,1.08-2.16,1.74-1.19-2.02-3.1-3.1-4.54-2.45-1.4,.63-1.87,2.7-1.22,4.86-.02,0-.04,.01-.06,.02-1.6-2.08-3.94-2.97-5.36-1.98-1.11,.78-1.33,2.5-.68,4.27-1.84-1.86-4.25-2.46-5.53-1.31-1.25,1.12-.94,3.5,.62,5.5-.19-.05-.38-.1-.58-.13-2.65-.4-5.01,.67-5.27,2.38-.1,.67,.15,1.35,.63,1.94-.8-.14-1.54-.02-2.1,.43-1.33,1.09-1.07,3.61,.56,5.69-.78,.8-1.39,2.03-1.6,3.49-.26,1.81,.17,3.47,1,4.44-1.08,.68-1.73,1.63-1.64,2.64,.12,1.36,1.56,2.4,3.46,2.68-.78,.44-1.32,1.06-1.44,1.82-.28,1.75,1.69,3.52,4.4,3.95,.17,.03,.34,.03,.51,.05-.36,.51-.56,1.06-.5,1.63,.17,1.8,2.56,3.04,5.34,2.78,.02,0,.04,0,.07-.01-.51,.63-.75,1.34-.62,2.04,.32,1.71,2.72,2.69,5.36,2.19,.42-.08,.81-.2,1.18-.34-.68,1.49-.66,2.99,.22,3.83,1.08,1.02,3.06,.72,4.77-.57,.58,1.29,2.43,2.22,4.63,2.16,.98-.02,1.89-.24,2.64-.59,.05,.19,.08,.39,.15,.58,.85,2.64,2.93,4.32,4.63,3.77,.73-.24,1.26-.87,1.58-1.7,.11,.21,.22,.42,.36,.62,1.42,2.11,3.67,3.07,5.04,2.15,.34-.23,.59-.55,.76-.94,.27,.75,.73,1.33,1.39,1.57,1.24,.45,2.72-.41,3.73-1.98,.08,.25,.18,.48,.34,.68,1.06,1.37,3.63,1.14,5.74-.5,.5-.39,.93-.83,1.28-1.28,.58,2.44,2.22,4.15,3.88,3.9,1.17-.18,2.04-1.31,2.38-2.84,.28,.54,.68,.97,1.2,1.17,1.59,.6,3.63-.9,4.56-3.35,0,0,0,0,0,0,.28,.45,.65,.8,1.12,.98,1.65,.63,3.78-.93,4.75-3.49,0-.01,0-.02,0-.03,.24,.34,.55,.6,.92,.76,1.58,.65,3.68-.8,4.69-3.24,.42-1,.57-2.01,.51-2.9,1.99,.64,3.9,.26,4.53-1.02,.59-1.2-.13-2.8-1.62-3.98,.02-.03,.03-.06,.04-.09,.59-.08,1.2-.24,1.81-.5,2.51-1.05,3.99-3.22,3.31-4.84Z"/>
        </g>
        <g id="_图层_1_272" data-name="图层 1,272">
          <path class="cls-5" d="M75.51,30.89s-.05,0-.08-.02c.09-.19,.19-.37,.26-.57,.92-2.41,.39-4.85-1.17-5.45-.79-.3-1.69-.07-2.5,.54,.69-2.13,.23-4.21-1.15-4.78-.64-.26-1.36-.15-2.05,.23-.37-1.02-1.35-2.06-2.7-2.73-.7-.34-1.4-.53-2.07-.61,.09-.45,.07-.88-.09-1.29-.64-1.54-3.09-1.98-5.46-.98-.52,.22-.98,.49-1.39,.79-.12-.44-.28-.88-.51-1.31-1.15-2.18-3.23-3.35-4.64-2.61-.02,.01-.04,.03-.06,.05-.02-.07-.02-.14-.05-.2-.22-.54-.68-.94-1.26-1.2-.43-.64-.99-1.07-1.66-1.15-.84-.1-1.66,.38-2.29,1.21-.12,.04-.23,.07-.35,.12-.86,.36-1.59,.86-2.16,1.42-1-2.2-2.93-3.48-4.39-2.86-1.03,.43-1.54,1.7-1.45,3.2-.06-.13-.1-.26-.17-.39-1.11-2.2-3.16-3.39-4.59-2.68-.49,.25-.83,.7-1.04,1.27-1.08-.45-2.64-.34-4.14,.43-1.08,.55-1.91,1.33-2.4,2.15-1.1-1.3-2.53-1.91-3.65-1.4-1.36,.61-1.79,2.65-1.09,4.75-1.52-2.06-3.8-2.96-5.17-2-1.36,.95-1.29,3.38,.1,5.5-1.33-.68-2.69-.73-3.53,.02-1.26,1.14-.86,3.64,.9,5.6,.09,.1,.19,.18,.28,.28-2.38-.26-4.45,.72-4.69,2.28-.19,1.24,.85,2.48,2.47,3.16-1.04,1.14-.73,3.41,.8,5.28,.6,.73,1.3,1.29,2,1.66-.12,.37-.22,.75-.28,1.17-.36,2.55,.68,4.8,2.33,5.03,.11,.02,.21,0,.31,0,.19,1.57,2.22,2.67,4.64,2.54-.09,1.59,1.7,3.15,4.16,3.54,.53,.08,1.04,.09,1.53,.06,.6,1.33,2.59,2.18,4.86,1.97,.3-.03,.58-.08,.86-.14,.4,1.53,2.6,2.4,5.03,1.94,.49-.09,.95-.25,1.38-.43-.07,.82,.12,1.56,.64,2.05,1.2,1.14,3.61,.56,5.37-1.3,.06-.07,.11-.13,.17-.2,.83,.71,2.17,1.17,3.68,1.13,1.32-.03,2.49-.44,3.3-1.04,.93,2,2.63,3.19,4.05,2.73,1.42-.46,2.1-2.43,1.67-4.6,.07,.11,.12,.22,.2,.34,1.34,1.99,3.47,2.9,4.76,2.04,.67-.45,.97-1.29,.93-2.27,.18,.15,.37,.28,.59,.36,1.47,.53,3.33-.87,4.16-3.15,.11-.3,.19-.6,.25-.9,1.04-.03,2.23-.46,3.31-1.3,1.05-.81,1.76-1.83,2.06-2.81,1.6-.38,2.57-2.62,2.18-5.15-.14-.9-.44-1.71-.83-2.38,.38-.49,.72-1.06,.97-1.71,.88-2.32,.38-4.66-1.12-5.23Z"/>
        </g>
        <g id="_图层_1_271" data-name="图层 1,271">
          <path class="cls-3" d="M48.35,41.46c1.24-4.45-3.9-9.76-11.46-11.86-7.56-2.1-14.7-.19-15.93,4.27-1.24,4.45,3.9,9.76,11.46,11.86,7.56,2.1,14.7,.19,15.93-4.26Z"/>
        </g>
        <g id="_图层_1_270" data-name="图层 1,270">
          <path class="cls-2" d="M1.38,24.33C6.16,17.95,23.95-1.85,43.07,.14c19.12,1.99,50.37,13.54,54.32,44.51,2.83,22.12-4.38,11.55-17.93,4.78-13.54-6.77-45.02-21.91-65.34-20.72C-6.19,29.91,1.38,24.33,1.38,24.33Z"/>
        </g>
        <g id="_图层_1_269" data-name="图层 1,269">
          <path class="cls-4" d="M95.4,55.59c-1.41,0-4.03-1.65-7.06-3.57-2.44-1.54-5.2-3.28-8.34-4.86-27.75-13.87-49.12-20.91-63.53-20.91-.82,0-1.62,.02-2.41,.07-1.87,.11-3.58,.17-5.08,.17-7.09,0-7.78-1.26-7.79-1.27-.02-.2,.46-.8,.9-1.12l.14-.1,.11-.14C3.07,22.88,20.45,0,40.36,0c.87,0,1.74,.04,2.59,.13,4.95,.51,48.49,6.11,53.26,43.47,.85,6.68,.8,10.63-.17,11.73-.13,.15-.29,.25-.63,.25Z"/>
        </g>
        <g id="_图层_1_268" data-name="图层 1,268">
          <path class="cls-6" d="M43.07,.14C23.95-1.85,6.16,17.95,1.38,24.33c0,0-.22,.16-.47,.42,1.92-.07,4.41-.35,7.64-.92,19.2-3.4,48.48,3.69,62.18,9.71,13.69,6.02,24.75,6.19,21.71-4.54C81.97,9.63,58.55,1.75,43.07,.14Z"/>
        </g>
        <g id="_图层_1_267" data-name="图层 1,267">
          <path class="cls-3" d="M37.17,3.84c1.71-1.32,3.48-2.57,5.28-3.75-.65-.05-1.3-.08-1.95-.08C29.81,7.42,20.75,17.36,14.4,28.7c.36-.02,.72-.03,1.09-.04,5.53-9.63,12.99-18.11,21.69-24.82Z"/>
        </g>
        <g id="_图层_1_266" data-name="图层 1,266">
          <path class="cls-3" d="M34.55,31.31c2.43-3.42,5.15-6.69,8.1-9.74,2.24-2.33,4.61-4.5,7.09-6.5,4.82-3.58,9.99-6.7,15.38-9.24-.99-.42-1.98-.81-2.98-1.17-2.15,1.07-4.26,2.3-6.31,3.7-2.74,1.65-5.35,3.47-7.82,5.46-2.47,1.99-4.78,4.15-6.92,6.47-2.91,3.08-5.55,6.41-7.87,9.94-.15,.23-.28,.46-.43,.69,.57,.14,1.14,.29,1.72,.43,.01-.02,.02-.03,.03-.05Z"/>
        </g>
        <g id="_图层_1_265" data-name="图层 1,265">
          <path class="cls-3" d="M26.32,29.56c4.06-6.01,8.87-11.67,14.28-16.67,2.89-2.68,5.96-5.16,9.17-7.39,1.71-1.11,3.48-2.14,5.26-3.12-1.29-.35-2.57-.65-3.82-.92-.84,.5-1.68,1.01-2.49,1.53-3.31,2.23-6.45,4.73-9.4,7.46-5.89,5.45-10.98,11.82-15.05,18.78,.68,.1,1.36,.21,2.05,.32Z"/>
        </g>
        <g id="_图层_1_264" data-name="图层 1,264">
          <path class="cls-3" d="M25.94,3.56c-3.56,1.7-6.9,3.86-9.93,6.17C10.96,15.44,6.6,21.77,3.05,28.43c.59,.12,1.28,.22,2.09,.29,.16-.29,.31-.58,.48-.86C11.16,19.34,17.99,10.79,25.94,3.56Z"/>
        </g>
        <g id="_图层_1_263" data-name="图层 1,263">
          <path class="cls-3" d="M95.9,37.53c-4.33,.91-8.57,2.4-12.64,4.83-2.66,1.66-5.12,3.42-7.33,5.31,.29,.14,.59,.29,.87,.43,5.5-4.16,12.35-6.38,19.84-7.63-.22-1-.47-1.98-.75-2.94Z"/>
        </g>
        <g id="_图层_1_262" data-name="图层 1,262">
          <path class="cls-3" d="M94.89,34.45c-.62-1.66-1.32-3.25-2.11-4.77-10.01,2.28-19.01,6.58-25.71,13.8,.37,.17,.73,.34,1.09,.5,7.09-5.86,16.5-8.42,26.72-9.53Z"/>
        </g>
        <g id="_图层_1_261" data-name="图层 1,261">
          <path class="cls-3" d="M97.75,47.83c-.04-.44-.08-.88-.14-1.35-4.64,1.37-9.09,3.27-12.96,5.84,.31,.19,.62,.38,.92,.56,3.7-2.33,7.81-3.93,12.18-5.06Z"/>
        </g>
        <g id="_图层_1_260" data-name="图层 1,260">
          <path class="cls-3" d="M49.74,25.45c7.2-6.69,15.73-11.6,24.91-14.72-1.31-.81-2.64-1.57-3.99-2.28-9.98,3.43-19.03,9.28-25.98,18.17-1.62,2-3.07,4.13-4.35,6.38,.62,.19,1.24,.39,1.86,.59,2.33-2.97,4.85-5.69,7.55-8.15Z"/>
        </g>
        <g id="_图层_1_259" data-name="图层 1,259">
          <path class="cls-3" d="M89.59,24.45c-.63-.89-1.3-1.75-1.99-2.58-12.04,2.07-22.89,7.03-30.68,17.18,.77,.32,1.53,.64,2.29,.96,8.39-8.54,18.92-13.26,30.38-15.56Z"/>
        </g>
        <g id="_图层_1_258" data-name="图层 1,258">
          <path class="cls-3" d="M82.99,17.02c-.65-.59-1.31-1.17-1.98-1.72-12.5,3.43-23.71,10.13-31.49,20.86,.42,.16,.84,.32,1.25,.47,8.21-9.9,19.63-16.3,32.22-19.6Z"/>
        </g>
        <g id="_图层_1_257" data-name="图层 1,257">
          <path class="cls-3" d="M65.1,8.32c.31-2.03-6.25-4.72-14.66-6.01-8.4-1.28-15.47-.68-15.78,1.35-.31,2.03,6.81,1.04,15.22,2.33,8.41,1.29,14.91,4.36,15.22,2.33Z"/>
        </g>
        <g id="_图层_1_256" data-name="图层 1,256">
          <path class="cls-3" d="M92,37.52c1.58-1.32-.51-6.41-4.65-11.37-4.15-4.96-8.79-7.92-10.36-6.6-1.58,1.32,5.63,2.8,7.51,8.99,3.23,10.62,5.93,10.3,7.51,8.99Z"/>
        </g>
      </g>
    </g>
  </g>
</svg>